%TF.GenerationSoftware,KiCad,Pcbnew,9.0.2*%
%TF.CreationDate,2025-07-02T00:41:41+02:00*%
%TF.ProjectId,flex_aufsatz,666c6578-5f61-4756-9673-61747a2e6b69,rev?*%
%TF.SameCoordinates,Original*%
%TF.FileFunction,Legend,Top*%
%TF.FilePolarity,Positive*%
%FSLAX46Y46*%
G04 Gerber Fmt 4.6, Leading zero omitted, Abs format (unit mm)*
G04 Created by KiCad (PCBNEW 9.0.2) date 2025-07-02 00:41:41*
%MOMM*%
%LPD*%
G01*
G04 APERTURE LIST*
%ADD10C,0.150000*%
%ADD11C,0.254000*%
%ADD12C,0.120000*%
%ADD13C,0.200000*%
%ADD14C,0.250000*%
G04 APERTURE END LIST*
D10*
X96766666Y-95354819D02*
X96766666Y-96069104D01*
X96766666Y-96069104D02*
X96719047Y-96211961D01*
X96719047Y-96211961D02*
X96623809Y-96307200D01*
X96623809Y-96307200D02*
X96480952Y-96354819D01*
X96480952Y-96354819D02*
X96385714Y-96354819D01*
X97766666Y-96354819D02*
X97195238Y-96354819D01*
X97480952Y-96354819D02*
X97480952Y-95354819D01*
X97480952Y-95354819D02*
X97385714Y-95497676D01*
X97385714Y-95497676D02*
X97290476Y-95592914D01*
X97290476Y-95592914D02*
X97195238Y-95640533D01*
D11*
X101000237Y-125434318D02*
X101000237Y-124164318D01*
X102330714Y-125313365D02*
X102270238Y-125373842D01*
X102270238Y-125373842D02*
X102088809Y-125434318D01*
X102088809Y-125434318D02*
X101967857Y-125434318D01*
X101967857Y-125434318D02*
X101786428Y-125373842D01*
X101786428Y-125373842D02*
X101665476Y-125252889D01*
X101665476Y-125252889D02*
X101604999Y-125131937D01*
X101604999Y-125131937D02*
X101544523Y-124890032D01*
X101544523Y-124890032D02*
X101544523Y-124708603D01*
X101544523Y-124708603D02*
X101604999Y-124466699D01*
X101604999Y-124466699D02*
X101665476Y-124345746D01*
X101665476Y-124345746D02*
X101786428Y-124224794D01*
X101786428Y-124224794D02*
X101967857Y-124164318D01*
X101967857Y-124164318D02*
X102088809Y-124164318D01*
X102088809Y-124164318D02*
X102270238Y-124224794D01*
X102270238Y-124224794D02*
X102330714Y-124285270D01*
X103540238Y-125434318D02*
X102814523Y-125434318D01*
X103177380Y-125434318D02*
X103177380Y-124164318D01*
X103177380Y-124164318D02*
X103056428Y-124345746D01*
X103056428Y-124345746D02*
X102935476Y-124466699D01*
X102935476Y-124466699D02*
X102814523Y-124527175D01*
D10*
X106723333Y-125924580D02*
X106675714Y-125972200D01*
X106675714Y-125972200D02*
X106532857Y-126019819D01*
X106532857Y-126019819D02*
X106437619Y-126019819D01*
X106437619Y-126019819D02*
X106294762Y-125972200D01*
X106294762Y-125972200D02*
X106199524Y-125876961D01*
X106199524Y-125876961D02*
X106151905Y-125781723D01*
X106151905Y-125781723D02*
X106104286Y-125591247D01*
X106104286Y-125591247D02*
X106104286Y-125448390D01*
X106104286Y-125448390D02*
X106151905Y-125257914D01*
X106151905Y-125257914D02*
X106199524Y-125162676D01*
X106199524Y-125162676D02*
X106294762Y-125067438D01*
X106294762Y-125067438D02*
X106437619Y-125019819D01*
X106437619Y-125019819D02*
X106532857Y-125019819D01*
X106532857Y-125019819D02*
X106675714Y-125067438D01*
X106675714Y-125067438D02*
X106723333Y-125115057D01*
X107104286Y-125115057D02*
X107151905Y-125067438D01*
X107151905Y-125067438D02*
X107247143Y-125019819D01*
X107247143Y-125019819D02*
X107485238Y-125019819D01*
X107485238Y-125019819D02*
X107580476Y-125067438D01*
X107580476Y-125067438D02*
X107628095Y-125115057D01*
X107628095Y-125115057D02*
X107675714Y-125210295D01*
X107675714Y-125210295D02*
X107675714Y-125305533D01*
X107675714Y-125305533D02*
X107628095Y-125448390D01*
X107628095Y-125448390D02*
X107056667Y-126019819D01*
X107056667Y-126019819D02*
X107675714Y-126019819D01*
X110523333Y-125909580D02*
X110475714Y-125957200D01*
X110475714Y-125957200D02*
X110332857Y-126004819D01*
X110332857Y-126004819D02*
X110237619Y-126004819D01*
X110237619Y-126004819D02*
X110094762Y-125957200D01*
X110094762Y-125957200D02*
X109999524Y-125861961D01*
X109999524Y-125861961D02*
X109951905Y-125766723D01*
X109951905Y-125766723D02*
X109904286Y-125576247D01*
X109904286Y-125576247D02*
X109904286Y-125433390D01*
X109904286Y-125433390D02*
X109951905Y-125242914D01*
X109951905Y-125242914D02*
X109999524Y-125147676D01*
X109999524Y-125147676D02*
X110094762Y-125052438D01*
X110094762Y-125052438D02*
X110237619Y-125004819D01*
X110237619Y-125004819D02*
X110332857Y-125004819D01*
X110332857Y-125004819D02*
X110475714Y-125052438D01*
X110475714Y-125052438D02*
X110523333Y-125100057D01*
X111475714Y-126004819D02*
X110904286Y-126004819D01*
X111190000Y-126004819D02*
X111190000Y-125004819D01*
X111190000Y-125004819D02*
X111094762Y-125147676D01*
X111094762Y-125147676D02*
X110999524Y-125242914D01*
X110999524Y-125242914D02*
X110904286Y-125290533D01*
X105573333Y-122449580D02*
X105525714Y-122497200D01*
X105525714Y-122497200D02*
X105382857Y-122544819D01*
X105382857Y-122544819D02*
X105287619Y-122544819D01*
X105287619Y-122544819D02*
X105144762Y-122497200D01*
X105144762Y-122497200D02*
X105049524Y-122401961D01*
X105049524Y-122401961D02*
X105001905Y-122306723D01*
X105001905Y-122306723D02*
X104954286Y-122116247D01*
X104954286Y-122116247D02*
X104954286Y-121973390D01*
X104954286Y-121973390D02*
X105001905Y-121782914D01*
X105001905Y-121782914D02*
X105049524Y-121687676D01*
X105049524Y-121687676D02*
X105144762Y-121592438D01*
X105144762Y-121592438D02*
X105287619Y-121544819D01*
X105287619Y-121544819D02*
X105382857Y-121544819D01*
X105382857Y-121544819D02*
X105525714Y-121592438D01*
X105525714Y-121592438D02*
X105573333Y-121640057D01*
X106430476Y-121544819D02*
X106240000Y-121544819D01*
X106240000Y-121544819D02*
X106144762Y-121592438D01*
X106144762Y-121592438D02*
X106097143Y-121640057D01*
X106097143Y-121640057D02*
X106001905Y-121782914D01*
X106001905Y-121782914D02*
X105954286Y-121973390D01*
X105954286Y-121973390D02*
X105954286Y-122354342D01*
X105954286Y-122354342D02*
X106001905Y-122449580D01*
X106001905Y-122449580D02*
X106049524Y-122497200D01*
X106049524Y-122497200D02*
X106144762Y-122544819D01*
X106144762Y-122544819D02*
X106335238Y-122544819D01*
X106335238Y-122544819D02*
X106430476Y-122497200D01*
X106430476Y-122497200D02*
X106478095Y-122449580D01*
X106478095Y-122449580D02*
X106525714Y-122354342D01*
X106525714Y-122354342D02*
X106525714Y-122116247D01*
X106525714Y-122116247D02*
X106478095Y-122021009D01*
X106478095Y-122021009D02*
X106430476Y-121973390D01*
X106430476Y-121973390D02*
X106335238Y-121925771D01*
X106335238Y-121925771D02*
X106144762Y-121925771D01*
X106144762Y-121925771D02*
X106049524Y-121973390D01*
X106049524Y-121973390D02*
X106001905Y-122021009D01*
X106001905Y-122021009D02*
X105954286Y-122116247D01*
D11*
X106022380Y-115394318D02*
X106022380Y-116422413D01*
X106022380Y-116422413D02*
X106082857Y-116543365D01*
X106082857Y-116543365D02*
X106143333Y-116603842D01*
X106143333Y-116603842D02*
X106264285Y-116664318D01*
X106264285Y-116664318D02*
X106506190Y-116664318D01*
X106506190Y-116664318D02*
X106627142Y-116603842D01*
X106627142Y-116603842D02*
X106687619Y-116543365D01*
X106687619Y-116543365D02*
X106748095Y-116422413D01*
X106748095Y-116422413D02*
X106748095Y-115394318D01*
X108018095Y-116664318D02*
X107292380Y-116664318D01*
X107655237Y-116664318D02*
X107655237Y-115394318D01*
X107655237Y-115394318D02*
X107534285Y-115575746D01*
X107534285Y-115575746D02*
X107413333Y-115696699D01*
X107413333Y-115696699D02*
X107292380Y-115757175D01*
D10*
X116366666Y-97154819D02*
X116366666Y-97869104D01*
X116366666Y-97869104D02*
X116319047Y-98011961D01*
X116319047Y-98011961D02*
X116223809Y-98107200D01*
X116223809Y-98107200D02*
X116080952Y-98154819D01*
X116080952Y-98154819D02*
X115985714Y-98154819D01*
X116795238Y-97250057D02*
X116842857Y-97202438D01*
X116842857Y-97202438D02*
X116938095Y-97154819D01*
X116938095Y-97154819D02*
X117176190Y-97154819D01*
X117176190Y-97154819D02*
X117271428Y-97202438D01*
X117271428Y-97202438D02*
X117319047Y-97250057D01*
X117319047Y-97250057D02*
X117366666Y-97345295D01*
X117366666Y-97345295D02*
X117366666Y-97440533D01*
X117366666Y-97440533D02*
X117319047Y-97583390D01*
X117319047Y-97583390D02*
X116747619Y-98154819D01*
X116747619Y-98154819D02*
X117366666Y-98154819D01*
X99789580Y-127266666D02*
X99837200Y-127314285D01*
X99837200Y-127314285D02*
X99884819Y-127457142D01*
X99884819Y-127457142D02*
X99884819Y-127552380D01*
X99884819Y-127552380D02*
X99837200Y-127695237D01*
X99837200Y-127695237D02*
X99741961Y-127790475D01*
X99741961Y-127790475D02*
X99646723Y-127838094D01*
X99646723Y-127838094D02*
X99456247Y-127885713D01*
X99456247Y-127885713D02*
X99313390Y-127885713D01*
X99313390Y-127885713D02*
X99122914Y-127838094D01*
X99122914Y-127838094D02*
X99027676Y-127790475D01*
X99027676Y-127790475D02*
X98932438Y-127695237D01*
X98932438Y-127695237D02*
X98884819Y-127552380D01*
X98884819Y-127552380D02*
X98884819Y-127457142D01*
X98884819Y-127457142D02*
X98932438Y-127314285D01*
X98932438Y-127314285D02*
X98980057Y-127266666D01*
X98884819Y-126933332D02*
X98884819Y-126314285D01*
X98884819Y-126314285D02*
X99265771Y-126647618D01*
X99265771Y-126647618D02*
X99265771Y-126504761D01*
X99265771Y-126504761D02*
X99313390Y-126409523D01*
X99313390Y-126409523D02*
X99361009Y-126361904D01*
X99361009Y-126361904D02*
X99456247Y-126314285D01*
X99456247Y-126314285D02*
X99694342Y-126314285D01*
X99694342Y-126314285D02*
X99789580Y-126361904D01*
X99789580Y-126361904D02*
X99837200Y-126409523D01*
X99837200Y-126409523D02*
X99884819Y-126504761D01*
X99884819Y-126504761D02*
X99884819Y-126790475D01*
X99884819Y-126790475D02*
X99837200Y-126885713D01*
X99837200Y-126885713D02*
X99789580Y-126933332D01*
X108623333Y-125949580D02*
X108575714Y-125997200D01*
X108575714Y-125997200D02*
X108432857Y-126044819D01*
X108432857Y-126044819D02*
X108337619Y-126044819D01*
X108337619Y-126044819D02*
X108194762Y-125997200D01*
X108194762Y-125997200D02*
X108099524Y-125901961D01*
X108099524Y-125901961D02*
X108051905Y-125806723D01*
X108051905Y-125806723D02*
X108004286Y-125616247D01*
X108004286Y-125616247D02*
X108004286Y-125473390D01*
X108004286Y-125473390D02*
X108051905Y-125282914D01*
X108051905Y-125282914D02*
X108099524Y-125187676D01*
X108099524Y-125187676D02*
X108194762Y-125092438D01*
X108194762Y-125092438D02*
X108337619Y-125044819D01*
X108337619Y-125044819D02*
X108432857Y-125044819D01*
X108432857Y-125044819D02*
X108575714Y-125092438D01*
X108575714Y-125092438D02*
X108623333Y-125140057D01*
X109528095Y-125044819D02*
X109051905Y-125044819D01*
X109051905Y-125044819D02*
X109004286Y-125521009D01*
X109004286Y-125521009D02*
X109051905Y-125473390D01*
X109051905Y-125473390D02*
X109147143Y-125425771D01*
X109147143Y-125425771D02*
X109385238Y-125425771D01*
X109385238Y-125425771D02*
X109480476Y-125473390D01*
X109480476Y-125473390D02*
X109528095Y-125521009D01*
X109528095Y-125521009D02*
X109575714Y-125616247D01*
X109575714Y-125616247D02*
X109575714Y-125854342D01*
X109575714Y-125854342D02*
X109528095Y-125949580D01*
X109528095Y-125949580D02*
X109480476Y-125997200D01*
X109480476Y-125997200D02*
X109385238Y-126044819D01*
X109385238Y-126044819D02*
X109147143Y-126044819D01*
X109147143Y-126044819D02*
X109051905Y-125997200D01*
X109051905Y-125997200D02*
X109004286Y-125949580D01*
X99933333Y-97059580D02*
X99885714Y-97107200D01*
X99885714Y-97107200D02*
X99742857Y-97154819D01*
X99742857Y-97154819D02*
X99647619Y-97154819D01*
X99647619Y-97154819D02*
X99504762Y-97107200D01*
X99504762Y-97107200D02*
X99409524Y-97011961D01*
X99409524Y-97011961D02*
X99361905Y-96916723D01*
X99361905Y-96916723D02*
X99314286Y-96726247D01*
X99314286Y-96726247D02*
X99314286Y-96583390D01*
X99314286Y-96583390D02*
X99361905Y-96392914D01*
X99361905Y-96392914D02*
X99409524Y-96297676D01*
X99409524Y-96297676D02*
X99504762Y-96202438D01*
X99504762Y-96202438D02*
X99647619Y-96154819D01*
X99647619Y-96154819D02*
X99742857Y-96154819D01*
X99742857Y-96154819D02*
X99885714Y-96202438D01*
X99885714Y-96202438D02*
X99933333Y-96250057D01*
X100790476Y-96488152D02*
X100790476Y-97154819D01*
X100552381Y-96107200D02*
X100314286Y-96821485D01*
X100314286Y-96821485D02*
X100933333Y-96821485D01*
D12*
%TO.C,J1*%
X93060000Y-99220000D02*
X93060000Y-152620000D01*
X93060000Y-99220000D02*
X95720000Y-99220000D01*
X93060000Y-152620000D02*
X95720000Y-152620000D01*
X94390000Y-96620000D02*
X95720000Y-96620000D01*
X95720000Y-96620000D02*
X95720000Y-97950000D01*
X95720000Y-99220000D02*
X95720000Y-152620000D01*
D13*
%TO.C,IC1*%
X102015000Y-126060000D02*
X103265000Y-126060000D01*
X103615000Y-126110000D02*
X104165000Y-126110000D01*
X103615000Y-129010000D02*
X103615000Y-126110000D01*
X104165000Y-126110000D02*
X104165000Y-129010000D01*
X104165000Y-129010000D02*
X103615000Y-129010000D01*
D12*
%TO.C,C2*%
X107205000Y-123557164D02*
X107205000Y-123772836D01*
X107925000Y-123557164D02*
X107925000Y-123772836D01*
%TO.C,C1*%
X109680000Y-123557164D02*
X109680000Y-123772836D01*
X110400000Y-123557164D02*
X110400000Y-123772836D01*
%TO.C,C6*%
X105390000Y-123532164D02*
X105390000Y-123747836D01*
X106110000Y-123532164D02*
X106110000Y-123747836D01*
D14*
%TO.C,U1*%
X111215000Y-120690000D02*
G75*
G02*
X110965000Y-120690000I-125000J0D01*
G01*
X110965000Y-120690000D02*
G75*
G02*
X111215000Y-120690000I125000J0D01*
G01*
D12*
%TO.C,J2*%
X118570000Y-99220000D02*
X118570000Y-152620000D01*
X118570000Y-99220000D02*
X121230000Y-99220000D01*
X118570000Y-152620000D02*
X121230000Y-152620000D01*
X119900000Y-96620000D02*
X121230000Y-96620000D01*
X121230000Y-96620000D02*
X121230000Y-97950000D01*
X121230000Y-99220000D02*
X121230000Y-152620000D01*
%TO.C,C3*%
X100190000Y-126962164D02*
X100190000Y-127177836D01*
X100910000Y-126962164D02*
X100910000Y-127177836D01*
%TO.C,C5*%
X108455000Y-123792836D02*
X108455000Y-123577164D01*
X109175000Y-123792836D02*
X109175000Y-123577164D01*
%TO.C,C4*%
X98992164Y-97640000D02*
X99207836Y-97640000D01*
X98992164Y-98360000D02*
X99207836Y-98360000D01*
%TD*%
M02*
