%TF.GenerationSoftware,KiCad,Pcbnew,9.0.2*%
%TF.CreationDate,2025-07-02T00:41:41+02:00*%
%TF.ProjectId,flex_aufsatz,666c6578-5f61-4756-9673-61747a2e6b69,rev?*%
%TF.SameCoordinates,Original*%
%TF.FileFunction,Paste,Bot*%
%TF.FilePolarity,Positive*%
%FSLAX46Y46*%
G04 Gerber Fmt 4.6, Leading zero omitted, Abs format (unit mm)*
G04 Created by KiCad (PCBNEW 9.0.2) date 2025-07-02 00:41:41*
%MOMM*%
%LPD*%
G01*
G04 APERTURE LIST*
%ADD10C,0.010000*%
G04 APERTURE END LIST*
D10*
%TO.C,J4*%
X106525000Y-110596500D02*
X105935000Y-110596500D01*
X105935000Y-110283500D01*
X106525000Y-110283500D01*
X106525000Y-110596500D01*
G36*
X106525000Y-110596500D02*
G01*
X105935000Y-110596500D01*
X105935000Y-110283500D01*
X106525000Y-110283500D01*
X106525000Y-110596500D01*
G37*
X106525000Y-111018000D02*
X105935000Y-111018000D01*
X105935000Y-110812000D01*
X106525000Y-110812000D01*
X106525000Y-111018000D01*
G36*
X106525000Y-111018000D02*
G01*
X105935000Y-111018000D01*
X105935000Y-110812000D01*
X106525000Y-110812000D01*
X106525000Y-111018000D01*
G37*
X106525000Y-111418000D02*
X105935000Y-111418000D01*
X105935000Y-111212000D01*
X106525000Y-111212000D01*
X106525000Y-111418000D01*
G36*
X106525000Y-111418000D02*
G01*
X105935000Y-111418000D01*
X105935000Y-111212000D01*
X106525000Y-111212000D01*
X106525000Y-111418000D01*
G37*
X106525000Y-111818000D02*
X105935000Y-111818000D01*
X105935000Y-111612000D01*
X106525000Y-111612000D01*
X106525000Y-111818000D01*
G36*
X106525000Y-111818000D02*
G01*
X105935000Y-111818000D01*
X105935000Y-111612000D01*
X106525000Y-111612000D01*
X106525000Y-111818000D01*
G37*
X106525000Y-112218000D02*
X105935000Y-112218000D01*
X105935000Y-112012000D01*
X106525000Y-112012000D01*
X106525000Y-112218000D01*
G36*
X106525000Y-112218000D02*
G01*
X105935000Y-112218000D01*
X105935000Y-112012000D01*
X106525000Y-112012000D01*
X106525000Y-112218000D01*
G37*
X106525000Y-112618000D02*
X105935000Y-112618000D01*
X105935000Y-112412000D01*
X106525000Y-112412000D01*
X106525000Y-112618000D01*
G36*
X106525000Y-112618000D02*
G01*
X105935000Y-112618000D01*
X105935000Y-112412000D01*
X106525000Y-112412000D01*
X106525000Y-112618000D01*
G37*
X106525000Y-113146500D02*
X105935000Y-113146500D01*
X105935000Y-112833500D01*
X106525000Y-112833500D01*
X106525000Y-113146500D01*
G36*
X106525000Y-113146500D02*
G01*
X105935000Y-113146500D01*
X105935000Y-112833500D01*
X106525000Y-112833500D01*
X106525000Y-113146500D01*
G37*
X109235000Y-110596500D02*
X108645000Y-110596500D01*
X108645000Y-110283500D01*
X109235000Y-110283500D01*
X109235000Y-110596500D01*
G36*
X109235000Y-110596500D02*
G01*
X108645000Y-110596500D01*
X108645000Y-110283500D01*
X109235000Y-110283500D01*
X109235000Y-110596500D01*
G37*
X109235000Y-111018000D02*
X108645000Y-111018000D01*
X108645000Y-110812000D01*
X109235000Y-110812000D01*
X109235000Y-111018000D01*
G36*
X109235000Y-111018000D02*
G01*
X108645000Y-111018000D01*
X108645000Y-110812000D01*
X109235000Y-110812000D01*
X109235000Y-111018000D01*
G37*
X109235000Y-111418000D02*
X108645000Y-111418000D01*
X108645000Y-111212000D01*
X109235000Y-111212000D01*
X109235000Y-111418000D01*
G36*
X109235000Y-111418000D02*
G01*
X108645000Y-111418000D01*
X108645000Y-111212000D01*
X109235000Y-111212000D01*
X109235000Y-111418000D01*
G37*
X109235000Y-111818000D02*
X108645000Y-111818000D01*
X108645000Y-111612000D01*
X109235000Y-111612000D01*
X109235000Y-111818000D01*
G36*
X109235000Y-111818000D02*
G01*
X108645000Y-111818000D01*
X108645000Y-111612000D01*
X109235000Y-111612000D01*
X109235000Y-111818000D01*
G37*
X109235000Y-112218000D02*
X108645000Y-112218000D01*
X108645000Y-112012000D01*
X109235000Y-112012000D01*
X109235000Y-112218000D01*
G36*
X109235000Y-112218000D02*
G01*
X108645000Y-112218000D01*
X108645000Y-112012000D01*
X109235000Y-112012000D01*
X109235000Y-112218000D01*
G37*
X109235000Y-112618000D02*
X108645000Y-112618000D01*
X108645000Y-112412000D01*
X109235000Y-112412000D01*
X109235000Y-112618000D01*
G36*
X109235000Y-112618000D02*
G01*
X108645000Y-112618000D01*
X108645000Y-112412000D01*
X109235000Y-112412000D01*
X109235000Y-112618000D01*
G37*
X109235000Y-113146500D02*
X108645000Y-113146500D01*
X108645000Y-112833500D01*
X109235000Y-112833500D01*
X109235000Y-113146500D01*
G36*
X109235000Y-113146500D02*
G01*
X108645000Y-113146500D01*
X108645000Y-112833500D01*
X109235000Y-112833500D01*
X109235000Y-113146500D01*
G37*
%TO.C,J3*%
X102475000Y-110596500D02*
X101885000Y-110596500D01*
X101885000Y-110283500D01*
X102475000Y-110283500D01*
X102475000Y-110596500D01*
G36*
X102475000Y-110596500D02*
G01*
X101885000Y-110596500D01*
X101885000Y-110283500D01*
X102475000Y-110283500D01*
X102475000Y-110596500D01*
G37*
X102475000Y-111018000D02*
X101885000Y-111018000D01*
X101885000Y-110812000D01*
X102475000Y-110812000D01*
X102475000Y-111018000D01*
G36*
X102475000Y-111018000D02*
G01*
X101885000Y-111018000D01*
X101885000Y-110812000D01*
X102475000Y-110812000D01*
X102475000Y-111018000D01*
G37*
X102475000Y-111418000D02*
X101885000Y-111418000D01*
X101885000Y-111212000D01*
X102475000Y-111212000D01*
X102475000Y-111418000D01*
G36*
X102475000Y-111418000D02*
G01*
X101885000Y-111418000D01*
X101885000Y-111212000D01*
X102475000Y-111212000D01*
X102475000Y-111418000D01*
G37*
X102475000Y-111818000D02*
X101885000Y-111818000D01*
X101885000Y-111612000D01*
X102475000Y-111612000D01*
X102475000Y-111818000D01*
G36*
X102475000Y-111818000D02*
G01*
X101885000Y-111818000D01*
X101885000Y-111612000D01*
X102475000Y-111612000D01*
X102475000Y-111818000D01*
G37*
X102475000Y-112218000D02*
X101885000Y-112218000D01*
X101885000Y-112012000D01*
X102475000Y-112012000D01*
X102475000Y-112218000D01*
G36*
X102475000Y-112218000D02*
G01*
X101885000Y-112218000D01*
X101885000Y-112012000D01*
X102475000Y-112012000D01*
X102475000Y-112218000D01*
G37*
X102475000Y-112618000D02*
X101885000Y-112618000D01*
X101885000Y-112412000D01*
X102475000Y-112412000D01*
X102475000Y-112618000D01*
G36*
X102475000Y-112618000D02*
G01*
X101885000Y-112618000D01*
X101885000Y-112412000D01*
X102475000Y-112412000D01*
X102475000Y-112618000D01*
G37*
X102475000Y-113146500D02*
X101885000Y-113146500D01*
X101885000Y-112833500D01*
X102475000Y-112833500D01*
X102475000Y-113146500D01*
G36*
X102475000Y-113146500D02*
G01*
X101885000Y-113146500D01*
X101885000Y-112833500D01*
X102475000Y-112833500D01*
X102475000Y-113146500D01*
G37*
X105185000Y-110596500D02*
X104595000Y-110596500D01*
X104595000Y-110283500D01*
X105185000Y-110283500D01*
X105185000Y-110596500D01*
G36*
X105185000Y-110596500D02*
G01*
X104595000Y-110596500D01*
X104595000Y-110283500D01*
X105185000Y-110283500D01*
X105185000Y-110596500D01*
G37*
X105185000Y-111018000D02*
X104595000Y-111018000D01*
X104595000Y-110812000D01*
X105185000Y-110812000D01*
X105185000Y-111018000D01*
G36*
X105185000Y-111018000D02*
G01*
X104595000Y-111018000D01*
X104595000Y-110812000D01*
X105185000Y-110812000D01*
X105185000Y-111018000D01*
G37*
X105185000Y-111418000D02*
X104595000Y-111418000D01*
X104595000Y-111212000D01*
X105185000Y-111212000D01*
X105185000Y-111418000D01*
G36*
X105185000Y-111418000D02*
G01*
X104595000Y-111418000D01*
X104595000Y-111212000D01*
X105185000Y-111212000D01*
X105185000Y-111418000D01*
G37*
X105185000Y-111818000D02*
X104595000Y-111818000D01*
X104595000Y-111612000D01*
X105185000Y-111612000D01*
X105185000Y-111818000D01*
G36*
X105185000Y-111818000D02*
G01*
X104595000Y-111818000D01*
X104595000Y-111612000D01*
X105185000Y-111612000D01*
X105185000Y-111818000D01*
G37*
X105185000Y-112218000D02*
X104595000Y-112218000D01*
X104595000Y-112012000D01*
X105185000Y-112012000D01*
X105185000Y-112218000D01*
G36*
X105185000Y-112218000D02*
G01*
X104595000Y-112218000D01*
X104595000Y-112012000D01*
X105185000Y-112012000D01*
X105185000Y-112218000D01*
G37*
X105185000Y-112618000D02*
X104595000Y-112618000D01*
X104595000Y-112412000D01*
X105185000Y-112412000D01*
X105185000Y-112618000D01*
G36*
X105185000Y-112618000D02*
G01*
X104595000Y-112618000D01*
X104595000Y-112412000D01*
X105185000Y-112412000D01*
X105185000Y-112618000D01*
G37*
X105185000Y-113146500D02*
X104595000Y-113146500D01*
X104595000Y-112833500D01*
X105185000Y-112833500D01*
X105185000Y-113146500D01*
G36*
X105185000Y-113146500D02*
G01*
X104595000Y-113146500D01*
X104595000Y-112833500D01*
X105185000Y-112833500D01*
X105185000Y-113146500D01*
G37*
%TD*%
M02*
