%TF.GenerationSoftware,KiCad,Pcbnew,9.0.2*%
%TF.CreationDate,2025-07-02T00:41:40+02:00*%
%TF.ProjectId,flex_aufsatz,666c6578-5f61-4756-9673-61747a2e6b69,rev?*%
%TF.SameCoordinates,Original*%
%TF.FileFunction,Copper,L1,Top*%
%TF.FilePolarity,Positive*%
%FSLAX46Y46*%
G04 Gerber Fmt 4.6, Leading zero omitted, Abs format (unit mm)*
G04 Created by KiCad (PCBNEW 9.0.2) date 2025-07-02 00:41:40*
%MOMM*%
%LPD*%
G01*
G04 APERTURE LIST*
G04 Aperture macros list*
%AMRoundRect*
0 Rectangle with rounded corners*
0 $1 Rounding radius*
0 $2 $3 $4 $5 $6 $7 $8 $9 X,Y pos of 4 corners*
0 Add a 4 corners polygon primitive as box body*
4,1,4,$2,$3,$4,$5,$6,$7,$8,$9,$2,$3,0*
0 Add four circle primitives for the rounded corners*
1,1,$1+$1,$2,$3*
1,1,$1+$1,$4,$5*
1,1,$1+$1,$6,$7*
1,1,$1+$1,$8,$9*
0 Add four rect primitives between the rounded corners*
20,1,$1+$1,$2,$3,$4,$5,0*
20,1,$1+$1,$4,$5,$6,$7,0*
20,1,$1+$1,$6,$7,$8,$9,0*
20,1,$1+$1,$8,$9,$2,$3,0*%
G04 Aperture macros list end*
%TA.AperFunction,ComponentPad*%
%ADD10R,1.700000X1.700000*%
%TD*%
%TA.AperFunction,ComponentPad*%
%ADD11C,1.700000*%
%TD*%
%TA.AperFunction,SMDPad,CuDef*%
%ADD12R,1.250000X0.600000*%
%TD*%
%TA.AperFunction,SMDPad,CuDef*%
%ADD13RoundRect,0.140000X-0.170000X0.140000X-0.170000X-0.140000X0.170000X-0.140000X0.170000X0.140000X0*%
%TD*%
%TA.AperFunction,SMDPad,CuDef*%
%ADD14R,0.800000X0.300000*%
%TD*%
%TA.AperFunction,SMDPad,CuDef*%
%ADD15R,0.300000X0.800000*%
%TD*%
%TA.AperFunction,SMDPad,CuDef*%
%ADD16R,1.750000X1.750000*%
%TD*%
%TA.AperFunction,SMDPad,CuDef*%
%ADD17RoundRect,0.140000X0.170000X-0.140000X0.170000X0.140000X-0.170000X0.140000X-0.170000X-0.140000X0*%
%TD*%
%TA.AperFunction,SMDPad,CuDef*%
%ADD18RoundRect,0.140000X-0.140000X-0.170000X0.140000X-0.170000X0.140000X0.170000X-0.140000X0.170000X0*%
%TD*%
%TA.AperFunction,ViaPad*%
%ADD19C,0.600000*%
%TD*%
%TA.AperFunction,Conductor*%
%ADD20C,0.200000*%
%TD*%
G04 APERTURE END LIST*
D10*
%TO.P,J1,1,Pin_1*%
%TO.N,+3.3V*%
X94390000Y-97950000D03*
D11*
%TO.P,J1,2,Pin_2*%
X94390000Y-100490000D03*
%TO.P,J1,3,Pin_3*%
%TO.N,unconnected-(J1-Pin_3-Pad3)*%
X94390000Y-103030000D03*
%TO.P,J1,4,Pin_4*%
%TO.N,/WS*%
X94390000Y-105570000D03*
%TO.P,J1,5,Pin_5*%
%TO.N,/BCLK*%
X94390000Y-108110000D03*
%TO.P,J1,6,Pin_6*%
%TO.N,unconnected-(J1-Pin_6-Pad6)*%
X94390000Y-110650000D03*
%TO.P,J1,7,Pin_7*%
%TO.N,unconnected-(J1-Pin_7-Pad7)*%
X94390000Y-113190000D03*
%TO.P,J1,8,Pin_8*%
%TO.N,unconnected-(J1-Pin_8-Pad8)*%
X94390000Y-115730000D03*
%TO.P,J1,9,Pin_9*%
%TO.N,unconnected-(J1-Pin_9-Pad9)*%
X94390000Y-118270000D03*
%TO.P,J1,10,Pin_10*%
%TO.N,unconnected-(J1-Pin_10-Pad10)*%
X94390000Y-120810000D03*
%TO.P,J1,11,Pin_11*%
%TO.N,unconnected-(J1-Pin_11-Pad11)*%
X94390000Y-123350000D03*
%TO.P,J1,12,Pin_12*%
%TO.N,unconnected-(J1-Pin_12-Pad12)*%
X94390000Y-125890000D03*
%TO.P,J1,13,Pin_13*%
%TO.N,unconnected-(J1-Pin_13-Pad13)*%
X94390000Y-128430000D03*
%TO.P,J1,14,Pin_14*%
%TO.N,unconnected-(J1-Pin_14-Pad14)*%
X94390000Y-130970000D03*
%TO.P,J1,15,Pin_15*%
%TO.N,unconnected-(J1-Pin_15-Pad15)*%
X94390000Y-133510000D03*
%TO.P,J1,16,Pin_16*%
%TO.N,unconnected-(J1-Pin_16-Pad16)*%
X94390000Y-136050000D03*
%TO.P,J1,17,Pin_17*%
%TO.N,unconnected-(J1-Pin_17-Pad17)*%
X94390000Y-138590000D03*
%TO.P,J1,18,Pin_18*%
%TO.N,/TDM_DATA*%
X94390000Y-141130000D03*
%TO.P,J1,19,Pin_19*%
%TO.N,unconnected-(J1-Pin_19-Pad19)*%
X94390000Y-143670000D03*
%TO.P,J1,20,Pin_20*%
%TO.N,unconnected-(J1-Pin_20-Pad20)*%
X94390000Y-146210000D03*
%TO.P,J1,21,Pin_21*%
%TO.N,unconnected-(J1-Pin_21-Pad21)*%
X94390000Y-148750000D03*
%TO.P,J1,22,Pin_22*%
%TO.N,GND*%
X94390000Y-151290000D03*
%TD*%
D12*
%TO.P,IC1,1,VIN*%
%TO.N,+3.3V*%
X102640000Y-126610000D03*
%TO.P,IC1,2,GND*%
%TO.N,GND*%
X102640000Y-127560000D03*
%TO.P,IC1,3,EN*%
%TO.N,+3.3V*%
X102640000Y-128510000D03*
%TO.P,IC1,4,SENSE/ADJ*%
%TO.N,+1V8*%
X105140000Y-128510000D03*
%TO.P,IC1,5,VOUT*%
X105140000Y-126610000D03*
%TD*%
D13*
%TO.P,C2,1*%
%TO.N,+3.3V*%
X107565000Y-123185000D03*
%TO.P,C2,2*%
%TO.N,GND*%
X107565000Y-124145000D03*
%TD*%
%TO.P,C1,1*%
%TO.N,+3.3V*%
X110040000Y-123185000D03*
%TO.P,C1,2*%
%TO.N,GND*%
X110040000Y-124145000D03*
%TD*%
%TO.P,C6,1*%
%TO.N,GND*%
X105750000Y-123160000D03*
%TO.P,C6,2*%
%TO.N,+1V8*%
X105750000Y-124120000D03*
%TD*%
D14*
%TO.P,U1,1,PDM_CLK0*%
%TO.N,/MIC_CLK0*%
X110690000Y-119940000D03*
%TO.P,U1,2,PDM_DAT0*%
%TO.N,/MIC_DOUT_0*%
X110690000Y-119440000D03*
%TO.P,U1,3,PDM_DAT1*%
%TO.N,/MIC_DOUT_1*%
X110690000Y-118940000D03*
%TO.P,U1,4,PDM_CLK1*%
%TO.N,/MIC_CLK1*%
X110690000Y-118440000D03*
D15*
%TO.P,U1,5,PDM_DAT2*%
%TO.N,/MIC_DOUT_2*%
X109940000Y-117690000D03*
%TO.P,U1,6,PDM_DAT3*%
%TO.N,unconnected-(U1-PDM_DAT3-Pad6)*%
X109440000Y-117690000D03*
%TO.P,U1,7,SCL*%
%TO.N,GND*%
X108940000Y-117690000D03*
%TO.P,U1,8,SDA*%
%TO.N,+3.3V*%
X108440000Y-117690000D03*
D14*
%TO.P,U1,9,FSYNC*%
%TO.N,/WS*%
X107690000Y-118440000D03*
%TO.P,U1,10,BCLK*%
%TO.N,/BCLK*%
X107690000Y-118940000D03*
%TO.P,U1,11,SDATA*%
%TO.N,/TDM_DATA*%
X107690000Y-119440000D03*
%TO.P,U1,12,ADDR/CONFIG*%
%TO.N,unconnected-(U1-ADDR{slash}CONFIG-Pad12)*%
X107690000Y-119940000D03*
D15*
%TO.P,U1,13,EN*%
%TO.N,+3.3V*%
X108440000Y-120690000D03*
%TO.P,U1,14,DVDD*%
%TO.N,+1V8*%
X108940000Y-120690000D03*
%TO.P,U1,15,GND*%
%TO.N,GND*%
X109440000Y-120690000D03*
%TO.P,U1,16,IOVDD*%
%TO.N,+3.3V*%
X109940000Y-120690000D03*
D16*
%TO.P,U1,17,EPAD*%
%TO.N,GND*%
X109190000Y-119190000D03*
%TD*%
D10*
%TO.P,J2,1,Pin_1*%
%TO.N,GND*%
X119900000Y-97950000D03*
D11*
%TO.P,J2,2,Pin_2*%
%TO.N,unconnected-(J2-Pin_2-Pad2)*%
X119900000Y-100490000D03*
%TO.P,J2,3,Pin_3*%
%TO.N,unconnected-(J2-Pin_3-Pad3)*%
X119900000Y-103030000D03*
%TO.P,J2,4,Pin_4*%
%TO.N,unconnected-(J2-Pin_4-Pad4)*%
X119900000Y-105570000D03*
%TO.P,J2,5,Pin_5*%
%TO.N,unconnected-(J2-Pin_5-Pad5)*%
X119900000Y-108110000D03*
%TO.P,J2,6,Pin_6*%
%TO.N,unconnected-(J2-Pin_6-Pad6)*%
X119900000Y-110650000D03*
%TO.P,J2,7,Pin_7*%
%TO.N,unconnected-(J2-Pin_7-Pad7)*%
X119900000Y-113190000D03*
%TO.P,J2,8,Pin_8*%
%TO.N,unconnected-(J2-Pin_8-Pad8)*%
X119900000Y-115730000D03*
%TO.P,J2,9,Pin_9*%
%TO.N,unconnected-(J2-Pin_9-Pad9)*%
X119900000Y-118270000D03*
%TO.P,J2,10,Pin_10*%
%TO.N,unconnected-(J2-Pin_10-Pad10)*%
X119900000Y-120810000D03*
%TO.P,J2,11,Pin_11*%
%TO.N,unconnected-(J2-Pin_11-Pad11)*%
X119900000Y-123350000D03*
%TO.P,J2,12,Pin_12*%
%TO.N,unconnected-(J2-Pin_12-Pad12)*%
X119900000Y-125890000D03*
%TO.P,J2,13,Pin_13*%
%TO.N,unconnected-(J2-Pin_13-Pad13)*%
X119900000Y-128430000D03*
%TO.P,J2,14,Pin_14*%
%TO.N,unconnected-(J2-Pin_14-Pad14)*%
X119900000Y-130970000D03*
%TO.P,J2,15,Pin_15*%
%TO.N,unconnected-(J2-Pin_15-Pad15)*%
X119900000Y-133510000D03*
%TO.P,J2,16,Pin_16*%
%TO.N,unconnected-(J2-Pin_16-Pad16)*%
X119900000Y-136050000D03*
%TO.P,J2,17,Pin_17*%
%TO.N,unconnected-(J2-Pin_17-Pad17)*%
X119900000Y-138590000D03*
%TO.P,J2,18,Pin_18*%
%TO.N,unconnected-(J2-Pin_18-Pad18)*%
X119900000Y-141130000D03*
%TO.P,J2,19,Pin_19*%
%TO.N,unconnected-(J2-Pin_19-Pad19)*%
X119900000Y-143670000D03*
%TO.P,J2,20,Pin_20*%
%TO.N,unconnected-(J2-Pin_20-Pad20)*%
X119900000Y-146210000D03*
%TO.P,J2,21,Pin_21*%
%TO.N,GND*%
X119900000Y-148750000D03*
%TO.P,J2,22,Pin_22*%
X119900000Y-151290000D03*
%TD*%
D13*
%TO.P,C3,1*%
%TO.N,+3.3V*%
X100550000Y-126590000D03*
%TO.P,C3,2*%
%TO.N,GND*%
X100550000Y-127550000D03*
%TD*%
D17*
%TO.P,C5,1*%
%TO.N,GND*%
X108815000Y-124165000D03*
%TO.P,C5,2*%
%TO.N,+1V8*%
X108815000Y-123205000D03*
%TD*%
D18*
%TO.P,C4,1*%
%TO.N,+3.3V*%
X98620000Y-98000000D03*
%TO.P,C4,2*%
%TO.N,GND*%
X99580000Y-98000000D03*
%TD*%
D19*
%TO.N,+3.3V*%
X100330000Y-124930000D03*
X108440000Y-116400000D03*
X100750000Y-129660000D03*
%TO.N,GND*%
X103290000Y-108840000D03*
X109440000Y-122400000D03*
X102500000Y-121200000D03*
X109970000Y-112460000D03*
X105700000Y-115000000D03*
X97060000Y-106140000D03*
X111470000Y-109410000D03*
X103800000Y-124400000D03*
X102200000Y-116500000D03*
X109310000Y-114710000D03*
X100300000Y-119000000D03*
X100560000Y-128750000D03*
X109440000Y-126620000D03*
%TO.N,+1V8*%
X105750000Y-124950000D03*
X108815000Y-121880000D03*
X107790000Y-126700000D03*
%TO.N,/MIC_DOUT_1*%
X100940000Y-110065000D03*
%TO.N,/MIC_CLK0*%
X110790000Y-121790000D03*
%TO.N,/MIC_DOUT_0*%
X112540000Y-119590000D03*
%TO.N,/MIC_CLK1*%
X112540000Y-118015000D03*
%TO.N,/MIC_DOUT_2*%
X110415000Y-115515000D03*
%TD*%
D20*
%TO.N,+3.3V*%
X110040000Y-122810000D02*
X110040000Y-123185000D01*
X107565000Y-121565000D02*
X108440000Y-120690000D01*
X102640000Y-128510000D02*
X101900000Y-128510000D01*
X101900000Y-128510000D02*
X100750000Y-129660000D01*
X109940000Y-121920000D02*
X110200000Y-122180000D01*
X108500000Y-131830000D02*
X102920000Y-131830000D01*
X94390000Y-97950000D02*
X98570000Y-97950000D01*
X100550000Y-126590000D02*
X102620000Y-126590000D01*
X107565000Y-123185000D02*
X107565000Y-121565000D01*
X110200000Y-122180000D02*
X110200000Y-122650000D01*
X103695000Y-121565000D02*
X100330000Y-124930000D01*
X107565000Y-121565000D02*
X103695000Y-121565000D01*
X109940000Y-120690000D02*
X109940000Y-121920000D01*
X102620000Y-126590000D02*
X102640000Y-126610000D01*
X112070000Y-125215000D02*
X112070000Y-128260000D01*
X100330000Y-124930000D02*
X100550000Y-125150000D01*
X112070000Y-128260000D02*
X108500000Y-131830000D01*
X102920000Y-131830000D02*
X100750000Y-129660000D01*
X110040000Y-123185000D02*
X112070000Y-125215000D01*
X98570000Y-97950000D02*
X98620000Y-98000000D01*
X100550000Y-126590000D02*
X100550000Y-125150000D01*
X110200000Y-122650000D02*
X110040000Y-122810000D01*
X108440000Y-116400000D02*
X108440000Y-117690000D01*
%TO.N,GND*%
X109970000Y-112460000D02*
X111550000Y-110880000D01*
X111802500Y-102277500D02*
X111440000Y-102640000D01*
X102630000Y-127550000D02*
X102640000Y-127560000D01*
X109440000Y-126620000D02*
X107565000Y-124745000D01*
X119900000Y-97950000D02*
X116400000Y-97950000D01*
X116130000Y-97950000D02*
X113040000Y-101040000D01*
X108940000Y-117690000D02*
X108940000Y-118940000D01*
X108815000Y-124165000D02*
X108815000Y-125995000D01*
X99580000Y-98000000D02*
X116350000Y-98000000D01*
X103290000Y-108840000D02*
X103290000Y-106890000D01*
X104540000Y-105640000D02*
X107590000Y-105640000D01*
X110040000Y-124145000D02*
X110040000Y-126020000D01*
X111440000Y-109380000D02*
X111470000Y-109410000D01*
X103290000Y-106890000D02*
X104540000Y-105640000D01*
X108940000Y-118940000D02*
X109190000Y-119190000D01*
X97060000Y-105890000D02*
X98260000Y-104690000D01*
X108940000Y-117690000D02*
X108940000Y-117060000D01*
X106735000Y-124145000D02*
X105750000Y-123160000D01*
X109310000Y-116690000D02*
X109310000Y-114710000D01*
X107565000Y-124745000D02*
X107565000Y-124145000D01*
X109440000Y-122160000D02*
X109440000Y-122400000D01*
X108815000Y-125995000D02*
X109440000Y-126620000D01*
X116350000Y-98000000D02*
X116400000Y-97950000D01*
X109440000Y-120690000D02*
X109440000Y-122160000D01*
X98260000Y-104690000D02*
X101090000Y-104690000D01*
X109190000Y-116810000D02*
X109310000Y-116690000D01*
X111440000Y-102640000D02*
X111440000Y-109380000D01*
X100550000Y-127550000D02*
X102630000Y-127550000D01*
X107590000Y-105640000D02*
X109840000Y-103390000D01*
X116400000Y-97950000D02*
X116130000Y-97950000D01*
X111550000Y-110880000D02*
X111550000Y-109490000D01*
X109440000Y-120690000D02*
X109440000Y-119440000D01*
X108940000Y-117060000D02*
X109190000Y-116810000D01*
X110040000Y-126020000D02*
X109440000Y-126620000D01*
X100550000Y-127550000D02*
X100550000Y-128640000D01*
X111550000Y-109490000D02*
X111470000Y-109410000D01*
X109840000Y-103390000D02*
X110690000Y-103390000D01*
X97060000Y-106140000D02*
X97060000Y-105890000D01*
X107565000Y-124145000D02*
X106735000Y-124145000D01*
X109440000Y-119440000D02*
X109190000Y-119190000D01*
X101090000Y-104690000D02*
X103290000Y-106890000D01*
X111802500Y-102277500D02*
X113040000Y-101040000D01*
X110690000Y-103390000D02*
X111802500Y-102277500D01*
%TO.N,+1V8*%
X105750000Y-126000000D02*
X105140000Y-126610000D01*
X108815000Y-123205000D02*
X108815000Y-121880000D01*
X105140000Y-128510000D02*
X105980000Y-128510000D01*
X105980000Y-128510000D02*
X107790000Y-126700000D01*
X105750000Y-124950000D02*
X105750000Y-124120000D01*
X108940000Y-121755000D02*
X108940000Y-120690000D01*
X105140000Y-128510000D02*
X105240000Y-128510000D01*
X108815000Y-121880000D02*
X108940000Y-121755000D01*
X105750000Y-124950000D02*
X105750000Y-126000000D01*
X108815000Y-121880000D02*
X108815000Y-121825000D01*
%TO.N,/WS*%
X99990000Y-113090000D02*
X105340000Y-118440000D01*
X105340000Y-118440000D02*
X107690000Y-118440000D01*
X99990000Y-111170000D02*
X99990000Y-113090000D01*
X94390000Y-105570000D02*
X99990000Y-111170000D01*
%TO.N,/TDM_DATA*%
X99540000Y-135980000D02*
X94390000Y-141130000D01*
X107690000Y-119440000D02*
X102215000Y-119440000D01*
X102215000Y-119440000D02*
X99540000Y-122115000D01*
X99540000Y-122115000D02*
X99540000Y-135980000D01*
%TO.N,/BCLK*%
X98390000Y-112110000D02*
X94390000Y-108110000D01*
X98390000Y-113765000D02*
X98390000Y-112110000D01*
X107690000Y-118940000D02*
X103565000Y-118940000D01*
X103565000Y-118940000D02*
X98390000Y-113765000D01*
%TO.N,/MIC_DOUT_1*%
X113815000Y-118115000D02*
X113815000Y-117340000D01*
X113815000Y-117340000D02*
X110715000Y-114240000D01*
X102290000Y-109590000D02*
X101415000Y-109590000D01*
X106065000Y-109590000D02*
X102290000Y-109590000D01*
X101415000Y-109590000D02*
X100940000Y-110065000D01*
X110715000Y-114240000D02*
X106065000Y-109590000D01*
X112990000Y-118940000D02*
X113815000Y-118115000D01*
X110690000Y-118940000D02*
X112990000Y-118940000D01*
%TO.N,/MIC_CLK0*%
X111115000Y-119940000D02*
X110690000Y-119940000D01*
X111940000Y-121340000D02*
X111940000Y-120765000D01*
X111940000Y-120765000D02*
X111115000Y-119940000D01*
X111490000Y-121790000D02*
X111940000Y-121340000D01*
X110790000Y-121790000D02*
X111490000Y-121790000D01*
%TO.N,/MIC_DOUT_0*%
X112115000Y-120015000D02*
X111740000Y-120015000D01*
X111740000Y-120015000D02*
X111165000Y-119440000D01*
X111165000Y-119440000D02*
X110690000Y-119440000D01*
X112540000Y-119590000D02*
X112115000Y-120015000D01*
%TO.N,/MIC_CLK1*%
X112540000Y-118015000D02*
X112115000Y-118440000D01*
X111340000Y-118440000D02*
X110690000Y-118440000D01*
X112115000Y-118440000D02*
X111340000Y-118440000D01*
%TO.N,/MIC_DOUT_2*%
X109940000Y-115990000D02*
X109940000Y-117690000D01*
X110415000Y-115515000D02*
X109940000Y-115990000D01*
%TD*%
%TA.AperFunction,Conductor*%
%TO.N,GND*%
G36*
X95945703Y-110515384D02*
G01*
X95952181Y-110521416D01*
X97753181Y-112322416D01*
X97786666Y-112383739D01*
X97789500Y-112410097D01*
X97789500Y-113678330D01*
X97789499Y-113678348D01*
X97789499Y-113844054D01*
X97789498Y-113844054D01*
X97830423Y-113996785D01*
X97859358Y-114046900D01*
X97859359Y-114046904D01*
X97859360Y-114046904D01*
X97909479Y-114133714D01*
X97909481Y-114133717D01*
X98028349Y-114252585D01*
X98028355Y-114252590D01*
X102403584Y-118627819D01*
X102437069Y-118689142D01*
X102432085Y-118758834D01*
X102390213Y-118814767D01*
X102324749Y-118839184D01*
X102315903Y-118839500D01*
X102135942Y-118839500D01*
X101983214Y-118880423D01*
X101959521Y-118894102D01*
X101935828Y-118907782D01*
X101935827Y-118907782D01*
X101846290Y-118959475D01*
X101846282Y-118959481D01*
X99173675Y-121632088D01*
X99173666Y-121632097D01*
X99171286Y-121634478D01*
X99171284Y-121634480D01*
X99059480Y-121746284D01*
X99044604Y-121772051D01*
X99038153Y-121783222D01*
X99038152Y-121783225D01*
X99010724Y-121830732D01*
X98980423Y-121883215D01*
X98939499Y-122035943D01*
X98939499Y-122035945D01*
X98939499Y-122204046D01*
X98939500Y-122204059D01*
X98939500Y-135679902D01*
X98919815Y-135746941D01*
X98903181Y-135767583D01*
X95952181Y-138718583D01*
X95890858Y-138752068D01*
X95821166Y-138747084D01*
X95765233Y-138705212D01*
X95740816Y-138639748D01*
X95740500Y-138630902D01*
X95740500Y-138483713D01*
X95707246Y-138273760D01*
X95707246Y-138273757D01*
X95641557Y-138071588D01*
X95545051Y-137882184D01*
X95545049Y-137882181D01*
X95545048Y-137882179D01*
X95420109Y-137710213D01*
X95269786Y-137559890D01*
X95097820Y-137434951D01*
X95097115Y-137434591D01*
X95089054Y-137430485D01*
X95038259Y-137382512D01*
X95021463Y-137314692D01*
X95043999Y-137248556D01*
X95089054Y-137209515D01*
X95097816Y-137205051D01*
X95119789Y-137189086D01*
X95269786Y-137080109D01*
X95269788Y-137080106D01*
X95269792Y-137080104D01*
X95420104Y-136929792D01*
X95420106Y-136929788D01*
X95420109Y-136929786D01*
X95545048Y-136757820D01*
X95545047Y-136757820D01*
X95545051Y-136757816D01*
X95641557Y-136568412D01*
X95707246Y-136366243D01*
X95740500Y-136156287D01*
X95740500Y-135943713D01*
X95707246Y-135733757D01*
X95641557Y-135531588D01*
X95545051Y-135342184D01*
X95545049Y-135342181D01*
X95545048Y-135342179D01*
X95420109Y-135170213D01*
X95269786Y-135019890D01*
X95097820Y-134894951D01*
X95097115Y-134894591D01*
X95089054Y-134890485D01*
X95038259Y-134842512D01*
X95021463Y-134774692D01*
X95043999Y-134708556D01*
X95089054Y-134669515D01*
X95097816Y-134665051D01*
X95119789Y-134649086D01*
X95269786Y-134540109D01*
X95269788Y-134540106D01*
X95269792Y-134540104D01*
X95420104Y-134389792D01*
X95420106Y-134389788D01*
X95420109Y-134389786D01*
X95545048Y-134217820D01*
X95545047Y-134217820D01*
X95545051Y-134217816D01*
X95641557Y-134028412D01*
X95707246Y-133826243D01*
X95740500Y-133616287D01*
X95740500Y-133403713D01*
X95707246Y-133193757D01*
X95641557Y-132991588D01*
X95545051Y-132802184D01*
X95545049Y-132802181D01*
X95545048Y-132802179D01*
X95420109Y-132630213D01*
X95269786Y-132479890D01*
X95097820Y-132354951D01*
X95097115Y-132354591D01*
X95089054Y-132350485D01*
X95038259Y-132302512D01*
X95021463Y-132234692D01*
X95043999Y-132168556D01*
X95089054Y-132129515D01*
X95097816Y-132125051D01*
X95119789Y-132109086D01*
X95269786Y-132000109D01*
X95269788Y-132000106D01*
X95269792Y-132000104D01*
X95420104Y-131849792D01*
X95420106Y-131849788D01*
X95420109Y-131849786D01*
X95545048Y-131677820D01*
X95545047Y-131677820D01*
X95545051Y-131677816D01*
X95641557Y-131488412D01*
X95707246Y-131286243D01*
X95740500Y-131076287D01*
X95740500Y-130863713D01*
X95707246Y-130653757D01*
X95641557Y-130451588D01*
X95545051Y-130262184D01*
X95545049Y-130262181D01*
X95545048Y-130262179D01*
X95420109Y-130090213D01*
X95269786Y-129939890D01*
X95097820Y-129814951D01*
X95097115Y-129814591D01*
X95089054Y-129810485D01*
X95038259Y-129762512D01*
X95021463Y-129694692D01*
X95043999Y-129628556D01*
X95089054Y-129589515D01*
X95097816Y-129585051D01*
X95119789Y-129569086D01*
X95269786Y-129460109D01*
X95269788Y-129460106D01*
X95269792Y-129460104D01*
X95420104Y-129309792D01*
X95420106Y-129309788D01*
X95420109Y-129309786D01*
X95545048Y-129137820D01*
X95545047Y-129137820D01*
X95545051Y-129137816D01*
X95641557Y-128948412D01*
X95707246Y-128746243D01*
X95740500Y-128536287D01*
X95740500Y-128323713D01*
X95707246Y-128113757D01*
X95641557Y-127911588D01*
X95545051Y-127722184D01*
X95545049Y-127722181D01*
X95545048Y-127722179D01*
X95420109Y-127550213D01*
X95269786Y-127399890D01*
X95097820Y-127274951D01*
X95097115Y-127274591D01*
X95089054Y-127270485D01*
X95038259Y-127222512D01*
X95021463Y-127154692D01*
X95043999Y-127088556D01*
X95089054Y-127049515D01*
X95097816Y-127045051D01*
X95135760Y-127017483D01*
X95269786Y-126920109D01*
X95269788Y-126920106D01*
X95269792Y-126920104D01*
X95420104Y-126769792D01*
X95420106Y-126769788D01*
X95420109Y-126769786D01*
X95545048Y-126597820D01*
X95545047Y-126597820D01*
X95545051Y-126597816D01*
X95641557Y-126408412D01*
X95707246Y-126206243D01*
X95740500Y-125996287D01*
X95740500Y-125783713D01*
X95707246Y-125573757D01*
X95641557Y-125371588D01*
X95545051Y-125182184D01*
X95545049Y-125182181D01*
X95545048Y-125182179D01*
X95420109Y-125010213D01*
X95269786Y-124859890D01*
X95097820Y-124734951D01*
X95097115Y-124734591D01*
X95089054Y-124730485D01*
X95038259Y-124682512D01*
X95021463Y-124614692D01*
X95043999Y-124548556D01*
X95089054Y-124509515D01*
X95097816Y-124505051D01*
X95201193Y-124429944D01*
X95269786Y-124380109D01*
X95269788Y-124380106D01*
X95269792Y-124380104D01*
X95420104Y-124229792D01*
X95420106Y-124229788D01*
X95420109Y-124229786D01*
X95545048Y-124057820D01*
X95545047Y-124057820D01*
X95545051Y-124057816D01*
X95641557Y-123868412D01*
X95707246Y-123666243D01*
X95740500Y-123456287D01*
X95740500Y-123243713D01*
X95707246Y-123033757D01*
X95641557Y-122831588D01*
X95545051Y-122642184D01*
X95545049Y-122642181D01*
X95545048Y-122642179D01*
X95420109Y-122470213D01*
X95269786Y-122319890D01*
X95097820Y-122194951D01*
X95096065Y-122194057D01*
X95089054Y-122190485D01*
X95038259Y-122142512D01*
X95021463Y-122074692D01*
X95043999Y-122008556D01*
X95089054Y-121969515D01*
X95097816Y-121965051D01*
X95119789Y-121949086D01*
X95269786Y-121840109D01*
X95269788Y-121840106D01*
X95269792Y-121840104D01*
X95420104Y-121689792D01*
X95420106Y-121689788D01*
X95420109Y-121689786D01*
X95545048Y-121517820D01*
X95545047Y-121517820D01*
X95545051Y-121517816D01*
X95641557Y-121328412D01*
X95707246Y-121126243D01*
X95740500Y-120916287D01*
X95740500Y-120703713D01*
X95707246Y-120493757D01*
X95641557Y-120291588D01*
X95545051Y-120102184D01*
X95545049Y-120102181D01*
X95545048Y-120102179D01*
X95420109Y-119930213D01*
X95269786Y-119779890D01*
X95097820Y-119654951D01*
X95097115Y-119654591D01*
X95089054Y-119650485D01*
X95038259Y-119602512D01*
X95021463Y-119534692D01*
X95043999Y-119468556D01*
X95089054Y-119429515D01*
X95097816Y-119425051D01*
X95257943Y-119308713D01*
X95269786Y-119300109D01*
X95269788Y-119300106D01*
X95269792Y-119300104D01*
X95420104Y-119149792D01*
X95420106Y-119149788D01*
X95420109Y-119149786D01*
X95545048Y-118977820D01*
X95545047Y-118977820D01*
X95545051Y-118977816D01*
X95641557Y-118788412D01*
X95707246Y-118586243D01*
X95740500Y-118376287D01*
X95740500Y-118163713D01*
X95707246Y-117953757D01*
X95641557Y-117751588D01*
X95545051Y-117562184D01*
X95545049Y-117562181D01*
X95545048Y-117562179D01*
X95420109Y-117390213D01*
X95269786Y-117239890D01*
X95097820Y-117114951D01*
X95097115Y-117114591D01*
X95089054Y-117110485D01*
X95038259Y-117062512D01*
X95021463Y-116994692D01*
X95043999Y-116928556D01*
X95089054Y-116889515D01*
X95097816Y-116885051D01*
X95133012Y-116859480D01*
X95269786Y-116760109D01*
X95269788Y-116760106D01*
X95269792Y-116760104D01*
X95420104Y-116609792D01*
X95420106Y-116609788D01*
X95420109Y-116609786D01*
X95545048Y-116437820D01*
X95545047Y-116437820D01*
X95545051Y-116437816D01*
X95641557Y-116248412D01*
X95707246Y-116046243D01*
X95740500Y-115836287D01*
X95740500Y-115623713D01*
X95707246Y-115413757D01*
X95641557Y-115211588D01*
X95545051Y-115022184D01*
X95545049Y-115022181D01*
X95545048Y-115022179D01*
X95420109Y-114850213D01*
X95269786Y-114699890D01*
X95097820Y-114574951D01*
X95097115Y-114574591D01*
X95089054Y-114570485D01*
X95038259Y-114522512D01*
X95021463Y-114454692D01*
X95043999Y-114388556D01*
X95089054Y-114349515D01*
X95097816Y-114345051D01*
X95225079Y-114252590D01*
X95269786Y-114220109D01*
X95269788Y-114220106D01*
X95269792Y-114220104D01*
X95420104Y-114069792D01*
X95420106Y-114069788D01*
X95420109Y-114069786D01*
X95545048Y-113897820D01*
X95545047Y-113897820D01*
X95545051Y-113897816D01*
X95641557Y-113708412D01*
X95707246Y-113506243D01*
X95740500Y-113296287D01*
X95740500Y-113083713D01*
X95707246Y-112873757D01*
X95641557Y-112671588D01*
X95545051Y-112482184D01*
X95545049Y-112482181D01*
X95545048Y-112482179D01*
X95420109Y-112310213D01*
X95269786Y-112159890D01*
X95097820Y-112034951D01*
X95097115Y-112034591D01*
X95089054Y-112030485D01*
X95038259Y-111982512D01*
X95021463Y-111914692D01*
X95043999Y-111848556D01*
X95089054Y-111809515D01*
X95097816Y-111805051D01*
X95185583Y-111741285D01*
X95269786Y-111680109D01*
X95269788Y-111680106D01*
X95269792Y-111680104D01*
X95420104Y-111529792D01*
X95420106Y-111529788D01*
X95420109Y-111529786D01*
X95545048Y-111357820D01*
X95545047Y-111357820D01*
X95545051Y-111357816D01*
X95641557Y-111168412D01*
X95707246Y-110966243D01*
X95740500Y-110756287D01*
X95740500Y-110609097D01*
X95760185Y-110542058D01*
X95812989Y-110496303D01*
X95882147Y-110486359D01*
X95945703Y-110515384D01*
G37*
%TD.AperFunction*%
%TA.AperFunction,Conductor*%
G36*
X105373228Y-122170571D02*
G01*
X105391232Y-122170623D01*
X105406058Y-122180211D01*
X105422996Y-122185185D01*
X105434783Y-122198788D01*
X105449902Y-122208566D01*
X105457190Y-122224647D01*
X105468751Y-122237989D01*
X105471312Y-122255806D01*
X105478745Y-122272204D01*
X105476182Y-122289671D01*
X105478695Y-122307147D01*
X105471215Y-122323523D01*
X105468603Y-122341334D01*
X105457004Y-122354642D01*
X105449670Y-122370703D01*
X105434525Y-122380435D01*
X105422698Y-122394007D01*
X105391179Y-122408291D01*
X105390892Y-122408477D01*
X105390551Y-122408577D01*
X105360777Y-122417226D01*
X105750000Y-122806448D01*
X105750001Y-122806448D01*
X106139221Y-122417226D01*
X106109449Y-122408577D01*
X106050563Y-122370970D01*
X106021356Y-122307498D01*
X106031102Y-122238311D01*
X106076705Y-122185377D01*
X106143688Y-122165501D01*
X106144043Y-122165500D01*
X106840500Y-122165500D01*
X106907539Y-122185185D01*
X106953294Y-122237989D01*
X106964500Y-122289500D01*
X106964500Y-122518333D01*
X106944815Y-122585372D01*
X106928181Y-122606014D01*
X106884887Y-122649307D01*
X106884881Y-122649315D01*
X106802505Y-122788606D01*
X106802504Y-122788607D01*
X106779947Y-122866250D01*
X106742340Y-122925135D01*
X106678868Y-122954341D01*
X106609681Y-122944595D01*
X106556747Y-122898990D01*
X106541794Y-122866248D01*
X106512032Y-122763806D01*
X106507465Y-122756084D01*
X105960371Y-123303181D01*
X105899048Y-123336666D01*
X105872690Y-123339500D01*
X105516311Y-123339500D01*
X105449272Y-123319815D01*
X105403517Y-123267011D01*
X105393573Y-123197853D01*
X105396448Y-123191557D01*
X105396448Y-123160000D01*
X104992533Y-122756085D01*
X104992532Y-122756085D01*
X104987968Y-122763804D01*
X104987967Y-122763807D01*
X104942856Y-122919079D01*
X104942854Y-122919092D01*
X104940000Y-122955355D01*
X104940000Y-123364625D01*
X104940001Y-123364647D01*
X104942854Y-123400910D01*
X104987968Y-123556195D01*
X104999911Y-123576389D01*
X105017092Y-123644113D01*
X104999911Y-123702628D01*
X104987506Y-123723604D01*
X104987504Y-123723609D01*
X104942357Y-123879002D01*
X104942356Y-123879008D01*
X104939500Y-123915302D01*
X104939500Y-124324697D01*
X104942356Y-124360991D01*
X104942357Y-124360997D01*
X104987504Y-124516390D01*
X104987506Y-124516396D01*
X105000452Y-124538286D01*
X105017635Y-124606010D01*
X105008282Y-124648857D01*
X104980264Y-124716502D01*
X104980262Y-124716506D01*
X104980260Y-124716511D01*
X104949500Y-124871153D01*
X104949500Y-125028846D01*
X104980261Y-125183489D01*
X104980264Y-125183501D01*
X105040602Y-125329172D01*
X105040609Y-125329185D01*
X105128602Y-125460874D01*
X105134252Y-125478920D01*
X105144477Y-125494830D01*
X105148928Y-125525789D01*
X105149480Y-125527551D01*
X105149500Y-125529765D01*
X105149500Y-125685500D01*
X105129815Y-125752539D01*
X105077011Y-125798294D01*
X105025500Y-125809500D01*
X104467129Y-125809500D01*
X104467123Y-125809501D01*
X104407516Y-125815908D01*
X104272671Y-125866202D01*
X104272664Y-125866206D01*
X104157455Y-125952452D01*
X104157452Y-125952455D01*
X104071206Y-126067664D01*
X104071202Y-126067671D01*
X104025685Y-126189711D01*
X104020909Y-126202517D01*
X104014500Y-126262127D01*
X104014500Y-126262135D01*
X104014500Y-126262136D01*
X104014500Y-126957870D01*
X104014501Y-126957876D01*
X104020908Y-127017483D01*
X104071202Y-127152328D01*
X104071206Y-127152335D01*
X104157452Y-127267544D01*
X104157455Y-127267547D01*
X104272664Y-127353793D01*
X104272671Y-127353797D01*
X104407517Y-127404091D01*
X104407516Y-127404091D01*
X104414444Y-127404835D01*
X104467127Y-127410500D01*
X105812872Y-127410499D01*
X105872483Y-127404091D01*
X105919231Y-127386654D01*
X105928261Y-127386009D01*
X105936206Y-127381671D01*
X105962564Y-127383555D01*
X105988922Y-127381671D01*
X105996866Y-127386009D01*
X106005898Y-127386655D01*
X106027054Y-127402493D01*
X106050245Y-127415156D01*
X106054583Y-127423101D01*
X106061831Y-127428527D01*
X106071065Y-127453286D01*
X106083730Y-127476479D01*
X106083084Y-127485508D01*
X106086248Y-127493991D01*
X106080631Y-127519811D01*
X106078746Y-127546170D01*
X106072927Y-127555223D01*
X106071396Y-127562264D01*
X106050245Y-127590518D01*
X105961720Y-127679043D01*
X105900397Y-127712528D01*
X105860784Y-127714651D01*
X105812883Y-127709501D01*
X105812881Y-127709500D01*
X105812873Y-127709500D01*
X105812864Y-127709500D01*
X104467129Y-127709500D01*
X104467123Y-127709501D01*
X104407516Y-127715908D01*
X104272671Y-127766202D01*
X104272664Y-127766206D01*
X104157455Y-127852452D01*
X104157452Y-127852455D01*
X104071206Y-127967664D01*
X104071202Y-127967671D01*
X104020910Y-128102513D01*
X104020909Y-128102517D01*
X104014500Y-128162127D01*
X104014500Y-128162134D01*
X104014500Y-128162135D01*
X104014500Y-128857870D01*
X104014501Y-128857876D01*
X104020908Y-128917483D01*
X104071202Y-129052328D01*
X104071206Y-129052335D01*
X104157452Y-129167544D01*
X104157455Y-129167547D01*
X104272664Y-129253793D01*
X104272671Y-129253797D01*
X104407517Y-129304091D01*
X104407516Y-129304091D01*
X104414444Y-129304835D01*
X104467127Y-129310500D01*
X105812872Y-129310499D01*
X105872483Y-129304091D01*
X106007331Y-129253796D01*
X106122546Y-129167546D01*
X106168541Y-129106103D01*
X106175395Y-129100020D01*
X106178063Y-129094846D01*
X106205800Y-129073034D01*
X106205806Y-129073029D01*
X106211785Y-129069577D01*
X106272541Y-129034499D01*
X106348716Y-128990520D01*
X106460520Y-128878716D01*
X106460520Y-128878714D01*
X106470724Y-128868511D01*
X106470727Y-128868506D01*
X107804664Y-127534571D01*
X107865985Y-127501088D01*
X107868152Y-127500637D01*
X107868841Y-127500500D01*
X107868842Y-127500500D01*
X108023497Y-127469737D01*
X108169179Y-127409394D01*
X108300289Y-127321789D01*
X108411789Y-127210289D01*
X108499394Y-127079179D01*
X108559737Y-126933497D01*
X108590500Y-126778842D01*
X108590500Y-126621158D01*
X108590500Y-126621155D01*
X108590499Y-126621153D01*
X108559738Y-126466510D01*
X108559738Y-126466508D01*
X108559737Y-126466503D01*
X108535675Y-126408412D01*
X108499397Y-126320827D01*
X108499390Y-126320814D01*
X108411789Y-126189711D01*
X108411786Y-126189707D01*
X108300292Y-126078213D01*
X108300288Y-126078210D01*
X108169185Y-125990609D01*
X108169172Y-125990602D01*
X108023501Y-125930264D01*
X108023489Y-125930261D01*
X107868845Y-125899500D01*
X107868842Y-125899500D01*
X107711158Y-125899500D01*
X107711155Y-125899500D01*
X107556510Y-125930261D01*
X107556498Y-125930264D01*
X107410827Y-125990602D01*
X107410814Y-125990609D01*
X107279711Y-126078210D01*
X107279707Y-126078213D01*
X107168213Y-126189707D01*
X107168210Y-126189711D01*
X107080609Y-126320814D01*
X107080602Y-126320827D01*
X107020264Y-126466498D01*
X107020261Y-126466508D01*
X106989362Y-126621848D01*
X106956977Y-126683759D01*
X106955426Y-126685337D01*
X106445518Y-127195245D01*
X106384195Y-127228730D01*
X106314503Y-127223746D01*
X106258570Y-127181874D01*
X106234153Y-127116410D01*
X106241654Y-127064232D01*
X106259091Y-127017483D01*
X106265500Y-126957873D01*
X106265499Y-126341354D01*
X106282115Y-126279350D01*
X106292062Y-126262123D01*
X106309575Y-126231788D01*
X106309577Y-126231785D01*
X106350500Y-126079058D01*
X106350500Y-125920943D01*
X106350500Y-125529765D01*
X106370185Y-125462726D01*
X106371398Y-125460874D01*
X106459390Y-125329185D01*
X106459390Y-125329184D01*
X106459394Y-125329179D01*
X106519737Y-125183497D01*
X106550500Y-125028842D01*
X106550500Y-124871158D01*
X106550500Y-124871155D01*
X106550499Y-124871153D01*
X106545552Y-124846282D01*
X106519737Y-124716503D01*
X106491717Y-124648859D01*
X106484249Y-124579391D01*
X106490122Y-124558007D01*
X106493961Y-124547730D01*
X106512494Y-124516395D01*
X106536350Y-124434280D01*
X106537971Y-124429944D01*
X106556248Y-124405556D01*
X106572657Y-124379864D01*
X106577005Y-124377863D01*
X106579875Y-124374034D01*
X106608436Y-124363399D01*
X106636129Y-124350657D01*
X106640868Y-124351324D01*
X106645353Y-124349655D01*
X106675127Y-124356149D01*
X106705316Y-124360402D01*
X106708942Y-124363526D01*
X106713617Y-124364546D01*
X106735152Y-124386106D01*
X106758251Y-124406006D01*
X106760964Y-124411948D01*
X106762994Y-124413980D01*
X106763990Y-124418574D01*
X106773204Y-124438749D01*
X106802966Y-124541189D01*
X106802968Y-124541195D01*
X106885278Y-124680374D01*
X106885285Y-124680383D01*
X106999616Y-124794714D01*
X106999625Y-124794721D01*
X107138804Y-124877031D01*
X107294089Y-124922145D01*
X107315000Y-124923789D01*
X107815000Y-124923789D01*
X107835910Y-124922145D01*
X107991193Y-124877032D01*
X108110871Y-124806254D01*
X108178595Y-124789071D01*
X108244858Y-124811231D01*
X108249520Y-124814659D01*
X108388804Y-124897031D01*
X108544089Y-124942145D01*
X108565000Y-124943789D01*
X108565000Y-124415000D01*
X109065000Y-124415000D01*
X109065000Y-124943789D01*
X109085910Y-124942145D01*
X109241195Y-124897031D01*
X109381288Y-124814181D01*
X109449012Y-124796998D01*
X109507530Y-124814181D01*
X109613804Y-124877031D01*
X109769089Y-124922145D01*
X109790000Y-124923789D01*
X109790000Y-124395000D01*
X109741433Y-124395000D01*
X109709996Y-124412166D01*
X109683638Y-124415000D01*
X109065000Y-124415000D01*
X108565000Y-124415000D01*
X107946362Y-124415000D01*
X107879323Y-124395315D01*
X107878932Y-124395000D01*
X107815000Y-124395000D01*
X107815000Y-124923789D01*
X107315000Y-124923789D01*
X107315000Y-124269000D01*
X107334685Y-124201961D01*
X107387489Y-124156206D01*
X107439000Y-124145000D01*
X107565000Y-124145000D01*
X107565000Y-124089500D01*
X107584685Y-124022461D01*
X107637489Y-123976706D01*
X107689000Y-123965500D01*
X107799682Y-123965500D01*
X107799690Y-123965500D01*
X107835993Y-123962643D01*
X107835995Y-123962642D01*
X107835997Y-123962642D01*
X107991389Y-123917496D01*
X107991389Y-123917495D01*
X107991395Y-123917494D01*
X108000233Y-123912267D01*
X108016132Y-123907917D01*
X108028417Y-123900023D01*
X108063352Y-123895000D01*
X108282830Y-123895000D01*
X108345948Y-123912267D01*
X108388605Y-123937494D01*
X108388608Y-123937494D01*
X108388610Y-123937496D01*
X108544002Y-123982642D01*
X108544005Y-123982642D01*
X108544007Y-123982643D01*
X108580310Y-123985500D01*
X108580318Y-123985500D01*
X109049682Y-123985500D01*
X109049690Y-123985500D01*
X109085993Y-123982643D01*
X109085995Y-123982642D01*
X109085997Y-123982642D01*
X109241389Y-123937496D01*
X109241389Y-123937495D01*
X109241395Y-123937494D01*
X109284051Y-123912267D01*
X109299950Y-123907917D01*
X109312235Y-123900023D01*
X109347170Y-123895000D01*
X109541648Y-123895000D01*
X109604766Y-123912267D01*
X109613605Y-123917494D01*
X109613608Y-123917494D01*
X109613610Y-123917496D01*
X109769002Y-123962642D01*
X109769005Y-123962642D01*
X109769007Y-123962643D01*
X109805310Y-123965500D01*
X109916000Y-123965500D01*
X109983039Y-123985185D01*
X110028794Y-124037989D01*
X110040000Y-124089500D01*
X110040000Y-124145000D01*
X110099403Y-124145000D01*
X110128843Y-124153644D01*
X110158830Y-124160168D01*
X110163845Y-124163922D01*
X110166442Y-124164685D01*
X110187084Y-124181319D01*
X110253681Y-124247916D01*
X110287166Y-124309239D01*
X110290000Y-124335597D01*
X110290000Y-124923789D01*
X110310910Y-124922145D01*
X110466195Y-124877031D01*
X110605374Y-124794721D01*
X110605382Y-124794715D01*
X110615247Y-124784850D01*
X110676569Y-124751363D01*
X110746261Y-124756345D01*
X110790612Y-124784847D01*
X111433181Y-125427416D01*
X111466666Y-125488739D01*
X111469500Y-125515097D01*
X111469500Y-127959903D01*
X111449815Y-128026942D01*
X111433181Y-128047584D01*
X108287584Y-131193181D01*
X108226261Y-131226666D01*
X108199903Y-131229500D01*
X103220097Y-131229500D01*
X103153058Y-131209815D01*
X103132416Y-131193181D01*
X101686916Y-129747681D01*
X101653431Y-129686358D01*
X101658415Y-129616666D01*
X101686916Y-129572319D01*
X101799131Y-129460104D01*
X101912418Y-129346816D01*
X101973739Y-129313333D01*
X102000087Y-129310499D01*
X103312872Y-129310499D01*
X103372483Y-129304091D01*
X103507331Y-129253796D01*
X103622546Y-129167546D01*
X103708796Y-129052331D01*
X103759091Y-128917483D01*
X103765500Y-128857873D01*
X103765499Y-128162128D01*
X103759091Y-128102517D01*
X103749804Y-128077619D01*
X103744820Y-128007928D01*
X103749804Y-127990951D01*
X103758598Y-127967371D01*
X103764999Y-127907844D01*
X103765000Y-127907827D01*
X103765000Y-127810000D01*
X103607107Y-127810000D01*
X103540068Y-127790315D01*
X103532796Y-127785267D01*
X103507331Y-127766204D01*
X103507328Y-127766202D01*
X103372482Y-127715908D01*
X103372483Y-127715908D01*
X103312883Y-127709501D01*
X103312881Y-127709500D01*
X103312873Y-127709500D01*
X103312865Y-127709500D01*
X101967129Y-127709500D01*
X101967123Y-127709501D01*
X101907516Y-127715908D01*
X101772671Y-127766202D01*
X101772668Y-127766204D01*
X101747204Y-127785267D01*
X101731416Y-127791390D01*
X101719230Y-127801017D01*
X101693970Y-127805913D01*
X101684949Y-127809413D01*
X101453038Y-127832068D01*
X101425553Y-127826832D01*
X101397646Y-127824836D01*
X101391687Y-127820381D01*
X101384402Y-127818994D01*
X101364394Y-127800000D01*
X100800000Y-127800000D01*
X100800000Y-128328789D01*
X100820913Y-128327145D01*
X100938849Y-128292881D01*
X101008718Y-128293080D01*
X101067388Y-128331022D01*
X101096232Y-128394660D01*
X101086091Y-128463790D01*
X101061125Y-128499638D01*
X100735339Y-128825425D01*
X100674016Y-128858910D01*
X100671850Y-128859361D01*
X100516508Y-128890261D01*
X100516498Y-128890264D01*
X100370827Y-128950602D01*
X100370816Y-128950608D01*
X100333390Y-128975616D01*
X100266713Y-128996493D01*
X100199333Y-128978008D01*
X100152643Y-128926029D01*
X100140500Y-128872513D01*
X100140500Y-128450380D01*
X100160185Y-128383341D01*
X100212989Y-128337586D01*
X100274224Y-128326762D01*
X100300000Y-128328789D01*
X100300000Y-127674000D01*
X100319685Y-127606961D01*
X100372489Y-127561206D01*
X100424000Y-127550000D01*
X100550000Y-127550000D01*
X100550000Y-127494500D01*
X100569685Y-127427461D01*
X100622489Y-127381706D01*
X100674000Y-127370500D01*
X100784682Y-127370500D01*
X100784690Y-127370500D01*
X100820993Y-127367643D01*
X100820995Y-127367642D01*
X100820997Y-127367642D01*
X100976389Y-127322496D01*
X100976389Y-127322495D01*
X100976395Y-127322494D01*
X100985233Y-127317267D01*
X101048352Y-127300000D01*
X101371180Y-127300000D01*
X101389233Y-127286525D01*
X101448375Y-127279800D01*
X101688863Y-127311033D01*
X101713796Y-127322010D01*
X101739932Y-127329685D01*
X101747204Y-127334733D01*
X101772668Y-127353795D01*
X101772671Y-127353797D01*
X101809792Y-127367642D01*
X101907517Y-127404091D01*
X101967127Y-127410500D01*
X103312872Y-127410499D01*
X103372483Y-127404091D01*
X103507331Y-127353796D01*
X103532796Y-127334733D01*
X103598261Y-127310316D01*
X103607107Y-127310000D01*
X103765000Y-127310000D01*
X103765000Y-127212172D01*
X103764999Y-127212155D01*
X103758598Y-127152627D01*
X103758597Y-127152623D01*
X103749804Y-127129047D01*
X103744820Y-127059355D01*
X103749802Y-127042387D01*
X103759091Y-127017483D01*
X103765500Y-126957873D01*
X103765499Y-126262128D01*
X103765499Y-126262127D01*
X103765499Y-126262123D01*
X103759091Y-126202516D01*
X103708797Y-126067671D01*
X103708793Y-126067664D01*
X103622547Y-125952455D01*
X103622544Y-125952452D01*
X103507335Y-125866206D01*
X103507328Y-125866202D01*
X103372482Y-125815908D01*
X103372483Y-125815908D01*
X103312883Y-125809501D01*
X103312881Y-125809500D01*
X103312873Y-125809500D01*
X103312864Y-125809500D01*
X101967129Y-125809500D01*
X101967123Y-125809501D01*
X101907516Y-125815908D01*
X101772671Y-125866202D01*
X101772664Y-125866206D01*
X101657455Y-125952452D01*
X101656720Y-125953188D01*
X101655807Y-125953685D01*
X101650355Y-125957768D01*
X101649767Y-125956983D01*
X101595394Y-125986668D01*
X101569045Y-125989500D01*
X101274500Y-125989500D01*
X101207461Y-125969815D01*
X101161706Y-125917011D01*
X101150500Y-125865500D01*
X101150500Y-125239059D01*
X101150501Y-125239046D01*
X101150501Y-125070945D01*
X101150501Y-125070943D01*
X101145317Y-125051596D01*
X101146980Y-124981747D01*
X101177409Y-124931825D01*
X103907417Y-122201819D01*
X103968740Y-122168334D01*
X103995098Y-122165500D01*
X105355957Y-122165500D01*
X105373228Y-122170571D01*
G37*
%TD.AperFunction*%
%TA.AperFunction,Conductor*%
G36*
X106734688Y-120060185D02*
G01*
X106780443Y-120112989D01*
X106790939Y-120151248D01*
X106795908Y-120197483D01*
X106846202Y-120332328D01*
X106846206Y-120332335D01*
X106932452Y-120447544D01*
X106932455Y-120447547D01*
X107047664Y-120533793D01*
X107047671Y-120533797D01*
X107086090Y-120548126D01*
X107182517Y-120584091D01*
X107242127Y-120590500D01*
X107390903Y-120590499D01*
X107412148Y-120596737D01*
X107434235Y-120598317D01*
X107445017Y-120606388D01*
X107457941Y-120610183D01*
X107472441Y-120626917D01*
X107490169Y-120640188D01*
X107494876Y-120652808D01*
X107503696Y-120662987D01*
X107506847Y-120684904D01*
X107514586Y-120705652D01*
X107511723Y-120718813D01*
X107513640Y-120732145D01*
X107504442Y-120752285D01*
X107499735Y-120773925D01*
X107486462Y-120791655D01*
X107484615Y-120795701D01*
X107478584Y-120802180D01*
X107435703Y-120845060D01*
X107352582Y-120928182D01*
X107291262Y-120961666D01*
X107264903Y-120964500D01*
X103781670Y-120964500D01*
X103781654Y-120964499D01*
X103774058Y-120964499D01*
X103615943Y-120964499D01*
X103539579Y-120984961D01*
X103463214Y-121005423D01*
X103463209Y-121005426D01*
X103326290Y-121084475D01*
X103326282Y-121084481D01*
X100352181Y-124058583D01*
X100290858Y-124092068D01*
X100221166Y-124087084D01*
X100165233Y-124045212D01*
X100140816Y-123979748D01*
X100140500Y-123970902D01*
X100140500Y-122415097D01*
X100160185Y-122348058D01*
X100176819Y-122327416D01*
X102427416Y-120076819D01*
X102488739Y-120043334D01*
X102515097Y-120040500D01*
X106667649Y-120040500D01*
X106734688Y-120060185D01*
G37*
%TD.AperFunction*%
%TA.AperFunction,Conductor*%
G36*
X106704797Y-123400404D02*
G01*
X106757731Y-123446007D01*
X106772684Y-123478750D01*
X106802504Y-123581390D01*
X106802507Y-123581397D01*
X106814910Y-123602370D01*
X106820349Y-123623809D01*
X106830230Y-123643599D01*
X106828773Y-123657012D01*
X106832093Y-123670094D01*
X106825076Y-123691074D01*
X106822690Y-123713061D01*
X106814912Y-123728608D01*
X106802968Y-123748804D01*
X106802966Y-123748809D01*
X106780468Y-123826250D01*
X106742862Y-123885135D01*
X106679390Y-123914342D01*
X106610203Y-123904596D01*
X106557269Y-123858992D01*
X106542316Y-123826250D01*
X106519682Y-123748347D01*
X106512494Y-123723605D01*
X106500089Y-123702630D01*
X106494649Y-123681188D01*
X106484769Y-123661400D01*
X106486224Y-123647988D01*
X106482906Y-123634909D01*
X106490423Y-123609307D01*
X106492309Y-123591938D01*
X106497360Y-123585682D01*
X106500091Y-123576384D01*
X106512032Y-123556194D01*
X106534531Y-123478751D01*
X106572137Y-123419865D01*
X106635610Y-123390658D01*
X106704797Y-123400404D01*
G37*
%TD.AperFunction*%
%TA.AperFunction,Conductor*%
G36*
X95945703Y-107975384D02*
G01*
X95952181Y-107981416D01*
X99353181Y-111382416D01*
X99386666Y-111443739D01*
X99389500Y-111470097D01*
X99389500Y-113003330D01*
X99389499Y-113003348D01*
X99389499Y-113169054D01*
X99389498Y-113169054D01*
X99430423Y-113321785D01*
X99459358Y-113371900D01*
X99459359Y-113371904D01*
X99459360Y-113371904D01*
X99509479Y-113458714D01*
X99509481Y-113458717D01*
X99628349Y-113577585D01*
X99628355Y-113577590D01*
X104178583Y-118127819D01*
X104189195Y-118147255D01*
X104203696Y-118163989D01*
X104205612Y-118177320D01*
X104212068Y-118189142D01*
X104210488Y-118211228D01*
X104213640Y-118233147D01*
X104208044Y-118245398D01*
X104207084Y-118258834D01*
X104193813Y-118276560D01*
X104184615Y-118296703D01*
X104173283Y-118303985D01*
X104165212Y-118314767D01*
X104144466Y-118322504D01*
X104125837Y-118334477D01*
X104103918Y-118337628D01*
X104099748Y-118339184D01*
X104090902Y-118339500D01*
X103865097Y-118339500D01*
X103798058Y-118319815D01*
X103777416Y-118303181D01*
X99026819Y-113552584D01*
X98993334Y-113491261D01*
X98990500Y-113464903D01*
X98990500Y-112030946D01*
X98990500Y-112030943D01*
X98973433Y-111967246D01*
X98949577Y-111878215D01*
X98920639Y-111828095D01*
X98870520Y-111741284D01*
X98758716Y-111629480D01*
X98758715Y-111629479D01*
X98754385Y-111625149D01*
X98754374Y-111625139D01*
X95723757Y-108594522D01*
X95690272Y-108533199D01*
X95693507Y-108468523D01*
X95707246Y-108426243D01*
X95740500Y-108216287D01*
X95740500Y-108069097D01*
X95760185Y-108002058D01*
X95812989Y-107956303D01*
X95882147Y-107946359D01*
X95945703Y-107975384D01*
G37*
%TD.AperFunction*%
%TA.AperFunction,Conductor*%
G36*
X105831942Y-110210185D02*
G01*
X105852584Y-110226819D01*
X110184293Y-114558528D01*
X110217778Y-114619851D01*
X110212794Y-114689543D01*
X110170922Y-114745476D01*
X110144064Y-114760770D01*
X110035827Y-114805602D01*
X110035814Y-114805609D01*
X109904711Y-114893210D01*
X109904707Y-114893213D01*
X109793213Y-115004707D01*
X109793210Y-115004711D01*
X109705609Y-115135814D01*
X109705602Y-115135827D01*
X109645264Y-115281498D01*
X109645261Y-115281508D01*
X109614362Y-115436848D01*
X109605598Y-115453602D01*
X109601580Y-115472077D01*
X109582834Y-115497118D01*
X109581977Y-115498759D01*
X109580431Y-115500332D01*
X109571289Y-115509475D01*
X109571286Y-115509476D01*
X109571286Y-115509477D01*
X109571284Y-115509480D01*
X109459480Y-115621283D01*
X109454845Y-115629311D01*
X109454297Y-115630263D01*
X109453605Y-115631461D01*
X109453603Y-115631463D01*
X109380424Y-115758211D01*
X109380423Y-115758215D01*
X109343990Y-115894185D01*
X109339499Y-115910944D01*
X109339126Y-115913779D01*
X109338146Y-115915992D01*
X109337396Y-115918794D01*
X109336958Y-115918676D01*
X109310856Y-115977675D01*
X109252530Y-116016143D01*
X109182666Y-116016972D01*
X109123444Y-115979897D01*
X109113085Y-115966480D01*
X109061789Y-115889711D01*
X109061786Y-115889707D01*
X108950292Y-115778213D01*
X108950288Y-115778210D01*
X108819185Y-115690609D01*
X108819172Y-115690602D01*
X108673501Y-115630264D01*
X108673489Y-115630261D01*
X108518845Y-115599500D01*
X108518842Y-115599500D01*
X108361158Y-115599500D01*
X108361155Y-115599500D01*
X108206510Y-115630261D01*
X108206498Y-115630264D01*
X108060827Y-115690602D01*
X108060814Y-115690609D01*
X107929711Y-115778210D01*
X107929707Y-115778213D01*
X107818213Y-115889707D01*
X107818210Y-115889711D01*
X107730609Y-116020814D01*
X107730602Y-116020827D01*
X107670264Y-116166498D01*
X107670261Y-116166510D01*
X107639500Y-116321153D01*
X107639500Y-116478846D01*
X107670261Y-116633489D01*
X107670264Y-116633501D01*
X107730602Y-116779172D01*
X107730609Y-116779185D01*
X107818602Y-116910874D01*
X107824252Y-116928920D01*
X107834477Y-116944830D01*
X107838928Y-116975789D01*
X107839480Y-116977551D01*
X107839500Y-116979765D01*
X107839500Y-117043271D01*
X107831682Y-117086604D01*
X107795908Y-117182517D01*
X107789740Y-117239896D01*
X107789501Y-117242123D01*
X107789500Y-117242135D01*
X107789500Y-117665500D01*
X107769815Y-117732539D01*
X107717011Y-117778294D01*
X107665500Y-117789500D01*
X107242129Y-117789500D01*
X107242123Y-117789501D01*
X107182516Y-117795908D01*
X107086604Y-117831682D01*
X107043271Y-117839500D01*
X105640098Y-117839500D01*
X105573059Y-117819815D01*
X105552417Y-117803181D01*
X100626819Y-112877583D01*
X100593334Y-112816260D01*
X100590500Y-112789902D01*
X100590500Y-111259059D01*
X100590501Y-111259046D01*
X100590501Y-111090946D01*
X100590501Y-111090943D01*
X100563064Y-110988548D01*
X100564727Y-110918704D01*
X100603889Y-110860841D01*
X100668117Y-110833336D01*
X100707031Y-110834842D01*
X100861155Y-110865500D01*
X100861158Y-110865500D01*
X101018844Y-110865500D01*
X101018845Y-110865499D01*
X101173497Y-110834737D01*
X101319179Y-110774394D01*
X101450289Y-110686789D01*
X101561789Y-110575289D01*
X101649394Y-110444179D01*
X101709737Y-110298497D01*
X101711365Y-110290308D01*
X101743750Y-110228399D01*
X101804465Y-110193824D01*
X101832983Y-110190500D01*
X102210943Y-110190500D01*
X105764903Y-110190500D01*
X105831942Y-110210185D01*
G37*
%TD.AperFunction*%
%TA.AperFunction,Conductor*%
G36*
X122142539Y-94420185D02*
G01*
X122188294Y-94472989D01*
X122199500Y-94524500D01*
X122199500Y-153375500D01*
X122179815Y-153442539D01*
X122127011Y-153488294D01*
X122075500Y-153499500D01*
X92224500Y-153499500D01*
X92157461Y-153479815D01*
X92111706Y-153427011D01*
X92100500Y-153375500D01*
X92100500Y-97052135D01*
X93039500Y-97052135D01*
X93039500Y-98847870D01*
X93039501Y-98847876D01*
X93045908Y-98907483D01*
X93096202Y-99042328D01*
X93096206Y-99042335D01*
X93182452Y-99157544D01*
X93182455Y-99157547D01*
X93297664Y-99243793D01*
X93297671Y-99243797D01*
X93429082Y-99292810D01*
X93485016Y-99334681D01*
X93509433Y-99400145D01*
X93494582Y-99468418D01*
X93473431Y-99496673D01*
X93359889Y-99610215D01*
X93234951Y-99782179D01*
X93138444Y-99971585D01*
X93072753Y-100173760D01*
X93039500Y-100383713D01*
X93039500Y-100596286D01*
X93072753Y-100806239D01*
X93138444Y-101008414D01*
X93234951Y-101197820D01*
X93359890Y-101369786D01*
X93510213Y-101520109D01*
X93682182Y-101645050D01*
X93690946Y-101649516D01*
X93741742Y-101697491D01*
X93758536Y-101765312D01*
X93735998Y-101831447D01*
X93690946Y-101870484D01*
X93682182Y-101874949D01*
X93510213Y-101999890D01*
X93359890Y-102150213D01*
X93234951Y-102322179D01*
X93138444Y-102511585D01*
X93072753Y-102713760D01*
X93039500Y-102923713D01*
X93039500Y-103136286D01*
X93072753Y-103346239D01*
X93138444Y-103548414D01*
X93234951Y-103737820D01*
X93359890Y-103909786D01*
X93510213Y-104060109D01*
X93682182Y-104185050D01*
X93690946Y-104189516D01*
X93741742Y-104237491D01*
X93758536Y-104305312D01*
X93735998Y-104371447D01*
X93690946Y-104410484D01*
X93682182Y-104414949D01*
X93510213Y-104539890D01*
X93359890Y-104690213D01*
X93234951Y-104862179D01*
X93138444Y-105051585D01*
X93072753Y-105253760D01*
X93039500Y-105463713D01*
X93039500Y-105676286D01*
X93072753Y-105886239D01*
X93072753Y-105886241D01*
X93072754Y-105886243D01*
X93127431Y-106054522D01*
X93138444Y-106088414D01*
X93234951Y-106277820D01*
X93359890Y-106449786D01*
X93510213Y-106600109D01*
X93682182Y-106725050D01*
X93690946Y-106729516D01*
X93741742Y-106777491D01*
X93758536Y-106845312D01*
X93735998Y-106911447D01*
X93690946Y-106950484D01*
X93682182Y-106954949D01*
X93510213Y-107079890D01*
X93359890Y-107230213D01*
X93234951Y-107402179D01*
X93138444Y-107591585D01*
X93072753Y-107793760D01*
X93039500Y-108003713D01*
X93039500Y-108216286D01*
X93072753Y-108426239D01*
X93072753Y-108426241D01*
X93072754Y-108426243D01*
X93127431Y-108594522D01*
X93138444Y-108628414D01*
X93234951Y-108817820D01*
X93359890Y-108989786D01*
X93510213Y-109140109D01*
X93682182Y-109265050D01*
X93690946Y-109269516D01*
X93741742Y-109317491D01*
X93758536Y-109385312D01*
X93735998Y-109451447D01*
X93690946Y-109490484D01*
X93682182Y-109494949D01*
X93510213Y-109619890D01*
X93359890Y-109770213D01*
X93234951Y-109942179D01*
X93138444Y-110131585D01*
X93072753Y-110333760D01*
X93039500Y-110543713D01*
X93039500Y-110756286D01*
X93068314Y-110938215D01*
X93072754Y-110966243D01*
X93080003Y-110988554D01*
X93138444Y-111168414D01*
X93234951Y-111357820D01*
X93359890Y-111529786D01*
X93510213Y-111680109D01*
X93682182Y-111805050D01*
X93690946Y-111809516D01*
X93741742Y-111857491D01*
X93758536Y-111925312D01*
X93735998Y-111991447D01*
X93690946Y-112030484D01*
X93682182Y-112034949D01*
X93510213Y-112159890D01*
X93359890Y-112310213D01*
X93234951Y-112482179D01*
X93138444Y-112671585D01*
X93072753Y-112873760D01*
X93039500Y-113083713D01*
X93039500Y-113296286D01*
X93065226Y-113458717D01*
X93072754Y-113506243D01*
X93131142Y-113685943D01*
X93138444Y-113708414D01*
X93234951Y-113897820D01*
X93359890Y-114069786D01*
X93510213Y-114220109D01*
X93682182Y-114345050D01*
X93690946Y-114349516D01*
X93741742Y-114397491D01*
X93758536Y-114465312D01*
X93735998Y-114531447D01*
X93690946Y-114570484D01*
X93682182Y-114574949D01*
X93510213Y-114699890D01*
X93359890Y-114850213D01*
X93234951Y-115022179D01*
X93138444Y-115211585D01*
X93072753Y-115413760D01*
X93039500Y-115623713D01*
X93039500Y-115836286D01*
X93069435Y-116025292D01*
X93072754Y-116046243D01*
X93111831Y-116166510D01*
X93138444Y-116248414D01*
X93234951Y-116437820D01*
X93359890Y-116609786D01*
X93510213Y-116760109D01*
X93682182Y-116885050D01*
X93690946Y-116889516D01*
X93741742Y-116937491D01*
X93758536Y-117005312D01*
X93735998Y-117071447D01*
X93690946Y-117110484D01*
X93682182Y-117114949D01*
X93510213Y-117239890D01*
X93359890Y-117390213D01*
X93234951Y-117562179D01*
X93138444Y-117751585D01*
X93138443Y-117751587D01*
X93138443Y-117751588D01*
X93124042Y-117795909D01*
X93072753Y-117953760D01*
X93059737Y-118035943D01*
X93039500Y-118163713D01*
X93039500Y-118376287D01*
X93072754Y-118586243D01*
X93128832Y-118758834D01*
X93138444Y-118788414D01*
X93234951Y-118977820D01*
X93359890Y-119149786D01*
X93510213Y-119300109D01*
X93682182Y-119425050D01*
X93690946Y-119429516D01*
X93741742Y-119477491D01*
X93758536Y-119545312D01*
X93735998Y-119611447D01*
X93690946Y-119650484D01*
X93682182Y-119654949D01*
X93510213Y-119779890D01*
X93359890Y-119930213D01*
X93234951Y-120102179D01*
X93138444Y-120291585D01*
X93072753Y-120493760D01*
X93039500Y-120703713D01*
X93039500Y-120916286D01*
X93072753Y-121126239D01*
X93138444Y-121328414D01*
X93234951Y-121517820D01*
X93359890Y-121689786D01*
X93510213Y-121840109D01*
X93682182Y-121965050D01*
X93690946Y-121969516D01*
X93741742Y-122017491D01*
X93758536Y-122085312D01*
X93735998Y-122151447D01*
X93690946Y-122190484D01*
X93682182Y-122194949D01*
X93510213Y-122319890D01*
X93359890Y-122470213D01*
X93234951Y-122642179D01*
X93138444Y-122831585D01*
X93072753Y-123033760D01*
X93039500Y-123243713D01*
X93039500Y-123456287D01*
X93043058Y-123478750D01*
X93069862Y-123647988D01*
X93072754Y-123666243D01*
X93135382Y-123858992D01*
X93138444Y-123868414D01*
X93234951Y-124057820D01*
X93359890Y-124229786D01*
X93510213Y-124380109D01*
X93682182Y-124505050D01*
X93690946Y-124509516D01*
X93741742Y-124557491D01*
X93758536Y-124625312D01*
X93735998Y-124691447D01*
X93690946Y-124730484D01*
X93682182Y-124734949D01*
X93510213Y-124859890D01*
X93359890Y-125010213D01*
X93234951Y-125182179D01*
X93138444Y-125371585D01*
X93072753Y-125573760D01*
X93039500Y-125783713D01*
X93039500Y-125996286D01*
X93072163Y-126202517D01*
X93072754Y-126206243D01*
X93090912Y-126262128D01*
X93138444Y-126408414D01*
X93234951Y-126597820D01*
X93359890Y-126769786D01*
X93510213Y-126920109D01*
X93682182Y-127045050D01*
X93690946Y-127049516D01*
X93741742Y-127097491D01*
X93758536Y-127165312D01*
X93735998Y-127231447D01*
X93690946Y-127270484D01*
X93682182Y-127274949D01*
X93510213Y-127399890D01*
X93359890Y-127550213D01*
X93234951Y-127722179D01*
X93138444Y-127911585D01*
X93072753Y-128113760D01*
X93039500Y-128323713D01*
X93039500Y-128536286D01*
X93071847Y-128740521D01*
X93072754Y-128746243D01*
X93131170Y-128926029D01*
X93138444Y-128948414D01*
X93234951Y-129137820D01*
X93359890Y-129309786D01*
X93510213Y-129460109D01*
X93682182Y-129585050D01*
X93690946Y-129589516D01*
X93741742Y-129637491D01*
X93758536Y-129705312D01*
X93735998Y-129771447D01*
X93690946Y-129810484D01*
X93682182Y-129814949D01*
X93510213Y-129939890D01*
X93359890Y-130090213D01*
X93234951Y-130262179D01*
X93138444Y-130451585D01*
X93072753Y-130653760D01*
X93039500Y-130863713D01*
X93039500Y-131076286D01*
X93072753Y-131286239D01*
X93138444Y-131488414D01*
X93234951Y-131677820D01*
X93359890Y-131849786D01*
X93510213Y-132000109D01*
X93682182Y-132125050D01*
X93690946Y-132129516D01*
X93741742Y-132177491D01*
X93758536Y-132245312D01*
X93735998Y-132311447D01*
X93690946Y-132350484D01*
X93682182Y-132354949D01*
X93510213Y-132479890D01*
X93359890Y-132630213D01*
X93234951Y-132802179D01*
X93138444Y-132991585D01*
X93072753Y-133193760D01*
X93039500Y-133403713D01*
X93039500Y-133616286D01*
X93072753Y-133826239D01*
X93138444Y-134028414D01*
X93234951Y-134217820D01*
X93359890Y-134389786D01*
X93510213Y-134540109D01*
X93682182Y-134665050D01*
X93690946Y-134669516D01*
X93741742Y-134717491D01*
X93758536Y-134785312D01*
X93735998Y-134851447D01*
X93690946Y-134890484D01*
X93682182Y-134894949D01*
X93510213Y-135019890D01*
X93359890Y-135170213D01*
X93234951Y-135342179D01*
X93138444Y-135531585D01*
X93072753Y-135733760D01*
X93039500Y-135943713D01*
X93039500Y-136156286D01*
X93072753Y-136366239D01*
X93138444Y-136568414D01*
X93234951Y-136757820D01*
X93359890Y-136929786D01*
X93510213Y-137080109D01*
X93682182Y-137205050D01*
X93690946Y-137209516D01*
X93741742Y-137257491D01*
X93758536Y-137325312D01*
X93735998Y-137391447D01*
X93690946Y-137430484D01*
X93682182Y-137434949D01*
X93510213Y-137559890D01*
X93359890Y-137710213D01*
X93234951Y-137882179D01*
X93138444Y-138071585D01*
X93072753Y-138273760D01*
X93039500Y-138483713D01*
X93039500Y-138696287D01*
X93072754Y-138906243D01*
X93100321Y-138991086D01*
X93138444Y-139108414D01*
X93234951Y-139297820D01*
X93359890Y-139469786D01*
X93510213Y-139620109D01*
X93682182Y-139745050D01*
X93690946Y-139749516D01*
X93741742Y-139797491D01*
X93758536Y-139865312D01*
X93735998Y-139931447D01*
X93690946Y-139970484D01*
X93682182Y-139974949D01*
X93510213Y-140099890D01*
X93359890Y-140250213D01*
X93234951Y-140422179D01*
X93138444Y-140611585D01*
X93072753Y-140813760D01*
X93039500Y-141023713D01*
X93039500Y-141236286D01*
X93072753Y-141446239D01*
X93138444Y-141648414D01*
X93234951Y-141837820D01*
X93359890Y-142009786D01*
X93510213Y-142160109D01*
X93682182Y-142285050D01*
X93690946Y-142289516D01*
X93741742Y-142337491D01*
X93758536Y-142405312D01*
X93735998Y-142471447D01*
X93690946Y-142510484D01*
X93682182Y-142514949D01*
X93510213Y-142639890D01*
X93359890Y-142790213D01*
X93234951Y-142962179D01*
X93138444Y-143151585D01*
X93072753Y-143353760D01*
X93039500Y-143563713D01*
X93039500Y-143776286D01*
X93072753Y-143986239D01*
X93138444Y-144188414D01*
X93234951Y-144377820D01*
X93359890Y-144549786D01*
X93510213Y-144700109D01*
X93682182Y-144825050D01*
X93690946Y-144829516D01*
X93741742Y-144877491D01*
X93758536Y-144945312D01*
X93735998Y-145011447D01*
X93690946Y-145050484D01*
X93682182Y-145054949D01*
X93510213Y-145179890D01*
X93359890Y-145330213D01*
X93234951Y-145502179D01*
X93138444Y-145691585D01*
X93072753Y-145893760D01*
X93039500Y-146103713D01*
X93039500Y-146316286D01*
X93072753Y-146526239D01*
X93138444Y-146728414D01*
X93234951Y-146917820D01*
X93359890Y-147089786D01*
X93510213Y-147240109D01*
X93682182Y-147365050D01*
X93690946Y-147369516D01*
X93741742Y-147417491D01*
X93758536Y-147485312D01*
X93735998Y-147551447D01*
X93690946Y-147590484D01*
X93682182Y-147594949D01*
X93510213Y-147719890D01*
X93359890Y-147870213D01*
X93234951Y-148042179D01*
X93138444Y-148231585D01*
X93072753Y-148433760D01*
X93039500Y-148643713D01*
X93039500Y-148856286D01*
X93072753Y-149066239D01*
X93138444Y-149268414D01*
X93234951Y-149457820D01*
X93359890Y-149629786D01*
X93510213Y-149780109D01*
X93682179Y-149905048D01*
X93682181Y-149905049D01*
X93682184Y-149905051D01*
X93691493Y-149909794D01*
X93742290Y-149957766D01*
X93759087Y-150025587D01*
X93736552Y-150091722D01*
X93691505Y-150130760D01*
X93682446Y-150135376D01*
X93682440Y-150135380D01*
X93628282Y-150174727D01*
X93628282Y-150174728D01*
X94260591Y-150807037D01*
X94197007Y-150824075D01*
X94082993Y-150889901D01*
X93989901Y-150982993D01*
X93924075Y-151097007D01*
X93907037Y-151160591D01*
X93274728Y-150528282D01*
X93274727Y-150528282D01*
X93235380Y-150582439D01*
X93138904Y-150771782D01*
X93073242Y-150973869D01*
X93073242Y-150973872D01*
X93040000Y-151183753D01*
X93040000Y-151396246D01*
X93073242Y-151606127D01*
X93073242Y-151606130D01*
X93138904Y-151808217D01*
X93235375Y-151997550D01*
X93274728Y-152051716D01*
X93907037Y-151419408D01*
X93924075Y-151482993D01*
X93989901Y-151597007D01*
X94082993Y-151690099D01*
X94197007Y-151755925D01*
X94260590Y-151772962D01*
X93628282Y-152405269D01*
X93628282Y-152405270D01*
X93682449Y-152444624D01*
X93871782Y-152541095D01*
X94073870Y-152606757D01*
X94283754Y-152640000D01*
X94496246Y-152640000D01*
X94706127Y-152606757D01*
X94706130Y-152606757D01*
X94908217Y-152541095D01*
X95097554Y-152444622D01*
X95151716Y-152405270D01*
X95151717Y-152405270D01*
X94519408Y-151772962D01*
X94582993Y-151755925D01*
X94697007Y-151690099D01*
X94790099Y-151597007D01*
X94855925Y-151482993D01*
X94872962Y-151419408D01*
X95505270Y-152051717D01*
X95505270Y-152051716D01*
X95544622Y-151997554D01*
X95641095Y-151808217D01*
X95706757Y-151606130D01*
X95706757Y-151606127D01*
X95740000Y-151396246D01*
X95740000Y-151183753D01*
X95706757Y-150973872D01*
X95706757Y-150973869D01*
X95641095Y-150771782D01*
X95544624Y-150582449D01*
X95505270Y-150528282D01*
X95505269Y-150528282D01*
X94872962Y-151160590D01*
X94855925Y-151097007D01*
X94790099Y-150982993D01*
X94697007Y-150889901D01*
X94582993Y-150824075D01*
X94519409Y-150807037D01*
X95151716Y-150174728D01*
X95097547Y-150135373D01*
X95097547Y-150135372D01*
X95088500Y-150130763D01*
X95037706Y-150082788D01*
X95020912Y-150014966D01*
X95043451Y-149948832D01*
X95088508Y-149909793D01*
X95097816Y-149905051D01*
X95196187Y-149833581D01*
X95269786Y-149780109D01*
X95269788Y-149780106D01*
X95269792Y-149780104D01*
X95420104Y-149629792D01*
X95420106Y-149629788D01*
X95420109Y-149629786D01*
X95545048Y-149457820D01*
X95545047Y-149457820D01*
X95545051Y-149457816D01*
X95641557Y-149268412D01*
X95707246Y-149066243D01*
X95740500Y-148856287D01*
X95740500Y-148643713D01*
X95707246Y-148433757D01*
X95641557Y-148231588D01*
X95545051Y-148042184D01*
X95545049Y-148042181D01*
X95545048Y-148042179D01*
X95420109Y-147870213D01*
X95269786Y-147719890D01*
X95097820Y-147594951D01*
X95089600Y-147590763D01*
X95089054Y-147590485D01*
X95038259Y-147542512D01*
X95021463Y-147474692D01*
X95043999Y-147408556D01*
X95089054Y-147369515D01*
X95097816Y-147365051D01*
X95119789Y-147349086D01*
X95269786Y-147240109D01*
X95269788Y-147240106D01*
X95269792Y-147240104D01*
X95420104Y-147089792D01*
X95420106Y-147089788D01*
X95420109Y-147089786D01*
X95545048Y-146917820D01*
X95545047Y-146917820D01*
X95545051Y-146917816D01*
X95641557Y-146728412D01*
X95707246Y-146526243D01*
X95740500Y-146316287D01*
X95740500Y-146103713D01*
X95707246Y-145893757D01*
X95641557Y-145691588D01*
X95545051Y-145502184D01*
X95545049Y-145502181D01*
X95545048Y-145502179D01*
X95420109Y-145330213D01*
X95269786Y-145179890D01*
X95097820Y-145054951D01*
X95097115Y-145054591D01*
X95089054Y-145050485D01*
X95038259Y-145002512D01*
X95021463Y-144934692D01*
X95043999Y-144868556D01*
X95089054Y-144829515D01*
X95097816Y-144825051D01*
X95119789Y-144809086D01*
X95269786Y-144700109D01*
X95269788Y-144700106D01*
X95269792Y-144700104D01*
X95420104Y-144549792D01*
X95420106Y-144549788D01*
X95420109Y-144549786D01*
X95545048Y-144377820D01*
X95545047Y-144377820D01*
X95545051Y-144377816D01*
X95641557Y-144188412D01*
X95707246Y-143986243D01*
X95740500Y-143776287D01*
X95740500Y-143563713D01*
X95707246Y-143353757D01*
X95641557Y-143151588D01*
X95545051Y-142962184D01*
X95545049Y-142962181D01*
X95545048Y-142962179D01*
X95420109Y-142790213D01*
X95269786Y-142639890D01*
X95097820Y-142514951D01*
X95097115Y-142514591D01*
X95089054Y-142510485D01*
X95038259Y-142462512D01*
X95021463Y-142394692D01*
X95043999Y-142328556D01*
X95089054Y-142289515D01*
X95097816Y-142285051D01*
X95119789Y-142269086D01*
X95269786Y-142160109D01*
X95269788Y-142160106D01*
X95269792Y-142160104D01*
X95420104Y-142009792D01*
X95420106Y-142009788D01*
X95420109Y-142009786D01*
X95545048Y-141837820D01*
X95545047Y-141837820D01*
X95545051Y-141837816D01*
X95641557Y-141648412D01*
X95707246Y-141446243D01*
X95740500Y-141236287D01*
X95740500Y-141023713D01*
X95707246Y-140813757D01*
X95693506Y-140771473D01*
X95691512Y-140701635D01*
X95723755Y-140645478D01*
X99908713Y-136460521D01*
X99908716Y-136460520D01*
X100020520Y-136348716D01*
X100070639Y-136261904D01*
X100099577Y-136211785D01*
X100140501Y-136059057D01*
X100140501Y-135900943D01*
X100140501Y-135893348D01*
X100140500Y-135893330D01*
X100140500Y-130447486D01*
X100160185Y-130380447D01*
X100212989Y-130334692D01*
X100282147Y-130324748D01*
X100333392Y-130344385D01*
X100370812Y-130369389D01*
X100370827Y-130369397D01*
X100516498Y-130429735D01*
X100516503Y-130429737D01*
X100581147Y-130442595D01*
X100671849Y-130460638D01*
X100733760Y-130493023D01*
X100735339Y-130494574D01*
X102435139Y-132194374D01*
X102435149Y-132194385D01*
X102439479Y-132198715D01*
X102439480Y-132198716D01*
X102551284Y-132310520D01*
X102551286Y-132310521D01*
X102551290Y-132310524D01*
X102628236Y-132354948D01*
X102688216Y-132389577D01*
X102800019Y-132419534D01*
X102840942Y-132430500D01*
X102840943Y-132430500D01*
X108413331Y-132430500D01*
X108413347Y-132430501D01*
X108420943Y-132430501D01*
X108579054Y-132430501D01*
X108579057Y-132430501D01*
X108731785Y-132389577D01*
X108791762Y-132354949D01*
X108868716Y-132310520D01*
X108980520Y-132198716D01*
X108980520Y-132198714D01*
X108990724Y-132188511D01*
X108990728Y-132188506D01*
X112428506Y-128750728D01*
X112428511Y-128750724D01*
X112438714Y-128740520D01*
X112438716Y-128740520D01*
X112550520Y-128628716D01*
X112629577Y-128491784D01*
X112670500Y-128339057D01*
X112670500Y-125304060D01*
X112670501Y-125304047D01*
X112670501Y-125135944D01*
X112647900Y-125051597D01*
X112629577Y-124983216D01*
X112579819Y-124897031D01*
X112550524Y-124846290D01*
X112550518Y-124846282D01*
X110886819Y-123182583D01*
X110853334Y-123121260D01*
X110850500Y-123094902D01*
X110850500Y-122980317D01*
X110850499Y-122980302D01*
X110847643Y-122944008D01*
X110847642Y-122944005D01*
X110840400Y-122919079D01*
X110802814Y-122789709D01*
X110798065Y-122748556D01*
X110798752Y-122735579D01*
X110800500Y-122729057D01*
X110800500Y-122702584D01*
X110800674Y-122699299D01*
X110811231Y-122669311D01*
X110820185Y-122638819D01*
X110822748Y-122636597D01*
X110823876Y-122633395D01*
X110848974Y-122613872D01*
X110872989Y-122593064D01*
X110877670Y-122591552D01*
X110879027Y-122590497D01*
X110881677Y-122590258D01*
X110900309Y-122584241D01*
X110933461Y-122577646D01*
X111023497Y-122559737D01*
X111169179Y-122499394D01*
X111169185Y-122499390D01*
X111300875Y-122411398D01*
X111318921Y-122405747D01*
X111334831Y-122395523D01*
X111365792Y-122391071D01*
X111367553Y-122390520D01*
X111369766Y-122390500D01*
X111403331Y-122390500D01*
X111403347Y-122390501D01*
X111410943Y-122390501D01*
X111569054Y-122390501D01*
X111569057Y-122390501D01*
X111721785Y-122349577D01*
X111782406Y-122314577D01*
X111858716Y-122270520D01*
X111970520Y-122158716D01*
X111970520Y-122158714D01*
X111980724Y-122148511D01*
X111980728Y-122148506D01*
X112298506Y-121830728D01*
X112298511Y-121830724D01*
X112308714Y-121820520D01*
X112308716Y-121820520D01*
X112420520Y-121708716D01*
X112483139Y-121600256D01*
X112499577Y-121571785D01*
X112540500Y-121419057D01*
X112540500Y-121260943D01*
X112540500Y-120685943D01*
X112506788Y-120560126D01*
X112507073Y-120548126D01*
X112502879Y-120536880D01*
X112507889Y-120513845D01*
X112508451Y-120490277D01*
X112515550Y-120478629D01*
X112517731Y-120468607D01*
X112538879Y-120440356D01*
X112554664Y-120424571D01*
X112615985Y-120391088D01*
X112618152Y-120390637D01*
X112618841Y-120390500D01*
X112618842Y-120390500D01*
X112773497Y-120359737D01*
X112919179Y-120299394D01*
X113050289Y-120211789D01*
X113161789Y-120100289D01*
X113249394Y-119969179D01*
X113309737Y-119823497D01*
X113340500Y-119668842D01*
X113340500Y-119511158D01*
X113340500Y-119511155D01*
X113339903Y-119505093D01*
X113341051Y-119504979D01*
X113339348Y-119500414D01*
X113345186Y-119473571D01*
X113347626Y-119446206D01*
X113352886Y-119438176D01*
X113354199Y-119432141D01*
X113375351Y-119403885D01*
X113388006Y-119391230D01*
X113470520Y-119308716D01*
X113470521Y-119308713D01*
X114173506Y-118605728D01*
X114173511Y-118605724D01*
X114183714Y-118595520D01*
X114183716Y-118595520D01*
X114295520Y-118483716D01*
X114313142Y-118453194D01*
X114347214Y-118394180D01*
X114347214Y-118394179D01*
X114374577Y-118346785D01*
X114415500Y-118194058D01*
X114415500Y-118035943D01*
X114415500Y-117429059D01*
X114415501Y-117429046D01*
X114415501Y-117260945D01*
X114415501Y-117260943D01*
X114374577Y-117108215D01*
X114326822Y-117025501D01*
X114295520Y-116971284D01*
X114183716Y-116859480D01*
X114183715Y-116859479D01*
X114179385Y-116855149D01*
X114179374Y-116855139D01*
X106552590Y-109228355D01*
X106552588Y-109228352D01*
X106433717Y-109109481D01*
X106433716Y-109109480D01*
X106346904Y-109059360D01*
X106346904Y-109059359D01*
X106346900Y-109059358D01*
X106296785Y-109030423D01*
X106144057Y-108989499D01*
X105985943Y-108989499D01*
X105978347Y-108989499D01*
X105978331Y-108989500D01*
X101335939Y-108989500D01*
X101309324Y-108996631D01*
X101309325Y-108996632D01*
X101183214Y-109030423D01*
X101183209Y-109030426D01*
X101046290Y-109109475D01*
X101046282Y-109109481D01*
X100934480Y-109221284D01*
X100934475Y-109221289D01*
X100925332Y-109230431D01*
X100915082Y-109236027D01*
X100915582Y-109236777D01*
X100915579Y-109236779D01*
X100915078Y-109236028D01*
X100891316Y-109249002D01*
X100864014Y-109263911D01*
X100864008Y-109263912D01*
X100864007Y-109263913D01*
X100864005Y-109263912D01*
X100861848Y-109264362D01*
X100706508Y-109295261D01*
X100706498Y-109295264D01*
X100560827Y-109355602D01*
X100560814Y-109355609D01*
X100429711Y-109443210D01*
X100429707Y-109443213D01*
X100318213Y-109554707D01*
X100318210Y-109554711D01*
X100230609Y-109685814D01*
X100230602Y-109685827D01*
X100170264Y-109831498D01*
X100170261Y-109831510D01*
X100139500Y-109986153D01*
X100139500Y-109986158D01*
X100139500Y-110143842D01*
X100139500Y-110143844D01*
X100139499Y-110143844D01*
X100140804Y-110150401D01*
X100134574Y-110219993D01*
X100091710Y-110275169D01*
X100025819Y-110298411D01*
X99957823Y-110282341D01*
X99931505Y-110262270D01*
X95723757Y-106054522D01*
X95690272Y-105993199D01*
X95693507Y-105928523D01*
X95707246Y-105886243D01*
X95740500Y-105676287D01*
X95740500Y-105463713D01*
X95707246Y-105253757D01*
X95641557Y-105051588D01*
X95545051Y-104862184D01*
X95545049Y-104862181D01*
X95545048Y-104862179D01*
X95420109Y-104690213D01*
X95269786Y-104539890D01*
X95097820Y-104414951D01*
X95097115Y-104414591D01*
X95089054Y-104410485D01*
X95038259Y-104362512D01*
X95021463Y-104294692D01*
X95043999Y-104228556D01*
X95089054Y-104189515D01*
X95097816Y-104185051D01*
X95119789Y-104169086D01*
X95269786Y-104060109D01*
X95269788Y-104060106D01*
X95269792Y-104060104D01*
X95420104Y-103909792D01*
X95420106Y-103909788D01*
X95420109Y-103909786D01*
X95545048Y-103737820D01*
X95545047Y-103737820D01*
X95545051Y-103737816D01*
X95641557Y-103548412D01*
X95707246Y-103346243D01*
X95740500Y-103136287D01*
X95740500Y-102923713D01*
X95707246Y-102713757D01*
X95641557Y-102511588D01*
X95545051Y-102322184D01*
X95545049Y-102322181D01*
X95545048Y-102322179D01*
X95420109Y-102150213D01*
X95269786Y-101999890D01*
X95097820Y-101874951D01*
X95097115Y-101874591D01*
X95089054Y-101870485D01*
X95038259Y-101822512D01*
X95021463Y-101754692D01*
X95043999Y-101688556D01*
X95089054Y-101649515D01*
X95097816Y-101645051D01*
X95119789Y-101629086D01*
X95269786Y-101520109D01*
X95269788Y-101520106D01*
X95269792Y-101520104D01*
X95420104Y-101369792D01*
X95420106Y-101369788D01*
X95420109Y-101369786D01*
X95545048Y-101197820D01*
X95545047Y-101197820D01*
X95545051Y-101197816D01*
X95641557Y-101008412D01*
X95707246Y-100806243D01*
X95740500Y-100596287D01*
X95740500Y-100383713D01*
X118549500Y-100383713D01*
X118549500Y-100596286D01*
X118582753Y-100806239D01*
X118648444Y-101008414D01*
X118744951Y-101197820D01*
X118869890Y-101369786D01*
X119020213Y-101520109D01*
X119192182Y-101645050D01*
X119200946Y-101649516D01*
X119251742Y-101697491D01*
X119268536Y-101765312D01*
X119245998Y-101831447D01*
X119200946Y-101870484D01*
X119192182Y-101874949D01*
X119020213Y-101999890D01*
X118869890Y-102150213D01*
X118744951Y-102322179D01*
X118648444Y-102511585D01*
X118582753Y-102713760D01*
X118549500Y-102923713D01*
X118549500Y-103136286D01*
X118582753Y-103346239D01*
X118648444Y-103548414D01*
X118744951Y-103737820D01*
X118869890Y-103909786D01*
X119020213Y-104060109D01*
X119192182Y-104185050D01*
X119200946Y-104189516D01*
X119251742Y-104237491D01*
X119268536Y-104305312D01*
X119245998Y-104371447D01*
X119200946Y-104410484D01*
X119192182Y-104414949D01*
X119020213Y-104539890D01*
X118869890Y-104690213D01*
X118744951Y-104862179D01*
X118648444Y-105051585D01*
X118582753Y-105253760D01*
X118549500Y-105463713D01*
X118549500Y-105676286D01*
X118582753Y-105886239D01*
X118582753Y-105886241D01*
X118582754Y-105886243D01*
X118637431Y-106054522D01*
X118648444Y-106088414D01*
X118744951Y-106277820D01*
X118869890Y-106449786D01*
X119020213Y-106600109D01*
X119192182Y-106725050D01*
X119200946Y-106729516D01*
X119251742Y-106777491D01*
X119268536Y-106845312D01*
X119245998Y-106911447D01*
X119200946Y-106950484D01*
X119192182Y-106954949D01*
X119020213Y-107079890D01*
X118869890Y-107230213D01*
X118744951Y-107402179D01*
X118648444Y-107591585D01*
X118582753Y-107793760D01*
X118549500Y-108003713D01*
X118549500Y-108216286D01*
X118582753Y-108426239D01*
X118582753Y-108426241D01*
X118582754Y-108426243D01*
X118637431Y-108594522D01*
X118648444Y-108628414D01*
X118744951Y-108817820D01*
X118869890Y-108989786D01*
X119020213Y-109140109D01*
X119192182Y-109265050D01*
X119200946Y-109269516D01*
X119251742Y-109317491D01*
X119268536Y-109385312D01*
X119245998Y-109451447D01*
X119200946Y-109490484D01*
X119192182Y-109494949D01*
X119020213Y-109619890D01*
X118869890Y-109770213D01*
X118744951Y-109942179D01*
X118648444Y-110131585D01*
X118582753Y-110333760D01*
X118549500Y-110543713D01*
X118549500Y-110756286D01*
X118578314Y-110938215D01*
X118582754Y-110966243D01*
X118590003Y-110988554D01*
X118648444Y-111168414D01*
X118744951Y-111357820D01*
X118869890Y-111529786D01*
X119020213Y-111680109D01*
X119192182Y-111805050D01*
X119200946Y-111809516D01*
X119251742Y-111857491D01*
X119268536Y-111925312D01*
X119245998Y-111991447D01*
X119200946Y-112030484D01*
X119192182Y-112034949D01*
X119020213Y-112159890D01*
X118869890Y-112310213D01*
X118744951Y-112482179D01*
X118648444Y-112671585D01*
X118582753Y-112873760D01*
X118549500Y-113083713D01*
X118549500Y-113296286D01*
X118575226Y-113458717D01*
X118582754Y-113506243D01*
X118641142Y-113685943D01*
X118648444Y-113708414D01*
X118744951Y-113897820D01*
X118869890Y-114069786D01*
X119020213Y-114220109D01*
X119192182Y-114345050D01*
X119200946Y-114349516D01*
X119251742Y-114397491D01*
X119268536Y-114465312D01*
X119245998Y-114531447D01*
X119200946Y-114570484D01*
X119192182Y-114574949D01*
X119020213Y-114699890D01*
X118869890Y-114850213D01*
X118744951Y-115022179D01*
X118648444Y-115211585D01*
X118582753Y-115413760D01*
X118549500Y-115623713D01*
X118549500Y-115836286D01*
X118579435Y-116025292D01*
X118582754Y-116046243D01*
X118621831Y-116166510D01*
X118648444Y-116248414D01*
X118744951Y-116437820D01*
X118869890Y-116609786D01*
X119020213Y-116760109D01*
X119192182Y-116885050D01*
X119200946Y-116889516D01*
X119251742Y-116937491D01*
X119268536Y-117005312D01*
X119245998Y-117071447D01*
X119200946Y-117110484D01*
X119192182Y-117114949D01*
X119020213Y-117239890D01*
X118869890Y-117390213D01*
X118744951Y-117562179D01*
X118648444Y-117751585D01*
X118648443Y-117751587D01*
X118648443Y-117751588D01*
X118634042Y-117795909D01*
X118582753Y-117953760D01*
X118569737Y-118035943D01*
X118549500Y-118163713D01*
X118549500Y-118376287D01*
X118582754Y-118586243D01*
X118638832Y-118758834D01*
X118648444Y-118788414D01*
X118744951Y-118977820D01*
X118869890Y-119149786D01*
X119020213Y-119300109D01*
X119192182Y-119425050D01*
X119200946Y-119429516D01*
X119251742Y-119477491D01*
X119268536Y-119545312D01*
X119245998Y-119611447D01*
X119200946Y-119650484D01*
X119192182Y-119654949D01*
X119020213Y-119779890D01*
X118869890Y-119930213D01*
X118744951Y-120102179D01*
X118648444Y-120291585D01*
X118582753Y-120493760D01*
X118549500Y-120703713D01*
X118549500Y-120916286D01*
X118582753Y-121126239D01*
X118648444Y-121328414D01*
X118744951Y-121517820D01*
X118869890Y-121689786D01*
X119020213Y-121840109D01*
X119192182Y-121965050D01*
X119200946Y-121969516D01*
X119251742Y-122017491D01*
X119268536Y-122085312D01*
X119245998Y-122151447D01*
X119200946Y-122190484D01*
X119192182Y-122194949D01*
X119020213Y-122319890D01*
X118869890Y-122470213D01*
X118744951Y-122642179D01*
X118648444Y-122831585D01*
X118582753Y-123033760D01*
X118549500Y-123243713D01*
X118549500Y-123456287D01*
X118553058Y-123478750D01*
X118579862Y-123647988D01*
X118582754Y-123666243D01*
X118645382Y-123858992D01*
X118648444Y-123868414D01*
X118744951Y-124057820D01*
X118869890Y-124229786D01*
X119020213Y-124380109D01*
X119192182Y-124505050D01*
X119200946Y-124509516D01*
X119251742Y-124557491D01*
X119268536Y-124625312D01*
X119245998Y-124691447D01*
X119200946Y-124730484D01*
X119192182Y-124734949D01*
X119020213Y-124859890D01*
X118869890Y-125010213D01*
X118744951Y-125182179D01*
X118648444Y-125371585D01*
X118582753Y-125573760D01*
X118549500Y-125783713D01*
X118549500Y-125996286D01*
X118582163Y-126202517D01*
X118582754Y-126206243D01*
X118600912Y-126262128D01*
X118648444Y-126408414D01*
X118744951Y-126597820D01*
X118869890Y-126769786D01*
X119020213Y-126920109D01*
X119192182Y-127045050D01*
X119200946Y-127049516D01*
X119251742Y-127097491D01*
X119268536Y-127165312D01*
X119245998Y-127231447D01*
X119200946Y-127270484D01*
X119192182Y-127274949D01*
X119020213Y-127399890D01*
X118869890Y-127550213D01*
X118744951Y-127722179D01*
X118648444Y-127911585D01*
X118582753Y-128113760D01*
X118549500Y-128323713D01*
X118549500Y-128536286D01*
X118581847Y-128740521D01*
X118582754Y-128746243D01*
X118641170Y-128926029D01*
X118648444Y-128948414D01*
X118744951Y-129137820D01*
X118869890Y-129309786D01*
X119020213Y-129460109D01*
X119192182Y-129585050D01*
X119200946Y-129589516D01*
X119251742Y-129637491D01*
X119268536Y-129705312D01*
X119245998Y-129771447D01*
X119200946Y-129810484D01*
X119192182Y-129814949D01*
X119020213Y-129939890D01*
X118869890Y-130090213D01*
X118744951Y-130262179D01*
X118648444Y-130451585D01*
X118582753Y-130653760D01*
X118549500Y-130863713D01*
X118549500Y-131076286D01*
X118582753Y-131286239D01*
X118648444Y-131488414D01*
X118744951Y-131677820D01*
X118869890Y-131849786D01*
X119020213Y-132000109D01*
X119192182Y-132125050D01*
X119200946Y-132129516D01*
X119251742Y-132177491D01*
X119268536Y-132245312D01*
X119245998Y-132311447D01*
X119200946Y-132350484D01*
X119192182Y-132354949D01*
X119020213Y-132479890D01*
X118869890Y-132630213D01*
X118744951Y-132802179D01*
X118648444Y-132991585D01*
X118582753Y-133193760D01*
X118549500Y-133403713D01*
X118549500Y-133616286D01*
X118582753Y-133826239D01*
X118648444Y-134028414D01*
X118744951Y-134217820D01*
X118869890Y-134389786D01*
X119020213Y-134540109D01*
X119192182Y-134665050D01*
X119200946Y-134669516D01*
X119251742Y-134717491D01*
X119268536Y-134785312D01*
X119245998Y-134851447D01*
X119200946Y-134890484D01*
X119192182Y-134894949D01*
X119020213Y-135019890D01*
X118869890Y-135170213D01*
X118744951Y-135342179D01*
X118648444Y-135531585D01*
X118582753Y-135733760D01*
X118549500Y-135943713D01*
X118549500Y-136156286D01*
X118582753Y-136366239D01*
X118648444Y-136568414D01*
X118744951Y-136757820D01*
X118869890Y-136929786D01*
X119020213Y-137080109D01*
X119192182Y-137205050D01*
X119200946Y-137209516D01*
X119251742Y-137257491D01*
X119268536Y-137325312D01*
X119245998Y-137391447D01*
X119200946Y-137430484D01*
X119192182Y-137434949D01*
X119020213Y-137559890D01*
X118869890Y-137710213D01*
X118744951Y-137882179D01*
X118648444Y-138071585D01*
X118582753Y-138273760D01*
X118549500Y-138483713D01*
X118549500Y-138696287D01*
X118582754Y-138906243D01*
X118610321Y-138991086D01*
X118648444Y-139108414D01*
X118744951Y-139297820D01*
X118869890Y-139469786D01*
X119020213Y-139620109D01*
X119192182Y-139745050D01*
X119200946Y-139749516D01*
X119251742Y-139797491D01*
X119268536Y-139865312D01*
X119245998Y-139931447D01*
X119200946Y-139970484D01*
X119192182Y-139974949D01*
X119020213Y-140099890D01*
X118869890Y-140250213D01*
X118744951Y-140422179D01*
X118648444Y-140611585D01*
X118582753Y-140813760D01*
X118549500Y-141023713D01*
X118549500Y-141236286D01*
X118582753Y-141446239D01*
X118648444Y-141648414D01*
X118744951Y-141837820D01*
X118869890Y-142009786D01*
X119020213Y-142160109D01*
X119192182Y-142285050D01*
X119200946Y-142289516D01*
X119251742Y-142337491D01*
X119268536Y-142405312D01*
X119245998Y-142471447D01*
X119200946Y-142510484D01*
X119192182Y-142514949D01*
X119020213Y-142639890D01*
X118869890Y-142790213D01*
X118744951Y-142962179D01*
X118648444Y-143151585D01*
X118582753Y-143353760D01*
X118549500Y-143563713D01*
X118549500Y-143776286D01*
X118582753Y-143986239D01*
X118648444Y-144188414D01*
X118744951Y-144377820D01*
X118869890Y-144549786D01*
X119020213Y-144700109D01*
X119192182Y-144825050D01*
X119200946Y-144829516D01*
X119251742Y-144877491D01*
X119268536Y-144945312D01*
X119245998Y-145011447D01*
X119200946Y-145050484D01*
X119192182Y-145054949D01*
X119020213Y-145179890D01*
X118869890Y-145330213D01*
X118744951Y-145502179D01*
X118648444Y-145691585D01*
X118582753Y-145893760D01*
X118549500Y-146103713D01*
X118549500Y-146316286D01*
X118582753Y-146526239D01*
X118648444Y-146728414D01*
X118744951Y-146917820D01*
X118869890Y-147089786D01*
X119020213Y-147240109D01*
X119192179Y-147365048D01*
X119192181Y-147365049D01*
X119192184Y-147365051D01*
X119201493Y-147369794D01*
X119252290Y-147417766D01*
X119269087Y-147485587D01*
X119246552Y-147551722D01*
X119201505Y-147590760D01*
X119192446Y-147595376D01*
X119192440Y-147595380D01*
X119138282Y-147634727D01*
X119138282Y-147634728D01*
X119770591Y-148267037D01*
X119707007Y-148284075D01*
X119592993Y-148349901D01*
X119499901Y-148442993D01*
X119434075Y-148557007D01*
X119417037Y-148620591D01*
X118784728Y-147988282D01*
X118784727Y-147988282D01*
X118745380Y-148042439D01*
X118648904Y-148231782D01*
X118583242Y-148433869D01*
X118583242Y-148433872D01*
X118550000Y-148643753D01*
X118550000Y-148856246D01*
X118583242Y-149066127D01*
X118583242Y-149066130D01*
X118648904Y-149268217D01*
X118745375Y-149457550D01*
X118784728Y-149511716D01*
X119417037Y-148879408D01*
X119434075Y-148942993D01*
X119499901Y-149057007D01*
X119592993Y-149150099D01*
X119707007Y-149215925D01*
X119770591Y-149232962D01*
X119169971Y-149833581D01*
X119248711Y-149950895D01*
X119249920Y-149954729D01*
X119252844Y-149957491D01*
X119260343Y-149987778D01*
X119269727Y-150017529D01*
X119268671Y-150021408D01*
X119269638Y-150025312D01*
X119259573Y-150054844D01*
X119251383Y-150084947D01*
X119248397Y-150087640D01*
X119247100Y-150091447D01*
X119202051Y-150130483D01*
X119192440Y-150135380D01*
X119138282Y-150174727D01*
X119138282Y-150174728D01*
X119770591Y-150807037D01*
X119707007Y-150824075D01*
X119592993Y-150889901D01*
X119499901Y-150982993D01*
X119434075Y-151097007D01*
X119417037Y-151160591D01*
X118784728Y-150528282D01*
X118784727Y-150528282D01*
X118745380Y-150582439D01*
X118648904Y-150771782D01*
X118583242Y-150973869D01*
X118583242Y-150973872D01*
X118550000Y-151183753D01*
X118550000Y-151396246D01*
X118583242Y-151606127D01*
X118583242Y-151606130D01*
X118648904Y-151808217D01*
X118745375Y-151997550D01*
X118784728Y-152051716D01*
X119417037Y-151419408D01*
X119434075Y-151482993D01*
X119499901Y-151597007D01*
X119592993Y-151690099D01*
X119707007Y-151755925D01*
X119770590Y-151772962D01*
X119138282Y-152405269D01*
X119138282Y-152405270D01*
X119192449Y-152444624D01*
X119381782Y-152541095D01*
X119583870Y-152606757D01*
X119793754Y-152640000D01*
X120006246Y-152640000D01*
X120216127Y-152606757D01*
X120216130Y-152606757D01*
X120418217Y-152541095D01*
X120607554Y-152444622D01*
X120661716Y-152405270D01*
X120661717Y-152405270D01*
X120029408Y-151772962D01*
X120092993Y-151755925D01*
X120207007Y-151690099D01*
X120300099Y-151597007D01*
X120365925Y-151482993D01*
X120382962Y-151419409D01*
X121015270Y-152051717D01*
X121015270Y-152051716D01*
X121054622Y-151997554D01*
X121151095Y-151808217D01*
X121216757Y-151606130D01*
X121216757Y-151606127D01*
X121250000Y-151396246D01*
X121250000Y-151183753D01*
X121216757Y-150973872D01*
X121216757Y-150973869D01*
X121151095Y-150771782D01*
X121054624Y-150582449D01*
X121015270Y-150528282D01*
X121015269Y-150528282D01*
X120382962Y-151160590D01*
X120365925Y-151097007D01*
X120300099Y-150982993D01*
X120207007Y-150889901D01*
X120092993Y-150824075D01*
X120029409Y-150807037D01*
X120661716Y-150174728D01*
X120607550Y-150135375D01*
X120597954Y-150130486D01*
X120547157Y-150082512D01*
X120530361Y-150014692D01*
X120552897Y-149948556D01*
X120597954Y-149909514D01*
X120607554Y-149904622D01*
X120661716Y-149865270D01*
X120661717Y-149865270D01*
X120029408Y-149232962D01*
X120092993Y-149215925D01*
X120207007Y-149150099D01*
X120300099Y-149057007D01*
X120365925Y-148942993D01*
X120382962Y-148879409D01*
X121015270Y-149511717D01*
X121015270Y-149511716D01*
X121054622Y-149457554D01*
X121151095Y-149268217D01*
X121216757Y-149066130D01*
X121216757Y-149066127D01*
X121250000Y-148856246D01*
X121250000Y-148643753D01*
X121216757Y-148433872D01*
X121216757Y-148433869D01*
X121151095Y-148231782D01*
X121054624Y-148042449D01*
X121015270Y-147988282D01*
X121015269Y-147988282D01*
X120382962Y-148620590D01*
X120365925Y-148557007D01*
X120300099Y-148442993D01*
X120207007Y-148349901D01*
X120092993Y-148284075D01*
X120029409Y-148267037D01*
X120661716Y-147634728D01*
X120607547Y-147595373D01*
X120607547Y-147595372D01*
X120598500Y-147590763D01*
X120547706Y-147542788D01*
X120530912Y-147474966D01*
X120553451Y-147408832D01*
X120598508Y-147369793D01*
X120607816Y-147365051D01*
X120687007Y-147307515D01*
X120779786Y-147240109D01*
X120779788Y-147240106D01*
X120779792Y-147240104D01*
X120930104Y-147089792D01*
X120930106Y-147089788D01*
X120930109Y-147089786D01*
X121055048Y-146917820D01*
X121055047Y-146917820D01*
X121055051Y-146917816D01*
X121151557Y-146728412D01*
X121217246Y-146526243D01*
X121250500Y-146316287D01*
X121250500Y-146103713D01*
X121217246Y-145893757D01*
X121151557Y-145691588D01*
X121055051Y-145502184D01*
X121055049Y-145502181D01*
X121055048Y-145502179D01*
X120930109Y-145330213D01*
X120779786Y-145179890D01*
X120607820Y-145054951D01*
X120607115Y-145054591D01*
X120599054Y-145050485D01*
X120548259Y-145002512D01*
X120531463Y-144934692D01*
X120553999Y-144868556D01*
X120599054Y-144829515D01*
X120607816Y-144825051D01*
X120629789Y-144809086D01*
X120779786Y-144700109D01*
X120779788Y-144700106D01*
X120779792Y-144700104D01*
X120930104Y-144549792D01*
X120930106Y-144549788D01*
X120930109Y-144549786D01*
X121055048Y-144377820D01*
X121055047Y-144377820D01*
X121055051Y-144377816D01*
X121151557Y-144188412D01*
X121217246Y-143986243D01*
X121250500Y-143776287D01*
X121250500Y-143563713D01*
X121217246Y-143353757D01*
X121151557Y-143151588D01*
X121055051Y-142962184D01*
X121055049Y-142962181D01*
X121055048Y-142962179D01*
X120930109Y-142790213D01*
X120779786Y-142639890D01*
X120607820Y-142514951D01*
X120607115Y-142514591D01*
X120599054Y-142510485D01*
X120548259Y-142462512D01*
X120531463Y-142394692D01*
X120553999Y-142328556D01*
X120599054Y-142289515D01*
X120607816Y-142285051D01*
X120629789Y-142269086D01*
X120779786Y-142160109D01*
X120779788Y-142160106D01*
X120779792Y-142160104D01*
X120930104Y-142009792D01*
X120930106Y-142009788D01*
X120930109Y-142009786D01*
X121055048Y-141837820D01*
X121055047Y-141837820D01*
X121055051Y-141837816D01*
X121151557Y-141648412D01*
X121217246Y-141446243D01*
X121250500Y-141236287D01*
X121250500Y-141023713D01*
X121217246Y-140813757D01*
X121151557Y-140611588D01*
X121055051Y-140422184D01*
X121055049Y-140422181D01*
X121055048Y-140422179D01*
X120930109Y-140250213D01*
X120779786Y-140099890D01*
X120607820Y-139974951D01*
X120607115Y-139974591D01*
X120599054Y-139970485D01*
X120548259Y-139922512D01*
X120531463Y-139854692D01*
X120553999Y-139788556D01*
X120599054Y-139749515D01*
X120607816Y-139745051D01*
X120629789Y-139729086D01*
X120779786Y-139620109D01*
X120779788Y-139620106D01*
X120779792Y-139620104D01*
X120930104Y-139469792D01*
X120930106Y-139469788D01*
X120930109Y-139469786D01*
X121055048Y-139297820D01*
X121055047Y-139297820D01*
X121055051Y-139297816D01*
X121151557Y-139108412D01*
X121217246Y-138906243D01*
X121250500Y-138696287D01*
X121250500Y-138483713D01*
X121217246Y-138273757D01*
X121151557Y-138071588D01*
X121055051Y-137882184D01*
X121055049Y-137882181D01*
X121055048Y-137882179D01*
X120930109Y-137710213D01*
X120779786Y-137559890D01*
X120607820Y-137434951D01*
X120607115Y-137434591D01*
X120599054Y-137430485D01*
X120548259Y-137382512D01*
X120531463Y-137314692D01*
X120553999Y-137248556D01*
X120599054Y-137209515D01*
X120607816Y-137205051D01*
X120629789Y-137189086D01*
X120779786Y-137080109D01*
X120779788Y-137080106D01*
X120779792Y-137080104D01*
X120930104Y-136929792D01*
X120930106Y-136929788D01*
X120930109Y-136929786D01*
X121055048Y-136757820D01*
X121055047Y-136757820D01*
X121055051Y-136757816D01*
X121151557Y-136568412D01*
X121217246Y-136366243D01*
X121250500Y-136156287D01*
X121250500Y-135943713D01*
X121217246Y-135733757D01*
X121151557Y-135531588D01*
X121055051Y-135342184D01*
X121055049Y-135342181D01*
X121055048Y-135342179D01*
X120930109Y-135170213D01*
X120779786Y-135019890D01*
X120607820Y-134894951D01*
X120607115Y-134894591D01*
X120599054Y-134890485D01*
X120548259Y-134842512D01*
X120531463Y-134774692D01*
X120553999Y-134708556D01*
X120599054Y-134669515D01*
X120607816Y-134665051D01*
X120629789Y-134649086D01*
X120779786Y-134540109D01*
X120779788Y-134540106D01*
X120779792Y-134540104D01*
X120930104Y-134389792D01*
X120930106Y-134389788D01*
X120930109Y-134389786D01*
X121055048Y-134217820D01*
X121055047Y-134217820D01*
X121055051Y-134217816D01*
X121151557Y-134028412D01*
X121217246Y-133826243D01*
X121250500Y-133616287D01*
X121250500Y-133403713D01*
X121217246Y-133193757D01*
X121151557Y-132991588D01*
X121055051Y-132802184D01*
X121055049Y-132802181D01*
X121055048Y-132802179D01*
X120930109Y-132630213D01*
X120779786Y-132479890D01*
X120607820Y-132354951D01*
X120607115Y-132354591D01*
X120599054Y-132350485D01*
X120548259Y-132302512D01*
X120531463Y-132234692D01*
X120553999Y-132168556D01*
X120599054Y-132129515D01*
X120607816Y-132125051D01*
X120629789Y-132109086D01*
X120779786Y-132000109D01*
X120779788Y-132000106D01*
X120779792Y-132000104D01*
X120930104Y-131849792D01*
X120930106Y-131849788D01*
X120930109Y-131849786D01*
X121055048Y-131677820D01*
X121055047Y-131677820D01*
X121055051Y-131677816D01*
X121151557Y-131488412D01*
X121217246Y-131286243D01*
X121250500Y-131076287D01*
X121250500Y-130863713D01*
X121217246Y-130653757D01*
X121151557Y-130451588D01*
X121055051Y-130262184D01*
X121055049Y-130262181D01*
X121055048Y-130262179D01*
X120930109Y-130090213D01*
X120779786Y-129939890D01*
X120607820Y-129814951D01*
X120607115Y-129814591D01*
X120599054Y-129810485D01*
X120548259Y-129762512D01*
X120531463Y-129694692D01*
X120553999Y-129628556D01*
X120599054Y-129589515D01*
X120607816Y-129585051D01*
X120629789Y-129569086D01*
X120779786Y-129460109D01*
X120779788Y-129460106D01*
X120779792Y-129460104D01*
X120930104Y-129309792D01*
X120930106Y-129309788D01*
X120930109Y-129309786D01*
X121055048Y-129137820D01*
X121055047Y-129137820D01*
X121055051Y-129137816D01*
X121151557Y-128948412D01*
X121217246Y-128746243D01*
X121250500Y-128536287D01*
X121250500Y-128323713D01*
X121217246Y-128113757D01*
X121151557Y-127911588D01*
X121055051Y-127722184D01*
X121055049Y-127722181D01*
X121055048Y-127722179D01*
X120930109Y-127550213D01*
X120779786Y-127399890D01*
X120607820Y-127274951D01*
X120607115Y-127274591D01*
X120599054Y-127270485D01*
X120548259Y-127222512D01*
X120531463Y-127154692D01*
X120553999Y-127088556D01*
X120599054Y-127049515D01*
X120607816Y-127045051D01*
X120645760Y-127017483D01*
X120779786Y-126920109D01*
X120779788Y-126920106D01*
X120779792Y-126920104D01*
X120930104Y-126769792D01*
X120930106Y-126769788D01*
X120930109Y-126769786D01*
X121055048Y-126597820D01*
X121055047Y-126597820D01*
X121055051Y-126597816D01*
X121151557Y-126408412D01*
X121217246Y-126206243D01*
X121250500Y-125996287D01*
X121250500Y-125783713D01*
X121217246Y-125573757D01*
X121151557Y-125371588D01*
X121055051Y-125182184D01*
X121055049Y-125182181D01*
X121055048Y-125182179D01*
X120930109Y-125010213D01*
X120779786Y-124859890D01*
X120607820Y-124734951D01*
X120607115Y-124734591D01*
X120599054Y-124730485D01*
X120548259Y-124682512D01*
X120531463Y-124614692D01*
X120553999Y-124548556D01*
X120599054Y-124509515D01*
X120607816Y-124505051D01*
X120711193Y-124429944D01*
X120779786Y-124380109D01*
X120779788Y-124380106D01*
X120779792Y-124380104D01*
X120930104Y-124229792D01*
X120930106Y-124229788D01*
X120930109Y-124229786D01*
X121055048Y-124057820D01*
X121055047Y-124057820D01*
X121055051Y-124057816D01*
X121151557Y-123868412D01*
X121217246Y-123666243D01*
X121250500Y-123456287D01*
X121250500Y-123243713D01*
X121217246Y-123033757D01*
X121151557Y-122831588D01*
X121055051Y-122642184D01*
X121055049Y-122642181D01*
X121055048Y-122642179D01*
X120930109Y-122470213D01*
X120779786Y-122319890D01*
X120607820Y-122194951D01*
X120606065Y-122194057D01*
X120599054Y-122190485D01*
X120548259Y-122142512D01*
X120531463Y-122074692D01*
X120553999Y-122008556D01*
X120599054Y-121969515D01*
X120607816Y-121965051D01*
X120629789Y-121949086D01*
X120779786Y-121840109D01*
X120779788Y-121840106D01*
X120779792Y-121840104D01*
X120930104Y-121689792D01*
X120930106Y-121689788D01*
X120930109Y-121689786D01*
X121055048Y-121517820D01*
X121055047Y-121517820D01*
X121055051Y-121517816D01*
X121151557Y-121328412D01*
X121217246Y-121126243D01*
X121250500Y-120916287D01*
X121250500Y-120703713D01*
X121217246Y-120493757D01*
X121151557Y-120291588D01*
X121055051Y-120102184D01*
X121055049Y-120102181D01*
X121055048Y-120102179D01*
X120930109Y-119930213D01*
X120779786Y-119779890D01*
X120607820Y-119654951D01*
X120607115Y-119654591D01*
X120599054Y-119650485D01*
X120548259Y-119602512D01*
X120531463Y-119534692D01*
X120553999Y-119468556D01*
X120599054Y-119429515D01*
X120607816Y-119425051D01*
X120767943Y-119308713D01*
X120779786Y-119300109D01*
X120779788Y-119300106D01*
X120779792Y-119300104D01*
X120930104Y-119149792D01*
X120930106Y-119149788D01*
X120930109Y-119149786D01*
X121055048Y-118977820D01*
X121055047Y-118977820D01*
X121055051Y-118977816D01*
X121151557Y-118788412D01*
X121217246Y-118586243D01*
X121250500Y-118376287D01*
X121250500Y-118163713D01*
X121217246Y-117953757D01*
X121151557Y-117751588D01*
X121055051Y-117562184D01*
X121055049Y-117562181D01*
X121055048Y-117562179D01*
X120930109Y-117390213D01*
X120779786Y-117239890D01*
X120607820Y-117114951D01*
X120607115Y-117114591D01*
X120599054Y-117110485D01*
X120548259Y-117062512D01*
X120531463Y-116994692D01*
X120553999Y-116928556D01*
X120599054Y-116889515D01*
X120607816Y-116885051D01*
X120643012Y-116859480D01*
X120779786Y-116760109D01*
X120779788Y-116760106D01*
X120779792Y-116760104D01*
X120930104Y-116609792D01*
X120930106Y-116609788D01*
X120930109Y-116609786D01*
X121055048Y-116437820D01*
X121055047Y-116437820D01*
X121055051Y-116437816D01*
X121151557Y-116248412D01*
X121217246Y-116046243D01*
X121250500Y-115836287D01*
X121250500Y-115623713D01*
X121217246Y-115413757D01*
X121151557Y-115211588D01*
X121055051Y-115022184D01*
X121055049Y-115022181D01*
X121055048Y-115022179D01*
X120930109Y-114850213D01*
X120779786Y-114699890D01*
X120607820Y-114574951D01*
X120607115Y-114574591D01*
X120599054Y-114570485D01*
X120548259Y-114522512D01*
X120531463Y-114454692D01*
X120553999Y-114388556D01*
X120599054Y-114349515D01*
X120607816Y-114345051D01*
X120735079Y-114252590D01*
X120779786Y-114220109D01*
X120779788Y-114220106D01*
X120779792Y-114220104D01*
X120930104Y-114069792D01*
X120930106Y-114069788D01*
X120930109Y-114069786D01*
X121055048Y-113897820D01*
X121055047Y-113897820D01*
X121055051Y-113897816D01*
X121151557Y-113708412D01*
X121217246Y-113506243D01*
X121250500Y-113296287D01*
X121250500Y-113083713D01*
X121217246Y-112873757D01*
X121151557Y-112671588D01*
X121055051Y-112482184D01*
X121055049Y-112482181D01*
X121055048Y-112482179D01*
X120930109Y-112310213D01*
X120779786Y-112159890D01*
X120607820Y-112034951D01*
X120607115Y-112034591D01*
X120599054Y-112030485D01*
X120548259Y-111982512D01*
X120531463Y-111914692D01*
X120553999Y-111848556D01*
X120599054Y-111809515D01*
X120607816Y-111805051D01*
X120695583Y-111741285D01*
X120779786Y-111680109D01*
X120779788Y-111680106D01*
X120779792Y-111680104D01*
X120930104Y-111529792D01*
X120930106Y-111529788D01*
X120930109Y-111529786D01*
X121055048Y-111357820D01*
X121055047Y-111357820D01*
X121055051Y-111357816D01*
X121151557Y-111168412D01*
X121217246Y-110966243D01*
X121250500Y-110756287D01*
X121250500Y-110543713D01*
X121217246Y-110333757D01*
X121151557Y-110131588D01*
X121055051Y-109942184D01*
X121055049Y-109942181D01*
X121055048Y-109942179D01*
X120930109Y-109770213D01*
X120779786Y-109619890D01*
X120607820Y-109494951D01*
X120607115Y-109494591D01*
X120599054Y-109490485D01*
X120548259Y-109442512D01*
X120531463Y-109374692D01*
X120553999Y-109308556D01*
X120599054Y-109269515D01*
X120607816Y-109265051D01*
X120668057Y-109221284D01*
X120779786Y-109140109D01*
X120779788Y-109140106D01*
X120779792Y-109140104D01*
X120930104Y-108989792D01*
X120930106Y-108989788D01*
X120930109Y-108989786D01*
X121055048Y-108817820D01*
X121055047Y-108817820D01*
X121055051Y-108817816D01*
X121151557Y-108628412D01*
X121217246Y-108426243D01*
X121250500Y-108216287D01*
X121250500Y-108003713D01*
X121217246Y-107793757D01*
X121151557Y-107591588D01*
X121055051Y-107402184D01*
X121055049Y-107402181D01*
X121055048Y-107402179D01*
X120930109Y-107230213D01*
X120779786Y-107079890D01*
X120607820Y-106954951D01*
X120607115Y-106954591D01*
X120599054Y-106950485D01*
X120548259Y-106902512D01*
X120531463Y-106834692D01*
X120553999Y-106768556D01*
X120599054Y-106729515D01*
X120607816Y-106725051D01*
X120629789Y-106709086D01*
X120779786Y-106600109D01*
X120779788Y-106600106D01*
X120779792Y-106600104D01*
X120930104Y-106449792D01*
X120930106Y-106449788D01*
X120930109Y-106449786D01*
X121055048Y-106277820D01*
X121055047Y-106277820D01*
X121055051Y-106277816D01*
X121151557Y-106088412D01*
X121217246Y-105886243D01*
X121250500Y-105676287D01*
X121250500Y-105463713D01*
X121217246Y-105253757D01*
X121151557Y-105051588D01*
X121055051Y-104862184D01*
X121055049Y-104862181D01*
X121055048Y-104862179D01*
X120930109Y-104690213D01*
X120779786Y-104539890D01*
X120607820Y-104414951D01*
X120607115Y-104414591D01*
X120599054Y-104410485D01*
X120548259Y-104362512D01*
X120531463Y-104294692D01*
X120553999Y-104228556D01*
X120599054Y-104189515D01*
X120607816Y-104185051D01*
X120629789Y-104169086D01*
X120779786Y-104060109D01*
X120779788Y-104060106D01*
X120779792Y-104060104D01*
X120930104Y-103909792D01*
X120930106Y-103909788D01*
X120930109Y-103909786D01*
X121055048Y-103737820D01*
X121055047Y-103737820D01*
X121055051Y-103737816D01*
X121151557Y-103548412D01*
X121217246Y-103346243D01*
X121250500Y-103136287D01*
X121250500Y-102923713D01*
X121217246Y-102713757D01*
X121151557Y-102511588D01*
X121055051Y-102322184D01*
X121055049Y-102322181D01*
X121055048Y-102322179D01*
X120930109Y-102150213D01*
X120779786Y-101999890D01*
X120607820Y-101874951D01*
X120607115Y-101874591D01*
X120599054Y-101870485D01*
X120548259Y-101822512D01*
X120531463Y-101754692D01*
X120553999Y-101688556D01*
X120599054Y-101649515D01*
X120607816Y-101645051D01*
X120629789Y-101629086D01*
X120779786Y-101520109D01*
X120779788Y-101520106D01*
X120779792Y-101520104D01*
X120930104Y-101369792D01*
X120930106Y-101369788D01*
X120930109Y-101369786D01*
X121055048Y-101197820D01*
X121055047Y-101197820D01*
X121055051Y-101197816D01*
X121151557Y-101008412D01*
X121217246Y-100806243D01*
X121250500Y-100596287D01*
X121250500Y-100383713D01*
X121217246Y-100173757D01*
X121151557Y-99971588D01*
X121055051Y-99782184D01*
X121055049Y-99782181D01*
X121055048Y-99782179D01*
X120930109Y-99610213D01*
X120816181Y-99496285D01*
X120782696Y-99434962D01*
X120787680Y-99365270D01*
X120829552Y-99309337D01*
X120860529Y-99292422D01*
X120992086Y-99243354D01*
X120992093Y-99243350D01*
X121107187Y-99157190D01*
X121107190Y-99157187D01*
X121193350Y-99042093D01*
X121193354Y-99042086D01*
X121243596Y-98907379D01*
X121243598Y-98907372D01*
X121249999Y-98847844D01*
X121250000Y-98847827D01*
X121250000Y-98200000D01*
X120333012Y-98200000D01*
X120365925Y-98142993D01*
X120400000Y-98015826D01*
X120400000Y-97884174D01*
X120365925Y-97757007D01*
X120333012Y-97700000D01*
X121250000Y-97700000D01*
X121250000Y-97052172D01*
X121249999Y-97052155D01*
X121243598Y-96992627D01*
X121243596Y-96992620D01*
X121193354Y-96857913D01*
X121193350Y-96857906D01*
X121107190Y-96742812D01*
X121107187Y-96742809D01*
X120992093Y-96656649D01*
X120992086Y-96656645D01*
X120857379Y-96606403D01*
X120857372Y-96606401D01*
X120797844Y-96600000D01*
X120150000Y-96600000D01*
X120150000Y-97516988D01*
X120092993Y-97484075D01*
X119965826Y-97450000D01*
X119834174Y-97450000D01*
X119707007Y-97484075D01*
X119650000Y-97516988D01*
X119650000Y-96600000D01*
X119002155Y-96600000D01*
X118942627Y-96606401D01*
X118942620Y-96606403D01*
X118807913Y-96656645D01*
X118807906Y-96656649D01*
X118692812Y-96742809D01*
X118692809Y-96742812D01*
X118606649Y-96857906D01*
X118606645Y-96857913D01*
X118556403Y-96992620D01*
X118556401Y-96992627D01*
X118550000Y-97052155D01*
X118550000Y-97700000D01*
X119466988Y-97700000D01*
X119434075Y-97757007D01*
X119400000Y-97884174D01*
X119400000Y-98015826D01*
X119434075Y-98142993D01*
X119466988Y-98200000D01*
X118550000Y-98200000D01*
X118550000Y-98847844D01*
X118556401Y-98907372D01*
X118556403Y-98907379D01*
X118606645Y-99042086D01*
X118606649Y-99042093D01*
X118692809Y-99157187D01*
X118692812Y-99157190D01*
X118807906Y-99243350D01*
X118807913Y-99243354D01*
X118939470Y-99292422D01*
X118995404Y-99334293D01*
X119019821Y-99399758D01*
X119004969Y-99468031D01*
X118983819Y-99496285D01*
X118869889Y-99610215D01*
X118744951Y-99782179D01*
X118648444Y-99971585D01*
X118582753Y-100173760D01*
X118549500Y-100383713D01*
X95740500Y-100383713D01*
X95707246Y-100173757D01*
X95641557Y-99971588D01*
X95545051Y-99782184D01*
X95545049Y-99782181D01*
X95545048Y-99782179D01*
X95420109Y-99610213D01*
X95306569Y-99496673D01*
X95273084Y-99435350D01*
X95278068Y-99365658D01*
X95319940Y-99309725D01*
X95350915Y-99292810D01*
X95482331Y-99243796D01*
X95597546Y-99157546D01*
X95683796Y-99042331D01*
X95734091Y-98907483D01*
X95740500Y-98847873D01*
X95740500Y-98674500D01*
X95760185Y-98607461D01*
X95812989Y-98561706D01*
X95864500Y-98550500D01*
X97903334Y-98550500D01*
X97970373Y-98570185D01*
X97991010Y-98586814D01*
X98084313Y-98680117D01*
X98223605Y-98762494D01*
X98264587Y-98774400D01*
X98379002Y-98807642D01*
X98379005Y-98807642D01*
X98379007Y-98807643D01*
X98415310Y-98810500D01*
X98415318Y-98810500D01*
X98824682Y-98810500D01*
X98824690Y-98810500D01*
X98860993Y-98807643D01*
X98860995Y-98807642D01*
X98860997Y-98807642D01*
X98901975Y-98795736D01*
X99016395Y-98762494D01*
X99037369Y-98750089D01*
X99105088Y-98732906D01*
X99163613Y-98750090D01*
X99183803Y-98762031D01*
X99330000Y-98804504D01*
X99330000Y-98804503D01*
X99830000Y-98804503D01*
X99976195Y-98762031D01*
X100115374Y-98679721D01*
X100115383Y-98679714D01*
X100229714Y-98565383D01*
X100229721Y-98565374D01*
X100312031Y-98426195D01*
X100312033Y-98426190D01*
X100357144Y-98270918D01*
X100357145Y-98270912D01*
X100358790Y-98250000D01*
X99830000Y-98250000D01*
X99830000Y-98804503D01*
X99330000Y-98804503D01*
X99330000Y-98498352D01*
X99347267Y-98435233D01*
X99352494Y-98426395D01*
X99374661Y-98350099D01*
X99397642Y-98270997D01*
X99397643Y-98270991D01*
X99397649Y-98270912D01*
X99400500Y-98234690D01*
X99400500Y-97765310D01*
X99397643Y-97729007D01*
X99372653Y-97642993D01*
X99352495Y-97573608D01*
X99352492Y-97573600D01*
X99347266Y-97564763D01*
X99330000Y-97501645D01*
X99330000Y-97195494D01*
X99830000Y-97195494D01*
X99830000Y-97750000D01*
X100358790Y-97750000D01*
X100357145Y-97729089D01*
X100312031Y-97573804D01*
X100229721Y-97434625D01*
X100229714Y-97434616D01*
X100115383Y-97320285D01*
X100115374Y-97320278D01*
X99976193Y-97237967D01*
X99976190Y-97237965D01*
X99830001Y-97195493D01*
X99830000Y-97195494D01*
X99330000Y-97195494D01*
X99329998Y-97195493D01*
X99183809Y-97237965D01*
X99183806Y-97237967D01*
X99163608Y-97249912D01*
X99095884Y-97267092D01*
X99037370Y-97249910D01*
X99016397Y-97237507D01*
X99016390Y-97237504D01*
X98860997Y-97192357D01*
X98860991Y-97192356D01*
X98824697Y-97189500D01*
X98824690Y-97189500D01*
X98415310Y-97189500D01*
X98415302Y-97189500D01*
X98379008Y-97192356D01*
X98379002Y-97192357D01*
X98223609Y-97237504D01*
X98223606Y-97237505D01*
X98084315Y-97319881D01*
X98079676Y-97323480D01*
X98014639Y-97349014D01*
X98003676Y-97349500D01*
X95864499Y-97349500D01*
X95855813Y-97346949D01*
X95846852Y-97348238D01*
X95822811Y-97337259D01*
X95797460Y-97329815D01*
X95791532Y-97322974D01*
X95783296Y-97319213D01*
X95769006Y-97296978D01*
X95751705Y-97277011D01*
X95749417Y-97266496D01*
X95745522Y-97260435D01*
X95740499Y-97225500D01*
X95740499Y-97052129D01*
X95740498Y-97052123D01*
X95740497Y-97052116D01*
X95734091Y-96992517D01*
X95683884Y-96857906D01*
X95683797Y-96857671D01*
X95683793Y-96857664D01*
X95597547Y-96742455D01*
X95597544Y-96742452D01*
X95482335Y-96656206D01*
X95482328Y-96656202D01*
X95347482Y-96605908D01*
X95347483Y-96605908D01*
X95287883Y-96599501D01*
X95287881Y-96599500D01*
X95287873Y-96599500D01*
X95287864Y-96599500D01*
X93492129Y-96599500D01*
X93492123Y-96599501D01*
X93432516Y-96605908D01*
X93297671Y-96656202D01*
X93297664Y-96656206D01*
X93182455Y-96742452D01*
X93182452Y-96742455D01*
X93096206Y-96857664D01*
X93096202Y-96857671D01*
X93045908Y-96992517D01*
X93039501Y-97052116D01*
X93039501Y-97052123D01*
X93039500Y-97052135D01*
X92100500Y-97052135D01*
X92100500Y-94524500D01*
X92120185Y-94457461D01*
X92172989Y-94411706D01*
X92224500Y-94400500D01*
X122075500Y-94400500D01*
X122142539Y-94420185D01*
G37*
%TD.AperFunction*%
%TD*%
M02*
