%TF.GenerationSoftware,KiCad,Pcbnew,9.0.2*%
%TF.CreationDate,2025-07-02T00:41:40+02:00*%
%TF.ProjectId,flex_aufsatz,666c6578-5f61-4756-9673-61747a2e6b69,rev?*%
%TF.SameCoordinates,Original*%
%TF.FileFunction,Copper,L2,Bot*%
%TF.FilePolarity,Positive*%
%FSLAX46Y46*%
G04 Gerber Fmt 4.6, Leading zero omitted, Abs format (unit mm)*
G04 Created by KiCad (PCBNEW 9.0.2) date 2025-07-02 00:41:41*
%MOMM*%
%LPD*%
G01*
G04 APERTURE LIST*
%TA.AperFunction,Conductor*%
%ADD10C,0.200000*%
%TD*%
%TA.AperFunction,ComponentPad*%
%ADD11R,1.700000X1.700000*%
%TD*%
%TA.AperFunction,ComponentPad*%
%ADD12C,1.700000*%
%TD*%
%TA.AperFunction,SMDPad,CuDef*%
%ADD13R,0.660000X0.230000*%
%TD*%
%TA.AperFunction,SMDPad,CuDef*%
%ADD14R,0.660000X0.350000*%
%TD*%
%TA.AperFunction,ViaPad*%
%ADD15C,0.600000*%
%TD*%
G04 APERTURE END LIST*
D10*
%TO.N,/MIC_CLK0*%
X102165000Y-111715000D02*
X102815000Y-111715000D01*
%TO.N,+3.3V*%
X106240000Y-112515000D02*
X106940000Y-112515000D01*
%TO.N,GND*%
X104890000Y-110915000D02*
X104115000Y-110915000D01*
%TO.N,/MIC_DOUT_2*%
X108940000Y-111315000D02*
X110040000Y-111315000D01*
%TO.N,/MIC_CLK1*%
X108940000Y-112115000D02*
X108065000Y-112115000D01*
%TO.N,/MIC_DOUT_1*%
X102240000Y-111315000D02*
X101440000Y-111315000D01*
%TO.N,GND*%
X108940000Y-110915000D02*
X110015000Y-110915000D01*
%TO.N,/MIC_DOUT_1*%
X101440000Y-111315000D02*
X101290000Y-111165000D01*
%TD*%
D11*
%TO.P,J1,1,Pin_1*%
%TO.N,+3.3V*%
X94390000Y-97950000D03*
D12*
%TO.P,J1,2,Pin_2*%
X94390000Y-100490000D03*
%TO.P,J1,3,Pin_3*%
%TO.N,unconnected-(J1-Pin_3-Pad3)*%
X94390000Y-103030000D03*
%TO.P,J1,4,Pin_4*%
%TO.N,/WS*%
X94390000Y-105570000D03*
%TO.P,J1,5,Pin_5*%
%TO.N,/BCLK*%
X94390000Y-108110000D03*
%TO.P,J1,6,Pin_6*%
%TO.N,unconnected-(J1-Pin_6-Pad6)*%
X94390000Y-110650000D03*
%TO.P,J1,7,Pin_7*%
%TO.N,unconnected-(J1-Pin_7-Pad7)*%
X94390000Y-113190000D03*
%TO.P,J1,8,Pin_8*%
%TO.N,unconnected-(J1-Pin_8-Pad8)*%
X94390000Y-115730000D03*
%TO.P,J1,9,Pin_9*%
%TO.N,unconnected-(J1-Pin_9-Pad9)*%
X94390000Y-118270000D03*
%TO.P,J1,10,Pin_10*%
%TO.N,unconnected-(J1-Pin_10-Pad10)*%
X94390000Y-120810000D03*
%TO.P,J1,11,Pin_11*%
%TO.N,unconnected-(J1-Pin_11-Pad11)*%
X94390000Y-123350000D03*
%TO.P,J1,12,Pin_12*%
%TO.N,unconnected-(J1-Pin_12-Pad12)*%
X94390000Y-125890000D03*
%TO.P,J1,13,Pin_13*%
%TO.N,unconnected-(J1-Pin_13-Pad13)*%
X94390000Y-128430000D03*
%TO.P,J1,14,Pin_14*%
%TO.N,unconnected-(J1-Pin_14-Pad14)*%
X94390000Y-130970000D03*
%TO.P,J1,15,Pin_15*%
%TO.N,unconnected-(J1-Pin_15-Pad15)*%
X94390000Y-133510000D03*
%TO.P,J1,16,Pin_16*%
%TO.N,unconnected-(J1-Pin_16-Pad16)*%
X94390000Y-136050000D03*
%TO.P,J1,17,Pin_17*%
%TO.N,unconnected-(J1-Pin_17-Pad17)*%
X94390000Y-138590000D03*
%TO.P,J1,18,Pin_18*%
%TO.N,/TDM_DATA*%
X94390000Y-141130000D03*
%TO.P,J1,19,Pin_19*%
%TO.N,unconnected-(J1-Pin_19-Pad19)*%
X94390000Y-143670000D03*
%TO.P,J1,20,Pin_20*%
%TO.N,unconnected-(J1-Pin_20-Pad20)*%
X94390000Y-146210000D03*
%TO.P,J1,21,Pin_21*%
%TO.N,unconnected-(J1-Pin_21-Pad21)*%
X94390000Y-148750000D03*
%TO.P,J1,22,Pin_22*%
%TO.N,GND*%
X94390000Y-151290000D03*
%TD*%
D11*
%TO.P,J2,1,Pin_1*%
%TO.N,GND*%
X119900000Y-97950000D03*
D12*
%TO.P,J2,2,Pin_2*%
%TO.N,unconnected-(J2-Pin_2-Pad2)*%
X119900000Y-100490000D03*
%TO.P,J2,3,Pin_3*%
%TO.N,unconnected-(J2-Pin_3-Pad3)*%
X119900000Y-103030000D03*
%TO.P,J2,4,Pin_4*%
%TO.N,unconnected-(J2-Pin_4-Pad4)*%
X119900000Y-105570000D03*
%TO.P,J2,5,Pin_5*%
%TO.N,unconnected-(J2-Pin_5-Pad5)*%
X119900000Y-108110000D03*
%TO.P,J2,6,Pin_6*%
%TO.N,unconnected-(J2-Pin_6-Pad6)*%
X119900000Y-110650000D03*
%TO.P,J2,7,Pin_7*%
%TO.N,unconnected-(J2-Pin_7-Pad7)*%
X119900000Y-113190000D03*
%TO.P,J2,8,Pin_8*%
%TO.N,unconnected-(J2-Pin_8-Pad8)*%
X119900000Y-115730000D03*
%TO.P,J2,9,Pin_9*%
%TO.N,unconnected-(J2-Pin_9-Pad9)*%
X119900000Y-118270000D03*
%TO.P,J2,10,Pin_10*%
%TO.N,unconnected-(J2-Pin_10-Pad10)*%
X119900000Y-120810000D03*
%TO.P,J2,11,Pin_11*%
%TO.N,unconnected-(J2-Pin_11-Pad11)*%
X119900000Y-123350000D03*
%TO.P,J2,12,Pin_12*%
%TO.N,unconnected-(J2-Pin_12-Pad12)*%
X119900000Y-125890000D03*
%TO.P,J2,13,Pin_13*%
%TO.N,unconnected-(J2-Pin_13-Pad13)*%
X119900000Y-128430000D03*
%TO.P,J2,14,Pin_14*%
%TO.N,unconnected-(J2-Pin_14-Pad14)*%
X119900000Y-130970000D03*
%TO.P,J2,15,Pin_15*%
%TO.N,unconnected-(J2-Pin_15-Pad15)*%
X119900000Y-133510000D03*
%TO.P,J2,16,Pin_16*%
%TO.N,unconnected-(J2-Pin_16-Pad16)*%
X119900000Y-136050000D03*
%TO.P,J2,17,Pin_17*%
%TO.N,unconnected-(J2-Pin_17-Pad17)*%
X119900000Y-138590000D03*
%TO.P,J2,18,Pin_18*%
%TO.N,unconnected-(J2-Pin_18-Pad18)*%
X119900000Y-141130000D03*
%TO.P,J2,19,Pin_19*%
%TO.N,unconnected-(J2-Pin_19-Pad19)*%
X119900000Y-143670000D03*
%TO.P,J2,20,Pin_20*%
%TO.N,unconnected-(J2-Pin_20-Pad20)*%
X119900000Y-146210000D03*
%TO.P,J2,21,Pin_21*%
%TO.N,GND*%
X119900000Y-148750000D03*
%TO.P,J2,22,Pin_22*%
X119900000Y-151290000D03*
%TD*%
D13*
%TO.P,J4,1,1*%
%TO.N,+3.3V*%
X106230000Y-112515000D03*
%TO.P,J4,2,2*%
%TO.N,unconnected-(J4-Pad2)*%
X108940000Y-112515000D03*
%TO.P,J4,3,3*%
%TO.N,unconnected-(J4-Pad3)*%
X106230000Y-112115000D03*
%TO.P,J4,4,4*%
%TO.N,/MIC_CLK1*%
X108940000Y-112115000D03*
%TO.P,J4,5,5*%
%TO.N,unconnected-(J4-Pad5)*%
X106230000Y-111715000D03*
%TO.P,J4,6,6*%
%TO.N,unconnected-(J4-Pad6)*%
X108940000Y-111715000D03*
%TO.P,J4,7,7*%
%TO.N,unconnected-(J4-Pad7)*%
X106230000Y-111315000D03*
%TO.P,J4,8,8*%
%TO.N,/MIC_DOUT_2*%
X108940000Y-111315000D03*
%TO.P,J4,9,9*%
%TO.N,unconnected-(J4-Pad9)*%
X106230000Y-110915000D03*
%TO.P,J4,10,10*%
%TO.N,GND*%
X108940000Y-110915000D03*
D14*
%TO.P,J4,SH1*%
%TO.N,N/C*%
X106230000Y-112990000D03*
%TO.P,J4,SH2*%
X108940000Y-112990000D03*
%TO.P,J4,SH3*%
X106230000Y-110440000D03*
%TO.P,J4,SH4*%
X108940000Y-110440000D03*
%TD*%
D13*
%TO.P,J3,1,1*%
%TO.N,+3.3V*%
X102180000Y-112515000D03*
%TO.P,J3,2,2*%
%TO.N,unconnected-(J3-Pad2)*%
X104890000Y-112515000D03*
%TO.P,J3,3,3*%
%TO.N,unconnected-(J3-Pad3)*%
X102180000Y-112115000D03*
%TO.P,J3,4,4*%
%TO.N,unconnected-(J3-Pad4)*%
X104890000Y-112115000D03*
%TO.P,J3,5,5*%
%TO.N,/MIC_CLK0*%
X102180000Y-111715000D03*
%TO.P,J3,6,6*%
%TO.N,unconnected-(J3-Pad6)*%
X104890000Y-111715000D03*
%TO.P,J3,7,7*%
%TO.N,/MIC_DOUT_1*%
X102180000Y-111315000D03*
%TO.P,J3,8,8*%
%TO.N,unconnected-(J3-Pad8)*%
X104890000Y-111315000D03*
%TO.P,J3,9,9*%
%TO.N,/MIC_DOUT_0*%
X102180000Y-110915000D03*
%TO.P,J3,10,10*%
%TO.N,GND*%
X104890000Y-110915000D03*
D14*
%TO.P,J3,SH1*%
%TO.N,N/C*%
X102180000Y-112990000D03*
%TO.P,J3,SH2*%
X104890000Y-112990000D03*
%TO.P,J3,SH3*%
X102180000Y-110440000D03*
%TO.P,J3,SH4*%
X104890000Y-110440000D03*
%TD*%
D15*
%TO.N,+3.3V*%
X100330000Y-124930000D03*
X108440000Y-116400000D03*
X100750000Y-129660000D03*
%TO.N,GND*%
X103290000Y-108840000D03*
X109440000Y-122400000D03*
X102500000Y-121200000D03*
X109970000Y-112460000D03*
X105700000Y-115000000D03*
X97060000Y-106140000D03*
X111470000Y-109410000D03*
X103800000Y-124400000D03*
X102200000Y-116500000D03*
X109310000Y-114710000D03*
X100300000Y-119000000D03*
X100560000Y-128750000D03*
X109440000Y-126620000D03*
%TO.N,+1V8*%
X105750000Y-124950000D03*
X108815000Y-121880000D03*
X107790000Y-126700000D03*
%TO.N,/MIC_DOUT_1*%
X100940000Y-110065000D03*
%TO.N,/MIC_CLK0*%
X110790000Y-121790000D03*
%TO.N,/MIC_DOUT_0*%
X112540000Y-119590000D03*
%TO.N,/MIC_CLK1*%
X112540000Y-118015000D03*
%TO.N,/MIC_DOUT_2*%
X110415000Y-115515000D03*
%TD*%
D10*
%TO.N,+3.3V*%
X107202500Y-112252500D02*
X106940000Y-112515000D01*
X100330000Y-124930000D02*
X97810000Y-122410000D01*
X107540000Y-111915000D02*
X107202500Y-112252500D01*
X107640000Y-111815000D02*
X107202500Y-112252500D01*
X97810000Y-110730000D02*
X97810000Y-103910000D01*
X106940000Y-114900000D02*
X108440000Y-116400000D01*
X102180000Y-112515000D02*
X99595000Y-112515000D01*
X107640000Y-108790000D02*
X107640000Y-111815000D01*
X97810000Y-127900000D02*
X97810000Y-122310000D01*
X97810000Y-122410000D02*
X97810000Y-122310000D01*
X94390000Y-97950000D02*
X94390000Y-100490000D01*
X94390000Y-97950000D02*
X96800000Y-97950000D01*
X103065000Y-104215000D02*
X107640000Y-108790000D01*
X97810000Y-122310000D02*
X97810000Y-110730000D01*
X99570000Y-129660000D02*
X97810000Y-127900000D01*
X100750000Y-129660000D02*
X99570000Y-129660000D01*
X99595000Y-112515000D02*
X97810000Y-110730000D01*
X99190000Y-100340000D02*
X100740000Y-101890000D01*
X106940000Y-112515000D02*
X106940000Y-114900000D01*
X96800000Y-97950000D02*
X99190000Y-100340000D01*
X100740000Y-101890000D02*
X103065000Y-104215000D01*
X97810000Y-103910000D02*
X94390000Y-100490000D01*
%TO.N,GND*%
X109440000Y-136250000D02*
X109440000Y-141740000D01*
X109310000Y-114710000D02*
X109970000Y-114050000D01*
X109440000Y-130580000D02*
X109440000Y-136250000D01*
X113920000Y-146220000D02*
X113930000Y-146230000D01*
X110015000Y-110915000D02*
X110915000Y-110015000D01*
X119900000Y-97950000D02*
X118170000Y-97950000D01*
X107610000Y-128750000D02*
X109440000Y-130580000D01*
X97060000Y-148620000D02*
X109430000Y-136250000D01*
X109440000Y-141740000D02*
X113930000Y-146230000D01*
X109970000Y-114050000D02*
X109970000Y-112460000D01*
X118170000Y-97950000D02*
X113920000Y-102200000D01*
X109440000Y-122400000D02*
X109440000Y-126620000D01*
X110915000Y-110015000D02*
X111440000Y-109490000D01*
X97060000Y-148620000D02*
X97060000Y-106140000D01*
X94390000Y-151290000D02*
X97060000Y-148620000D01*
X119900000Y-148750000D02*
X119900000Y-151290000D01*
X116450000Y-148750000D02*
X113930000Y-146230000D01*
X100440000Y-128750000D02*
X100560000Y-128750000D01*
X104115000Y-110915000D02*
X103290000Y-110090000D01*
X113920000Y-102200000D02*
X113920000Y-146220000D01*
X109440000Y-126620000D02*
X109440000Y-130580000D01*
X109430000Y-136250000D02*
X109440000Y-136250000D01*
X103290000Y-110090000D02*
X103290000Y-108840000D01*
X119900000Y-148750000D02*
X116450000Y-148750000D01*
X100560000Y-128750000D02*
X107610000Y-128750000D01*
%TO.N,+1V8*%
X107790000Y-124750000D02*
X108870000Y-123670000D01*
X108870000Y-121935000D02*
X108815000Y-121880000D01*
X108870000Y-123670000D02*
X108870000Y-121935000D01*
X105750000Y-124945000D02*
X105750000Y-124950000D01*
X108815000Y-121880000D02*
X105750000Y-124945000D01*
X107790000Y-126700000D02*
X107790000Y-124750000D01*
%TO.N,/MIC_DOUT_1*%
X100940000Y-110815000D02*
X101440000Y-111315000D01*
X100940000Y-110065000D02*
X100940000Y-110815000D01*
%TO.N,/MIC_CLK0*%
X109640000Y-121790000D02*
X110790000Y-121790000D01*
X109215000Y-121365000D02*
X109640000Y-121790000D01*
X103415000Y-115565000D02*
X109215000Y-121365000D01*
X102815000Y-111715000D02*
X103140000Y-112040000D01*
X103140000Y-112040000D02*
X103140000Y-113515000D01*
X103140000Y-115290000D02*
X103415000Y-115565000D01*
X103140000Y-113515000D02*
X103140000Y-115290000D01*
%TO.N,/MIC_DOUT_0*%
X102180000Y-110915000D02*
X103090000Y-110915000D01*
X103815000Y-111640000D02*
X103815000Y-114965000D01*
X111165000Y-117640000D02*
X112540000Y-119015000D01*
X112540000Y-119015000D02*
X112540000Y-119590000D01*
X103090000Y-110915000D02*
X103815000Y-111640000D01*
X103815000Y-114965000D02*
X106490000Y-117640000D01*
X106490000Y-117640000D02*
X111165000Y-117640000D01*
%TO.N,/MIC_CLK1*%
X111940000Y-116340000D02*
X112540000Y-116940000D01*
X107565000Y-114415000D02*
X107565000Y-112615000D01*
X109490000Y-116340000D02*
X111940000Y-116340000D01*
X107565000Y-114415000D02*
X109490000Y-116340000D01*
X112540000Y-116940000D02*
X112540000Y-118015000D01*
X107565000Y-112615000D02*
X108065000Y-112115000D01*
%TO.N,/MIC_DOUT_2*%
X110565000Y-115365000D02*
X110415000Y-115515000D01*
X110115000Y-111315000D02*
X110565000Y-111765000D01*
X110040000Y-111315000D02*
X110115000Y-111315000D01*
X110565000Y-114115000D02*
X110565000Y-115365000D01*
X110565000Y-111765000D02*
X110565000Y-114115000D01*
%TD*%
%TA.AperFunction,Conductor*%
%TO.N,GND*%
G36*
X105619424Y-113581742D02*
G01*
X105634308Y-113591308D01*
X105653815Y-113605911D01*
X105657669Y-113608796D01*
X105657670Y-113608797D01*
X105732155Y-113636577D01*
X105792517Y-113659091D01*
X105852127Y-113665500D01*
X106215500Y-113665499D01*
X106282539Y-113685183D01*
X106328294Y-113737987D01*
X106339500Y-113789499D01*
X106339500Y-114813330D01*
X106339499Y-114813348D01*
X106339499Y-114979054D01*
X106339498Y-114979054D01*
X106380423Y-115131785D01*
X106409358Y-115181900D01*
X106409359Y-115181904D01*
X106409360Y-115181904D01*
X106421740Y-115203348D01*
X106459479Y-115268714D01*
X106459481Y-115268717D01*
X106578349Y-115387585D01*
X106578355Y-115387590D01*
X107605425Y-116414660D01*
X107638910Y-116475983D01*
X107639361Y-116478149D01*
X107670261Y-116633491D01*
X107670264Y-116633501D01*
X107730602Y-116779172D01*
X107730609Y-116779185D01*
X107775661Y-116846609D01*
X107796539Y-116913286D01*
X107778055Y-116980666D01*
X107726076Y-117027357D01*
X107672559Y-117039500D01*
X106790097Y-117039500D01*
X106723058Y-117019815D01*
X106702416Y-117003181D01*
X104451819Y-114752584D01*
X104418334Y-114691261D01*
X104415500Y-114664903D01*
X104415500Y-113789499D01*
X104435185Y-113722460D01*
X104487989Y-113676705D01*
X104539495Y-113665499D01*
X105267872Y-113665499D01*
X105327483Y-113659091D01*
X105383669Y-113638135D01*
X105462329Y-113608797D01*
X105462329Y-113608796D01*
X105462331Y-113608796D01*
X105485688Y-113591310D01*
X105551151Y-113566892D01*
X105619424Y-113581742D01*
G37*
%TD.AperFunction*%
%TA.AperFunction,Conductor*%
G36*
X109899926Y-113313621D02*
G01*
X109949332Y-113363026D01*
X109964500Y-113422454D01*
X109964500Y-114786981D01*
X109944815Y-114854020D01*
X109909395Y-114890080D01*
X109904715Y-114893207D01*
X109904707Y-114893213D01*
X109793213Y-115004707D01*
X109793210Y-115004711D01*
X109705609Y-115135814D01*
X109705602Y-115135827D01*
X109645264Y-115281498D01*
X109645261Y-115281508D01*
X109630042Y-115358020D01*
X109597657Y-115419931D01*
X109536941Y-115454505D01*
X109467171Y-115450764D01*
X109420744Y-115421509D01*
X108201819Y-114202584D01*
X108168334Y-114141261D01*
X108165500Y-114114903D01*
X108165500Y-113705174D01*
X108185185Y-113638135D01*
X108237989Y-113592380D01*
X108307147Y-113582436D01*
X108363814Y-113605910D01*
X108367669Y-113608796D01*
X108367670Y-113608796D01*
X108367671Y-113608797D01*
X108412618Y-113625561D01*
X108502517Y-113659091D01*
X108562127Y-113665500D01*
X109317872Y-113665499D01*
X109377483Y-113659091D01*
X109512331Y-113608796D01*
X109627546Y-113522546D01*
X109713796Y-113407331D01*
X109724318Y-113379121D01*
X109766189Y-113323187D01*
X109831653Y-113298770D01*
X109899926Y-113313621D01*
G37*
%TD.AperFunction*%
%TA.AperFunction,Conductor*%
G36*
X96566942Y-98570185D02*
G01*
X96587584Y-98586819D01*
X100259481Y-102258716D01*
X102703349Y-104702585D01*
X102703355Y-104702590D01*
X107003181Y-109002416D01*
X107036666Y-109063739D01*
X107039500Y-109090097D01*
X107039500Y-109751026D01*
X107019815Y-109818065D01*
X106967011Y-109863820D01*
X106897853Y-109873764D01*
X106841189Y-109850293D01*
X106802331Y-109821204D01*
X106802328Y-109821202D01*
X106667486Y-109770910D01*
X106667485Y-109770909D01*
X106667483Y-109770909D01*
X106607873Y-109764500D01*
X106607863Y-109764500D01*
X105852129Y-109764500D01*
X105852123Y-109764501D01*
X105792516Y-109770908D01*
X105657671Y-109821202D01*
X105657665Y-109821205D01*
X105634309Y-109838690D01*
X105568845Y-109863106D01*
X105500572Y-109848253D01*
X105485691Y-109838690D01*
X105462334Y-109821205D01*
X105462328Y-109821202D01*
X105327486Y-109770910D01*
X105327485Y-109770909D01*
X105327483Y-109770909D01*
X105267873Y-109764500D01*
X105267863Y-109764500D01*
X104512129Y-109764500D01*
X104512123Y-109764501D01*
X104452516Y-109770908D01*
X104317671Y-109821202D01*
X104317664Y-109821206D01*
X104202455Y-109907452D01*
X104202452Y-109907455D01*
X104116206Y-110022664D01*
X104116202Y-110022671D01*
X104065910Y-110157513D01*
X104065909Y-110157517D01*
X104059500Y-110217127D01*
X104059500Y-110217134D01*
X104059500Y-110217135D01*
X104059500Y-110662869D01*
X104059501Y-110662880D01*
X104063125Y-110696592D01*
X104063125Y-110723095D01*
X104060175Y-110750540D01*
X104033438Y-110815092D01*
X103976047Y-110854942D01*
X103906222Y-110857437D01*
X103849204Y-110824969D01*
X103577590Y-110553355D01*
X103577588Y-110553352D01*
X103458717Y-110434481D01*
X103458712Y-110434477D01*
X103331938Y-110361285D01*
X103331937Y-110361284D01*
X103321787Y-110355423D01*
X103260693Y-110339053D01*
X103169057Y-110314499D01*
X103132351Y-110314499D01*
X103065312Y-110294814D01*
X103019557Y-110242010D01*
X103009061Y-110203752D01*
X103004091Y-110157516D01*
X102953797Y-110022671D01*
X102953793Y-110022664D01*
X102867547Y-109907455D01*
X102867544Y-109907452D01*
X102752335Y-109821206D01*
X102752328Y-109821202D01*
X102617486Y-109770910D01*
X102617485Y-109770909D01*
X102617483Y-109770909D01*
X102557873Y-109764500D01*
X102557863Y-109764500D01*
X101802129Y-109764500D01*
X101802120Y-109764501D01*
X101779396Y-109766944D01*
X101710636Y-109754536D01*
X101659500Y-109706925D01*
X101651582Y-109691104D01*
X101649392Y-109685817D01*
X101561789Y-109554711D01*
X101561786Y-109554707D01*
X101450292Y-109443213D01*
X101450288Y-109443210D01*
X101319185Y-109355609D01*
X101319172Y-109355602D01*
X101173501Y-109295264D01*
X101173489Y-109295261D01*
X101018845Y-109264500D01*
X101018842Y-109264500D01*
X100861158Y-109264500D01*
X100861155Y-109264500D01*
X100706510Y-109295261D01*
X100706498Y-109295264D01*
X100560827Y-109355602D01*
X100560814Y-109355609D01*
X100429711Y-109443210D01*
X100429707Y-109443213D01*
X100318213Y-109554707D01*
X100318210Y-109554711D01*
X100230609Y-109685814D01*
X100230602Y-109685827D01*
X100170264Y-109831498D01*
X100170261Y-109831510D01*
X100139500Y-109986153D01*
X100139500Y-110143846D01*
X100170261Y-110298489D01*
X100170264Y-110298501D01*
X100230602Y-110444172D01*
X100230609Y-110444185D01*
X100318602Y-110575874D01*
X100324252Y-110593920D01*
X100334477Y-110609830D01*
X100338928Y-110640789D01*
X100339480Y-110642551D01*
X100339500Y-110644765D01*
X100339500Y-110728330D01*
X100339499Y-110728348D01*
X100339499Y-110894054D01*
X100339498Y-110894054D01*
X100339499Y-110894057D01*
X100380423Y-111046785D01*
X100398372Y-111077873D01*
X100459479Y-111183714D01*
X100459481Y-111183717D01*
X100978583Y-111702819D01*
X101012068Y-111764142D01*
X101007084Y-111833834D01*
X100965212Y-111889767D01*
X100899748Y-111914184D01*
X100890902Y-111914500D01*
X99895097Y-111914500D01*
X99828058Y-111894815D01*
X99807416Y-111878181D01*
X98446819Y-110517584D01*
X98413334Y-110456261D01*
X98410500Y-110429903D01*
X98410500Y-103830945D01*
X98410500Y-103830943D01*
X98369577Y-103678216D01*
X98369573Y-103678209D01*
X98290524Y-103541290D01*
X98290521Y-103541286D01*
X98290520Y-103541284D01*
X98178716Y-103429480D01*
X98178715Y-103429479D01*
X98174385Y-103425149D01*
X98174374Y-103425139D01*
X95723757Y-100974522D01*
X95690272Y-100913199D01*
X95693507Y-100848523D01*
X95707246Y-100806243D01*
X95740500Y-100596287D01*
X95740500Y-100383713D01*
X95707246Y-100173757D01*
X95641557Y-99971588D01*
X95545051Y-99782184D01*
X95545049Y-99782181D01*
X95545048Y-99782179D01*
X95420109Y-99610213D01*
X95306569Y-99496673D01*
X95273084Y-99435350D01*
X95278068Y-99365658D01*
X95319940Y-99309725D01*
X95350915Y-99292810D01*
X95482331Y-99243796D01*
X95597546Y-99157546D01*
X95683796Y-99042331D01*
X95734091Y-98907483D01*
X95740500Y-98847873D01*
X95740500Y-98674500D01*
X95760185Y-98607461D01*
X95812989Y-98561706D01*
X95864500Y-98550500D01*
X96499903Y-98550500D01*
X96566942Y-98570185D01*
G37*
%TD.AperFunction*%
%TA.AperFunction,Conductor*%
G36*
X122142539Y-94420185D02*
G01*
X122188294Y-94472989D01*
X122199500Y-94524500D01*
X122199500Y-153375500D01*
X122179815Y-153442539D01*
X122127011Y-153488294D01*
X122075500Y-153499500D01*
X92224500Y-153499500D01*
X92157461Y-153479815D01*
X92111706Y-153427011D01*
X92100500Y-153375500D01*
X92100500Y-97052135D01*
X93039500Y-97052135D01*
X93039500Y-98847870D01*
X93039501Y-98847876D01*
X93045908Y-98907483D01*
X93096202Y-99042328D01*
X93096206Y-99042335D01*
X93182452Y-99157544D01*
X93182455Y-99157547D01*
X93297664Y-99243793D01*
X93297671Y-99243797D01*
X93429082Y-99292810D01*
X93485016Y-99334681D01*
X93509433Y-99400145D01*
X93494582Y-99468418D01*
X93473431Y-99496673D01*
X93359889Y-99610215D01*
X93234951Y-99782179D01*
X93138444Y-99971585D01*
X93072753Y-100173760D01*
X93039500Y-100383713D01*
X93039500Y-100596286D01*
X93072753Y-100806239D01*
X93072753Y-100806241D01*
X93072754Y-100806243D01*
X93127431Y-100974522D01*
X93138444Y-101008414D01*
X93234951Y-101197820D01*
X93359890Y-101369786D01*
X93510213Y-101520109D01*
X93682182Y-101645050D01*
X93690946Y-101649516D01*
X93741742Y-101697491D01*
X93758536Y-101765312D01*
X93735998Y-101831447D01*
X93690946Y-101870484D01*
X93682182Y-101874949D01*
X93510213Y-101999890D01*
X93359890Y-102150213D01*
X93234951Y-102322179D01*
X93138444Y-102511585D01*
X93072753Y-102713760D01*
X93039762Y-102922058D01*
X93039500Y-102923713D01*
X93039500Y-103136287D01*
X93072754Y-103346243D01*
X93099799Y-103429480D01*
X93138444Y-103548414D01*
X93234951Y-103737820D01*
X93359890Y-103909786D01*
X93510213Y-104060109D01*
X93682182Y-104185050D01*
X93690946Y-104189516D01*
X93741742Y-104237491D01*
X93758536Y-104305312D01*
X93735998Y-104371447D01*
X93690946Y-104410484D01*
X93682182Y-104414949D01*
X93510213Y-104539890D01*
X93359890Y-104690213D01*
X93234951Y-104862179D01*
X93138444Y-105051585D01*
X93072753Y-105253760D01*
X93039500Y-105463713D01*
X93039500Y-105676286D01*
X93072753Y-105886239D01*
X93138444Y-106088414D01*
X93234951Y-106277820D01*
X93359890Y-106449786D01*
X93510213Y-106600109D01*
X93682182Y-106725050D01*
X93690946Y-106729516D01*
X93741742Y-106777491D01*
X93758536Y-106845312D01*
X93735998Y-106911447D01*
X93690946Y-106950484D01*
X93682182Y-106954949D01*
X93510213Y-107079890D01*
X93359890Y-107230213D01*
X93234951Y-107402179D01*
X93138444Y-107591585D01*
X93072753Y-107793760D01*
X93039500Y-108003713D01*
X93039500Y-108216286D01*
X93071968Y-108421285D01*
X93072754Y-108426243D01*
X93115634Y-108558214D01*
X93138444Y-108628414D01*
X93234951Y-108817820D01*
X93359890Y-108989786D01*
X93510213Y-109140109D01*
X93682182Y-109265050D01*
X93690946Y-109269516D01*
X93741742Y-109317491D01*
X93758536Y-109385312D01*
X93735998Y-109451447D01*
X93690946Y-109490484D01*
X93682182Y-109494949D01*
X93510213Y-109619890D01*
X93359890Y-109770213D01*
X93234951Y-109942179D01*
X93138444Y-110131585D01*
X93072753Y-110333760D01*
X93055266Y-110444172D01*
X93039500Y-110543713D01*
X93039500Y-110756287D01*
X93048814Y-110815092D01*
X93070712Y-110953355D01*
X93072754Y-110966243D01*
X93109025Y-111077874D01*
X93138444Y-111168414D01*
X93234951Y-111357820D01*
X93359890Y-111529786D01*
X93510213Y-111680109D01*
X93682182Y-111805050D01*
X93690946Y-111809516D01*
X93741742Y-111857491D01*
X93758536Y-111925312D01*
X93735998Y-111991447D01*
X93690946Y-112030484D01*
X93682182Y-112034949D01*
X93510213Y-112159890D01*
X93359890Y-112310213D01*
X93234951Y-112482179D01*
X93138444Y-112671585D01*
X93072753Y-112873760D01*
X93053468Y-112995520D01*
X93039500Y-113083713D01*
X93039500Y-113296287D01*
X93072754Y-113506243D01*
X93130895Y-113685183D01*
X93138444Y-113708414D01*
X93234951Y-113897820D01*
X93359890Y-114069786D01*
X93510213Y-114220109D01*
X93682182Y-114345050D01*
X93690946Y-114349516D01*
X93741742Y-114397491D01*
X93758536Y-114465312D01*
X93735998Y-114531447D01*
X93690946Y-114570484D01*
X93682182Y-114574949D01*
X93510213Y-114699890D01*
X93359890Y-114850213D01*
X93234951Y-115022179D01*
X93138444Y-115211585D01*
X93072753Y-115413760D01*
X93066300Y-115454505D01*
X93039500Y-115623713D01*
X93039500Y-115836287D01*
X93043174Y-115859481D01*
X93072639Y-116045521D01*
X93072754Y-116046243D01*
X93074816Y-116052590D01*
X93138444Y-116248414D01*
X93234951Y-116437820D01*
X93359890Y-116609786D01*
X93510213Y-116760109D01*
X93682182Y-116885050D01*
X93690946Y-116889516D01*
X93741742Y-116937491D01*
X93758536Y-117005312D01*
X93735998Y-117071447D01*
X93690946Y-117110484D01*
X93682182Y-117114949D01*
X93510213Y-117239890D01*
X93359890Y-117390213D01*
X93234951Y-117562179D01*
X93138444Y-117751585D01*
X93072753Y-117953760D01*
X93039500Y-118163713D01*
X93039500Y-118376286D01*
X93063099Y-118525288D01*
X93072754Y-118586243D01*
X93101150Y-118673638D01*
X93138444Y-118788414D01*
X93234951Y-118977820D01*
X93359890Y-119149786D01*
X93510213Y-119300109D01*
X93682182Y-119425050D01*
X93690946Y-119429516D01*
X93741742Y-119477491D01*
X93758536Y-119545312D01*
X93735998Y-119611447D01*
X93690946Y-119650484D01*
X93682182Y-119654949D01*
X93510213Y-119779890D01*
X93359890Y-119930213D01*
X93234951Y-120102179D01*
X93138444Y-120291585D01*
X93072753Y-120493760D01*
X93039500Y-120703713D01*
X93039500Y-120916286D01*
X93052170Y-120996285D01*
X93072754Y-121126243D01*
X93137143Y-121324412D01*
X93138444Y-121328414D01*
X93234951Y-121517820D01*
X93359890Y-121689786D01*
X93510213Y-121840109D01*
X93682182Y-121965050D01*
X93690946Y-121969516D01*
X93741742Y-122017491D01*
X93758536Y-122085312D01*
X93735998Y-122151447D01*
X93690946Y-122190484D01*
X93682182Y-122194949D01*
X93510213Y-122319890D01*
X93359890Y-122470213D01*
X93234951Y-122642179D01*
X93138444Y-122831585D01*
X93072753Y-123033760D01*
X93039500Y-123243713D01*
X93039500Y-123456286D01*
X93059621Y-123583329D01*
X93072754Y-123666243D01*
X93099661Y-123749055D01*
X93138444Y-123868414D01*
X93234951Y-124057820D01*
X93359890Y-124229786D01*
X93510213Y-124380109D01*
X93682182Y-124505050D01*
X93690946Y-124509516D01*
X93741742Y-124557491D01*
X93758536Y-124625312D01*
X93735998Y-124691447D01*
X93690946Y-124730484D01*
X93682182Y-124734949D01*
X93510213Y-124859890D01*
X93359890Y-125010213D01*
X93234951Y-125182179D01*
X93138444Y-125371585D01*
X93072753Y-125573760D01*
X93039500Y-125783713D01*
X93039500Y-125996286D01*
X93072753Y-126206239D01*
X93138444Y-126408414D01*
X93234951Y-126597820D01*
X93359890Y-126769786D01*
X93510213Y-126920109D01*
X93682182Y-127045050D01*
X93690946Y-127049516D01*
X93741742Y-127097491D01*
X93758536Y-127165312D01*
X93735998Y-127231447D01*
X93690946Y-127270484D01*
X93682182Y-127274949D01*
X93510213Y-127399890D01*
X93359890Y-127550213D01*
X93234951Y-127722179D01*
X93138444Y-127911585D01*
X93072753Y-128113760D01*
X93039500Y-128323713D01*
X93039500Y-128536287D01*
X93072754Y-128746243D01*
X93119549Y-128890264D01*
X93138444Y-128948414D01*
X93234951Y-129137820D01*
X93359890Y-129309786D01*
X93510213Y-129460109D01*
X93682182Y-129585050D01*
X93690946Y-129589516D01*
X93741742Y-129637491D01*
X93758536Y-129705312D01*
X93735998Y-129771447D01*
X93690946Y-129810484D01*
X93682182Y-129814949D01*
X93510213Y-129939890D01*
X93359890Y-130090213D01*
X93234951Y-130262179D01*
X93138444Y-130451585D01*
X93072753Y-130653760D01*
X93039500Y-130863713D01*
X93039500Y-131076286D01*
X93072753Y-131286239D01*
X93138444Y-131488414D01*
X93234951Y-131677820D01*
X93359890Y-131849786D01*
X93510213Y-132000109D01*
X93682182Y-132125050D01*
X93690946Y-132129516D01*
X93741742Y-132177491D01*
X93758536Y-132245312D01*
X93735998Y-132311447D01*
X93690946Y-132350484D01*
X93682182Y-132354949D01*
X93510213Y-132479890D01*
X93359890Y-132630213D01*
X93234951Y-132802179D01*
X93138444Y-132991585D01*
X93072753Y-133193760D01*
X93039500Y-133403713D01*
X93039500Y-133616286D01*
X93072753Y-133826239D01*
X93138444Y-134028414D01*
X93234951Y-134217820D01*
X93359890Y-134389786D01*
X93510213Y-134540109D01*
X93682182Y-134665050D01*
X93690946Y-134669516D01*
X93741742Y-134717491D01*
X93758536Y-134785312D01*
X93735998Y-134851447D01*
X93690946Y-134890484D01*
X93682182Y-134894949D01*
X93510213Y-135019890D01*
X93359890Y-135170213D01*
X93234951Y-135342179D01*
X93138444Y-135531585D01*
X93072753Y-135733760D01*
X93039500Y-135943713D01*
X93039500Y-136156286D01*
X93072753Y-136366239D01*
X93138444Y-136568414D01*
X93234951Y-136757820D01*
X93359890Y-136929786D01*
X93510213Y-137080109D01*
X93682182Y-137205050D01*
X93690946Y-137209516D01*
X93741742Y-137257491D01*
X93758536Y-137325312D01*
X93735998Y-137391447D01*
X93690946Y-137430484D01*
X93682182Y-137434949D01*
X93510213Y-137559890D01*
X93359890Y-137710213D01*
X93234951Y-137882179D01*
X93138444Y-138071585D01*
X93072753Y-138273760D01*
X93039500Y-138483713D01*
X93039500Y-138696286D01*
X93072753Y-138906239D01*
X93138444Y-139108414D01*
X93234951Y-139297820D01*
X93359890Y-139469786D01*
X93510213Y-139620109D01*
X93682182Y-139745050D01*
X93690946Y-139749516D01*
X93741742Y-139797491D01*
X93758536Y-139865312D01*
X93735998Y-139931447D01*
X93690946Y-139970484D01*
X93682182Y-139974949D01*
X93510213Y-140099890D01*
X93359890Y-140250213D01*
X93234951Y-140422179D01*
X93138444Y-140611585D01*
X93072753Y-140813760D01*
X93039500Y-141023713D01*
X93039500Y-141236286D01*
X93072753Y-141446239D01*
X93138444Y-141648414D01*
X93234951Y-141837820D01*
X93359890Y-142009786D01*
X93510213Y-142160109D01*
X93682182Y-142285050D01*
X93690946Y-142289516D01*
X93741742Y-142337491D01*
X93758536Y-142405312D01*
X93735998Y-142471447D01*
X93690946Y-142510484D01*
X93682182Y-142514949D01*
X93510213Y-142639890D01*
X93359890Y-142790213D01*
X93234951Y-142962179D01*
X93138444Y-143151585D01*
X93072753Y-143353760D01*
X93039500Y-143563713D01*
X93039500Y-143776286D01*
X93072753Y-143986239D01*
X93138444Y-144188414D01*
X93234951Y-144377820D01*
X93359890Y-144549786D01*
X93510213Y-144700109D01*
X93682182Y-144825050D01*
X93690946Y-144829516D01*
X93741742Y-144877491D01*
X93758536Y-144945312D01*
X93735998Y-145011447D01*
X93690946Y-145050484D01*
X93682182Y-145054949D01*
X93510213Y-145179890D01*
X93359890Y-145330213D01*
X93234951Y-145502179D01*
X93138444Y-145691585D01*
X93072753Y-145893760D01*
X93039500Y-146103713D01*
X93039500Y-146316286D01*
X93072753Y-146526239D01*
X93138444Y-146728414D01*
X93234951Y-146917820D01*
X93359890Y-147089786D01*
X93510213Y-147240109D01*
X93682182Y-147365050D01*
X93690946Y-147369516D01*
X93741742Y-147417491D01*
X93758536Y-147485312D01*
X93735998Y-147551447D01*
X93690946Y-147590484D01*
X93682182Y-147594949D01*
X93510213Y-147719890D01*
X93359890Y-147870213D01*
X93234951Y-148042179D01*
X93138444Y-148231585D01*
X93072753Y-148433760D01*
X93039500Y-148643713D01*
X93039500Y-148856286D01*
X93072753Y-149066239D01*
X93138444Y-149268414D01*
X93234951Y-149457820D01*
X93359890Y-149629786D01*
X93510213Y-149780109D01*
X93682179Y-149905048D01*
X93682181Y-149905049D01*
X93682184Y-149905051D01*
X93691493Y-149909794D01*
X93742290Y-149957766D01*
X93759087Y-150025587D01*
X93736552Y-150091722D01*
X93691505Y-150130760D01*
X93682446Y-150135376D01*
X93682440Y-150135380D01*
X93628282Y-150174727D01*
X93628282Y-150174728D01*
X94260591Y-150807037D01*
X94197007Y-150824075D01*
X94082993Y-150889901D01*
X93989901Y-150982993D01*
X93924075Y-151097007D01*
X93907037Y-151160591D01*
X93274728Y-150528282D01*
X93274727Y-150528282D01*
X93235380Y-150582439D01*
X93138904Y-150771782D01*
X93073242Y-150973869D01*
X93073242Y-150973872D01*
X93040000Y-151183753D01*
X93040000Y-151396246D01*
X93073242Y-151606127D01*
X93073242Y-151606130D01*
X93138904Y-151808217D01*
X93235375Y-151997550D01*
X93274728Y-152051716D01*
X93907037Y-151419408D01*
X93924075Y-151482993D01*
X93989901Y-151597007D01*
X94082993Y-151690099D01*
X94197007Y-151755925D01*
X94260590Y-151772962D01*
X93628282Y-152405269D01*
X93628282Y-152405270D01*
X93682449Y-152444624D01*
X93871782Y-152541095D01*
X94073870Y-152606757D01*
X94283754Y-152640000D01*
X94496246Y-152640000D01*
X94706127Y-152606757D01*
X94706130Y-152606757D01*
X94908217Y-152541095D01*
X95097554Y-152444622D01*
X95151716Y-152405270D01*
X95151717Y-152405270D01*
X94519408Y-151772962D01*
X94582993Y-151755925D01*
X94697007Y-151690099D01*
X94790099Y-151597007D01*
X94855925Y-151482993D01*
X94872962Y-151419408D01*
X95505270Y-152051717D01*
X95505270Y-152051716D01*
X95544622Y-151997554D01*
X95641095Y-151808217D01*
X95706757Y-151606130D01*
X95706757Y-151606127D01*
X95740000Y-151396246D01*
X95740000Y-151183753D01*
X95706757Y-150973872D01*
X95706757Y-150973869D01*
X95641095Y-150771782D01*
X95544624Y-150582449D01*
X95505270Y-150528282D01*
X95505269Y-150528282D01*
X94872962Y-151160590D01*
X94855925Y-151097007D01*
X94790099Y-150982993D01*
X94697007Y-150889901D01*
X94582993Y-150824075D01*
X94519409Y-150807037D01*
X95151716Y-150174728D01*
X95097547Y-150135373D01*
X95097547Y-150135372D01*
X95088500Y-150130763D01*
X95037706Y-150082788D01*
X95020912Y-150014966D01*
X95043451Y-149948832D01*
X95088508Y-149909793D01*
X95097816Y-149905051D01*
X95196187Y-149833581D01*
X95269786Y-149780109D01*
X95269788Y-149780106D01*
X95269792Y-149780104D01*
X95420104Y-149629792D01*
X95420106Y-149629788D01*
X95420109Y-149629786D01*
X95545048Y-149457820D01*
X95545047Y-149457820D01*
X95545051Y-149457816D01*
X95641557Y-149268412D01*
X95707246Y-149066243D01*
X95740500Y-148856287D01*
X95740500Y-148643713D01*
X95707246Y-148433757D01*
X95641557Y-148231588D01*
X95545051Y-148042184D01*
X95545049Y-148042181D01*
X95545048Y-148042179D01*
X95420109Y-147870213D01*
X95269786Y-147719890D01*
X95097820Y-147594951D01*
X95089600Y-147590763D01*
X95089054Y-147590485D01*
X95038259Y-147542512D01*
X95021463Y-147474692D01*
X95043999Y-147408556D01*
X95089054Y-147369515D01*
X95097816Y-147365051D01*
X95119789Y-147349086D01*
X95269786Y-147240109D01*
X95269788Y-147240106D01*
X95269792Y-147240104D01*
X95420104Y-147089792D01*
X95420106Y-147089788D01*
X95420109Y-147089786D01*
X95545048Y-146917820D01*
X95545047Y-146917820D01*
X95545051Y-146917816D01*
X95641557Y-146728412D01*
X95707246Y-146526243D01*
X95740500Y-146316287D01*
X95740500Y-146103713D01*
X95707246Y-145893757D01*
X95641557Y-145691588D01*
X95545051Y-145502184D01*
X95545049Y-145502181D01*
X95545048Y-145502179D01*
X95420109Y-145330213D01*
X95269786Y-145179890D01*
X95097820Y-145054951D01*
X95097115Y-145054591D01*
X95089054Y-145050485D01*
X95038259Y-145002512D01*
X95021463Y-144934692D01*
X95043999Y-144868556D01*
X95089054Y-144829515D01*
X95097816Y-144825051D01*
X95119789Y-144809086D01*
X95269786Y-144700109D01*
X95269788Y-144700106D01*
X95269792Y-144700104D01*
X95420104Y-144549792D01*
X95420106Y-144549788D01*
X95420109Y-144549786D01*
X95545048Y-144377820D01*
X95545047Y-144377820D01*
X95545051Y-144377816D01*
X95641557Y-144188412D01*
X95707246Y-143986243D01*
X95740500Y-143776287D01*
X95740500Y-143563713D01*
X95707246Y-143353757D01*
X95641557Y-143151588D01*
X95545051Y-142962184D01*
X95545049Y-142962181D01*
X95545048Y-142962179D01*
X95420109Y-142790213D01*
X95269786Y-142639890D01*
X95097820Y-142514951D01*
X95097115Y-142514591D01*
X95089054Y-142510485D01*
X95038259Y-142462512D01*
X95021463Y-142394692D01*
X95043999Y-142328556D01*
X95089054Y-142289515D01*
X95097816Y-142285051D01*
X95119789Y-142269086D01*
X95269786Y-142160109D01*
X95269788Y-142160106D01*
X95269792Y-142160104D01*
X95420104Y-142009792D01*
X95420106Y-142009788D01*
X95420109Y-142009786D01*
X95545048Y-141837820D01*
X95545047Y-141837820D01*
X95545051Y-141837816D01*
X95641557Y-141648412D01*
X95707246Y-141446243D01*
X95740500Y-141236287D01*
X95740500Y-141023713D01*
X95707246Y-140813757D01*
X95641557Y-140611588D01*
X95545051Y-140422184D01*
X95545049Y-140422181D01*
X95545048Y-140422179D01*
X95420109Y-140250213D01*
X95269786Y-140099890D01*
X95097820Y-139974951D01*
X95097115Y-139974591D01*
X95089054Y-139970485D01*
X95038259Y-139922512D01*
X95021463Y-139854692D01*
X95043999Y-139788556D01*
X95089054Y-139749515D01*
X95097816Y-139745051D01*
X95119789Y-139729086D01*
X95269786Y-139620109D01*
X95269788Y-139620106D01*
X95269792Y-139620104D01*
X95420104Y-139469792D01*
X95420106Y-139469788D01*
X95420109Y-139469786D01*
X95545048Y-139297820D01*
X95545047Y-139297820D01*
X95545051Y-139297816D01*
X95641557Y-139108412D01*
X95707246Y-138906243D01*
X95740500Y-138696287D01*
X95740500Y-138483713D01*
X95707246Y-138273757D01*
X95641557Y-138071588D01*
X95545051Y-137882184D01*
X95545049Y-137882181D01*
X95545048Y-137882179D01*
X95420109Y-137710213D01*
X95269786Y-137559890D01*
X95097820Y-137434951D01*
X95097115Y-137434591D01*
X95089054Y-137430485D01*
X95038259Y-137382512D01*
X95021463Y-137314692D01*
X95043999Y-137248556D01*
X95089054Y-137209515D01*
X95097816Y-137205051D01*
X95119789Y-137189086D01*
X95269786Y-137080109D01*
X95269788Y-137080106D01*
X95269792Y-137080104D01*
X95420104Y-136929792D01*
X95420106Y-136929788D01*
X95420109Y-136929786D01*
X95545048Y-136757820D01*
X95545047Y-136757820D01*
X95545051Y-136757816D01*
X95641557Y-136568412D01*
X95707246Y-136366243D01*
X95740500Y-136156287D01*
X95740500Y-135943713D01*
X95707246Y-135733757D01*
X95641557Y-135531588D01*
X95545051Y-135342184D01*
X95545049Y-135342181D01*
X95545048Y-135342179D01*
X95420109Y-135170213D01*
X95269786Y-135019890D01*
X95097820Y-134894951D01*
X95097115Y-134894591D01*
X95089054Y-134890485D01*
X95038259Y-134842512D01*
X95021463Y-134774692D01*
X95043999Y-134708556D01*
X95089054Y-134669515D01*
X95097816Y-134665051D01*
X95119789Y-134649086D01*
X95269786Y-134540109D01*
X95269788Y-134540106D01*
X95269792Y-134540104D01*
X95420104Y-134389792D01*
X95420106Y-134389788D01*
X95420109Y-134389786D01*
X95545048Y-134217820D01*
X95545047Y-134217820D01*
X95545051Y-134217816D01*
X95641557Y-134028412D01*
X95707246Y-133826243D01*
X95740500Y-133616287D01*
X95740500Y-133403713D01*
X95707246Y-133193757D01*
X95641557Y-132991588D01*
X95545051Y-132802184D01*
X95545049Y-132802181D01*
X95545048Y-132802179D01*
X95420109Y-132630213D01*
X95269786Y-132479890D01*
X95097820Y-132354951D01*
X95097115Y-132354591D01*
X95089054Y-132350485D01*
X95038259Y-132302512D01*
X95021463Y-132234692D01*
X95043999Y-132168556D01*
X95089054Y-132129515D01*
X95097816Y-132125051D01*
X95119789Y-132109086D01*
X95269786Y-132000109D01*
X95269788Y-132000106D01*
X95269792Y-132000104D01*
X95420104Y-131849792D01*
X95420106Y-131849788D01*
X95420109Y-131849786D01*
X95545048Y-131677820D01*
X95545047Y-131677820D01*
X95545051Y-131677816D01*
X95641557Y-131488412D01*
X95707246Y-131286243D01*
X95740500Y-131076287D01*
X95740500Y-130863713D01*
X95707246Y-130653757D01*
X95641557Y-130451588D01*
X95545051Y-130262184D01*
X95545049Y-130262181D01*
X95545048Y-130262179D01*
X95420109Y-130090213D01*
X95269786Y-129939890D01*
X95097820Y-129814951D01*
X95097115Y-129814591D01*
X95089054Y-129810485D01*
X95038259Y-129762512D01*
X95021463Y-129694692D01*
X95043999Y-129628556D01*
X95089054Y-129589515D01*
X95097816Y-129585051D01*
X95119789Y-129569086D01*
X95269786Y-129460109D01*
X95269788Y-129460106D01*
X95269792Y-129460104D01*
X95420104Y-129309792D01*
X95420106Y-129309788D01*
X95420109Y-129309786D01*
X95545048Y-129137820D01*
X95545047Y-129137820D01*
X95545051Y-129137816D01*
X95641557Y-128948412D01*
X95707246Y-128746243D01*
X95740500Y-128536287D01*
X95740500Y-128323713D01*
X95707246Y-128113757D01*
X95641557Y-127911588D01*
X95545051Y-127722184D01*
X95545049Y-127722181D01*
X95545048Y-127722179D01*
X95420109Y-127550213D01*
X95269786Y-127399890D01*
X95097820Y-127274951D01*
X95097115Y-127274591D01*
X95089054Y-127270485D01*
X95038259Y-127222512D01*
X95021463Y-127154692D01*
X95043999Y-127088556D01*
X95089054Y-127049515D01*
X95097816Y-127045051D01*
X95119789Y-127029086D01*
X95269786Y-126920109D01*
X95269788Y-126920106D01*
X95269792Y-126920104D01*
X95420104Y-126769792D01*
X95420106Y-126769788D01*
X95420109Y-126769786D01*
X95545048Y-126597820D01*
X95545047Y-126597820D01*
X95545051Y-126597816D01*
X95641557Y-126408412D01*
X95707246Y-126206243D01*
X95740500Y-125996287D01*
X95740500Y-125783713D01*
X95707246Y-125573757D01*
X95641557Y-125371588D01*
X95545051Y-125182184D01*
X95545049Y-125182181D01*
X95545048Y-125182179D01*
X95420109Y-125010213D01*
X95269786Y-124859890D01*
X95097820Y-124734951D01*
X95097115Y-124734591D01*
X95089054Y-124730485D01*
X95038259Y-124682512D01*
X95021463Y-124614692D01*
X95043999Y-124548556D01*
X95089054Y-124509515D01*
X95097816Y-124505051D01*
X95153658Y-124464480D01*
X95269786Y-124380109D01*
X95269788Y-124380106D01*
X95269792Y-124380104D01*
X95420104Y-124229792D01*
X95420106Y-124229788D01*
X95420109Y-124229786D01*
X95545048Y-124057820D01*
X95545047Y-124057820D01*
X95545051Y-124057816D01*
X95641557Y-123868412D01*
X95707246Y-123666243D01*
X95740500Y-123456287D01*
X95740500Y-123243713D01*
X95707246Y-123033757D01*
X95641557Y-122831588D01*
X95545051Y-122642184D01*
X95545049Y-122642181D01*
X95545048Y-122642179D01*
X95420109Y-122470213D01*
X95269786Y-122319890D01*
X95097820Y-122194951D01*
X95097115Y-122194591D01*
X95089054Y-122190485D01*
X95038259Y-122142512D01*
X95021463Y-122074692D01*
X95043999Y-122008556D01*
X95089054Y-121969515D01*
X95097816Y-121965051D01*
X95230235Y-121868844D01*
X95269786Y-121840109D01*
X95269788Y-121840106D01*
X95269792Y-121840104D01*
X95420104Y-121689792D01*
X95420106Y-121689788D01*
X95420109Y-121689786D01*
X95545048Y-121517820D01*
X95545047Y-121517820D01*
X95545051Y-121517816D01*
X95641557Y-121328412D01*
X95707246Y-121126243D01*
X95740500Y-120916287D01*
X95740500Y-120703713D01*
X95707246Y-120493757D01*
X95641557Y-120291588D01*
X95545051Y-120102184D01*
X95545049Y-120102181D01*
X95545048Y-120102179D01*
X95420109Y-119930213D01*
X95269786Y-119779890D01*
X95097820Y-119654951D01*
X95097115Y-119654591D01*
X95089054Y-119650485D01*
X95038259Y-119602512D01*
X95021463Y-119534692D01*
X95043999Y-119468556D01*
X95089054Y-119429515D01*
X95097816Y-119425051D01*
X95119789Y-119409086D01*
X95269786Y-119300109D01*
X95269788Y-119300106D01*
X95269792Y-119300104D01*
X95420104Y-119149792D01*
X95420106Y-119149788D01*
X95420109Y-119149786D01*
X95545048Y-118977820D01*
X95545047Y-118977820D01*
X95545051Y-118977816D01*
X95641557Y-118788412D01*
X95707246Y-118586243D01*
X95740500Y-118376287D01*
X95740500Y-118163713D01*
X95707246Y-117953757D01*
X95641557Y-117751588D01*
X95545051Y-117562184D01*
X95545049Y-117562181D01*
X95545048Y-117562179D01*
X95420109Y-117390213D01*
X95269786Y-117239890D01*
X95097820Y-117114951D01*
X95097115Y-117114591D01*
X95089054Y-117110485D01*
X95038259Y-117062512D01*
X95021463Y-116994692D01*
X95043999Y-116928556D01*
X95089054Y-116889515D01*
X95097816Y-116885051D01*
X95186636Y-116820520D01*
X95269786Y-116760109D01*
X95269788Y-116760106D01*
X95269792Y-116760104D01*
X95420104Y-116609792D01*
X95420106Y-116609788D01*
X95420109Y-116609786D01*
X95545048Y-116437820D01*
X95545047Y-116437820D01*
X95545051Y-116437816D01*
X95641557Y-116248412D01*
X95707246Y-116046243D01*
X95740500Y-115836287D01*
X95740500Y-115623713D01*
X95707246Y-115413757D01*
X95641557Y-115211588D01*
X95545051Y-115022184D01*
X95545049Y-115022181D01*
X95545048Y-115022179D01*
X95420109Y-114850213D01*
X95269786Y-114699890D01*
X95097820Y-114574951D01*
X95097115Y-114574591D01*
X95089054Y-114570485D01*
X95038259Y-114522512D01*
X95021463Y-114454692D01*
X95043999Y-114388556D01*
X95089054Y-114349515D01*
X95097816Y-114345051D01*
X95119789Y-114329086D01*
X95269786Y-114220109D01*
X95269788Y-114220106D01*
X95269792Y-114220104D01*
X95420104Y-114069792D01*
X95420106Y-114069788D01*
X95420109Y-114069786D01*
X95545048Y-113897820D01*
X95545047Y-113897820D01*
X95545051Y-113897816D01*
X95641557Y-113708412D01*
X95707246Y-113506243D01*
X95740500Y-113296287D01*
X95740500Y-113083713D01*
X95707246Y-112873757D01*
X95641557Y-112671588D01*
X95545051Y-112482184D01*
X95545049Y-112482181D01*
X95545048Y-112482179D01*
X95420109Y-112310213D01*
X95269786Y-112159890D01*
X95097820Y-112034951D01*
X95097115Y-112034591D01*
X95089054Y-112030485D01*
X95038259Y-111982512D01*
X95021463Y-111914692D01*
X95043999Y-111848556D01*
X95089054Y-111809515D01*
X95097816Y-111805051D01*
X95154123Y-111764142D01*
X95269786Y-111680109D01*
X95269788Y-111680106D01*
X95269792Y-111680104D01*
X95420104Y-111529792D01*
X95420106Y-111529788D01*
X95420109Y-111529786D01*
X95545048Y-111357820D01*
X95545047Y-111357820D01*
X95545051Y-111357816D01*
X95641557Y-111168412D01*
X95707246Y-110966243D01*
X95740500Y-110756287D01*
X95740500Y-110543713D01*
X95707246Y-110333757D01*
X95641557Y-110131588D01*
X95545051Y-109942184D01*
X95545049Y-109942181D01*
X95545048Y-109942179D01*
X95420109Y-109770213D01*
X95269786Y-109619890D01*
X95097820Y-109494951D01*
X95097115Y-109494591D01*
X95089054Y-109490485D01*
X95038259Y-109442512D01*
X95021463Y-109374692D01*
X95043999Y-109308556D01*
X95089054Y-109269515D01*
X95097816Y-109265051D01*
X95119789Y-109249086D01*
X95269786Y-109140109D01*
X95269788Y-109140106D01*
X95269792Y-109140104D01*
X95420104Y-108989792D01*
X95420106Y-108989788D01*
X95420109Y-108989786D01*
X95545048Y-108817820D01*
X95545047Y-108817820D01*
X95545051Y-108817816D01*
X95641557Y-108628412D01*
X95707246Y-108426243D01*
X95740500Y-108216287D01*
X95740500Y-108003713D01*
X95707246Y-107793757D01*
X95641557Y-107591588D01*
X95545051Y-107402184D01*
X95545049Y-107402181D01*
X95545048Y-107402179D01*
X95420109Y-107230213D01*
X95269786Y-107079890D01*
X95097820Y-106954951D01*
X95097115Y-106954591D01*
X95089054Y-106950485D01*
X95038259Y-106902512D01*
X95021463Y-106834692D01*
X95043999Y-106768556D01*
X95089054Y-106729515D01*
X95097816Y-106725051D01*
X95119789Y-106709086D01*
X95269786Y-106600109D01*
X95269788Y-106600106D01*
X95269792Y-106600104D01*
X95420104Y-106449792D01*
X95420106Y-106449788D01*
X95420109Y-106449786D01*
X95545048Y-106277820D01*
X95545047Y-106277820D01*
X95545051Y-106277816D01*
X95641557Y-106088412D01*
X95707246Y-105886243D01*
X95740500Y-105676287D01*
X95740500Y-105463713D01*
X95707246Y-105253757D01*
X95641557Y-105051588D01*
X95545051Y-104862184D01*
X95545049Y-104862181D01*
X95545048Y-104862179D01*
X95420109Y-104690213D01*
X95269786Y-104539890D01*
X95097820Y-104414951D01*
X95097115Y-104414591D01*
X95089054Y-104410485D01*
X95038259Y-104362512D01*
X95021463Y-104294692D01*
X95043999Y-104228556D01*
X95089054Y-104189515D01*
X95097816Y-104185051D01*
X95134037Y-104158735D01*
X95269786Y-104060109D01*
X95269788Y-104060106D01*
X95269792Y-104060104D01*
X95420104Y-103909792D01*
X95420106Y-103909788D01*
X95420109Y-103909786D01*
X95545048Y-103737820D01*
X95545047Y-103737820D01*
X95545051Y-103737816D01*
X95641557Y-103548412D01*
X95707246Y-103346243D01*
X95740500Y-103136287D01*
X95740500Y-102989097D01*
X95760185Y-102922058D01*
X95812989Y-102876303D01*
X95882147Y-102866359D01*
X95945703Y-102895384D01*
X95952181Y-102901416D01*
X97173181Y-104122416D01*
X97206666Y-104183739D01*
X97209500Y-104210097D01*
X97209500Y-110650939D01*
X97209499Y-110650943D01*
X97209499Y-110809057D01*
X97209500Y-110809060D01*
X97209500Y-122323330D01*
X97209499Y-122323348D01*
X97209499Y-122499046D01*
X97209500Y-122499059D01*
X97209500Y-127813330D01*
X97209499Y-127813348D01*
X97209499Y-127979054D01*
X97209498Y-127979054D01*
X97209499Y-127979057D01*
X97250423Y-128131785D01*
X97254102Y-128138157D01*
X97254105Y-128138167D01*
X97254108Y-128138166D01*
X97329479Y-128268714D01*
X97329481Y-128268717D01*
X97448349Y-128387585D01*
X97448355Y-128387590D01*
X99085139Y-130024374D01*
X99085149Y-130024385D01*
X99089479Y-130028715D01*
X99089480Y-130028716D01*
X99201284Y-130140520D01*
X99252845Y-130170288D01*
X99288095Y-130190639D01*
X99288097Y-130190641D01*
X99326151Y-130212611D01*
X99338215Y-130219577D01*
X99490943Y-130260501D01*
X99490946Y-130260501D01*
X99656653Y-130260501D01*
X99656669Y-130260500D01*
X100170234Y-130260500D01*
X100237273Y-130280185D01*
X100239125Y-130281398D01*
X100370814Y-130369390D01*
X100370827Y-130369397D01*
X100516498Y-130429735D01*
X100516503Y-130429737D01*
X100626340Y-130451585D01*
X100671153Y-130460499D01*
X100671156Y-130460500D01*
X100671158Y-130460500D01*
X100828844Y-130460500D01*
X100828845Y-130460499D01*
X100983497Y-130429737D01*
X101129179Y-130369394D01*
X101260289Y-130281789D01*
X101371789Y-130170289D01*
X101459394Y-130039179D01*
X101519737Y-129893497D01*
X101550500Y-129738842D01*
X101550500Y-129581158D01*
X101550500Y-129581155D01*
X101550499Y-129581153D01*
X101519737Y-129426503D01*
X101519735Y-129426498D01*
X101459397Y-129280827D01*
X101459390Y-129280814D01*
X101371789Y-129149711D01*
X101371786Y-129149707D01*
X101260292Y-129038213D01*
X101260288Y-129038210D01*
X101129185Y-128950609D01*
X101129172Y-128950602D01*
X100983501Y-128890264D01*
X100983489Y-128890261D01*
X100828845Y-128859500D01*
X100828842Y-128859500D01*
X100671158Y-128859500D01*
X100671155Y-128859500D01*
X100516510Y-128890261D01*
X100516498Y-128890264D01*
X100370827Y-128950602D01*
X100370814Y-128950609D01*
X100239125Y-129038602D01*
X100172447Y-129059480D01*
X100170234Y-129059500D01*
X99870097Y-129059500D01*
X99803058Y-129039815D01*
X99782416Y-129023181D01*
X98446819Y-127687584D01*
X98413334Y-127626261D01*
X98410500Y-127599903D01*
X98410500Y-124159097D01*
X98430185Y-124092058D01*
X98482989Y-124046303D01*
X98552147Y-124036359D01*
X98615703Y-124065384D01*
X98622181Y-124071416D01*
X99495425Y-124944660D01*
X99528910Y-125005983D01*
X99529361Y-125008149D01*
X99560261Y-125163491D01*
X99560264Y-125163501D01*
X99620602Y-125309172D01*
X99620609Y-125309185D01*
X99708210Y-125440288D01*
X99708213Y-125440292D01*
X99819707Y-125551786D01*
X99819711Y-125551789D01*
X99950814Y-125639390D01*
X99950827Y-125639397D01*
X100096498Y-125699735D01*
X100096503Y-125699737D01*
X100251153Y-125730499D01*
X100251156Y-125730500D01*
X100251158Y-125730500D01*
X100408844Y-125730500D01*
X100408845Y-125730499D01*
X100563497Y-125699737D01*
X100709179Y-125639394D01*
X100840289Y-125551789D01*
X100951789Y-125440289D01*
X101039394Y-125309179D01*
X101099737Y-125163497D01*
X101130500Y-125008842D01*
X101130500Y-124851158D01*
X101130500Y-124851155D01*
X101130499Y-124851153D01*
X101107384Y-124734949D01*
X101099737Y-124696503D01*
X101065850Y-124614692D01*
X101039397Y-124550827D01*
X101039390Y-124550814D01*
X100951789Y-124419711D01*
X100951786Y-124419707D01*
X100840292Y-124308213D01*
X100840288Y-124308210D01*
X100709185Y-124220609D01*
X100709172Y-124220602D01*
X100563501Y-124160264D01*
X100563491Y-124160261D01*
X100408149Y-124129361D01*
X100346238Y-124096976D01*
X100344660Y-124095425D01*
X98446819Y-122197584D01*
X98413334Y-122136261D01*
X98410500Y-122109903D01*
X98410500Y-112479097D01*
X98430185Y-112412058D01*
X98482989Y-112366303D01*
X98552147Y-112356359D01*
X98615703Y-112385384D01*
X98622181Y-112391416D01*
X99110139Y-112879374D01*
X99110149Y-112879385D01*
X99114479Y-112883715D01*
X99114480Y-112883716D01*
X99226284Y-112995520D01*
X99313095Y-113045639D01*
X99313097Y-113045641D01*
X99363213Y-113074576D01*
X99363215Y-113074577D01*
X99515942Y-113115500D01*
X99515943Y-113115500D01*
X101227649Y-113115500D01*
X101294688Y-113135185D01*
X101340443Y-113187989D01*
X101350939Y-113226248D01*
X101355908Y-113272483D01*
X101406202Y-113407328D01*
X101406206Y-113407335D01*
X101492452Y-113522544D01*
X101492455Y-113522547D01*
X101607664Y-113608793D01*
X101607671Y-113608797D01*
X101652618Y-113625561D01*
X101742517Y-113659091D01*
X101802127Y-113665500D01*
X102415500Y-113665499D01*
X102482539Y-113685183D01*
X102528294Y-113737987D01*
X102539500Y-113789499D01*
X102539500Y-115203330D01*
X102539499Y-115203348D01*
X102539499Y-115369054D01*
X102539498Y-115369054D01*
X102580424Y-115521789D01*
X102580425Y-115521790D01*
X102605661Y-115565499D01*
X102605662Y-115565501D01*
X102659475Y-115658709D01*
X102659481Y-115658717D01*
X102788720Y-115787956D01*
X102788726Y-115787961D01*
X103053349Y-116052585D01*
X103053355Y-116052590D01*
X108194162Y-121193397D01*
X108227647Y-121254720D01*
X108222663Y-121324412D01*
X108196747Y-121364740D01*
X108197072Y-121365007D01*
X108194790Y-121367786D01*
X108194171Y-121368751D01*
X108193211Y-121369710D01*
X108193208Y-121369714D01*
X108105609Y-121500814D01*
X108105602Y-121500827D01*
X108045264Y-121646498D01*
X108045261Y-121646508D01*
X108014362Y-121801848D01*
X107981977Y-121863759D01*
X107980426Y-121865337D01*
X105729097Y-124116667D01*
X105667774Y-124150152D01*
X105665608Y-124150603D01*
X105516508Y-124180261D01*
X105516498Y-124180264D01*
X105370827Y-124240602D01*
X105370814Y-124240609D01*
X105239711Y-124328210D01*
X105239707Y-124328213D01*
X105128213Y-124439707D01*
X105128210Y-124439711D01*
X105040609Y-124570814D01*
X105040602Y-124570827D01*
X104980264Y-124716498D01*
X104980261Y-124716510D01*
X104949500Y-124871153D01*
X104949500Y-125028846D01*
X104980261Y-125183489D01*
X104980264Y-125183501D01*
X105040602Y-125329172D01*
X105040609Y-125329185D01*
X105128210Y-125460288D01*
X105128213Y-125460292D01*
X105239707Y-125571786D01*
X105239711Y-125571789D01*
X105370814Y-125659390D01*
X105370827Y-125659397D01*
X105516498Y-125719735D01*
X105516503Y-125719737D01*
X105671153Y-125750499D01*
X105671156Y-125750500D01*
X105671158Y-125750500D01*
X105828844Y-125750500D01*
X105828845Y-125750499D01*
X105983497Y-125719737D01*
X106129179Y-125659394D01*
X106260289Y-125571789D01*
X106371789Y-125460289D01*
X106459394Y-125329179D01*
X106519737Y-125183497D01*
X106534488Y-125109334D01*
X106551689Y-125022868D01*
X106554317Y-125023390D01*
X106576065Y-124969369D01*
X106585699Y-124958535D01*
X106979141Y-124565093D01*
X106998945Y-124554279D01*
X107016109Y-124539619D01*
X107029024Y-124537855D01*
X107040462Y-124531610D01*
X107062972Y-124533219D01*
X107085336Y-124530166D01*
X107097153Y-124535664D01*
X107110154Y-124536594D01*
X107128222Y-124550120D01*
X107148685Y-124559641D01*
X107155654Y-124570655D01*
X107166087Y-124578466D01*
X107173973Y-124599610D01*
X107186042Y-124618685D01*
X107187267Y-124635252D01*
X107190504Y-124643930D01*
X107190817Y-124653655D01*
X107190726Y-124666360D01*
X107189499Y-124670943D01*
X107189499Y-124829057D01*
X107189500Y-124829060D01*
X107189500Y-124839514D01*
X107189500Y-126120234D01*
X107169815Y-126187273D01*
X107168602Y-126189125D01*
X107080609Y-126320814D01*
X107080602Y-126320827D01*
X107020264Y-126466498D01*
X107020261Y-126466510D01*
X106989500Y-126621153D01*
X106989500Y-126778846D01*
X107020261Y-126933489D01*
X107020264Y-126933501D01*
X107080602Y-127079172D01*
X107080609Y-127079185D01*
X107168210Y-127210288D01*
X107168213Y-127210292D01*
X107279707Y-127321786D01*
X107279711Y-127321789D01*
X107410814Y-127409390D01*
X107410827Y-127409397D01*
X107556498Y-127469735D01*
X107556503Y-127469737D01*
X107711153Y-127500499D01*
X107711156Y-127500500D01*
X107711158Y-127500500D01*
X107868844Y-127500500D01*
X107868845Y-127500499D01*
X108023497Y-127469737D01*
X108169179Y-127409394D01*
X108300289Y-127321789D01*
X108411789Y-127210289D01*
X108499394Y-127079179D01*
X108559737Y-126933497D01*
X108590500Y-126778842D01*
X108590500Y-126621158D01*
X108590500Y-126621155D01*
X108590499Y-126621153D01*
X108559738Y-126466510D01*
X108559737Y-126466503D01*
X108535675Y-126408412D01*
X108499397Y-126320827D01*
X108499390Y-126320814D01*
X108411398Y-126189125D01*
X108390520Y-126122447D01*
X108390500Y-126120234D01*
X108390500Y-125050097D01*
X108410185Y-124983058D01*
X108426819Y-124962416D01*
X108859069Y-124530166D01*
X109350520Y-124038716D01*
X109429577Y-123901784D01*
X109470501Y-123749057D01*
X109470501Y-123590942D01*
X109470501Y-123583347D01*
X109470500Y-123583329D01*
X109470500Y-122514501D01*
X109473050Y-122505815D01*
X109471762Y-122496855D01*
X109482740Y-122472813D01*
X109490185Y-122447462D01*
X109497024Y-122441535D01*
X109500786Y-122433299D01*
X109523021Y-122419008D01*
X109542989Y-122401707D01*
X109553501Y-122399419D01*
X109559564Y-122395524D01*
X109594497Y-122390501D01*
X109594499Y-122390501D01*
X109719058Y-122390501D01*
X109719061Y-122390500D01*
X109726669Y-122390500D01*
X110210234Y-122390500D01*
X110277273Y-122410185D01*
X110279125Y-122411398D01*
X110410814Y-122499390D01*
X110410827Y-122499397D01*
X110556498Y-122559735D01*
X110556503Y-122559737D01*
X110711153Y-122590499D01*
X110711156Y-122590500D01*
X110711158Y-122590500D01*
X110868844Y-122590500D01*
X110868845Y-122590499D01*
X111023497Y-122559737D01*
X111169179Y-122499394D01*
X111300289Y-122411789D01*
X111411789Y-122300289D01*
X111499394Y-122169179D01*
X111559737Y-122023497D01*
X111590500Y-121868842D01*
X111590500Y-121711158D01*
X111590500Y-121711155D01*
X111590499Y-121711153D01*
X111559738Y-121556510D01*
X111559737Y-121556503D01*
X111543714Y-121517820D01*
X111499397Y-121410827D01*
X111499390Y-121410814D01*
X111411789Y-121279711D01*
X111411786Y-121279707D01*
X111300292Y-121168213D01*
X111300288Y-121168210D01*
X111169185Y-121080609D01*
X111169172Y-121080602D01*
X111023501Y-121020264D01*
X111023489Y-121020261D01*
X110868845Y-120989500D01*
X110868842Y-120989500D01*
X110711158Y-120989500D01*
X110711155Y-120989500D01*
X110556510Y-121020261D01*
X110556498Y-121020264D01*
X110410827Y-121080602D01*
X110410814Y-121080609D01*
X110279125Y-121168602D01*
X110212447Y-121189480D01*
X110210234Y-121189500D01*
X109940098Y-121189500D01*
X109873059Y-121169815D01*
X109852417Y-121153181D01*
X107151417Y-118452181D01*
X107117932Y-118390858D01*
X107122916Y-118321166D01*
X107164788Y-118265233D01*
X107230252Y-118240816D01*
X107239098Y-118240500D01*
X110864903Y-118240500D01*
X110931942Y-118260185D01*
X110952584Y-118276819D01*
X111788415Y-119112650D01*
X111821900Y-119173973D01*
X111816916Y-119243665D01*
X111815295Y-119247783D01*
X111770264Y-119356498D01*
X111770261Y-119356510D01*
X111739500Y-119511153D01*
X111739500Y-119668846D01*
X111770261Y-119823489D01*
X111770264Y-119823501D01*
X111830602Y-119969172D01*
X111830609Y-119969185D01*
X111918210Y-120100288D01*
X111918213Y-120100292D01*
X112029707Y-120211786D01*
X112029711Y-120211789D01*
X112160814Y-120299390D01*
X112160827Y-120299397D01*
X112306498Y-120359735D01*
X112306503Y-120359737D01*
X112461153Y-120390499D01*
X112461156Y-120390500D01*
X112461158Y-120390500D01*
X112618844Y-120390500D01*
X112618845Y-120390499D01*
X112773497Y-120359737D01*
X112919179Y-120299394D01*
X113050289Y-120211789D01*
X113161789Y-120100289D01*
X113249394Y-119969179D01*
X113309737Y-119823497D01*
X113340500Y-119668842D01*
X113340500Y-119511158D01*
X113340500Y-119511155D01*
X113340499Y-119511153D01*
X113323372Y-119425050D01*
X113309737Y-119356503D01*
X113264704Y-119247783D01*
X113249397Y-119210827D01*
X113249390Y-119210814D01*
X113161399Y-119079126D01*
X113140521Y-119012448D01*
X113140501Y-119010235D01*
X113140501Y-118935944D01*
X113140501Y-118935943D01*
X113099577Y-118783216D01*
X113075513Y-118741536D01*
X113059041Y-118673638D01*
X113081893Y-118607611D01*
X113095215Y-118591862D01*
X113161789Y-118525289D01*
X113249394Y-118394179D01*
X113256806Y-118376286D01*
X113279637Y-118321166D01*
X113309737Y-118248497D01*
X113340500Y-118093842D01*
X113340500Y-117936158D01*
X113340500Y-117936155D01*
X113340499Y-117936153D01*
X113309738Y-117781510D01*
X113309737Y-117781503D01*
X113297345Y-117751585D01*
X113249397Y-117635827D01*
X113249390Y-117635814D01*
X113161398Y-117504125D01*
X113140520Y-117437447D01*
X113140500Y-117435234D01*
X113140500Y-116860946D01*
X113140499Y-116860939D01*
X113129669Y-116820520D01*
X113099577Y-116708215D01*
X113042752Y-116609792D01*
X113020520Y-116571284D01*
X112908716Y-116459480D01*
X112908713Y-116459478D01*
X112427590Y-115978355D01*
X112427588Y-115978352D01*
X112308717Y-115859481D01*
X112308716Y-115859480D01*
X112221904Y-115809360D01*
X112221904Y-115809359D01*
X112221900Y-115809358D01*
X112171785Y-115780423D01*
X112019057Y-115739499D01*
X111860943Y-115739499D01*
X111853347Y-115739499D01*
X111853331Y-115739500D01*
X111337621Y-115739500D01*
X111270582Y-115719815D01*
X111224827Y-115667011D01*
X111215182Y-115599932D01*
X111214903Y-115599905D01*
X111215014Y-115598769D01*
X111214883Y-115597853D01*
X111215405Y-115594802D01*
X111215500Y-115593843D01*
X111215500Y-115436155D01*
X111215499Y-115436153D01*
X111184739Y-115281511D01*
X111184738Y-115281508D01*
X111184737Y-115281503D01*
X111174937Y-115257844D01*
X111165500Y-115210396D01*
X111165500Y-111685945D01*
X111165500Y-111685943D01*
X111145701Y-111612051D01*
X111124577Y-111533215D01*
X111074387Y-111446284D01*
X111045520Y-111396284D01*
X110933716Y-111284480D01*
X110933715Y-111284479D01*
X110929385Y-111280149D01*
X110929374Y-111280139D01*
X110602590Y-110953355D01*
X110602588Y-110953352D01*
X110483717Y-110834481D01*
X110483712Y-110834477D01*
X110348281Y-110756287D01*
X110348284Y-110756281D01*
X110348259Y-110756274D01*
X110346785Y-110755423D01*
X110346784Y-110755422D01*
X110346783Y-110755422D01*
X110290881Y-110740443D01*
X110194057Y-110714499D01*
X110035943Y-110714499D01*
X110028347Y-110714499D01*
X110028331Y-110714500D01*
X109894500Y-110714500D01*
X109827461Y-110694815D01*
X109781706Y-110642011D01*
X109770500Y-110590500D01*
X109770499Y-110217130D01*
X109770498Y-110217123D01*
X109764091Y-110157516D01*
X109713797Y-110022671D01*
X109713793Y-110022664D01*
X109627547Y-109907455D01*
X109627544Y-109907452D01*
X109512335Y-109821206D01*
X109512328Y-109821202D01*
X109377486Y-109770910D01*
X109377485Y-109770909D01*
X109377483Y-109770909D01*
X109317873Y-109764500D01*
X109317863Y-109764500D01*
X108562129Y-109764500D01*
X108562123Y-109764501D01*
X108502515Y-109770909D01*
X108407832Y-109806223D01*
X108338141Y-109811207D01*
X108276818Y-109777721D01*
X108243334Y-109716398D01*
X108240500Y-109690041D01*
X108240500Y-108879059D01*
X108240501Y-108879046D01*
X108240501Y-108710945D01*
X108240501Y-108710943D01*
X108199577Y-108558215D01*
X108170639Y-108508095D01*
X108120520Y-108421284D01*
X108008716Y-108309480D01*
X108008715Y-108309479D01*
X108004385Y-108305149D01*
X108004374Y-108305139D01*
X103552590Y-103853355D01*
X103552588Y-103853352D01*
X102328148Y-102628913D01*
X101108716Y-101409481D01*
X100082948Y-100383713D01*
X118549500Y-100383713D01*
X118549500Y-100596286D01*
X118582753Y-100806239D01*
X118582753Y-100806241D01*
X118582754Y-100806243D01*
X118637431Y-100974522D01*
X118648444Y-101008414D01*
X118744951Y-101197820D01*
X118869890Y-101369786D01*
X119020213Y-101520109D01*
X119192182Y-101645050D01*
X119200946Y-101649516D01*
X119251742Y-101697491D01*
X119268536Y-101765312D01*
X119245998Y-101831447D01*
X119200946Y-101870484D01*
X119192182Y-101874949D01*
X119020213Y-101999890D01*
X118869890Y-102150213D01*
X118744951Y-102322179D01*
X118648444Y-102511585D01*
X118582753Y-102713760D01*
X118549762Y-102922058D01*
X118549500Y-102923713D01*
X118549500Y-103136287D01*
X118582754Y-103346243D01*
X118609799Y-103429480D01*
X118648444Y-103548414D01*
X118744951Y-103737820D01*
X118869890Y-103909786D01*
X119020213Y-104060109D01*
X119192182Y-104185050D01*
X119200946Y-104189516D01*
X119251742Y-104237491D01*
X119268536Y-104305312D01*
X119245998Y-104371447D01*
X119200946Y-104410484D01*
X119192182Y-104414949D01*
X119020213Y-104539890D01*
X118869890Y-104690213D01*
X118744951Y-104862179D01*
X118648444Y-105051585D01*
X118582753Y-105253760D01*
X118549500Y-105463713D01*
X118549500Y-105676286D01*
X118582753Y-105886239D01*
X118648444Y-106088414D01*
X118744951Y-106277820D01*
X118869890Y-106449786D01*
X119020213Y-106600109D01*
X119192182Y-106725050D01*
X119200946Y-106729516D01*
X119251742Y-106777491D01*
X119268536Y-106845312D01*
X119245998Y-106911447D01*
X119200946Y-106950484D01*
X119192182Y-106954949D01*
X119020213Y-107079890D01*
X118869890Y-107230213D01*
X118744951Y-107402179D01*
X118648444Y-107591585D01*
X118582753Y-107793760D01*
X118549500Y-108003713D01*
X118549500Y-108216286D01*
X118581968Y-108421285D01*
X118582754Y-108426243D01*
X118625634Y-108558214D01*
X118648444Y-108628414D01*
X118744951Y-108817820D01*
X118869890Y-108989786D01*
X119020213Y-109140109D01*
X119192182Y-109265050D01*
X119200946Y-109269516D01*
X119251742Y-109317491D01*
X119268536Y-109385312D01*
X119245998Y-109451447D01*
X119200946Y-109490484D01*
X119192182Y-109494949D01*
X119020213Y-109619890D01*
X118869890Y-109770213D01*
X118744951Y-109942179D01*
X118648444Y-110131585D01*
X118582753Y-110333760D01*
X118565266Y-110444172D01*
X118549500Y-110543713D01*
X118549500Y-110756287D01*
X118558814Y-110815092D01*
X118580712Y-110953355D01*
X118582754Y-110966243D01*
X118619025Y-111077874D01*
X118648444Y-111168414D01*
X118744951Y-111357820D01*
X118869890Y-111529786D01*
X119020213Y-111680109D01*
X119192182Y-111805050D01*
X119200946Y-111809516D01*
X119251742Y-111857491D01*
X119268536Y-111925312D01*
X119245998Y-111991447D01*
X119200946Y-112030484D01*
X119192182Y-112034949D01*
X119020213Y-112159890D01*
X118869890Y-112310213D01*
X118744951Y-112482179D01*
X118648444Y-112671585D01*
X118582753Y-112873760D01*
X118563468Y-112995520D01*
X118549500Y-113083713D01*
X118549500Y-113296287D01*
X118582754Y-113506243D01*
X118640895Y-113685183D01*
X118648444Y-113708414D01*
X118744951Y-113897820D01*
X118869890Y-114069786D01*
X119020213Y-114220109D01*
X119192182Y-114345050D01*
X119200946Y-114349516D01*
X119251742Y-114397491D01*
X119268536Y-114465312D01*
X119245998Y-114531447D01*
X119200946Y-114570484D01*
X119192182Y-114574949D01*
X119020213Y-114699890D01*
X118869890Y-114850213D01*
X118744951Y-115022179D01*
X118648444Y-115211585D01*
X118582753Y-115413760D01*
X118576300Y-115454505D01*
X118549500Y-115623713D01*
X118549500Y-115836287D01*
X118553174Y-115859481D01*
X118582639Y-116045521D01*
X118582754Y-116046243D01*
X118584816Y-116052590D01*
X118648444Y-116248414D01*
X118744951Y-116437820D01*
X118869890Y-116609786D01*
X119020213Y-116760109D01*
X119192182Y-116885050D01*
X119200946Y-116889516D01*
X119251742Y-116937491D01*
X119268536Y-117005312D01*
X119245998Y-117071447D01*
X119200946Y-117110484D01*
X119192182Y-117114949D01*
X119020213Y-117239890D01*
X118869890Y-117390213D01*
X118744951Y-117562179D01*
X118648444Y-117751585D01*
X118582753Y-117953760D01*
X118549500Y-118163713D01*
X118549500Y-118376286D01*
X118573099Y-118525288D01*
X118582754Y-118586243D01*
X118611150Y-118673638D01*
X118648444Y-118788414D01*
X118744951Y-118977820D01*
X118869890Y-119149786D01*
X119020213Y-119300109D01*
X119192182Y-119425050D01*
X119200946Y-119429516D01*
X119251742Y-119477491D01*
X119268536Y-119545312D01*
X119245998Y-119611447D01*
X119200946Y-119650484D01*
X119192182Y-119654949D01*
X119020213Y-119779890D01*
X118869890Y-119930213D01*
X118744951Y-120102179D01*
X118648444Y-120291585D01*
X118582753Y-120493760D01*
X118549500Y-120703713D01*
X118549500Y-120916286D01*
X118562170Y-120996285D01*
X118582754Y-121126243D01*
X118647143Y-121324412D01*
X118648444Y-121328414D01*
X118744951Y-121517820D01*
X118869890Y-121689786D01*
X119020213Y-121840109D01*
X119192182Y-121965050D01*
X119200946Y-121969516D01*
X119251742Y-122017491D01*
X119268536Y-122085312D01*
X119245998Y-122151447D01*
X119200946Y-122190484D01*
X119192182Y-122194949D01*
X119020213Y-122319890D01*
X118869890Y-122470213D01*
X118744951Y-122642179D01*
X118648444Y-122831585D01*
X118582753Y-123033760D01*
X118549500Y-123243713D01*
X118549500Y-123456286D01*
X118569621Y-123583329D01*
X118582754Y-123666243D01*
X118609661Y-123749055D01*
X118648444Y-123868414D01*
X118744951Y-124057820D01*
X118869890Y-124229786D01*
X119020213Y-124380109D01*
X119192182Y-124505050D01*
X119200946Y-124509516D01*
X119251742Y-124557491D01*
X119268536Y-124625312D01*
X119245998Y-124691447D01*
X119200946Y-124730484D01*
X119192182Y-124734949D01*
X119020213Y-124859890D01*
X118869890Y-125010213D01*
X118744951Y-125182179D01*
X118648444Y-125371585D01*
X118582753Y-125573760D01*
X118549500Y-125783713D01*
X118549500Y-125996286D01*
X118582753Y-126206239D01*
X118648444Y-126408414D01*
X118744951Y-126597820D01*
X118869890Y-126769786D01*
X119020213Y-126920109D01*
X119192182Y-127045050D01*
X119200946Y-127049516D01*
X119251742Y-127097491D01*
X119268536Y-127165312D01*
X119245998Y-127231447D01*
X119200946Y-127270484D01*
X119192182Y-127274949D01*
X119020213Y-127399890D01*
X118869890Y-127550213D01*
X118744951Y-127722179D01*
X118648444Y-127911585D01*
X118582753Y-128113760D01*
X118549500Y-128323713D01*
X118549500Y-128536287D01*
X118582754Y-128746243D01*
X118629549Y-128890264D01*
X118648444Y-128948414D01*
X118744951Y-129137820D01*
X118869890Y-129309786D01*
X119020213Y-129460109D01*
X119192182Y-129585050D01*
X119200946Y-129589516D01*
X119251742Y-129637491D01*
X119268536Y-129705312D01*
X119245998Y-129771447D01*
X119200946Y-129810484D01*
X119192182Y-129814949D01*
X119020213Y-129939890D01*
X118869890Y-130090213D01*
X118744951Y-130262179D01*
X118648444Y-130451585D01*
X118582753Y-130653760D01*
X118549500Y-130863713D01*
X118549500Y-131076286D01*
X118582753Y-131286239D01*
X118648444Y-131488414D01*
X118744951Y-131677820D01*
X118869890Y-131849786D01*
X119020213Y-132000109D01*
X119192182Y-132125050D01*
X119200946Y-132129516D01*
X119251742Y-132177491D01*
X119268536Y-132245312D01*
X119245998Y-132311447D01*
X119200946Y-132350484D01*
X119192182Y-132354949D01*
X119020213Y-132479890D01*
X118869890Y-132630213D01*
X118744951Y-132802179D01*
X118648444Y-132991585D01*
X118582753Y-133193760D01*
X118549500Y-133403713D01*
X118549500Y-133616286D01*
X118582753Y-133826239D01*
X118648444Y-134028414D01*
X118744951Y-134217820D01*
X118869890Y-134389786D01*
X119020213Y-134540109D01*
X119192182Y-134665050D01*
X119200946Y-134669516D01*
X119251742Y-134717491D01*
X119268536Y-134785312D01*
X119245998Y-134851447D01*
X119200946Y-134890484D01*
X119192182Y-134894949D01*
X119020213Y-135019890D01*
X118869890Y-135170213D01*
X118744951Y-135342179D01*
X118648444Y-135531585D01*
X118582753Y-135733760D01*
X118549500Y-135943713D01*
X118549500Y-136156286D01*
X118582753Y-136366239D01*
X118648444Y-136568414D01*
X118744951Y-136757820D01*
X118869890Y-136929786D01*
X119020213Y-137080109D01*
X119192182Y-137205050D01*
X119200946Y-137209516D01*
X119251742Y-137257491D01*
X119268536Y-137325312D01*
X119245998Y-137391447D01*
X119200946Y-137430484D01*
X119192182Y-137434949D01*
X119020213Y-137559890D01*
X118869890Y-137710213D01*
X118744951Y-137882179D01*
X118648444Y-138071585D01*
X118582753Y-138273760D01*
X118549500Y-138483713D01*
X118549500Y-138696286D01*
X118582753Y-138906239D01*
X118648444Y-139108414D01*
X118744951Y-139297820D01*
X118869890Y-139469786D01*
X119020213Y-139620109D01*
X119192182Y-139745050D01*
X119200946Y-139749516D01*
X119251742Y-139797491D01*
X119268536Y-139865312D01*
X119245998Y-139931447D01*
X119200946Y-139970484D01*
X119192182Y-139974949D01*
X119020213Y-140099890D01*
X118869890Y-140250213D01*
X118744951Y-140422179D01*
X118648444Y-140611585D01*
X118582753Y-140813760D01*
X118549500Y-141023713D01*
X118549500Y-141236286D01*
X118582753Y-141446239D01*
X118648444Y-141648414D01*
X118744951Y-141837820D01*
X118869890Y-142009786D01*
X119020213Y-142160109D01*
X119192182Y-142285050D01*
X119200946Y-142289516D01*
X119251742Y-142337491D01*
X119268536Y-142405312D01*
X119245998Y-142471447D01*
X119200946Y-142510484D01*
X119192182Y-142514949D01*
X119020213Y-142639890D01*
X118869890Y-142790213D01*
X118744951Y-142962179D01*
X118648444Y-143151585D01*
X118582753Y-143353760D01*
X118549500Y-143563713D01*
X118549500Y-143776286D01*
X118582753Y-143986239D01*
X118648444Y-144188414D01*
X118744951Y-144377820D01*
X118869890Y-144549786D01*
X119020213Y-144700109D01*
X119192182Y-144825050D01*
X119200946Y-144829516D01*
X119251742Y-144877491D01*
X119268536Y-144945312D01*
X119245998Y-145011447D01*
X119200946Y-145050484D01*
X119192182Y-145054949D01*
X119020213Y-145179890D01*
X118869890Y-145330213D01*
X118744951Y-145502179D01*
X118648444Y-145691585D01*
X118582753Y-145893760D01*
X118549500Y-146103713D01*
X118549500Y-146316286D01*
X118582753Y-146526239D01*
X118648444Y-146728414D01*
X118744951Y-146917820D01*
X118869890Y-147089786D01*
X119020213Y-147240109D01*
X119192179Y-147365048D01*
X119192181Y-147365049D01*
X119192184Y-147365051D01*
X119201493Y-147369794D01*
X119252290Y-147417766D01*
X119269087Y-147485587D01*
X119246552Y-147551722D01*
X119201505Y-147590760D01*
X119192446Y-147595376D01*
X119192440Y-147595380D01*
X119138282Y-147634727D01*
X119138282Y-147634728D01*
X119770591Y-148267037D01*
X119707007Y-148284075D01*
X119592993Y-148349901D01*
X119499901Y-148442993D01*
X119434075Y-148557007D01*
X119417037Y-148620591D01*
X118784728Y-147988282D01*
X118784727Y-147988282D01*
X118745380Y-148042439D01*
X118648904Y-148231782D01*
X118583242Y-148433869D01*
X118583242Y-148433872D01*
X118550000Y-148643753D01*
X118550000Y-148856246D01*
X118583242Y-149066127D01*
X118583242Y-149066130D01*
X118648904Y-149268217D01*
X118745375Y-149457550D01*
X118784728Y-149511716D01*
X119417037Y-148879408D01*
X119434075Y-148942993D01*
X119499901Y-149057007D01*
X119592993Y-149150099D01*
X119707007Y-149215925D01*
X119770591Y-149232962D01*
X119169971Y-149833581D01*
X119248711Y-149950895D01*
X119249920Y-149954729D01*
X119252844Y-149957491D01*
X119260343Y-149987778D01*
X119269727Y-150017529D01*
X119268671Y-150021408D01*
X119269638Y-150025312D01*
X119259573Y-150054844D01*
X119251383Y-150084947D01*
X119248397Y-150087640D01*
X119247100Y-150091447D01*
X119202051Y-150130483D01*
X119192440Y-150135380D01*
X119138282Y-150174727D01*
X119138282Y-150174728D01*
X119770591Y-150807037D01*
X119707007Y-150824075D01*
X119592993Y-150889901D01*
X119499901Y-150982993D01*
X119434075Y-151097007D01*
X119417037Y-151160591D01*
X118784728Y-150528282D01*
X118784727Y-150528282D01*
X118745380Y-150582439D01*
X118648904Y-150771782D01*
X118583242Y-150973869D01*
X118583242Y-150973872D01*
X118550000Y-151183753D01*
X118550000Y-151396246D01*
X118583242Y-151606127D01*
X118583242Y-151606130D01*
X118648904Y-151808217D01*
X118745375Y-151997550D01*
X118784728Y-152051716D01*
X119417037Y-151419408D01*
X119434075Y-151482993D01*
X119499901Y-151597007D01*
X119592993Y-151690099D01*
X119707007Y-151755925D01*
X119770590Y-151772962D01*
X119138282Y-152405269D01*
X119138282Y-152405270D01*
X119192449Y-152444624D01*
X119381782Y-152541095D01*
X119583870Y-152606757D01*
X119793754Y-152640000D01*
X120006246Y-152640000D01*
X120216127Y-152606757D01*
X120216130Y-152606757D01*
X120418217Y-152541095D01*
X120607554Y-152444622D01*
X120661716Y-152405270D01*
X120661717Y-152405270D01*
X120029408Y-151772962D01*
X120092993Y-151755925D01*
X120207007Y-151690099D01*
X120300099Y-151597007D01*
X120365925Y-151482993D01*
X120382962Y-151419409D01*
X121015270Y-152051717D01*
X121015270Y-152051716D01*
X121054622Y-151997554D01*
X121151095Y-151808217D01*
X121216757Y-151606130D01*
X121216757Y-151606127D01*
X121250000Y-151396246D01*
X121250000Y-151183753D01*
X121216757Y-150973872D01*
X121216757Y-150973869D01*
X121151095Y-150771782D01*
X121054624Y-150582449D01*
X121015270Y-150528282D01*
X121015269Y-150528282D01*
X120382962Y-151160590D01*
X120365925Y-151097007D01*
X120300099Y-150982993D01*
X120207007Y-150889901D01*
X120092993Y-150824075D01*
X120029409Y-150807037D01*
X120661716Y-150174728D01*
X120607550Y-150135375D01*
X120597954Y-150130486D01*
X120547157Y-150082512D01*
X120530361Y-150014692D01*
X120552897Y-149948556D01*
X120597954Y-149909514D01*
X120607554Y-149904622D01*
X120661716Y-149865270D01*
X120661717Y-149865270D01*
X120029408Y-149232962D01*
X120092993Y-149215925D01*
X120207007Y-149150099D01*
X120300099Y-149057007D01*
X120365925Y-148942993D01*
X120382962Y-148879409D01*
X121015270Y-149511717D01*
X121015270Y-149511716D01*
X121054622Y-149457554D01*
X121151095Y-149268217D01*
X121216757Y-149066130D01*
X121216757Y-149066127D01*
X121250000Y-148856246D01*
X121250000Y-148643753D01*
X121216757Y-148433872D01*
X121216757Y-148433869D01*
X121151095Y-148231782D01*
X121054624Y-148042449D01*
X121015270Y-147988282D01*
X121015269Y-147988282D01*
X120382962Y-148620590D01*
X120365925Y-148557007D01*
X120300099Y-148442993D01*
X120207007Y-148349901D01*
X120092993Y-148284075D01*
X120029409Y-148267037D01*
X120661716Y-147634728D01*
X120607547Y-147595373D01*
X120607547Y-147595372D01*
X120598500Y-147590763D01*
X120547706Y-147542788D01*
X120530912Y-147474966D01*
X120553451Y-147408832D01*
X120598508Y-147369793D01*
X120607816Y-147365051D01*
X120687007Y-147307515D01*
X120779786Y-147240109D01*
X120779788Y-147240106D01*
X120779792Y-147240104D01*
X120930104Y-147089792D01*
X120930106Y-147089788D01*
X120930109Y-147089786D01*
X121055048Y-146917820D01*
X121055047Y-146917820D01*
X121055051Y-146917816D01*
X121151557Y-146728412D01*
X121217246Y-146526243D01*
X121250500Y-146316287D01*
X121250500Y-146103713D01*
X121217246Y-145893757D01*
X121151557Y-145691588D01*
X121055051Y-145502184D01*
X121055049Y-145502181D01*
X121055048Y-145502179D01*
X120930109Y-145330213D01*
X120779786Y-145179890D01*
X120607820Y-145054951D01*
X120607115Y-145054591D01*
X120599054Y-145050485D01*
X120548259Y-145002512D01*
X120531463Y-144934692D01*
X120553999Y-144868556D01*
X120599054Y-144829515D01*
X120607816Y-144825051D01*
X120629789Y-144809086D01*
X120779786Y-144700109D01*
X120779788Y-144700106D01*
X120779792Y-144700104D01*
X120930104Y-144549792D01*
X120930106Y-144549788D01*
X120930109Y-144549786D01*
X121055048Y-144377820D01*
X121055047Y-144377820D01*
X121055051Y-144377816D01*
X121151557Y-144188412D01*
X121217246Y-143986243D01*
X121250500Y-143776287D01*
X121250500Y-143563713D01*
X121217246Y-143353757D01*
X121151557Y-143151588D01*
X121055051Y-142962184D01*
X121055049Y-142962181D01*
X121055048Y-142962179D01*
X120930109Y-142790213D01*
X120779786Y-142639890D01*
X120607820Y-142514951D01*
X120607115Y-142514591D01*
X120599054Y-142510485D01*
X120548259Y-142462512D01*
X120531463Y-142394692D01*
X120553999Y-142328556D01*
X120599054Y-142289515D01*
X120607816Y-142285051D01*
X120629789Y-142269086D01*
X120779786Y-142160109D01*
X120779788Y-142160106D01*
X120779792Y-142160104D01*
X120930104Y-142009792D01*
X120930106Y-142009788D01*
X120930109Y-142009786D01*
X121055048Y-141837820D01*
X121055047Y-141837820D01*
X121055051Y-141837816D01*
X121151557Y-141648412D01*
X121217246Y-141446243D01*
X121250500Y-141236287D01*
X121250500Y-141023713D01*
X121217246Y-140813757D01*
X121151557Y-140611588D01*
X121055051Y-140422184D01*
X121055049Y-140422181D01*
X121055048Y-140422179D01*
X120930109Y-140250213D01*
X120779786Y-140099890D01*
X120607820Y-139974951D01*
X120607115Y-139974591D01*
X120599054Y-139970485D01*
X120548259Y-139922512D01*
X120531463Y-139854692D01*
X120553999Y-139788556D01*
X120599054Y-139749515D01*
X120607816Y-139745051D01*
X120629789Y-139729086D01*
X120779786Y-139620109D01*
X120779788Y-139620106D01*
X120779792Y-139620104D01*
X120930104Y-139469792D01*
X120930106Y-139469788D01*
X120930109Y-139469786D01*
X121055048Y-139297820D01*
X121055047Y-139297820D01*
X121055051Y-139297816D01*
X121151557Y-139108412D01*
X121217246Y-138906243D01*
X121250500Y-138696287D01*
X121250500Y-138483713D01*
X121217246Y-138273757D01*
X121151557Y-138071588D01*
X121055051Y-137882184D01*
X121055049Y-137882181D01*
X121055048Y-137882179D01*
X120930109Y-137710213D01*
X120779786Y-137559890D01*
X120607820Y-137434951D01*
X120607115Y-137434591D01*
X120599054Y-137430485D01*
X120548259Y-137382512D01*
X120531463Y-137314692D01*
X120553999Y-137248556D01*
X120599054Y-137209515D01*
X120607816Y-137205051D01*
X120629789Y-137189086D01*
X120779786Y-137080109D01*
X120779788Y-137080106D01*
X120779792Y-137080104D01*
X120930104Y-136929792D01*
X120930106Y-136929788D01*
X120930109Y-136929786D01*
X121055048Y-136757820D01*
X121055047Y-136757820D01*
X121055051Y-136757816D01*
X121151557Y-136568412D01*
X121217246Y-136366243D01*
X121250500Y-136156287D01*
X121250500Y-135943713D01*
X121217246Y-135733757D01*
X121151557Y-135531588D01*
X121055051Y-135342184D01*
X121055049Y-135342181D01*
X121055048Y-135342179D01*
X120930109Y-135170213D01*
X120779786Y-135019890D01*
X120607820Y-134894951D01*
X120607115Y-134894591D01*
X120599054Y-134890485D01*
X120548259Y-134842512D01*
X120531463Y-134774692D01*
X120553999Y-134708556D01*
X120599054Y-134669515D01*
X120607816Y-134665051D01*
X120629789Y-134649086D01*
X120779786Y-134540109D01*
X120779788Y-134540106D01*
X120779792Y-134540104D01*
X120930104Y-134389792D01*
X120930106Y-134389788D01*
X120930109Y-134389786D01*
X121055048Y-134217820D01*
X121055047Y-134217820D01*
X121055051Y-134217816D01*
X121151557Y-134028412D01*
X121217246Y-133826243D01*
X121250500Y-133616287D01*
X121250500Y-133403713D01*
X121217246Y-133193757D01*
X121151557Y-132991588D01*
X121055051Y-132802184D01*
X121055049Y-132802181D01*
X121055048Y-132802179D01*
X120930109Y-132630213D01*
X120779786Y-132479890D01*
X120607820Y-132354951D01*
X120607115Y-132354591D01*
X120599054Y-132350485D01*
X120548259Y-132302512D01*
X120531463Y-132234692D01*
X120553999Y-132168556D01*
X120599054Y-132129515D01*
X120607816Y-132125051D01*
X120629789Y-132109086D01*
X120779786Y-132000109D01*
X120779788Y-132000106D01*
X120779792Y-132000104D01*
X120930104Y-131849792D01*
X120930106Y-131849788D01*
X120930109Y-131849786D01*
X121055048Y-131677820D01*
X121055047Y-131677820D01*
X121055051Y-131677816D01*
X121151557Y-131488412D01*
X121217246Y-131286243D01*
X121250500Y-131076287D01*
X121250500Y-130863713D01*
X121217246Y-130653757D01*
X121151557Y-130451588D01*
X121055051Y-130262184D01*
X121055049Y-130262181D01*
X121055048Y-130262179D01*
X120930109Y-130090213D01*
X120779786Y-129939890D01*
X120607820Y-129814951D01*
X120607115Y-129814591D01*
X120599054Y-129810485D01*
X120548259Y-129762512D01*
X120531463Y-129694692D01*
X120553999Y-129628556D01*
X120599054Y-129589515D01*
X120607816Y-129585051D01*
X120629789Y-129569086D01*
X120779786Y-129460109D01*
X120779788Y-129460106D01*
X120779792Y-129460104D01*
X120930104Y-129309792D01*
X120930106Y-129309788D01*
X120930109Y-129309786D01*
X121055048Y-129137820D01*
X121055047Y-129137820D01*
X121055051Y-129137816D01*
X121151557Y-128948412D01*
X121217246Y-128746243D01*
X121250500Y-128536287D01*
X121250500Y-128323713D01*
X121217246Y-128113757D01*
X121151557Y-127911588D01*
X121055051Y-127722184D01*
X121055049Y-127722181D01*
X121055048Y-127722179D01*
X120930109Y-127550213D01*
X120779786Y-127399890D01*
X120607820Y-127274951D01*
X120607115Y-127274591D01*
X120599054Y-127270485D01*
X120548259Y-127222512D01*
X120531463Y-127154692D01*
X120553999Y-127088556D01*
X120599054Y-127049515D01*
X120607816Y-127045051D01*
X120629789Y-127029086D01*
X120779786Y-126920109D01*
X120779788Y-126920106D01*
X120779792Y-126920104D01*
X120930104Y-126769792D01*
X120930106Y-126769788D01*
X120930109Y-126769786D01*
X121055048Y-126597820D01*
X121055047Y-126597820D01*
X121055051Y-126597816D01*
X121151557Y-126408412D01*
X121217246Y-126206243D01*
X121250500Y-125996287D01*
X121250500Y-125783713D01*
X121217246Y-125573757D01*
X121151557Y-125371588D01*
X121055051Y-125182184D01*
X121055049Y-125182181D01*
X121055048Y-125182179D01*
X120930109Y-125010213D01*
X120779786Y-124859890D01*
X120607820Y-124734951D01*
X120607115Y-124734591D01*
X120599054Y-124730485D01*
X120548259Y-124682512D01*
X120531463Y-124614692D01*
X120553999Y-124548556D01*
X120599054Y-124509515D01*
X120607816Y-124505051D01*
X120663658Y-124464480D01*
X120779786Y-124380109D01*
X120779788Y-124380106D01*
X120779792Y-124380104D01*
X120930104Y-124229792D01*
X120930106Y-124229788D01*
X120930109Y-124229786D01*
X121055048Y-124057820D01*
X121055047Y-124057820D01*
X121055051Y-124057816D01*
X121151557Y-123868412D01*
X121217246Y-123666243D01*
X121250500Y-123456287D01*
X121250500Y-123243713D01*
X121217246Y-123033757D01*
X121151557Y-122831588D01*
X121055051Y-122642184D01*
X121055049Y-122642181D01*
X121055048Y-122642179D01*
X120930109Y-122470213D01*
X120779786Y-122319890D01*
X120607820Y-122194951D01*
X120607115Y-122194591D01*
X120599054Y-122190485D01*
X120548259Y-122142512D01*
X120531463Y-122074692D01*
X120553999Y-122008556D01*
X120599054Y-121969515D01*
X120607816Y-121965051D01*
X120740235Y-121868844D01*
X120779786Y-121840109D01*
X120779788Y-121840106D01*
X120779792Y-121840104D01*
X120930104Y-121689792D01*
X120930106Y-121689788D01*
X120930109Y-121689786D01*
X121055048Y-121517820D01*
X121055047Y-121517820D01*
X121055051Y-121517816D01*
X121151557Y-121328412D01*
X121217246Y-121126243D01*
X121250500Y-120916287D01*
X121250500Y-120703713D01*
X121217246Y-120493757D01*
X121151557Y-120291588D01*
X121055051Y-120102184D01*
X121055049Y-120102181D01*
X121055048Y-120102179D01*
X120930109Y-119930213D01*
X120779786Y-119779890D01*
X120607820Y-119654951D01*
X120607115Y-119654591D01*
X120599054Y-119650485D01*
X120548259Y-119602512D01*
X120531463Y-119534692D01*
X120553999Y-119468556D01*
X120599054Y-119429515D01*
X120607816Y-119425051D01*
X120629789Y-119409086D01*
X120779786Y-119300109D01*
X120779788Y-119300106D01*
X120779792Y-119300104D01*
X120930104Y-119149792D01*
X120930106Y-119149788D01*
X120930109Y-119149786D01*
X121055048Y-118977820D01*
X121055047Y-118977820D01*
X121055051Y-118977816D01*
X121151557Y-118788412D01*
X121217246Y-118586243D01*
X121250500Y-118376287D01*
X121250500Y-118163713D01*
X121217246Y-117953757D01*
X121151557Y-117751588D01*
X121055051Y-117562184D01*
X121055049Y-117562181D01*
X121055048Y-117562179D01*
X120930109Y-117390213D01*
X120779786Y-117239890D01*
X120607820Y-117114951D01*
X120607115Y-117114591D01*
X120599054Y-117110485D01*
X120548259Y-117062512D01*
X120531463Y-116994692D01*
X120553999Y-116928556D01*
X120599054Y-116889515D01*
X120607816Y-116885051D01*
X120696636Y-116820520D01*
X120779786Y-116760109D01*
X120779788Y-116760106D01*
X120779792Y-116760104D01*
X120930104Y-116609792D01*
X120930106Y-116609788D01*
X120930109Y-116609786D01*
X121055048Y-116437820D01*
X121055047Y-116437820D01*
X121055051Y-116437816D01*
X121151557Y-116248412D01*
X121217246Y-116046243D01*
X121250500Y-115836287D01*
X121250500Y-115623713D01*
X121217246Y-115413757D01*
X121151557Y-115211588D01*
X121055051Y-115022184D01*
X121055049Y-115022181D01*
X121055048Y-115022179D01*
X120930109Y-114850213D01*
X120779786Y-114699890D01*
X120607820Y-114574951D01*
X120607115Y-114574591D01*
X120599054Y-114570485D01*
X120548259Y-114522512D01*
X120531463Y-114454692D01*
X120553999Y-114388556D01*
X120599054Y-114349515D01*
X120607816Y-114345051D01*
X120629789Y-114329086D01*
X120779786Y-114220109D01*
X120779788Y-114220106D01*
X120779792Y-114220104D01*
X120930104Y-114069792D01*
X120930106Y-114069788D01*
X120930109Y-114069786D01*
X121055048Y-113897820D01*
X121055047Y-113897820D01*
X121055051Y-113897816D01*
X121151557Y-113708412D01*
X121217246Y-113506243D01*
X121250500Y-113296287D01*
X121250500Y-113083713D01*
X121217246Y-112873757D01*
X121151557Y-112671588D01*
X121055051Y-112482184D01*
X121055049Y-112482181D01*
X121055048Y-112482179D01*
X120930109Y-112310213D01*
X120779786Y-112159890D01*
X120607820Y-112034951D01*
X120607115Y-112034591D01*
X120599054Y-112030485D01*
X120548259Y-111982512D01*
X120531463Y-111914692D01*
X120553999Y-111848556D01*
X120599054Y-111809515D01*
X120607816Y-111805051D01*
X120664123Y-111764142D01*
X120779786Y-111680109D01*
X120779788Y-111680106D01*
X120779792Y-111680104D01*
X120930104Y-111529792D01*
X120930106Y-111529788D01*
X120930109Y-111529786D01*
X121055048Y-111357820D01*
X121055047Y-111357820D01*
X121055051Y-111357816D01*
X121151557Y-111168412D01*
X121217246Y-110966243D01*
X121250500Y-110756287D01*
X121250500Y-110543713D01*
X121217246Y-110333757D01*
X121151557Y-110131588D01*
X121055051Y-109942184D01*
X121055049Y-109942181D01*
X121055048Y-109942179D01*
X120930109Y-109770213D01*
X120779786Y-109619890D01*
X120607820Y-109494951D01*
X120607115Y-109494591D01*
X120599054Y-109490485D01*
X120548259Y-109442512D01*
X120531463Y-109374692D01*
X120553999Y-109308556D01*
X120599054Y-109269515D01*
X120607816Y-109265051D01*
X120629789Y-109249086D01*
X120779786Y-109140109D01*
X120779788Y-109140106D01*
X120779792Y-109140104D01*
X120930104Y-108989792D01*
X120930106Y-108989788D01*
X120930109Y-108989786D01*
X121055048Y-108817820D01*
X121055047Y-108817820D01*
X121055051Y-108817816D01*
X121151557Y-108628412D01*
X121217246Y-108426243D01*
X121250500Y-108216287D01*
X121250500Y-108003713D01*
X121217246Y-107793757D01*
X121151557Y-107591588D01*
X121055051Y-107402184D01*
X121055049Y-107402181D01*
X121055048Y-107402179D01*
X120930109Y-107230213D01*
X120779786Y-107079890D01*
X120607820Y-106954951D01*
X120607115Y-106954591D01*
X120599054Y-106950485D01*
X120548259Y-106902512D01*
X120531463Y-106834692D01*
X120553999Y-106768556D01*
X120599054Y-106729515D01*
X120607816Y-106725051D01*
X120629789Y-106709086D01*
X120779786Y-106600109D01*
X120779788Y-106600106D01*
X120779792Y-106600104D01*
X120930104Y-106449792D01*
X120930106Y-106449788D01*
X120930109Y-106449786D01*
X121055048Y-106277820D01*
X121055047Y-106277820D01*
X121055051Y-106277816D01*
X121151557Y-106088412D01*
X121217246Y-105886243D01*
X121250500Y-105676287D01*
X121250500Y-105463713D01*
X121217246Y-105253757D01*
X121151557Y-105051588D01*
X121055051Y-104862184D01*
X121055049Y-104862181D01*
X121055048Y-104862179D01*
X120930109Y-104690213D01*
X120779786Y-104539890D01*
X120607820Y-104414951D01*
X120607115Y-104414591D01*
X120599054Y-104410485D01*
X120548259Y-104362512D01*
X120531463Y-104294692D01*
X120553999Y-104228556D01*
X120599054Y-104189515D01*
X120607816Y-104185051D01*
X120644037Y-104158735D01*
X120779786Y-104060109D01*
X120779788Y-104060106D01*
X120779792Y-104060104D01*
X120930104Y-103909792D01*
X120930106Y-103909788D01*
X120930109Y-103909786D01*
X121055048Y-103737820D01*
X121055047Y-103737820D01*
X121055051Y-103737816D01*
X121151557Y-103548412D01*
X121217246Y-103346243D01*
X121250500Y-103136287D01*
X121250500Y-102923713D01*
X121217246Y-102713757D01*
X121151557Y-102511588D01*
X121055051Y-102322184D01*
X121055049Y-102322181D01*
X121055048Y-102322179D01*
X120930109Y-102150213D01*
X120779786Y-101999890D01*
X120607820Y-101874951D01*
X120607115Y-101874591D01*
X120599054Y-101870485D01*
X120548259Y-101822512D01*
X120531463Y-101754692D01*
X120553999Y-101688556D01*
X120599054Y-101649515D01*
X120607816Y-101645051D01*
X120629789Y-101629086D01*
X120779786Y-101520109D01*
X120779788Y-101520106D01*
X120779792Y-101520104D01*
X120930104Y-101369792D01*
X120930106Y-101369788D01*
X120930109Y-101369786D01*
X121055048Y-101197820D01*
X121055047Y-101197820D01*
X121055051Y-101197816D01*
X121151557Y-101008412D01*
X121217246Y-100806243D01*
X121250500Y-100596287D01*
X121250500Y-100383713D01*
X121217246Y-100173757D01*
X121151557Y-99971588D01*
X121055051Y-99782184D01*
X121055049Y-99782181D01*
X121055048Y-99782179D01*
X120930109Y-99610213D01*
X120816181Y-99496285D01*
X120782696Y-99434962D01*
X120787680Y-99365270D01*
X120829552Y-99309337D01*
X120860529Y-99292422D01*
X120992086Y-99243354D01*
X120992093Y-99243350D01*
X121107187Y-99157190D01*
X121107190Y-99157187D01*
X121193350Y-99042093D01*
X121193354Y-99042086D01*
X121243596Y-98907379D01*
X121243598Y-98907372D01*
X121249999Y-98847844D01*
X121250000Y-98847827D01*
X121250000Y-98200000D01*
X120333012Y-98200000D01*
X120365925Y-98142993D01*
X120400000Y-98015826D01*
X120400000Y-97884174D01*
X120365925Y-97757007D01*
X120333012Y-97700000D01*
X121250000Y-97700000D01*
X121250000Y-97052172D01*
X121249999Y-97052155D01*
X121243598Y-96992627D01*
X121243596Y-96992620D01*
X121193354Y-96857913D01*
X121193350Y-96857906D01*
X121107190Y-96742812D01*
X121107187Y-96742809D01*
X120992093Y-96656649D01*
X120992086Y-96656645D01*
X120857379Y-96606403D01*
X120857372Y-96606401D01*
X120797844Y-96600000D01*
X120150000Y-96600000D01*
X120150000Y-97516988D01*
X120092993Y-97484075D01*
X119965826Y-97450000D01*
X119834174Y-97450000D01*
X119707007Y-97484075D01*
X119650000Y-97516988D01*
X119650000Y-96600000D01*
X119002155Y-96600000D01*
X118942627Y-96606401D01*
X118942620Y-96606403D01*
X118807913Y-96656645D01*
X118807906Y-96656649D01*
X118692812Y-96742809D01*
X118692809Y-96742812D01*
X118606649Y-96857906D01*
X118606645Y-96857913D01*
X118556403Y-96992620D01*
X118556401Y-96992627D01*
X118550000Y-97052155D01*
X118550000Y-97700000D01*
X119466988Y-97700000D01*
X119434075Y-97757007D01*
X119400000Y-97884174D01*
X119400000Y-98015826D01*
X119434075Y-98142993D01*
X119466988Y-98200000D01*
X118550000Y-98200000D01*
X118550000Y-98847844D01*
X118556401Y-98907372D01*
X118556403Y-98907379D01*
X118606645Y-99042086D01*
X118606649Y-99042093D01*
X118692809Y-99157187D01*
X118692812Y-99157190D01*
X118807906Y-99243350D01*
X118807913Y-99243354D01*
X118939470Y-99292422D01*
X118995404Y-99334293D01*
X119019821Y-99399758D01*
X119004969Y-99468031D01*
X118983819Y-99496285D01*
X118869889Y-99610215D01*
X118744951Y-99782179D01*
X118648444Y-99971585D01*
X118582753Y-100173760D01*
X118549500Y-100383713D01*
X100082948Y-100383713D01*
X99558716Y-99859481D01*
X97287590Y-97588355D01*
X97287588Y-97588352D01*
X97168717Y-97469481D01*
X97168716Y-97469480D01*
X97081904Y-97419360D01*
X97081904Y-97419359D01*
X97081900Y-97419358D01*
X97031785Y-97390423D01*
X96879057Y-97349499D01*
X96720943Y-97349499D01*
X96713347Y-97349499D01*
X96713331Y-97349500D01*
X95864499Y-97349500D01*
X95855813Y-97346949D01*
X95846852Y-97348238D01*
X95822811Y-97337259D01*
X95797460Y-97329815D01*
X95791532Y-97322974D01*
X95783296Y-97319213D01*
X95769006Y-97296978D01*
X95751705Y-97277011D01*
X95749417Y-97266496D01*
X95745522Y-97260435D01*
X95740499Y-97225500D01*
X95740499Y-97052129D01*
X95740498Y-97052123D01*
X95740497Y-97052116D01*
X95734091Y-96992517D01*
X95683884Y-96857906D01*
X95683797Y-96857671D01*
X95683793Y-96857664D01*
X95597547Y-96742455D01*
X95597544Y-96742452D01*
X95482335Y-96656206D01*
X95482328Y-96656202D01*
X95347482Y-96605908D01*
X95347483Y-96605908D01*
X95287883Y-96599501D01*
X95287881Y-96599500D01*
X95287873Y-96599500D01*
X95287864Y-96599500D01*
X93492129Y-96599500D01*
X93492123Y-96599501D01*
X93432516Y-96605908D01*
X93297671Y-96656202D01*
X93297664Y-96656206D01*
X93182455Y-96742452D01*
X93182452Y-96742455D01*
X93096206Y-96857664D01*
X93096202Y-96857671D01*
X93045908Y-96992517D01*
X93039501Y-97052116D01*
X93039501Y-97052123D01*
X93039500Y-97052135D01*
X92100500Y-97052135D01*
X92100500Y-94524500D01*
X92120185Y-94457461D01*
X92172989Y-94411706D01*
X92224500Y-94400500D01*
X122075500Y-94400500D01*
X122142539Y-94420185D01*
G37*
%TD.AperFunction*%
%TD*%
M02*
