%TF.GenerationSoftware,KiCad,Pcbnew,9.0.2*%
%TF.CreationDate,2025-07-02T00:41:41+02:00*%
%TF.ProjectId,flex_aufsatz,666c6578-5f61-4756-9673-61747a2e6b69,rev?*%
%TF.SameCoordinates,Original*%
%TF.FileFunction,Soldermask,Top*%
%TF.FilePolarity,Negative*%
%FSLAX46Y46*%
G04 Gerber Fmt 4.6, Leading zero omitted, Abs format (unit mm)*
G04 Created by KiCad (PCBNEW 9.0.2) date 2025-07-02 00:41:41*
%MOMM*%
%LPD*%
G01*
G04 APERTURE LIST*
G04 Aperture macros list*
%AMRoundRect*
0 Rectangle with rounded corners*
0 $1 Rounding radius*
0 $2 $3 $4 $5 $6 $7 $8 $9 X,Y pos of 4 corners*
0 Add a 4 corners polygon primitive as box body*
4,1,4,$2,$3,$4,$5,$6,$7,$8,$9,$2,$3,0*
0 Add four circle primitives for the rounded corners*
1,1,$1+$1,$2,$3*
1,1,$1+$1,$4,$5*
1,1,$1+$1,$6,$7*
1,1,$1+$1,$8,$9*
0 Add four rect primitives between the rounded corners*
20,1,$1+$1,$2,$3,$4,$5,0*
20,1,$1+$1,$4,$5,$6,$7,0*
20,1,$1+$1,$6,$7,$8,$9,0*
20,1,$1+$1,$8,$9,$2,$3,0*%
G04 Aperture macros list end*
%ADD10R,1.700000X1.700000*%
%ADD11C,1.700000*%
%ADD12R,1.250000X0.600000*%
%ADD13RoundRect,0.140000X-0.170000X0.140000X-0.170000X-0.140000X0.170000X-0.140000X0.170000X0.140000X0*%
%ADD14R,0.800000X0.300000*%
%ADD15R,0.300000X0.800000*%
%ADD16R,1.750000X1.750000*%
%ADD17RoundRect,0.140000X0.170000X-0.140000X0.170000X0.140000X-0.170000X0.140000X-0.170000X-0.140000X0*%
%ADD18RoundRect,0.140000X-0.140000X-0.170000X0.140000X-0.170000X0.140000X0.170000X-0.140000X0.170000X0*%
G04 APERTURE END LIST*
D10*
%TO.C,J1*%
X94390000Y-97950000D03*
D11*
X94390000Y-100490000D03*
X94390000Y-103030000D03*
X94390000Y-105570000D03*
X94390000Y-108110000D03*
X94390000Y-110650000D03*
X94390000Y-113190000D03*
X94390000Y-115730000D03*
X94390000Y-118270000D03*
X94390000Y-120810000D03*
X94390000Y-123350000D03*
X94390000Y-125890000D03*
X94390000Y-128430000D03*
X94390000Y-130970000D03*
X94390000Y-133510000D03*
X94390000Y-136050000D03*
X94390000Y-138590000D03*
X94390000Y-141130000D03*
X94390000Y-143670000D03*
X94390000Y-146210000D03*
X94390000Y-148750000D03*
X94390000Y-151290000D03*
%TD*%
D12*
%TO.C,IC1*%
X102640000Y-126610000D03*
X102640000Y-127560000D03*
X102640000Y-128510000D03*
X105140000Y-128510000D03*
X105140000Y-126610000D03*
%TD*%
D13*
%TO.C,C2*%
X107565000Y-123185000D03*
X107565000Y-124145000D03*
%TD*%
%TO.C,C1*%
X110040000Y-123185000D03*
X110040000Y-124145000D03*
%TD*%
%TO.C,C6*%
X105750000Y-123160000D03*
X105750000Y-124120000D03*
%TD*%
D14*
%TO.C,U1*%
X110690000Y-119940000D03*
X110690000Y-119440000D03*
X110690000Y-118940000D03*
X110690000Y-118440000D03*
D15*
X109940000Y-117690000D03*
X109440000Y-117690000D03*
X108940000Y-117690000D03*
X108440000Y-117690000D03*
D14*
X107690000Y-118440000D03*
X107690000Y-118940000D03*
X107690000Y-119440000D03*
X107690000Y-119940000D03*
D15*
X108440000Y-120690000D03*
X108940000Y-120690000D03*
X109440000Y-120690000D03*
X109940000Y-120690000D03*
D16*
X109190000Y-119190000D03*
%TD*%
D10*
%TO.C,J2*%
X119900000Y-97950000D03*
D11*
X119900000Y-100490000D03*
X119900000Y-103030000D03*
X119900000Y-105570000D03*
X119900000Y-108110000D03*
X119900000Y-110650000D03*
X119900000Y-113190000D03*
X119900000Y-115730000D03*
X119900000Y-118270000D03*
X119900000Y-120810000D03*
X119900000Y-123350000D03*
X119900000Y-125890000D03*
X119900000Y-128430000D03*
X119900000Y-130970000D03*
X119900000Y-133510000D03*
X119900000Y-136050000D03*
X119900000Y-138590000D03*
X119900000Y-141130000D03*
X119900000Y-143670000D03*
X119900000Y-146210000D03*
X119900000Y-148750000D03*
X119900000Y-151290000D03*
%TD*%
D13*
%TO.C,C3*%
X100550000Y-126590000D03*
X100550000Y-127550000D03*
%TD*%
D17*
%TO.C,C5*%
X108815000Y-124165000D03*
X108815000Y-123205000D03*
%TD*%
D18*
%TO.C,C4*%
X98620000Y-98000000D03*
X99580000Y-98000000D03*
%TD*%
M02*
