%TF.GenerationSoftware,KiCad,Pcbnew,9.0.2*%
%TF.CreationDate,2025-07-02T00:41:41+02:00*%
%TF.ProjectId,flex_aufsatz,666c6578-5f61-4756-9673-61747a2e6b69,rev?*%
%TF.SameCoordinates,Original*%
%TF.FileFunction,Soldermask,Bot*%
%TF.FilePolarity,Negative*%
%FSLAX46Y46*%
G04 Gerber Fmt 4.6, Leading zero omitted, Abs format (unit mm)*
G04 Created by KiCad (PCBNEW 9.0.2) date 2025-07-02 00:41:41*
%MOMM*%
%LPD*%
G01*
G04 APERTURE LIST*
%ADD10C,0.010000*%
%ADD11R,1.700000X1.700000*%
%ADD12C,1.700000*%
G04 APERTURE END LIST*
D10*
%TO.C,J4*%
X106610000Y-110665000D02*
X105850000Y-110665000D01*
X105850000Y-110215000D01*
X106610000Y-110215000D01*
X106610000Y-110665000D01*
G36*
X106610000Y-110665000D02*
G01*
X105850000Y-110665000D01*
X105850000Y-110215000D01*
X106610000Y-110215000D01*
X106610000Y-110665000D01*
G37*
X106610000Y-111080000D02*
X105850000Y-111080000D01*
X105850000Y-110750000D01*
X106610000Y-110750000D01*
X106610000Y-111080000D01*
G36*
X106610000Y-111080000D02*
G01*
X105850000Y-111080000D01*
X105850000Y-110750000D01*
X106610000Y-110750000D01*
X106610000Y-111080000D01*
G37*
X106610000Y-111480000D02*
X105850000Y-111480000D01*
X105850000Y-111150000D01*
X106610000Y-111150000D01*
X106610000Y-111480000D01*
G36*
X106610000Y-111480000D02*
G01*
X105850000Y-111480000D01*
X105850000Y-111150000D01*
X106610000Y-111150000D01*
X106610000Y-111480000D01*
G37*
X106610000Y-111880000D02*
X105850000Y-111880000D01*
X105850000Y-111550000D01*
X106610000Y-111550000D01*
X106610000Y-111880000D01*
G36*
X106610000Y-111880000D02*
G01*
X105850000Y-111880000D01*
X105850000Y-111550000D01*
X106610000Y-111550000D01*
X106610000Y-111880000D01*
G37*
X106610000Y-112280000D02*
X105850000Y-112280000D01*
X105850000Y-111950000D01*
X106610000Y-111950000D01*
X106610000Y-112280000D01*
G36*
X106610000Y-112280000D02*
G01*
X105850000Y-112280000D01*
X105850000Y-111950000D01*
X106610000Y-111950000D01*
X106610000Y-112280000D01*
G37*
X106610000Y-112680000D02*
X105850000Y-112680000D01*
X105850000Y-112350000D01*
X106610000Y-112350000D01*
X106610000Y-112680000D01*
G36*
X106610000Y-112680000D02*
G01*
X105850000Y-112680000D01*
X105850000Y-112350000D01*
X106610000Y-112350000D01*
X106610000Y-112680000D01*
G37*
X106610000Y-113215000D02*
X105850000Y-113215000D01*
X105850000Y-112765000D01*
X106610000Y-112765000D01*
X106610000Y-113215000D01*
G36*
X106610000Y-113215000D02*
G01*
X105850000Y-113215000D01*
X105850000Y-112765000D01*
X106610000Y-112765000D01*
X106610000Y-113215000D01*
G37*
X109320000Y-110665000D02*
X108560000Y-110665000D01*
X108560000Y-110215000D01*
X109320000Y-110215000D01*
X109320000Y-110665000D01*
G36*
X109320000Y-110665000D02*
G01*
X108560000Y-110665000D01*
X108560000Y-110215000D01*
X109320000Y-110215000D01*
X109320000Y-110665000D01*
G37*
X109320000Y-111080000D02*
X108560000Y-111080000D01*
X108560000Y-110750000D01*
X109320000Y-110750000D01*
X109320000Y-111080000D01*
G36*
X109320000Y-111080000D02*
G01*
X108560000Y-111080000D01*
X108560000Y-110750000D01*
X109320000Y-110750000D01*
X109320000Y-111080000D01*
G37*
X109320000Y-111480000D02*
X108560000Y-111480000D01*
X108560000Y-111150000D01*
X109320000Y-111150000D01*
X109320000Y-111480000D01*
G36*
X109320000Y-111480000D02*
G01*
X108560000Y-111480000D01*
X108560000Y-111150000D01*
X109320000Y-111150000D01*
X109320000Y-111480000D01*
G37*
X109320000Y-111880000D02*
X108560000Y-111880000D01*
X108560000Y-111550000D01*
X109320000Y-111550000D01*
X109320000Y-111880000D01*
G36*
X109320000Y-111880000D02*
G01*
X108560000Y-111880000D01*
X108560000Y-111550000D01*
X109320000Y-111550000D01*
X109320000Y-111880000D01*
G37*
X109320000Y-112280000D02*
X108560000Y-112280000D01*
X108560000Y-111950000D01*
X109320000Y-111950000D01*
X109320000Y-112280000D01*
G36*
X109320000Y-112280000D02*
G01*
X108560000Y-112280000D01*
X108560000Y-111950000D01*
X109320000Y-111950000D01*
X109320000Y-112280000D01*
G37*
X109320000Y-112680000D02*
X108560000Y-112680000D01*
X108560000Y-112350000D01*
X109320000Y-112350000D01*
X109320000Y-112680000D01*
G36*
X109320000Y-112680000D02*
G01*
X108560000Y-112680000D01*
X108560000Y-112350000D01*
X109320000Y-112350000D01*
X109320000Y-112680000D01*
G37*
X109320000Y-113215000D02*
X108560000Y-113215000D01*
X108560000Y-112765000D01*
X109320000Y-112765000D01*
X109320000Y-113215000D01*
G36*
X109320000Y-113215000D02*
G01*
X108560000Y-113215000D01*
X108560000Y-112765000D01*
X109320000Y-112765000D01*
X109320000Y-113215000D01*
G37*
%TO.C,J3*%
X102560000Y-110665000D02*
X101800000Y-110665000D01*
X101800000Y-110215000D01*
X102560000Y-110215000D01*
X102560000Y-110665000D01*
G36*
X102560000Y-110665000D02*
G01*
X101800000Y-110665000D01*
X101800000Y-110215000D01*
X102560000Y-110215000D01*
X102560000Y-110665000D01*
G37*
X102560000Y-111080000D02*
X101800000Y-111080000D01*
X101800000Y-110750000D01*
X102560000Y-110750000D01*
X102560000Y-111080000D01*
G36*
X102560000Y-111080000D02*
G01*
X101800000Y-111080000D01*
X101800000Y-110750000D01*
X102560000Y-110750000D01*
X102560000Y-111080000D01*
G37*
X102560000Y-111480000D02*
X101800000Y-111480000D01*
X101800000Y-111150000D01*
X102560000Y-111150000D01*
X102560000Y-111480000D01*
G36*
X102560000Y-111480000D02*
G01*
X101800000Y-111480000D01*
X101800000Y-111150000D01*
X102560000Y-111150000D01*
X102560000Y-111480000D01*
G37*
X102560000Y-111880000D02*
X101800000Y-111880000D01*
X101800000Y-111550000D01*
X102560000Y-111550000D01*
X102560000Y-111880000D01*
G36*
X102560000Y-111880000D02*
G01*
X101800000Y-111880000D01*
X101800000Y-111550000D01*
X102560000Y-111550000D01*
X102560000Y-111880000D01*
G37*
X102560000Y-112280000D02*
X101800000Y-112280000D01*
X101800000Y-111950000D01*
X102560000Y-111950000D01*
X102560000Y-112280000D01*
G36*
X102560000Y-112280000D02*
G01*
X101800000Y-112280000D01*
X101800000Y-111950000D01*
X102560000Y-111950000D01*
X102560000Y-112280000D01*
G37*
X102560000Y-112680000D02*
X101800000Y-112680000D01*
X101800000Y-112350000D01*
X102560000Y-112350000D01*
X102560000Y-112680000D01*
G36*
X102560000Y-112680000D02*
G01*
X101800000Y-112680000D01*
X101800000Y-112350000D01*
X102560000Y-112350000D01*
X102560000Y-112680000D01*
G37*
X102560000Y-113215000D02*
X101800000Y-113215000D01*
X101800000Y-112765000D01*
X102560000Y-112765000D01*
X102560000Y-113215000D01*
G36*
X102560000Y-113215000D02*
G01*
X101800000Y-113215000D01*
X101800000Y-112765000D01*
X102560000Y-112765000D01*
X102560000Y-113215000D01*
G37*
X105270000Y-110665000D02*
X104510000Y-110665000D01*
X104510000Y-110215000D01*
X105270000Y-110215000D01*
X105270000Y-110665000D01*
G36*
X105270000Y-110665000D02*
G01*
X104510000Y-110665000D01*
X104510000Y-110215000D01*
X105270000Y-110215000D01*
X105270000Y-110665000D01*
G37*
X105270000Y-111080000D02*
X104510000Y-111080000D01*
X104510000Y-110750000D01*
X105270000Y-110750000D01*
X105270000Y-111080000D01*
G36*
X105270000Y-111080000D02*
G01*
X104510000Y-111080000D01*
X104510000Y-110750000D01*
X105270000Y-110750000D01*
X105270000Y-111080000D01*
G37*
X105270000Y-111480000D02*
X104510000Y-111480000D01*
X104510000Y-111150000D01*
X105270000Y-111150000D01*
X105270000Y-111480000D01*
G36*
X105270000Y-111480000D02*
G01*
X104510000Y-111480000D01*
X104510000Y-111150000D01*
X105270000Y-111150000D01*
X105270000Y-111480000D01*
G37*
X105270000Y-111880000D02*
X104510000Y-111880000D01*
X104510000Y-111550000D01*
X105270000Y-111550000D01*
X105270000Y-111880000D01*
G36*
X105270000Y-111880000D02*
G01*
X104510000Y-111880000D01*
X104510000Y-111550000D01*
X105270000Y-111550000D01*
X105270000Y-111880000D01*
G37*
X105270000Y-112280000D02*
X104510000Y-112280000D01*
X104510000Y-111950000D01*
X105270000Y-111950000D01*
X105270000Y-112280000D01*
G36*
X105270000Y-112280000D02*
G01*
X104510000Y-112280000D01*
X104510000Y-111950000D01*
X105270000Y-111950000D01*
X105270000Y-112280000D01*
G37*
X105270000Y-112680000D02*
X104510000Y-112680000D01*
X104510000Y-112350000D01*
X105270000Y-112350000D01*
X105270000Y-112680000D01*
G36*
X105270000Y-112680000D02*
G01*
X104510000Y-112680000D01*
X104510000Y-112350000D01*
X105270000Y-112350000D01*
X105270000Y-112680000D01*
G37*
X105270000Y-113215000D02*
X104510000Y-113215000D01*
X104510000Y-112765000D01*
X105270000Y-112765000D01*
X105270000Y-113215000D01*
G36*
X105270000Y-113215000D02*
G01*
X104510000Y-113215000D01*
X104510000Y-112765000D01*
X105270000Y-112765000D01*
X105270000Y-113215000D01*
G37*
%TD*%
D11*
%TO.C,J1*%
X94390000Y-97950000D03*
D12*
X94390000Y-100490000D03*
X94390000Y-103030000D03*
X94390000Y-105570000D03*
X94390000Y-108110000D03*
X94390000Y-110650000D03*
X94390000Y-113190000D03*
X94390000Y-115730000D03*
X94390000Y-118270000D03*
X94390000Y-120810000D03*
X94390000Y-123350000D03*
X94390000Y-125890000D03*
X94390000Y-128430000D03*
X94390000Y-130970000D03*
X94390000Y-133510000D03*
X94390000Y-136050000D03*
X94390000Y-138590000D03*
X94390000Y-141130000D03*
X94390000Y-143670000D03*
X94390000Y-146210000D03*
X94390000Y-148750000D03*
X94390000Y-151290000D03*
%TD*%
D11*
%TO.C,J2*%
X119900000Y-97950000D03*
D12*
X119900000Y-100490000D03*
X119900000Y-103030000D03*
X119900000Y-105570000D03*
X119900000Y-108110000D03*
X119900000Y-110650000D03*
X119900000Y-113190000D03*
X119900000Y-115730000D03*
X119900000Y-118270000D03*
X119900000Y-120810000D03*
X119900000Y-123350000D03*
X119900000Y-125890000D03*
X119900000Y-128430000D03*
X119900000Y-130970000D03*
X119900000Y-133510000D03*
X119900000Y-136050000D03*
X119900000Y-138590000D03*
X119900000Y-141130000D03*
X119900000Y-143670000D03*
X119900000Y-146210000D03*
X119900000Y-148750000D03*
X119900000Y-151290000D03*
%TD*%
M02*
