M48
; DRILL file {KiCad 9.0.2} date 2025-07-02T00:41:35+0200
; FORMAT={-:-/ absolute / metric / decimal}
; #@! TF.CreationDate,2025-07-02T00:41:35+02:00
; #@! TF.GenerationSoftware,Kicad,Pcbnew,9.0.2
; #@! TF.FileFunction,Plated,1,2,PTH
FMAT,2
METRIC
; #@! TA.AperFunction,Plated,PTH,ViaDrill
T1C0.300
; #@! TA.AperFunction,Plated,PTH,ComponentDrill
T2C1.000
%
G90
G05
T1
X97.06Y-106.14
X100.3Y-119.0
X100.33Y-124.93
X100.56Y-128.75
X100.75Y-129.66
X100.94Y-110.065
X102.2Y-116.5
X102.5Y-121.2
X103.29Y-108.84
X103.8Y-124.4
X105.7Y-115.0
X105.75Y-124.95
X107.79Y-126.7
X108.44Y-116.4
X108.815Y-121.88
X109.31Y-114.71
X109.44Y-122.4
X109.44Y-126.62
X109.97Y-112.46
X110.415Y-115.515
X110.79Y-121.79
X111.47Y-109.41
X112.54Y-118.015
X112.54Y-119.59
T2
X94.39Y-97.95
X94.39Y-100.49
X94.39Y-103.03
X94.39Y-105.57
X94.39Y-108.11
X94.39Y-110.65
X94.39Y-113.19
X94.39Y-115.73
X94.39Y-118.27
X94.39Y-120.81
X94.39Y-123.35
X94.39Y-125.89
X94.39Y-128.43
X94.39Y-130.97
X94.39Y-133.51
X94.39Y-136.05
X94.39Y-138.59
X94.39Y-141.13
X94.39Y-143.67
X94.39Y-146.21
X94.39Y-148.75
X94.39Y-151.29
X119.9Y-97.95
X119.9Y-100.49
X119.9Y-103.03
X119.9Y-105.57
X119.9Y-108.11
X119.9Y-110.65
X119.9Y-113.19
X119.9Y-115.73
X119.9Y-118.27
X119.9Y-120.81
X119.9Y-123.35
X119.9Y-125.89
X119.9Y-128.43
X119.9Y-130.97
X119.9Y-133.51
X119.9Y-136.05
X119.9Y-138.59
X119.9Y-141.13
X119.9Y-143.67
X119.9Y-146.21
X119.9Y-148.75
X119.9Y-151.29
M30
