%TF.GenerationSoftware,KiCad,Pcbnew,9.0.2*%
%TF.CreationDate,2025-06-27T21:37:16+02:00*%
%TF.ProjectId,flex_aufsatz,666c6578-5f61-4756-9673-61747a2e6b69,rev?*%
%TF.SameCoordinates,Original*%
%TF.FileFunction,Legend,Bot*%
%TF.FilePolarity,Positive*%
%FSLAX46Y46*%
G04 Gerber Fmt 4.6, Leading zero omitted, Abs format (unit mm)*
G04 Created by KiCad (PCBNEW 9.0.2) date 2025-06-27 21:37:16*
%MOMM*%
%LPD*%
G01*
G04 APERTURE LIST*
%ADD10C,0.150000*%
%ADD11C,0.127000*%
%ADD12C,0.200000*%
G04 APERTURE END LIST*
D10*
X112066666Y-110712295D02*
X112066666Y-111283723D01*
X112066666Y-111283723D02*
X112104761Y-111398009D01*
X112104761Y-111398009D02*
X112180952Y-111474200D01*
X112180952Y-111474200D02*
X112295237Y-111512295D01*
X112295237Y-111512295D02*
X112371428Y-111512295D01*
X111342856Y-110978961D02*
X111342856Y-111512295D01*
X111533332Y-110674200D02*
X111723809Y-111245628D01*
X111723809Y-111245628D02*
X111228570Y-111245628D01*
X105416666Y-110512295D02*
X105416666Y-111083723D01*
X105416666Y-111083723D02*
X105454761Y-111198009D01*
X105454761Y-111198009D02*
X105530952Y-111274200D01*
X105530952Y-111274200D02*
X105645237Y-111312295D01*
X105645237Y-111312295D02*
X105721428Y-111312295D01*
X105111904Y-110512295D02*
X104616666Y-110512295D01*
X104616666Y-110512295D02*
X104883332Y-110817057D01*
X104883332Y-110817057D02*
X104769047Y-110817057D01*
X104769047Y-110817057D02*
X104692856Y-110855152D01*
X104692856Y-110855152D02*
X104654761Y-110893247D01*
X104654761Y-110893247D02*
X104616666Y-110969438D01*
X104616666Y-110969438D02*
X104616666Y-111159914D01*
X104616666Y-111159914D02*
X104654761Y-111236104D01*
X104654761Y-111236104D02*
X104692856Y-111274200D01*
X104692856Y-111274200D02*
X104769047Y-111312295D01*
X104769047Y-111312295D02*
X104997618Y-111312295D01*
X104997618Y-111312295D02*
X105073809Y-111274200D01*
X105073809Y-111274200D02*
X105111904Y-111236104D01*
D11*
%TO.C,J4*%
X109670000Y-112165000D02*
X111520000Y-112165000D01*
X111520000Y-115685000D02*
X109670000Y-115685000D01*
D12*
X108445000Y-114725000D02*
G75*
G02*
X108245000Y-114725000I-100000J0D01*
G01*
X108245000Y-114725000D02*
G75*
G02*
X108445000Y-114725000I100000J0D01*
G01*
D11*
%TO.C,J3*%
X105620000Y-112165000D02*
X107470000Y-112165000D01*
X107470000Y-115685000D02*
X105620000Y-115685000D01*
D12*
X104395000Y-114725000D02*
G75*
G02*
X104195000Y-114725000I-100000J0D01*
G01*
X104195000Y-114725000D02*
G75*
G02*
X104395000Y-114725000I100000J0D01*
G01*
%TD*%
M02*
