%TF.GenerationSoftware,KiCad,Pcbnew,9.0.2*%
%TF.CreationDate,2025-06-27T21:37:16+02:00*%
%TF.ProjectId,flex_aufsatz,666c6578-5f61-4756-9673-61747a2e6b69,rev?*%
%TF.SameCoordinates,Original*%
%TF.FileFunction,Soldermask,Top*%
%TF.FilePolarity,Negative*%
%FSLAX46Y46*%
G04 Gerber Fmt 4.6, Leading zero omitted, Abs format (unit mm)*
G04 Created by KiCad (PCBNEW 9.0.2) date 2025-06-27 21:37:16*
%MOMM*%
%LPD*%
G01*
G04 APERTURE LIST*
G04 Aperture macros list*
%AMRoundRect*
0 Rectangle with rounded corners*
0 $1 Rounding radius*
0 $2 $3 $4 $5 $6 $7 $8 $9 X,Y pos of 4 corners*
0 Add a 4 corners polygon primitive as box body*
4,1,4,$2,$3,$4,$5,$6,$7,$8,$9,$2,$3,0*
0 Add four circle primitives for the rounded corners*
1,1,$1+$1,$2,$3*
1,1,$1+$1,$4,$5*
1,1,$1+$1,$6,$7*
1,1,$1+$1,$8,$9*
0 Add four rect primitives between the rounded corners*
20,1,$1+$1,$2,$3,$4,$5,0*
20,1,$1+$1,$4,$5,$6,$7,0*
20,1,$1+$1,$6,$7,$8,$9,0*
20,1,$1+$1,$8,$9,$2,$3,0*%
G04 Aperture macros list end*
%ADD10R,1.700000X1.700000*%
%ADD11C,1.700000*%
%ADD12R,1.250000X0.600000*%
%ADD13RoundRect,0.140000X-0.140000X-0.170000X0.140000X-0.170000X0.140000X0.170000X-0.140000X0.170000X0*%
%ADD14RoundRect,0.140000X0.170000X-0.140000X0.170000X0.140000X-0.170000X0.140000X-0.170000X-0.140000X0*%
%ADD15RoundRect,0.140000X-0.170000X0.140000X-0.170000X-0.140000X0.170000X-0.140000X0.170000X0.140000X0*%
%ADD16R,0.800000X0.300000*%
%ADD17R,0.300000X0.800000*%
%ADD18R,1.750000X1.750000*%
G04 APERTURE END LIST*
D10*
%TO.C,J1*%
X97400000Y-100160000D03*
D11*
X97400000Y-102700000D03*
X97400000Y-105240000D03*
X97400000Y-107780000D03*
X97400000Y-110320000D03*
X97400000Y-112860000D03*
X97400000Y-115400000D03*
X97400000Y-117940000D03*
X97400000Y-120480000D03*
X97400000Y-123020000D03*
X97400000Y-125560000D03*
X97400000Y-128100000D03*
X97400000Y-130640000D03*
X97400000Y-133180000D03*
X97400000Y-135720000D03*
X97400000Y-138260000D03*
X97400000Y-140800000D03*
X97400000Y-143340000D03*
X97400000Y-145880000D03*
X97400000Y-148420000D03*
X97400000Y-150960000D03*
X97400000Y-153500000D03*
%TD*%
D12*
%TO.C,IC1*%
X100750000Y-156850000D03*
X100750000Y-157800000D03*
X100750000Y-158750000D03*
X103250000Y-158750000D03*
X103250000Y-156850000D03*
%TD*%
D13*
%TO.C,C2*%
X117290000Y-158750000D03*
X118250000Y-158750000D03*
%TD*%
D14*
%TO.C,C1*%
X109800000Y-157780000D03*
X109800000Y-156820000D03*
%TD*%
D15*
%TO.C,C6*%
X105500000Y-154970000D03*
X105500000Y-155930000D03*
%TD*%
D16*
%TO.C,U1*%
X115700000Y-157600000D03*
X115700000Y-157100000D03*
X115700000Y-156600000D03*
X115700000Y-156100000D03*
D17*
X114950000Y-155350000D03*
X114450000Y-155350000D03*
X113950000Y-155350000D03*
X113450000Y-155350000D03*
D16*
X112700000Y-156100000D03*
X112700000Y-156600000D03*
X112700000Y-157100000D03*
X112700000Y-157600000D03*
D17*
X113450000Y-158350000D03*
X113950000Y-158350000D03*
X114450000Y-158350000D03*
X114950000Y-158350000D03*
D18*
X114200000Y-156850000D03*
%TD*%
D10*
%TO.C,J2*%
X119300000Y-100000000D03*
D11*
X119300000Y-102540000D03*
X119300000Y-105080000D03*
X119300000Y-107620000D03*
X119300000Y-110160000D03*
X119300000Y-112700000D03*
X119300000Y-115240000D03*
X119300000Y-117780000D03*
X119300000Y-120320000D03*
X119300000Y-122860000D03*
X119300000Y-125400000D03*
X119300000Y-127940000D03*
X119300000Y-130480000D03*
X119300000Y-133020000D03*
X119300000Y-135560000D03*
X119300000Y-138100000D03*
X119300000Y-140640000D03*
X119300000Y-143180000D03*
X119300000Y-145720000D03*
X119300000Y-148260000D03*
X119300000Y-150800000D03*
X119300000Y-153340000D03*
%TD*%
D13*
%TO.C,C3*%
X97920000Y-157800000D03*
X98880000Y-157800000D03*
%TD*%
%TO.C,C4*%
X109650000Y-105600000D03*
X110610000Y-105600000D03*
%TD*%
M02*
