%TF.GenerationSoftware,KiCad,Pcbnew,9.0.2*%
%TF.CreationDate,2025-06-27T21:37:16+02:00*%
%TF.ProjectId,flex_aufsatz,666c6578-5f61-4756-9673-61747a2e6b69,rev?*%
%TF.SameCoordinates,Original*%
%TF.FileFunction,Copper,L1,Top*%
%TF.FilePolarity,Positive*%
%FSLAX46Y46*%
G04 Gerber Fmt 4.6, Leading zero omitted, Abs format (unit mm)*
G04 Created by KiCad (PCBNEW 9.0.2) date 2025-06-27 21:37:16*
%MOMM*%
%LPD*%
G01*
G04 APERTURE LIST*
G04 Aperture macros list*
%AMRoundRect*
0 Rectangle with rounded corners*
0 $1 Rounding radius*
0 $2 $3 $4 $5 $6 $7 $8 $9 X,Y pos of 4 corners*
0 Add a 4 corners polygon primitive as box body*
4,1,4,$2,$3,$4,$5,$6,$7,$8,$9,$2,$3,0*
0 Add four circle primitives for the rounded corners*
1,1,$1+$1,$2,$3*
1,1,$1+$1,$4,$5*
1,1,$1+$1,$6,$7*
1,1,$1+$1,$8,$9*
0 Add four rect primitives between the rounded corners*
20,1,$1+$1,$2,$3,$4,$5,0*
20,1,$1+$1,$4,$5,$6,$7,0*
20,1,$1+$1,$6,$7,$8,$9,0*
20,1,$1+$1,$8,$9,$2,$3,0*%
G04 Aperture macros list end*
%TA.AperFunction,ComponentPad*%
%ADD10R,1.700000X1.700000*%
%TD*%
%TA.AperFunction,ComponentPad*%
%ADD11C,1.700000*%
%TD*%
%TA.AperFunction,SMDPad,CuDef*%
%ADD12R,1.250000X0.600000*%
%TD*%
%TA.AperFunction,SMDPad,CuDef*%
%ADD13RoundRect,0.140000X-0.140000X-0.170000X0.140000X-0.170000X0.140000X0.170000X-0.140000X0.170000X0*%
%TD*%
%TA.AperFunction,SMDPad,CuDef*%
%ADD14RoundRect,0.140000X0.170000X-0.140000X0.170000X0.140000X-0.170000X0.140000X-0.170000X-0.140000X0*%
%TD*%
%TA.AperFunction,SMDPad,CuDef*%
%ADD15RoundRect,0.140000X-0.170000X0.140000X-0.170000X-0.140000X0.170000X-0.140000X0.170000X0.140000X0*%
%TD*%
%TA.AperFunction,SMDPad,CuDef*%
%ADD16R,0.800000X0.300000*%
%TD*%
%TA.AperFunction,SMDPad,CuDef*%
%ADD17R,0.300000X0.800000*%
%TD*%
%TA.AperFunction,SMDPad,CuDef*%
%ADD18R,1.750000X1.750000*%
%TD*%
%TA.AperFunction,ViaPad*%
%ADD19C,0.600000*%
%TD*%
%TA.AperFunction,Conductor*%
%ADD20C,0.200000*%
%TD*%
G04 APERTURE END LIST*
D10*
%TO.P,J1,1,Pin_1*%
%TO.N,+3.3V*%
X97400000Y-100160000D03*
D11*
%TO.P,J1,2,Pin_2*%
X97400000Y-102700000D03*
%TO.P,J1,3,Pin_3*%
%TO.N,unconnected-(J1-Pin_3-Pad3)*%
X97400000Y-105240000D03*
%TO.P,J1,4,Pin_4*%
%TO.N,/WS*%
X97400000Y-107780000D03*
%TO.P,J1,5,Pin_5*%
%TO.N,/BCLK*%
X97400000Y-110320000D03*
%TO.P,J1,6,Pin_6*%
%TO.N,unconnected-(J1-Pin_6-Pad6)*%
X97400000Y-112860000D03*
%TO.P,J1,7,Pin_7*%
%TO.N,unconnected-(J1-Pin_7-Pad7)*%
X97400000Y-115400000D03*
%TO.P,J1,8,Pin_8*%
%TO.N,unconnected-(J1-Pin_8-Pad8)*%
X97400000Y-117940000D03*
%TO.P,J1,9,Pin_9*%
%TO.N,unconnected-(J1-Pin_9-Pad9)*%
X97400000Y-120480000D03*
%TO.P,J1,10,Pin_10*%
%TO.N,unconnected-(J1-Pin_10-Pad10)*%
X97400000Y-123020000D03*
%TO.P,J1,11,Pin_11*%
%TO.N,unconnected-(J1-Pin_11-Pad11)*%
X97400000Y-125560000D03*
%TO.P,J1,12,Pin_12*%
%TO.N,unconnected-(J1-Pin_12-Pad12)*%
X97400000Y-128100000D03*
%TO.P,J1,13,Pin_13*%
%TO.N,unconnected-(J1-Pin_13-Pad13)*%
X97400000Y-130640000D03*
%TO.P,J1,14,Pin_14*%
%TO.N,unconnected-(J1-Pin_14-Pad14)*%
X97400000Y-133180000D03*
%TO.P,J1,15,Pin_15*%
%TO.N,unconnected-(J1-Pin_15-Pad15)*%
X97400000Y-135720000D03*
%TO.P,J1,16,Pin_16*%
%TO.N,unconnected-(J1-Pin_16-Pad16)*%
X97400000Y-138260000D03*
%TO.P,J1,17,Pin_17*%
%TO.N,unconnected-(J1-Pin_17-Pad17)*%
X97400000Y-140800000D03*
%TO.P,J1,18,Pin_18*%
%TO.N,/TDM_DATA*%
X97400000Y-143340000D03*
%TO.P,J1,19,Pin_19*%
%TO.N,unconnected-(J1-Pin_19-Pad19)*%
X97400000Y-145880000D03*
%TO.P,J1,20,Pin_20*%
%TO.N,unconnected-(J1-Pin_20-Pad20)*%
X97400000Y-148420000D03*
%TO.P,J1,21,Pin_21*%
%TO.N,unconnected-(J1-Pin_21-Pad21)*%
X97400000Y-150960000D03*
%TO.P,J1,22,Pin_22*%
%TO.N,GND*%
X97400000Y-153500000D03*
%TD*%
D12*
%TO.P,IC1,1,VIN*%
%TO.N,+3.3V*%
X100750000Y-156850000D03*
%TO.P,IC1,2,GND*%
%TO.N,GND*%
X100750000Y-157800000D03*
%TO.P,IC1,3,EN*%
%TO.N,+3.3V*%
X100750000Y-158750000D03*
%TO.P,IC1,4,SENSE/ADJ*%
%TO.N,+1V8*%
X103250000Y-158750000D03*
%TO.P,IC1,5,VOUT*%
X103250000Y-156850000D03*
%TD*%
D13*
%TO.P,C2,1*%
%TO.N,+3.3V*%
X117290000Y-158750000D03*
%TO.P,C2,2*%
%TO.N,GND*%
X118250000Y-158750000D03*
%TD*%
D14*
%TO.P,C1,1*%
%TO.N,+3.3V*%
X109800000Y-157780000D03*
%TO.P,C1,2*%
%TO.N,GND*%
X109800000Y-156820000D03*
%TD*%
D15*
%TO.P,C6,1*%
%TO.N,GND*%
X105500000Y-154970000D03*
%TO.P,C6,2*%
%TO.N,+1V8*%
X105500000Y-155930000D03*
%TD*%
D16*
%TO.P,U1,1,PDM_CLK0*%
%TO.N,/MIC_CLK0*%
X115700000Y-157600000D03*
%TO.P,U1,2,PDM_DAT0*%
%TO.N,/MIC_DOUT_0*%
X115700000Y-157100000D03*
%TO.P,U1,3,PDM_DAT1*%
%TO.N,/MIC_DOUT_1*%
X115700000Y-156600000D03*
%TO.P,U1,4,PDM_CLK1*%
%TO.N,/MIC_CLK1*%
X115700000Y-156100000D03*
D17*
%TO.P,U1,5,PDM_DAT2*%
%TO.N,/MIC_DOUT_2*%
X114950000Y-155350000D03*
%TO.P,U1,6,PDM_DAT3*%
%TO.N,unconnected-(U1-PDM_DAT3-Pad6)*%
X114450000Y-155350000D03*
%TO.P,U1,7,SCL*%
%TO.N,GND*%
X113950000Y-155350000D03*
%TO.P,U1,8,SDA*%
X113450000Y-155350000D03*
D16*
%TO.P,U1,9,FSYNC*%
%TO.N,/WS*%
X112700000Y-156100000D03*
%TO.P,U1,10,BCLK*%
%TO.N,/BCLK*%
X112700000Y-156600000D03*
%TO.P,U1,11,SDATA*%
%TO.N,/TDM_DATA*%
X112700000Y-157100000D03*
%TO.P,U1,12,ADDR/CONFIG*%
%TO.N,unconnected-(U1-ADDR{slash}CONFIG-Pad12)*%
X112700000Y-157600000D03*
D17*
%TO.P,U1,13,EN*%
%TO.N,+3.3V*%
X113450000Y-158350000D03*
%TO.P,U1,14,DVDD*%
%TO.N,+1V8*%
X113950000Y-158350000D03*
%TO.P,U1,15,GND*%
%TO.N,GND*%
X114450000Y-158350000D03*
%TO.P,U1,16,IOVDD*%
%TO.N,+3.3V*%
X114950000Y-158350000D03*
D18*
%TO.P,U1,17,EPAD*%
%TO.N,GND*%
X114200000Y-156850000D03*
%TD*%
D10*
%TO.P,J2,1,Pin_1*%
%TO.N,GND*%
X119300000Y-100000000D03*
D11*
%TO.P,J2,2,Pin_2*%
%TO.N,unconnected-(J2-Pin_2-Pad2)*%
X119300000Y-102540000D03*
%TO.P,J2,3,Pin_3*%
%TO.N,unconnected-(J2-Pin_3-Pad3)*%
X119300000Y-105080000D03*
%TO.P,J2,4,Pin_4*%
%TO.N,unconnected-(J2-Pin_4-Pad4)*%
X119300000Y-107620000D03*
%TO.P,J2,5,Pin_5*%
%TO.N,unconnected-(J2-Pin_5-Pad5)*%
X119300000Y-110160000D03*
%TO.P,J2,6,Pin_6*%
%TO.N,unconnected-(J2-Pin_6-Pad6)*%
X119300000Y-112700000D03*
%TO.P,J2,7,Pin_7*%
%TO.N,unconnected-(J2-Pin_7-Pad7)*%
X119300000Y-115240000D03*
%TO.P,J2,8,Pin_8*%
%TO.N,unconnected-(J2-Pin_8-Pad8)*%
X119300000Y-117780000D03*
%TO.P,J2,9,Pin_9*%
%TO.N,unconnected-(J2-Pin_9-Pad9)*%
X119300000Y-120320000D03*
%TO.P,J2,10,Pin_10*%
%TO.N,unconnected-(J2-Pin_10-Pad10)*%
X119300000Y-122860000D03*
%TO.P,J2,11,Pin_11*%
%TO.N,unconnected-(J2-Pin_11-Pad11)*%
X119300000Y-125400000D03*
%TO.P,J2,12,Pin_12*%
%TO.N,unconnected-(J2-Pin_12-Pad12)*%
X119300000Y-127940000D03*
%TO.P,J2,13,Pin_13*%
%TO.N,unconnected-(J2-Pin_13-Pad13)*%
X119300000Y-130480000D03*
%TO.P,J2,14,Pin_14*%
%TO.N,unconnected-(J2-Pin_14-Pad14)*%
X119300000Y-133020000D03*
%TO.P,J2,15,Pin_15*%
%TO.N,unconnected-(J2-Pin_15-Pad15)*%
X119300000Y-135560000D03*
%TO.P,J2,16,Pin_16*%
%TO.N,unconnected-(J2-Pin_16-Pad16)*%
X119300000Y-138100000D03*
%TO.P,J2,17,Pin_17*%
%TO.N,unconnected-(J2-Pin_17-Pad17)*%
X119300000Y-140640000D03*
%TO.P,J2,18,Pin_18*%
%TO.N,unconnected-(J2-Pin_18-Pad18)*%
X119300000Y-143180000D03*
%TO.P,J2,19,Pin_19*%
%TO.N,unconnected-(J2-Pin_19-Pad19)*%
X119300000Y-145720000D03*
%TO.P,J2,20,Pin_20*%
%TO.N,unconnected-(J2-Pin_20-Pad20)*%
X119300000Y-148260000D03*
%TO.P,J2,21,Pin_21*%
%TO.N,GND*%
X119300000Y-150800000D03*
%TO.P,J2,22,Pin_22*%
X119300000Y-153340000D03*
%TD*%
D13*
%TO.P,C3,1*%
%TO.N,+3.3V*%
X97920000Y-157800000D03*
%TO.P,C3,2*%
%TO.N,GND*%
X98880000Y-157800000D03*
%TD*%
%TO.P,C4,1*%
%TO.N,+3.3V*%
X109650000Y-105600000D03*
%TO.P,C4,2*%
%TO.N,GND*%
X110610000Y-105600000D03*
%TD*%
D19*
%TO.N,GND*%
X114450000Y-110325000D03*
X106300000Y-111050000D03*
%TO.N,/MIC_CLK1*%
X105625000Y-122150000D03*
%TO.N,/MIC_DOUT_1*%
X103625000Y-113275000D03*
%TO.N,+3.3V*%
X107950000Y-157500000D03*
X106075000Y-106425000D03*
X111550000Y-158350000D03*
X96150000Y-158100000D03*
X99250000Y-155950000D03*
X114600000Y-159399000D03*
%TO.N,GND*%
X108750000Y-156250000D03*
X119700000Y-158250000D03*
X113800000Y-154100000D03*
%TO.N,/MIC_CLK0*%
X105200000Y-116750000D03*
%TO.N,/MIC_DOUT_0*%
X107700000Y-118050000D03*
%TO.N,/MIC_DOUT_2*%
X105700000Y-125050000D03*
%TD*%
D20*
%TO.N,GND*%
X104570000Y-154970000D02*
X105500000Y-154970000D01*
X103100000Y-153500000D02*
X104570000Y-154970000D01*
X97400000Y-153500000D02*
X103100000Y-153500000D01*
X114450000Y-104850000D02*
X114812500Y-104487500D01*
X114450000Y-110325000D02*
X114450000Y-104850000D01*
X114812500Y-104487500D02*
X119300000Y-100000000D01*
X110600000Y-107850000D02*
X112850000Y-105600000D01*
X112850000Y-105600000D02*
X113700000Y-105600000D01*
X107550000Y-107850000D02*
X110600000Y-107850000D01*
X106300000Y-109100000D02*
X107550000Y-107850000D01*
X106300000Y-111050000D02*
X106300000Y-109100000D01*
%TO.N,/MIC_CLK1*%
X105625000Y-122175000D02*
X105625000Y-122150000D01*
X111500000Y-128050000D02*
X105625000Y-122175000D01*
%TO.N,/MIC_DOUT_1*%
X103625000Y-116775000D02*
X103625000Y-113275000D01*
X106075000Y-119225000D02*
X103625000Y-116775000D01*
%TO.N,/WS*%
X103000000Y-128000000D02*
X112700000Y-137700000D01*
X103000000Y-113380000D02*
X103000000Y-128000000D01*
X97400000Y-107780000D02*
X103000000Y-113380000D01*
X112700000Y-137700000D02*
X112700000Y-156100000D01*
%TO.N,+3.3V*%
X114950000Y-159049000D02*
X114950000Y-158350000D01*
X106075000Y-106425000D02*
X106900000Y-105600000D01*
X113450000Y-158350000D02*
X111550000Y-158350000D01*
X106900000Y-105600000D02*
X109650000Y-105600000D01*
X111520000Y-158350000D02*
X110900000Y-157730000D01*
X109800000Y-157780000D02*
X108230000Y-157780000D01*
X100750000Y-158750000D02*
X98600000Y-158750000D01*
X114600000Y-159399000D02*
X114950000Y-159049000D01*
X99850000Y-155950000D02*
X100750000Y-156850000D01*
X97920000Y-158070000D02*
X98600000Y-158750000D01*
X111550000Y-158350000D02*
X111520000Y-158350000D01*
X97920000Y-157800000D02*
X97920000Y-158070000D01*
X115350000Y-158750000D02*
X114950000Y-158350000D01*
X110900000Y-157730000D02*
X110850000Y-157780000D01*
X108230000Y-157780000D02*
X107950000Y-157500000D01*
X96800000Y-158750000D02*
X96150000Y-158100000D01*
X99250000Y-155950000D02*
X99850000Y-155950000D01*
X110850000Y-157780000D02*
X109800000Y-157780000D01*
X117290000Y-158750000D02*
X115350000Y-158750000D01*
X98600000Y-158750000D02*
X96800000Y-158750000D01*
%TO.N,GND*%
X113950000Y-156600000D02*
X114200000Y-156850000D01*
X97400000Y-155275000D02*
X97400000Y-153500000D01*
X113950000Y-154250000D02*
X113800000Y-154100000D01*
X113450000Y-155350000D02*
X113450000Y-154450000D01*
X113950000Y-155350000D02*
X113950000Y-156600000D01*
X100750000Y-157800000D02*
X99925000Y-157800000D01*
X110610000Y-105600000D02*
X113700000Y-105600000D01*
X114450000Y-158350000D02*
X114450000Y-157100000D01*
X109320000Y-156820000D02*
X109800000Y-156820000D01*
X98880000Y-157800000D02*
X98880000Y-156770000D01*
X98880000Y-156770000D02*
X98887500Y-156762500D01*
X105500000Y-154970000D02*
X105520000Y-154970000D01*
X118250000Y-158750000D02*
X119200000Y-158750000D01*
X98887500Y-156762500D02*
X97400000Y-155275000D01*
X105520000Y-154970000D02*
X106800000Y-156250000D01*
X113450000Y-156100000D02*
X114200000Y-156850000D01*
X119200000Y-158750000D02*
X119700000Y-158250000D01*
X113450000Y-155350000D02*
X113450000Y-156100000D01*
X113950000Y-155350000D02*
X113950000Y-154250000D01*
X106800000Y-156250000D02*
X108750000Y-156250000D01*
X108750000Y-156250000D02*
X109320000Y-156820000D01*
X114450000Y-157100000D02*
X114200000Y-156850000D01*
X99925000Y-157800000D02*
X98887500Y-156762500D01*
X113700000Y-105600000D02*
X114812500Y-104487500D01*
X113450000Y-154450000D02*
X113800000Y-154100000D01*
%TO.N,+1V8*%
X105500000Y-156850000D02*
X105800000Y-156850000D01*
X103250000Y-158750000D02*
X106701000Y-158750000D01*
X104800000Y-156850000D02*
X105500000Y-156850000D01*
X113950000Y-159002000D02*
X113950000Y-158350000D01*
X104550000Y-156850000D02*
X104580000Y-156850000D01*
X106701000Y-158750000D02*
X107350000Y-159399000D01*
X113553000Y-159399000D02*
X113950000Y-159002000D01*
X111151000Y-158900000D02*
X111650000Y-159399000D01*
X105800000Y-156850000D02*
X107850000Y-158900000D01*
X110399000Y-159399000D02*
X111650000Y-159399000D01*
X107850000Y-158900000D02*
X111151000Y-158900000D01*
X111650000Y-159399000D02*
X113553000Y-159399000D01*
X103250000Y-156850000D02*
X104550000Y-156850000D01*
X107350000Y-159399000D02*
X110399000Y-159399000D01*
X104580000Y-156850000D02*
X105500000Y-155930000D01*
X104550000Y-156850000D02*
X104800000Y-156850000D01*
%TO.N,/TDM_DATA*%
X109300000Y-154352000D02*
X109300000Y-151650000D01*
X102000000Y-144350000D02*
X98410000Y-144350000D01*
X112048000Y-157100000D02*
X109300000Y-154352000D01*
X98410000Y-144350000D02*
X97400000Y-143340000D01*
X112700000Y-157100000D02*
X112048000Y-157100000D01*
X109300000Y-151650000D02*
X102000000Y-144350000D01*
%TO.N,/BCLK*%
X101400000Y-135850000D02*
X101400000Y-114320000D01*
X110900000Y-145350000D02*
X101400000Y-135850000D01*
X110900000Y-155384900D02*
X110900000Y-145350000D01*
X112700000Y-156600000D02*
X112115100Y-156600000D01*
X112115100Y-156600000D02*
X110900000Y-155384900D01*
X101400000Y-114320000D02*
X97400000Y-110320000D01*
%TO.N,/MIC_DOUT_1*%
X116800000Y-154850000D02*
X116250000Y-154300000D01*
X116250000Y-154300000D02*
X116250000Y-153450000D01*
X115000000Y-152200000D02*
X115000000Y-128150000D01*
X115000000Y-128150000D02*
X111700000Y-124850000D01*
X116250000Y-153450000D02*
X115000000Y-152200000D01*
X115700000Y-156600000D02*
X116400000Y-156600000D01*
X116400000Y-156600000D02*
X116800000Y-156200000D01*
X111700000Y-124850000D02*
X106075000Y-119225000D01*
X116800000Y-156200000D02*
X116800000Y-154850000D01*
%TO.N,/MIC_CLK0*%
X115700000Y-157600000D02*
X117000000Y-157600000D01*
X117350000Y-154150000D02*
X117350000Y-152850000D01*
X105200000Y-116750000D02*
X105100000Y-116750000D01*
X116450000Y-124550000D02*
X112750000Y-120850000D01*
X106200000Y-116750000D02*
X105200000Y-116750000D01*
X117000000Y-157600000D02*
X117800000Y-156800000D01*
X117800000Y-154600000D02*
X117650000Y-154450000D01*
X117650000Y-154450000D02*
X117350000Y-154150000D01*
X116450000Y-151950000D02*
X116450000Y-124550000D01*
X117800000Y-156800000D02*
X117800000Y-154600000D01*
X112750000Y-120850000D02*
X108650000Y-116750000D01*
X117350000Y-152850000D02*
X116450000Y-151950000D01*
X108650000Y-116750000D02*
X106200000Y-116750000D01*
%TO.N,/MIC_DOUT_0*%
X112800000Y-123150000D02*
X107700000Y-118050000D01*
X115750000Y-152100000D02*
X115750000Y-126100000D01*
X116750000Y-154200000D02*
X116750000Y-153100000D01*
X116750000Y-153100000D02*
X115750000Y-152100000D01*
X117350000Y-154800000D02*
X116750000Y-154200000D01*
X117350000Y-156550000D02*
X117350000Y-154800000D01*
X115750000Y-126100000D02*
X112800000Y-123150000D01*
X115700000Y-157100000D02*
X116800000Y-157100000D01*
X116800000Y-157100000D02*
X117350000Y-156550000D01*
%TO.N,/MIC_CLK1*%
X114300000Y-151100000D02*
X114300000Y-130850000D01*
X115700000Y-156100000D02*
X115700000Y-153950000D01*
X114300000Y-152550000D02*
X114300000Y-151100000D01*
X115700000Y-153950000D02*
X114300000Y-152550000D01*
X114300000Y-130850000D02*
X111500000Y-128050000D01*
%TO.N,/MIC_DOUT_2*%
X113650000Y-135550000D02*
X106600000Y-128500000D01*
X113650000Y-151200000D02*
X113650000Y-135550000D01*
X105700000Y-127600000D02*
X105700000Y-125050000D01*
X106600000Y-128500000D02*
X105700000Y-127600000D01*
X114950000Y-155350000D02*
X114950000Y-154200000D01*
X114950000Y-154200000D02*
X113650000Y-152900000D01*
X113650000Y-152900000D02*
X113650000Y-151200000D01*
%TD*%
M02*
