%TF.GenerationSoftware,KiCad,Pcbnew,9.0.2*%
%TF.CreationDate,2025-06-27T21:37:16+02:00*%
%TF.ProjectId,flex_aufsatz,666c6578-5f61-4756-9673-61747a2e6b69,rev?*%
%TF.SameCoordinates,Original*%
%TF.FileFunction,Copper,L2,Bot*%
%TF.FilePolarity,Positive*%
%FSLAX46Y46*%
G04 Gerber Fmt 4.6, Leading zero omitted, Abs format (unit mm)*
G04 Created by KiCad (PCBNEW 9.0.2) date 2025-06-27 21:37:16*
%MOMM*%
%LPD*%
G01*
G04 APERTURE LIST*
%TA.AperFunction,Conductor*%
%ADD10C,0.200000*%
%TD*%
%TA.AperFunction,ComponentPad*%
%ADD11R,1.700000X1.700000*%
%TD*%
%TA.AperFunction,ComponentPad*%
%ADD12C,1.700000*%
%TD*%
%TA.AperFunction,SMDPad,CuDef*%
%ADD13R,0.660000X0.230000*%
%TD*%
%TA.AperFunction,SMDPad,CuDef*%
%ADD14R,0.660000X0.350000*%
%TD*%
%TA.AperFunction,ViaPad*%
%ADD15C,0.600000*%
%TD*%
G04 APERTURE END LIST*
D10*
%TO.N,/MIC_CLK0*%
X104550000Y-113925000D02*
X104375000Y-114075000D01*
%TO.N,GND*%
X111950000Y-113125000D02*
X113025000Y-113125000D01*
X107900000Y-113125000D02*
X107125000Y-113125000D01*
%TO.N,+3.3V*%
X109250000Y-114725000D02*
X109950000Y-114725000D01*
%TO.N,/MIC_CLK1*%
X111950000Y-114325000D02*
X111075000Y-114325000D01*
%TO.N,/MIC_DOUT_2*%
X111950000Y-113525000D02*
X113050000Y-113525000D01*
%TO.N,+3.3V*%
X105175000Y-114725000D02*
X105900000Y-114725000D01*
%TO.N,/MIC_DOUT_1*%
X104450000Y-113525000D02*
X104300000Y-113375000D01*
X105250000Y-113525000D02*
X104450000Y-113525000D01*
%TO.N,/MIC_CLK0*%
X104550000Y-113925000D02*
X105250000Y-113925000D01*
%TO.N,/MIC_DOUT_0*%
X105200000Y-113100000D02*
X105900000Y-113100000D01*
%TD*%
D11*
%TO.P,J1,1,Pin_1*%
%TO.N,+3.3V*%
X97400000Y-100160000D03*
D12*
%TO.P,J1,2,Pin_2*%
X97400000Y-102700000D03*
%TO.P,J1,3,Pin_3*%
%TO.N,unconnected-(J1-Pin_3-Pad3)*%
X97400000Y-105240000D03*
%TO.P,J1,4,Pin_4*%
%TO.N,/WS*%
X97400000Y-107780000D03*
%TO.P,J1,5,Pin_5*%
%TO.N,/BCLK*%
X97400000Y-110320000D03*
%TO.P,J1,6,Pin_6*%
%TO.N,unconnected-(J1-Pin_6-Pad6)*%
X97400000Y-112860000D03*
%TO.P,J1,7,Pin_7*%
%TO.N,unconnected-(J1-Pin_7-Pad7)*%
X97400000Y-115400000D03*
%TO.P,J1,8,Pin_8*%
%TO.N,unconnected-(J1-Pin_8-Pad8)*%
X97400000Y-117940000D03*
%TO.P,J1,9,Pin_9*%
%TO.N,unconnected-(J1-Pin_9-Pad9)*%
X97400000Y-120480000D03*
%TO.P,J1,10,Pin_10*%
%TO.N,unconnected-(J1-Pin_10-Pad10)*%
X97400000Y-123020000D03*
%TO.P,J1,11,Pin_11*%
%TO.N,unconnected-(J1-Pin_11-Pad11)*%
X97400000Y-125560000D03*
%TO.P,J1,12,Pin_12*%
%TO.N,unconnected-(J1-Pin_12-Pad12)*%
X97400000Y-128100000D03*
%TO.P,J1,13,Pin_13*%
%TO.N,unconnected-(J1-Pin_13-Pad13)*%
X97400000Y-130640000D03*
%TO.P,J1,14,Pin_14*%
%TO.N,unconnected-(J1-Pin_14-Pad14)*%
X97400000Y-133180000D03*
%TO.P,J1,15,Pin_15*%
%TO.N,unconnected-(J1-Pin_15-Pad15)*%
X97400000Y-135720000D03*
%TO.P,J1,16,Pin_16*%
%TO.N,unconnected-(J1-Pin_16-Pad16)*%
X97400000Y-138260000D03*
%TO.P,J1,17,Pin_17*%
%TO.N,unconnected-(J1-Pin_17-Pad17)*%
X97400000Y-140800000D03*
%TO.P,J1,18,Pin_18*%
%TO.N,/TDM_DATA*%
X97400000Y-143340000D03*
%TO.P,J1,19,Pin_19*%
%TO.N,unconnected-(J1-Pin_19-Pad19)*%
X97400000Y-145880000D03*
%TO.P,J1,20,Pin_20*%
%TO.N,unconnected-(J1-Pin_20-Pad20)*%
X97400000Y-148420000D03*
%TO.P,J1,21,Pin_21*%
%TO.N,unconnected-(J1-Pin_21-Pad21)*%
X97400000Y-150960000D03*
%TO.P,J1,22,Pin_22*%
%TO.N,GND*%
X97400000Y-153500000D03*
%TD*%
D11*
%TO.P,J2,1,Pin_1*%
%TO.N,GND*%
X119300000Y-100000000D03*
D12*
%TO.P,J2,2,Pin_2*%
%TO.N,unconnected-(J2-Pin_2-Pad2)*%
X119300000Y-102540000D03*
%TO.P,J2,3,Pin_3*%
%TO.N,unconnected-(J2-Pin_3-Pad3)*%
X119300000Y-105080000D03*
%TO.P,J2,4,Pin_4*%
%TO.N,unconnected-(J2-Pin_4-Pad4)*%
X119300000Y-107620000D03*
%TO.P,J2,5,Pin_5*%
%TO.N,unconnected-(J2-Pin_5-Pad5)*%
X119300000Y-110160000D03*
%TO.P,J2,6,Pin_6*%
%TO.N,unconnected-(J2-Pin_6-Pad6)*%
X119300000Y-112700000D03*
%TO.P,J2,7,Pin_7*%
%TO.N,unconnected-(J2-Pin_7-Pad7)*%
X119300000Y-115240000D03*
%TO.P,J2,8,Pin_8*%
%TO.N,unconnected-(J2-Pin_8-Pad8)*%
X119300000Y-117780000D03*
%TO.P,J2,9,Pin_9*%
%TO.N,unconnected-(J2-Pin_9-Pad9)*%
X119300000Y-120320000D03*
%TO.P,J2,10,Pin_10*%
%TO.N,unconnected-(J2-Pin_10-Pad10)*%
X119300000Y-122860000D03*
%TO.P,J2,11,Pin_11*%
%TO.N,unconnected-(J2-Pin_11-Pad11)*%
X119300000Y-125400000D03*
%TO.P,J2,12,Pin_12*%
%TO.N,unconnected-(J2-Pin_12-Pad12)*%
X119300000Y-127940000D03*
%TO.P,J2,13,Pin_13*%
%TO.N,unconnected-(J2-Pin_13-Pad13)*%
X119300000Y-130480000D03*
%TO.P,J2,14,Pin_14*%
%TO.N,unconnected-(J2-Pin_14-Pad14)*%
X119300000Y-133020000D03*
%TO.P,J2,15,Pin_15*%
%TO.N,unconnected-(J2-Pin_15-Pad15)*%
X119300000Y-135560000D03*
%TO.P,J2,16,Pin_16*%
%TO.N,unconnected-(J2-Pin_16-Pad16)*%
X119300000Y-138100000D03*
%TO.P,J2,17,Pin_17*%
%TO.N,unconnected-(J2-Pin_17-Pad17)*%
X119300000Y-140640000D03*
%TO.P,J2,18,Pin_18*%
%TO.N,unconnected-(J2-Pin_18-Pad18)*%
X119300000Y-143180000D03*
%TO.P,J2,19,Pin_19*%
%TO.N,unconnected-(J2-Pin_19-Pad19)*%
X119300000Y-145720000D03*
%TO.P,J2,20,Pin_20*%
%TO.N,unconnected-(J2-Pin_20-Pad20)*%
X119300000Y-148260000D03*
%TO.P,J2,21,Pin_21*%
%TO.N,GND*%
X119300000Y-150800000D03*
%TO.P,J2,22,Pin_22*%
X119300000Y-153340000D03*
%TD*%
D13*
%TO.P,J4,1,1*%
%TO.N,+3.3V*%
X109240000Y-114725000D03*
%TO.P,J4,2,2*%
%TO.N,unconnected-(J4-Pad2)*%
X111950000Y-114725000D03*
%TO.P,J4,3,3*%
%TO.N,unconnected-(J4-Pad3)*%
X109240000Y-114325000D03*
%TO.P,J4,4,4*%
%TO.N,/MIC_CLK1*%
X111950000Y-114325000D03*
%TO.P,J4,5,5*%
%TO.N,unconnected-(J4-Pad5)*%
X109240000Y-113925000D03*
%TO.P,J4,6,6*%
%TO.N,unconnected-(J4-Pad6)*%
X111950000Y-113925000D03*
%TO.P,J4,7,7*%
%TO.N,unconnected-(J4-Pad7)*%
X109240000Y-113525000D03*
%TO.P,J4,8,8*%
%TO.N,/MIC_DOUT_2*%
X111950000Y-113525000D03*
%TO.P,J4,9,9*%
%TO.N,unconnected-(J4-Pad9)*%
X109240000Y-113125000D03*
%TO.P,J4,10,10*%
%TO.N,GND*%
X111950000Y-113125000D03*
D14*
%TO.P,J4,SH1*%
%TO.N,N/C*%
X109240000Y-115200000D03*
%TO.P,J4,SH2*%
X111950000Y-115200000D03*
%TO.P,J4,SH3*%
X109240000Y-112650000D03*
%TO.P,J4,SH4*%
X111950000Y-112650000D03*
%TD*%
D13*
%TO.P,J3,1,1*%
%TO.N,+3.3V*%
X105190000Y-114725000D03*
%TO.P,J3,2,2*%
%TO.N,unconnected-(J3-Pad2)*%
X107900000Y-114725000D03*
%TO.P,J3,3,3*%
%TO.N,unconnected-(J3-Pad3)*%
X105190000Y-114325000D03*
%TO.P,J3,4,4*%
%TO.N,unconnected-(J3-Pad4)*%
X107900000Y-114325000D03*
%TO.P,J3,5,5*%
%TO.N,/MIC_CLK0*%
X105190000Y-113925000D03*
%TO.P,J3,6,6*%
%TO.N,unconnected-(J3-Pad6)*%
X107900000Y-113925000D03*
%TO.P,J3,7,7*%
%TO.N,/MIC_DOUT_1*%
X105190000Y-113525000D03*
%TO.P,J3,8,8*%
%TO.N,unconnected-(J3-Pad8)*%
X107900000Y-113525000D03*
%TO.P,J3,9,9*%
%TO.N,/MIC_DOUT_0*%
X105190000Y-113125000D03*
%TO.P,J3,10,10*%
%TO.N,GND*%
X107900000Y-113125000D03*
D14*
%TO.P,J3,SH1*%
%TO.N,N/C*%
X105190000Y-115200000D03*
%TO.P,J3,SH2*%
X107900000Y-115200000D03*
%TO.P,J3,SH3*%
X105190000Y-112650000D03*
%TO.P,J3,SH4*%
X107900000Y-112650000D03*
%TD*%
D15*
%TO.N,GND*%
X114450000Y-110325000D03*
X106300000Y-111050000D03*
%TO.N,/MIC_CLK1*%
X105625000Y-122150000D03*
%TO.N,/MIC_DOUT_1*%
X103625000Y-113275000D03*
%TO.N,+3.3V*%
X107950000Y-157500000D03*
X106075000Y-106425000D03*
X111550000Y-158350000D03*
X96150000Y-158100000D03*
X99250000Y-155950000D03*
X114600000Y-159399000D03*
%TO.N,GND*%
X108750000Y-156250000D03*
X119700000Y-158250000D03*
X113800000Y-154100000D03*
%TO.N,/MIC_CLK0*%
X105200000Y-116750000D03*
%TO.N,/MIC_DOUT_0*%
X107700000Y-118050000D03*
%TO.N,/MIC_DOUT_2*%
X105700000Y-125050000D03*
%TD*%
D10*
%TO.N,/MIC_CLK0*%
X104150000Y-114300000D02*
X104375000Y-114075000D01*
X104725000Y-116750000D02*
X104150000Y-116175000D01*
X105200000Y-116750000D02*
X104725000Y-116750000D01*
X104150000Y-116175000D02*
X104150000Y-114300000D01*
%TO.N,/MIC_DOUT_0*%
X106825000Y-117175000D02*
X107700000Y-118050000D01*
X106075000Y-113100000D02*
X106825000Y-113850000D01*
X105900000Y-113100000D02*
X106075000Y-113100000D01*
X106825000Y-113850000D02*
X106825000Y-117175000D01*
%TO.N,GND*%
X114450000Y-145950000D02*
X119300000Y-150800000D01*
X114450000Y-111700000D02*
X114450000Y-145950000D01*
X114450000Y-111700000D02*
X114450000Y-110325000D01*
X113925000Y-112225000D02*
X114450000Y-111700000D01*
X113025000Y-113125000D02*
X113925000Y-112225000D01*
X106300000Y-112300000D02*
X106300000Y-111050000D01*
X107125000Y-113125000D02*
X106300000Y-112300000D01*
%TO.N,+3.3V*%
X110650000Y-114025000D02*
X110212500Y-114462500D01*
X110650000Y-111000000D02*
X110650000Y-114025000D01*
X110212500Y-114462500D02*
X109950000Y-114725000D01*
X110550000Y-114125000D02*
X110212500Y-114462500D01*
X106075000Y-106425000D02*
X110650000Y-111000000D01*
%TO.N,/MIC_CLK1*%
X110575000Y-114825000D02*
X111075000Y-114325000D01*
X110575000Y-116625000D02*
X110575000Y-114825000D01*
X105625000Y-121575000D02*
X110575000Y-116625000D01*
X105625000Y-122150000D02*
X105625000Y-121575000D01*
%TO.N,/MIC_DOUT_2*%
X105700000Y-124200000D02*
X105700000Y-125050000D01*
X113575000Y-116325000D02*
X105700000Y-124200000D01*
X113575000Y-113975000D02*
X113575000Y-116325000D01*
X113125000Y-113525000D02*
X113575000Y-113975000D01*
X113050000Y-113525000D02*
X113125000Y-113525000D01*
%TO.N,+3.3V*%
X106200000Y-117275000D02*
X106200000Y-115025000D01*
X102000000Y-121475000D02*
X106200000Y-117275000D01*
X106200000Y-115025000D02*
X105900000Y-114725000D01*
X100700000Y-121475000D02*
X102000000Y-121475000D01*
%TO.N,/MIC_DOUT_1*%
X104200000Y-113275000D02*
X103625000Y-113275000D01*
X104300000Y-113375000D02*
X104200000Y-113275000D01*
%TO.N,+3.3V*%
X100700000Y-121475000D02*
X100700000Y-107150000D01*
X100700000Y-107150000D02*
X103750000Y-104100000D01*
X100700000Y-149900000D02*
X100700000Y-121475000D01*
X112599000Y-159399000D02*
X114600000Y-159399000D01*
X112599000Y-159399000D02*
X111550000Y-158350000D01*
X98300000Y-155950000D02*
X96150000Y-158100000D01*
X97400000Y-100160000D02*
X97400000Y-102700000D01*
X97400000Y-100160000D02*
X99810000Y-100160000D01*
X100700000Y-154500000D02*
X100700000Y-149900000D01*
X102200000Y-102550000D02*
X103750000Y-104100000D01*
X100700000Y-150250000D02*
X100700000Y-149900000D01*
X99250000Y-155950000D02*
X98300000Y-155950000D01*
X99810000Y-100160000D02*
X102200000Y-102550000D01*
X103750000Y-104100000D02*
X106075000Y-106425000D01*
X107950000Y-157500000D02*
X100700000Y-150250000D01*
X99250000Y-155950000D02*
X100700000Y-154500000D01*
%TO.N,GND*%
X114560000Y-153340000D02*
X113800000Y-154100000D01*
X110900000Y-154100000D02*
X113800000Y-154100000D01*
X119700000Y-158250000D02*
X119700000Y-155350000D01*
X119300000Y-153340000D02*
X119300000Y-150800000D01*
X119300000Y-153340000D02*
X114560000Y-153340000D01*
X119700000Y-155350000D02*
X119300000Y-154950000D01*
X119300000Y-154950000D02*
X119300000Y-153340000D01*
X108750000Y-156250000D02*
X110900000Y-154100000D01*
%TD*%
M02*
