M48
; DRILL file {KiCad 9.0.2} date 2025-06-27T21:37:23+0200
; FORMAT={-:-/ absolute / metric / decimal}
; #@! TF.CreationDate,2025-06-27T21:37:23+02:00
; #@! TF.GenerationSoftware,Kicad,Pcbnew,9.0.2
; #@! TF.FileFunction,Plated,1,2,PTH
FMAT,2
METRIC
; #@! TA.AperFunction,Plated,PTH,ViaDrill
T1C0.300
; #@! TA.AperFunction,Plated,PTH,ComponentDrill
T2C1.000
%
G90
G05
T1
X96.15Y-158.1
X99.25Y-155.95
X103.625Y-113.275
X105.2Y-116.75
X105.625Y-122.15
X105.7Y-125.05
X106.075Y-106.425
X106.3Y-111.05
X107.7Y-118.05
X107.95Y-157.5
X108.75Y-156.25
X111.55Y-158.35
X113.8Y-154.1
X114.45Y-110.325
X114.6Y-159.399
X119.7Y-158.25
T2
X97.4Y-100.16
X97.4Y-102.7
X97.4Y-105.24
X97.4Y-107.78
X97.4Y-110.32
X97.4Y-112.86
X97.4Y-115.4
X97.4Y-117.94
X97.4Y-120.48
X97.4Y-123.02
X97.4Y-125.56
X97.4Y-128.1
X97.4Y-130.64
X97.4Y-133.18
X97.4Y-135.72
X97.4Y-138.26
X97.4Y-140.8
X97.4Y-143.34
X97.4Y-145.88
X97.4Y-148.42
X97.4Y-150.96
X97.4Y-153.5
X119.3Y-100.0
X119.3Y-102.54
X119.3Y-105.08
X119.3Y-107.62
X119.3Y-110.16
X119.3Y-112.7
X119.3Y-115.24
X119.3Y-117.78
X119.3Y-120.32
X119.3Y-122.86
X119.3Y-125.4
X119.3Y-127.94
X119.3Y-130.48
X119.3Y-133.02
X119.3Y-135.56
X119.3Y-138.1
X119.3Y-140.64
X119.3Y-143.18
X119.3Y-145.72
X119.3Y-148.26
X119.3Y-150.8
X119.3Y-153.34
M30
