%TF.GenerationSoftware,KiCad,Pcbnew,9.0.2*%
%TF.CreationDate,2025-06-27T21:37:16+02:00*%
%TF.ProjectId,flex_aufsatz,666c6578-5f61-4756-9673-61747a2e6b69,rev?*%
%TF.SameCoordinates,Original*%
%TF.FileFunction,Soldermask,Bot*%
%TF.FilePolarity,Negative*%
%FSLAX46Y46*%
G04 Gerber Fmt 4.6, Leading zero omitted, Abs format (unit mm)*
G04 Created by KiCad (PCBNEW 9.0.2) date 2025-06-27 21:37:16*
%MOMM*%
%LPD*%
G01*
G04 APERTURE LIST*
%ADD10C,0.010000*%
%ADD11R,1.700000X1.700000*%
%ADD12C,1.700000*%
G04 APERTURE END LIST*
D10*
%TO.C,J4*%
X109620000Y-112875000D02*
X108860000Y-112875000D01*
X108860000Y-112425000D01*
X109620000Y-112425000D01*
X109620000Y-112875000D01*
G36*
X109620000Y-112875000D02*
G01*
X108860000Y-112875000D01*
X108860000Y-112425000D01*
X109620000Y-112425000D01*
X109620000Y-112875000D01*
G37*
X109620000Y-113290000D02*
X108860000Y-113290000D01*
X108860000Y-112960000D01*
X109620000Y-112960000D01*
X109620000Y-113290000D01*
G36*
X109620000Y-113290000D02*
G01*
X108860000Y-113290000D01*
X108860000Y-112960000D01*
X109620000Y-112960000D01*
X109620000Y-113290000D01*
G37*
X109620000Y-113690000D02*
X108860000Y-113690000D01*
X108860000Y-113360000D01*
X109620000Y-113360000D01*
X109620000Y-113690000D01*
G36*
X109620000Y-113690000D02*
G01*
X108860000Y-113690000D01*
X108860000Y-113360000D01*
X109620000Y-113360000D01*
X109620000Y-113690000D01*
G37*
X109620000Y-114090000D02*
X108860000Y-114090000D01*
X108860000Y-113760000D01*
X109620000Y-113760000D01*
X109620000Y-114090000D01*
G36*
X109620000Y-114090000D02*
G01*
X108860000Y-114090000D01*
X108860000Y-113760000D01*
X109620000Y-113760000D01*
X109620000Y-114090000D01*
G37*
X109620000Y-114490000D02*
X108860000Y-114490000D01*
X108860000Y-114160000D01*
X109620000Y-114160000D01*
X109620000Y-114490000D01*
G36*
X109620000Y-114490000D02*
G01*
X108860000Y-114490000D01*
X108860000Y-114160000D01*
X109620000Y-114160000D01*
X109620000Y-114490000D01*
G37*
X109620000Y-114890000D02*
X108860000Y-114890000D01*
X108860000Y-114560000D01*
X109620000Y-114560000D01*
X109620000Y-114890000D01*
G36*
X109620000Y-114890000D02*
G01*
X108860000Y-114890000D01*
X108860000Y-114560000D01*
X109620000Y-114560000D01*
X109620000Y-114890000D01*
G37*
X109620000Y-115425000D02*
X108860000Y-115425000D01*
X108860000Y-114975000D01*
X109620000Y-114975000D01*
X109620000Y-115425000D01*
G36*
X109620000Y-115425000D02*
G01*
X108860000Y-115425000D01*
X108860000Y-114975000D01*
X109620000Y-114975000D01*
X109620000Y-115425000D01*
G37*
X112330000Y-112875000D02*
X111570000Y-112875000D01*
X111570000Y-112425000D01*
X112330000Y-112425000D01*
X112330000Y-112875000D01*
G36*
X112330000Y-112875000D02*
G01*
X111570000Y-112875000D01*
X111570000Y-112425000D01*
X112330000Y-112425000D01*
X112330000Y-112875000D01*
G37*
X112330000Y-113290000D02*
X111570000Y-113290000D01*
X111570000Y-112960000D01*
X112330000Y-112960000D01*
X112330000Y-113290000D01*
G36*
X112330000Y-113290000D02*
G01*
X111570000Y-113290000D01*
X111570000Y-112960000D01*
X112330000Y-112960000D01*
X112330000Y-113290000D01*
G37*
X112330000Y-113690000D02*
X111570000Y-113690000D01*
X111570000Y-113360000D01*
X112330000Y-113360000D01*
X112330000Y-113690000D01*
G36*
X112330000Y-113690000D02*
G01*
X111570000Y-113690000D01*
X111570000Y-113360000D01*
X112330000Y-113360000D01*
X112330000Y-113690000D01*
G37*
X112330000Y-114090000D02*
X111570000Y-114090000D01*
X111570000Y-113760000D01*
X112330000Y-113760000D01*
X112330000Y-114090000D01*
G36*
X112330000Y-114090000D02*
G01*
X111570000Y-114090000D01*
X111570000Y-113760000D01*
X112330000Y-113760000D01*
X112330000Y-114090000D01*
G37*
X112330000Y-114490000D02*
X111570000Y-114490000D01*
X111570000Y-114160000D01*
X112330000Y-114160000D01*
X112330000Y-114490000D01*
G36*
X112330000Y-114490000D02*
G01*
X111570000Y-114490000D01*
X111570000Y-114160000D01*
X112330000Y-114160000D01*
X112330000Y-114490000D01*
G37*
X112330000Y-114890000D02*
X111570000Y-114890000D01*
X111570000Y-114560000D01*
X112330000Y-114560000D01*
X112330000Y-114890000D01*
G36*
X112330000Y-114890000D02*
G01*
X111570000Y-114890000D01*
X111570000Y-114560000D01*
X112330000Y-114560000D01*
X112330000Y-114890000D01*
G37*
X112330000Y-115425000D02*
X111570000Y-115425000D01*
X111570000Y-114975000D01*
X112330000Y-114975000D01*
X112330000Y-115425000D01*
G36*
X112330000Y-115425000D02*
G01*
X111570000Y-115425000D01*
X111570000Y-114975000D01*
X112330000Y-114975000D01*
X112330000Y-115425000D01*
G37*
%TO.C,J3*%
X105570000Y-112875000D02*
X104810000Y-112875000D01*
X104810000Y-112425000D01*
X105570000Y-112425000D01*
X105570000Y-112875000D01*
G36*
X105570000Y-112875000D02*
G01*
X104810000Y-112875000D01*
X104810000Y-112425000D01*
X105570000Y-112425000D01*
X105570000Y-112875000D01*
G37*
X105570000Y-113290000D02*
X104810000Y-113290000D01*
X104810000Y-112960000D01*
X105570000Y-112960000D01*
X105570000Y-113290000D01*
G36*
X105570000Y-113290000D02*
G01*
X104810000Y-113290000D01*
X104810000Y-112960000D01*
X105570000Y-112960000D01*
X105570000Y-113290000D01*
G37*
X105570000Y-113690000D02*
X104810000Y-113690000D01*
X104810000Y-113360000D01*
X105570000Y-113360000D01*
X105570000Y-113690000D01*
G36*
X105570000Y-113690000D02*
G01*
X104810000Y-113690000D01*
X104810000Y-113360000D01*
X105570000Y-113360000D01*
X105570000Y-113690000D01*
G37*
X105570000Y-114090000D02*
X104810000Y-114090000D01*
X104810000Y-113760000D01*
X105570000Y-113760000D01*
X105570000Y-114090000D01*
G36*
X105570000Y-114090000D02*
G01*
X104810000Y-114090000D01*
X104810000Y-113760000D01*
X105570000Y-113760000D01*
X105570000Y-114090000D01*
G37*
X105570000Y-114490000D02*
X104810000Y-114490000D01*
X104810000Y-114160000D01*
X105570000Y-114160000D01*
X105570000Y-114490000D01*
G36*
X105570000Y-114490000D02*
G01*
X104810000Y-114490000D01*
X104810000Y-114160000D01*
X105570000Y-114160000D01*
X105570000Y-114490000D01*
G37*
X105570000Y-114890000D02*
X104810000Y-114890000D01*
X104810000Y-114560000D01*
X105570000Y-114560000D01*
X105570000Y-114890000D01*
G36*
X105570000Y-114890000D02*
G01*
X104810000Y-114890000D01*
X104810000Y-114560000D01*
X105570000Y-114560000D01*
X105570000Y-114890000D01*
G37*
X105570000Y-115425000D02*
X104810000Y-115425000D01*
X104810000Y-114975000D01*
X105570000Y-114975000D01*
X105570000Y-115425000D01*
G36*
X105570000Y-115425000D02*
G01*
X104810000Y-115425000D01*
X104810000Y-114975000D01*
X105570000Y-114975000D01*
X105570000Y-115425000D01*
G37*
X108280000Y-112875000D02*
X107520000Y-112875000D01*
X107520000Y-112425000D01*
X108280000Y-112425000D01*
X108280000Y-112875000D01*
G36*
X108280000Y-112875000D02*
G01*
X107520000Y-112875000D01*
X107520000Y-112425000D01*
X108280000Y-112425000D01*
X108280000Y-112875000D01*
G37*
X108280000Y-113290000D02*
X107520000Y-113290000D01*
X107520000Y-112960000D01*
X108280000Y-112960000D01*
X108280000Y-113290000D01*
G36*
X108280000Y-113290000D02*
G01*
X107520000Y-113290000D01*
X107520000Y-112960000D01*
X108280000Y-112960000D01*
X108280000Y-113290000D01*
G37*
X108280000Y-113690000D02*
X107520000Y-113690000D01*
X107520000Y-113360000D01*
X108280000Y-113360000D01*
X108280000Y-113690000D01*
G36*
X108280000Y-113690000D02*
G01*
X107520000Y-113690000D01*
X107520000Y-113360000D01*
X108280000Y-113360000D01*
X108280000Y-113690000D01*
G37*
X108280000Y-114090000D02*
X107520000Y-114090000D01*
X107520000Y-113760000D01*
X108280000Y-113760000D01*
X108280000Y-114090000D01*
G36*
X108280000Y-114090000D02*
G01*
X107520000Y-114090000D01*
X107520000Y-113760000D01*
X108280000Y-113760000D01*
X108280000Y-114090000D01*
G37*
X108280000Y-114490000D02*
X107520000Y-114490000D01*
X107520000Y-114160000D01*
X108280000Y-114160000D01*
X108280000Y-114490000D01*
G36*
X108280000Y-114490000D02*
G01*
X107520000Y-114490000D01*
X107520000Y-114160000D01*
X108280000Y-114160000D01*
X108280000Y-114490000D01*
G37*
X108280000Y-114890000D02*
X107520000Y-114890000D01*
X107520000Y-114560000D01*
X108280000Y-114560000D01*
X108280000Y-114890000D01*
G36*
X108280000Y-114890000D02*
G01*
X107520000Y-114890000D01*
X107520000Y-114560000D01*
X108280000Y-114560000D01*
X108280000Y-114890000D01*
G37*
X108280000Y-115425000D02*
X107520000Y-115425000D01*
X107520000Y-114975000D01*
X108280000Y-114975000D01*
X108280000Y-115425000D01*
G36*
X108280000Y-115425000D02*
G01*
X107520000Y-115425000D01*
X107520000Y-114975000D01*
X108280000Y-114975000D01*
X108280000Y-115425000D01*
G37*
%TD*%
D11*
%TO.C,J1*%
X97400000Y-100160000D03*
D12*
X97400000Y-102700000D03*
X97400000Y-105240000D03*
X97400000Y-107780000D03*
X97400000Y-110320000D03*
X97400000Y-112860000D03*
X97400000Y-115400000D03*
X97400000Y-117940000D03*
X97400000Y-120480000D03*
X97400000Y-123020000D03*
X97400000Y-125560000D03*
X97400000Y-128100000D03*
X97400000Y-130640000D03*
X97400000Y-133180000D03*
X97400000Y-135720000D03*
X97400000Y-138260000D03*
X97400000Y-140800000D03*
X97400000Y-143340000D03*
X97400000Y-145880000D03*
X97400000Y-148420000D03*
X97400000Y-150960000D03*
X97400000Y-153500000D03*
%TD*%
D11*
%TO.C,J2*%
X119300000Y-100000000D03*
D12*
X119300000Y-102540000D03*
X119300000Y-105080000D03*
X119300000Y-107620000D03*
X119300000Y-110160000D03*
X119300000Y-112700000D03*
X119300000Y-115240000D03*
X119300000Y-117780000D03*
X119300000Y-120320000D03*
X119300000Y-122860000D03*
X119300000Y-125400000D03*
X119300000Y-127940000D03*
X119300000Y-130480000D03*
X119300000Y-133020000D03*
X119300000Y-135560000D03*
X119300000Y-138100000D03*
X119300000Y-140640000D03*
X119300000Y-143180000D03*
X119300000Y-145720000D03*
X119300000Y-148260000D03*
X119300000Y-150800000D03*
X119300000Y-153340000D03*
%TD*%
M02*
