%TF.GenerationSoftware,KiCad,Pcbnew,9.0.2*%
%TF.CreationDate,2025-06-27T15:40:27+02:00*%
%TF.ProjectId,flex_mems,666c6578-5f6d-4656-9d73-2e6b69636164,rev?*%
%TF.SameCoordinates,Original*%
%TF.FileFunction,Copper,L1,Top*%
%TF.FilePolarity,Positive*%
%FSLAX46Y46*%
G04 Gerber Fmt 4.6, Leading zero omitted, Abs format (unit mm)*
G04 Created by KiCad (PCBNEW 9.0.2) date 2025-06-27 15:40:27*
%MOMM*%
%LPD*%
G01*
G04 APERTURE LIST*
G04 Aperture macros list*
%AMRoundRect*
0 Rectangle with rounded corners*
0 $1 Rounding radius*
0 $2 $3 $4 $5 $6 $7 $8 $9 X,Y pos of 4 corners*
0 Add a 4 corners polygon primitive as box body*
4,1,4,$2,$3,$4,$5,$6,$7,$8,$9,$2,$3,0*
0 Add four circle primitives for the rounded corners*
1,1,$1+$1,$2,$3*
1,1,$1+$1,$4,$5*
1,1,$1+$1,$6,$7*
1,1,$1+$1,$8,$9*
0 Add four rect primitives between the rounded corners*
20,1,$1+$1,$2,$3,$4,$5,0*
20,1,$1+$1,$4,$5,$6,$7,0*
20,1,$1+$1,$6,$7,$8,$9,0*
20,1,$1+$1,$8,$9,$2,$3,0*%
%AMFreePoly0*
4,1,60,0.301896,0.185218,0.490253,0.107198,0.659769,-0.006069,0.803931,-0.150231,0.917198,-0.319747,0.995218,-0.508104,1.034992,-0.708062,1.034992,-0.911938,0.995218,-1.111896,0.917198,-1.300253,0.803931,-1.469769,0.659769,-1.613931,0.490253,-1.727198,0.301896,-1.805218,0.101938,-1.844992,-0.101938,-1.844992,-0.301896,-1.805218,-0.490253,-1.727198,-0.659769,-1.613931,-0.803931,-1.469769,
-0.917198,-1.300253,-0.995218,-1.111896,-1.034992,-0.911938,-1.034992,-0.733642,-0.580000,-0.733642,-0.580000,-0.886358,-0.540474,-1.033872,-0.464116,-1.166128,-0.356128,-1.274116,-0.223872,-1.350474,-0.076358,-1.390000,0.076358,-1.390000,0.223872,-1.350474,0.356128,-1.274116,0.464116,-1.166128,0.540474,-1.033872,0.580000,-0.886358,0.580000,-0.733642,0.540474,-0.586128,0.464116,-0.453872,
0.356128,-0.345884,0.223872,-0.269526,0.076358,-0.230000,-0.076358,-0.230000,-0.223872,-0.269526,-0.356128,-0.345884,-0.464116,-0.453872,-0.540474,-0.586128,-0.580000,-0.733642,-1.034992,-0.733642,-1.034992,-0.708062,-0.995218,-0.508104,-0.917198,-0.319747,-0.803931,-0.150231,-0.659769,-0.006069,-0.490253,0.107198,-0.301896,0.185218,-0.101938,0.224992,0.101938,0.224992,0.301896,0.185218,
0.301896,0.185218,$1*%
G04 Aperture macros list end*
%TA.AperFunction,SMDPad,CuDef*%
%ADD10RoundRect,0.140000X0.140000X0.170000X-0.140000X0.170000X-0.140000X-0.170000X0.140000X-0.170000X0*%
%TD*%
%TA.AperFunction,SMDPad,CuDef*%
%ADD11R,0.450000X0.700000*%
%TD*%
%TA.AperFunction,SMDPad,CuDef*%
%ADD12FreePoly0,0.000000*%
%TD*%
%TA.AperFunction,SMDPad,CuDef*%
%ADD13R,1.140000X0.200000*%
%TD*%
%TA.AperFunction,SMDPad,CuDef*%
%ADD14RoundRect,0.140000X0.170000X-0.140000X0.170000X0.140000X-0.170000X0.140000X-0.170000X-0.140000X0*%
%TD*%
%TA.AperFunction,SMDPad,CuDef*%
%ADD15RoundRect,0.135000X-0.135000X-0.185000X0.135000X-0.185000X0.135000X0.185000X-0.135000X0.185000X0*%
%TD*%
%TA.AperFunction,SMDPad,CuDef*%
%ADD16RoundRect,0.140000X-0.140000X-0.170000X0.140000X-0.170000X0.140000X0.170000X-0.140000X0.170000X0*%
%TD*%
%TA.AperFunction,SMDPad,CuDef*%
%ADD17RoundRect,0.135000X0.135000X0.185000X-0.135000X0.185000X-0.135000X-0.185000X0.135000X-0.185000X0*%
%TD*%
%TA.AperFunction,ViaPad*%
%ADD18C,0.800000*%
%TD*%
%TA.AperFunction,Conductor*%
%ADD19C,0.250000*%
%TD*%
%TA.AperFunction,Conductor*%
%ADD20C,0.200000*%
%TD*%
G04 APERTURE END LIST*
D10*
%TO.P,C8,1*%
%TO.N,+3V3R*%
X381960000Y-148500000D03*
%TO.P,C8,2*%
%TO.N,GNDR*%
X381000000Y-148500000D03*
%TD*%
%TO.P,C7,1*%
%TO.N,+3V3L*%
X269480000Y-128000000D03*
%TO.P,C7,2*%
%TO.N,GNDL*%
X268520000Y-128000000D03*
%TD*%
D11*
%TO.P,MK5,1,DATA*%
%TO.N,Net-(MK5-DATA)*%
X173120000Y-126650000D03*
%TO.P,MK5,2,VDD*%
%TO.N,+3V3L*%
X173820000Y-126650000D03*
%TO.P,MK5,3,CLOCK*%
%TO.N,/MIC_CLK*%
X173120000Y-128350000D03*
%TO.P,MK5,4,SELECT*%
%TO.N,+3V3L*%
X173820000Y-128350000D03*
D12*
%TO.P,MK5,5,GND*%
%TO.N,GNDL*%
X175300000Y-126690000D03*
%TD*%
D13*
%TO.P,J2,1,1*%
%TO.N,+3V3L*%
X161000000Y-128300000D03*
%TO.P,J2,2,2*%
%TO.N,unconnected-(J2-Pad2)*%
X163640000Y-128300000D03*
%TO.P,J2,3,3*%
%TO.N,unconnected-(J2-Pad3)*%
X161000000Y-127900000D03*
%TO.P,J2,4,4*%
%TO.N,/MIC_CLK*%
X163640000Y-127900000D03*
%TO.P,J2,5,5*%
%TO.N,unconnected-(J2-Pad5)*%
X161000000Y-127500000D03*
%TO.P,J2,6,6*%
%TO.N,unconnected-(J2-Pad6)*%
X163640000Y-127500000D03*
%TO.P,J2,7,7*%
%TO.N,unconnected-(J2-Pad7)*%
X161000000Y-127100000D03*
%TO.P,J2,8,8*%
%TO.N,/MIC_DOUT_2*%
X163640000Y-127100000D03*
%TO.P,J2,9,9*%
%TO.N,unconnected-(J2-Pad9)*%
X161000000Y-126700000D03*
%TO.P,J2,10,10*%
%TO.N,GNDL*%
X163640000Y-126700000D03*
%TD*%
D14*
%TO.P,C4,1*%
%TO.N,GNDR*%
X339500000Y-187980000D03*
%TO.P,C4,2*%
%TO.N,+3V3R*%
X339500000Y-187020000D03*
%TD*%
D11*
%TO.P,MK3,1,DATA*%
%TO.N,Net-(MK3-DATA)*%
X241820000Y-146150000D03*
%TO.P,MK3,2,VDD*%
%TO.N,+3V3R*%
X242520000Y-146150000D03*
%TO.P,MK3,3,CLOCK*%
%TO.N,/MIC_CLK*%
X241820000Y-147850000D03*
%TO.P,MK3,4,SELECT*%
%TO.N,+3V3R*%
X242520000Y-147850000D03*
D12*
%TO.P,MK3,5,GND*%
%TO.N,GNDR*%
X244000000Y-146190000D03*
%TD*%
D11*
%TO.P,MK2,1,DATA*%
%TO.N,Net-(MK2-DATA)*%
X188420000Y-145957000D03*
%TO.P,MK2,2,VDD*%
%TO.N,+3V3R*%
X189120000Y-145957000D03*
%TO.P,MK2,3,CLOCK*%
%TO.N,/MIC_CLK*%
X188420000Y-147657000D03*
%TO.P,MK2,4,SELECT*%
%TO.N,GNDR*%
X189120000Y-147657000D03*
D12*
%TO.P,MK2,5,GND*%
X190600000Y-145997000D03*
%TD*%
D11*
%TO.P,MK6,1,DATA*%
%TO.N,Net-(MK6-DATA)*%
X274820000Y-126460000D03*
%TO.P,MK6,2,VDD*%
%TO.N,+3V3L*%
X275520000Y-126460000D03*
%TO.P,MK6,3,CLOCK*%
%TO.N,/MIC_CLK*%
X274820000Y-128160000D03*
%TO.P,MK6,4,SELECT*%
%TO.N,GNDL*%
X275520000Y-128160000D03*
D12*
%TO.P,MK6,5,GND*%
X277000000Y-126500000D03*
%TD*%
D15*
%TO.P,R1,1*%
%TO.N,Net-(MK1-DATA)*%
X92380000Y-146000000D03*
%TO.P,R1,2*%
%TO.N,/MIC_DOUT_0*%
X93400000Y-146000000D03*
%TD*%
D11*
%TO.P,MK1,1,DATA*%
%TO.N,Net-(MK1-DATA)*%
X86810000Y-145957000D03*
%TO.P,MK1,2,VDD*%
%TO.N,+3V3R*%
X87510000Y-145957000D03*
%TO.P,MK1,3,CLOCK*%
%TO.N,/MIC_CLK*%
X86810000Y-147657000D03*
%TO.P,MK1,4,SELECT*%
%TO.N,+3V3R*%
X87510000Y-147657000D03*
D12*
%TO.P,MK1,5,GND*%
%TO.N,GNDR*%
X88990000Y-145997000D03*
%TD*%
D16*
%TO.P,C1,1*%
%TO.N,GNDR*%
X84430000Y-146500000D03*
%TO.P,C1,2*%
%TO.N,+3V3R*%
X85390000Y-146500000D03*
%TD*%
%TO.P,C6,1*%
%TO.N,GNDL*%
X272020000Y-127000000D03*
%TO.P,C6,2*%
%TO.N,+3V3L*%
X272980000Y-127000000D03*
%TD*%
D11*
%TO.P,MK4,1,DATA*%
%TO.N,Net-(MK4-DATA)*%
X341320000Y-186425000D03*
%TO.P,MK4,2,VDD*%
%TO.N,+3V3R*%
X342020000Y-186425000D03*
%TO.P,MK4,3,CLOCK*%
%TO.N,/MIC_CLK*%
X341320000Y-188125000D03*
%TO.P,MK4,4,SELECT*%
%TO.N,GNDR*%
X342020000Y-188125000D03*
D12*
%TO.P,MK4,5,GND*%
X343500000Y-186465000D03*
%TD*%
D17*
%TO.P,R6,1*%
%TO.N,Net-(MK6-DATA)*%
X267510000Y-126500000D03*
%TO.P,R6,2*%
%TO.N,/MIC_DOUT_2*%
X266490000Y-126500000D03*
%TD*%
%TO.P,R2,1*%
%TO.N,Net-(MK2-DATA)*%
X186510000Y-146000000D03*
%TO.P,R2,2*%
%TO.N,/MIC_DOUT_0*%
X185490000Y-146000000D03*
%TD*%
D15*
%TO.P,R3,1*%
%TO.N,Net-(MK3-DATA)*%
X247990000Y-146000000D03*
%TO.P,R3,2*%
%TO.N,/MIC_DOUT_1*%
X249010000Y-146000000D03*
%TD*%
D16*
%TO.P,C2,1*%
%TO.N,GNDR*%
X185540000Y-147500000D03*
%TO.P,C2,2*%
%TO.N,+3V3R*%
X186500000Y-147500000D03*
%TD*%
D15*
%TO.P,R4,1*%
%TO.N,Net-(MK4-DATA)*%
X346990000Y-186500000D03*
%TO.P,R4,2*%
%TO.N,/MIC_DOUT_1*%
X348010000Y-186500000D03*
%TD*%
D16*
%TO.P,C5,1*%
%TO.N,GNDL*%
X170020000Y-127500000D03*
%TO.P,C5,2*%
%TO.N,+3V3L*%
X170980000Y-127500000D03*
%TD*%
D13*
%TO.P,J1,1,1*%
%TO.N,+3V3R*%
X385360000Y-147800000D03*
%TO.P,J1,2,2*%
%TO.N,unconnected-(J1-Pad2)*%
X388000000Y-147800000D03*
%TO.P,J1,3,3*%
%TO.N,unconnected-(J1-Pad3)*%
X385360000Y-147400000D03*
%TO.P,J1,4,4*%
%TO.N,unconnected-(J1-Pad4)*%
X388000000Y-147400000D03*
%TO.P,J1,5,5*%
%TO.N,/MIC_CLK*%
X385360000Y-147000000D03*
%TO.P,J1,6,6*%
%TO.N,unconnected-(J1-Pad6)*%
X388000000Y-147000000D03*
%TO.P,J1,7,7*%
%TO.N,/MIC_DOUT_1*%
X385360000Y-146600000D03*
%TO.P,J1,8,8*%
%TO.N,unconnected-(J1-Pad8)*%
X388000000Y-146600000D03*
%TO.P,J1,9,9*%
%TO.N,/MIC_DOUT_0*%
X385360000Y-146200000D03*
%TO.P,J1,10,10*%
%TO.N,GNDR*%
X388000000Y-146200000D03*
%TD*%
D16*
%TO.P,C3,1*%
%TO.N,GNDR*%
X239500000Y-146000000D03*
%TO.P,C3,2*%
%TO.N,+3V3R*%
X240460000Y-146000000D03*
%TD*%
D17*
%TO.P,R5,1*%
%TO.N,Net-(MK5-DATA)*%
X170020000Y-126500000D03*
%TO.P,R5,2*%
%TO.N,/MIC_DOUT_2*%
X169000000Y-126500000D03*
%TD*%
D18*
%TO.N,GNDR*%
X379500000Y-148000000D03*
X238500000Y-146500000D03*
X82890000Y-146500000D03*
X91390000Y-147500000D03*
X246500000Y-146500000D03*
X194000000Y-146500000D03*
X184000000Y-146500000D03*
X347500000Y-188000000D03*
X384000000Y-145000000D03*
X338500000Y-189000000D03*
%TO.N,+3V3R*%
X339500000Y-185500000D03*
X356000000Y-149000000D03*
X363500000Y-147500000D03*
X187500000Y-147000000D03*
X83890000Y-148500000D03*
X383000000Y-148000000D03*
X239500000Y-147500000D03*
X360000000Y-174000000D03*
X358000000Y-147500000D03*
%TO.N,/MIC_DOUT_1*%
X359000000Y-181000000D03*
X360500000Y-146500000D03*
%TO.N,+3V3L*%
X165000000Y-129500000D03*
X271500000Y-128000000D03*
X171500000Y-128500000D03*
%TO.N,GNDL*%
X270500000Y-127000000D03*
X178500000Y-128000000D03*
X279500000Y-125500000D03*
X166500000Y-127000000D03*
X169000000Y-128000000D03*
%TD*%
D19*
%TO.N,/MIC_CLK*%
X273480000Y-129500000D02*
X274820000Y-128160000D01*
X270500000Y-129500000D02*
X273480000Y-129500000D01*
X180500000Y-129000000D02*
X270000000Y-129000000D01*
X180000000Y-129500000D02*
X180500000Y-129000000D01*
X173500000Y-129500000D02*
X180000000Y-129500000D01*
X270000000Y-129000000D02*
X270500000Y-129500000D01*
%TO.N,GNDR*%
X380000000Y-148500000D02*
X379500000Y-148000000D01*
X381000000Y-148500000D02*
X380000000Y-148500000D01*
%TO.N,+3V3R*%
X382500000Y-148500000D02*
X383000000Y-148000000D01*
X381960000Y-148500000D02*
X382500000Y-148500000D01*
D20*
%TO.N,GNDL*%
X269507096Y-127000000D02*
X270500000Y-127000000D01*
X268520000Y-127987096D02*
X269507096Y-127000000D01*
D19*
X268520000Y-128000000D02*
X268520000Y-127987096D01*
%TO.N,+3V3L*%
X269480000Y-128000000D02*
X271500000Y-128000000D01*
%TO.N,GNDR*%
X343965000Y-186465000D02*
X343500000Y-186465000D01*
X239000000Y-146500000D02*
X239500000Y-146000000D01*
X238500000Y-146500000D02*
X239000000Y-146500000D01*
X246500000Y-146500000D02*
X246000000Y-146500000D01*
X342020000Y-187658984D02*
X342020000Y-188125000D01*
D20*
X339500000Y-187980000D02*
X339500000Y-188000000D01*
X82890000Y-146500000D02*
X84430000Y-146500000D01*
X185000000Y-147500000D02*
X184500000Y-147000000D01*
X339500000Y-188000000D02*
X338500000Y-189000000D01*
X184500000Y-147000000D02*
X184000000Y-146500000D01*
D19*
X345500000Y-188000000D02*
X343965000Y-186465000D01*
X384000000Y-145000000D02*
X386826000Y-145000000D01*
D20*
X190600000Y-145997000D02*
X190349340Y-145997000D01*
D19*
X89887000Y-145997000D02*
X88990000Y-145997000D01*
D20*
X192497000Y-145997000D02*
X193000000Y-146500000D01*
X185540000Y-147500000D02*
X185000000Y-147500000D01*
X193000000Y-146500000D02*
X194000000Y-146500000D01*
X190600000Y-145997000D02*
X192497000Y-145997000D01*
D19*
X386826000Y-145000000D02*
X388000000Y-146174000D01*
X347500000Y-188000000D02*
X345500000Y-188000000D01*
X91390000Y-147500000D02*
X89887000Y-145997000D01*
X246000000Y-146500000D02*
X245690000Y-146190000D01*
D20*
X190349340Y-145997000D02*
X189120000Y-147226340D01*
D19*
X343213984Y-186465000D02*
X342020000Y-187658984D01*
D20*
X189120000Y-147226340D02*
X189120000Y-147657000D01*
D19*
X245690000Y-146190000D02*
X244000000Y-146190000D01*
X343500000Y-186465000D02*
X343213984Y-186465000D01*
D20*
%TO.N,+3V3R*%
X356000000Y-149000000D02*
X358500000Y-149000000D01*
X187000000Y-147500000D02*
X186500000Y-147500000D01*
X242520000Y-146150000D02*
X242520000Y-146480000D01*
X358000000Y-147500000D02*
X363500000Y-147500000D01*
X240500000Y-147000000D02*
X240460000Y-146960000D01*
X189120000Y-145957000D02*
X189120000Y-146380000D01*
X239500000Y-147500000D02*
X240000000Y-147500000D01*
X242520000Y-147520000D02*
X242000000Y-147000000D01*
X187500000Y-147000000D02*
X187000000Y-147500000D01*
X359500000Y-150000000D02*
X360000000Y-150500000D01*
X360000000Y-150500000D02*
X360000000Y-174000000D01*
X189120000Y-146380000D02*
X188500000Y-147000000D01*
X87510000Y-146507000D02*
X87017000Y-147000000D01*
X188500000Y-147000000D02*
X187500000Y-147000000D01*
X87510000Y-145957000D02*
X87510000Y-146507000D01*
X339000000Y-186500000D02*
X339500000Y-187000000D01*
X339000000Y-186000000D02*
X339000000Y-186500000D01*
X383200000Y-147800000D02*
X385360000Y-147800000D01*
X85390000Y-147000000D02*
X83890000Y-148500000D01*
X87017000Y-147000000D02*
X85390000Y-147000000D01*
X358500000Y-149000000D02*
X359500000Y-150000000D01*
X85390000Y-147000000D02*
X85390000Y-146480000D01*
X341000000Y-187475000D02*
X340545000Y-187020000D01*
X339500000Y-187000000D02*
X339500000Y-187020000D01*
D19*
X340545000Y-187020000D02*
X339500000Y-187020000D01*
D20*
X242520000Y-146480000D02*
X242000000Y-147000000D01*
X341525000Y-187475000D02*
X341000000Y-187475000D01*
X339500000Y-185500000D02*
X339000000Y-186000000D01*
X240460000Y-146960000D02*
X240460000Y-146000000D01*
X342020000Y-186425000D02*
X342020000Y-186980000D01*
X87510000Y-145957000D02*
X87510000Y-147657000D01*
X242000000Y-147000000D02*
X240500000Y-147000000D01*
X342020000Y-186980000D02*
X341525000Y-187475000D01*
X240000000Y-147500000D02*
X240500000Y-147000000D01*
X242520000Y-147850000D02*
X242520000Y-147520000D01*
X383000000Y-148000000D02*
X383200000Y-147800000D01*
D19*
%TO.N,/MIC_DOUT_0*%
X236500000Y-147000000D02*
X238500000Y-145000000D01*
X252000000Y-145500000D02*
X383000000Y-145500000D01*
D20*
X185490000Y-146000000D02*
X184718000Y-146000000D01*
X383000000Y-145500000D02*
X383674000Y-146174000D01*
D19*
X93900000Y-146500000D02*
X180500000Y-146500000D01*
X180500000Y-146500000D02*
X181718000Y-145282000D01*
X181718000Y-145282000D02*
X184000000Y-145282000D01*
X251500000Y-145000000D02*
X252000000Y-145500000D01*
X238500000Y-145000000D02*
X251500000Y-145000000D01*
D20*
X383674000Y-146174000D02*
X385360000Y-146174000D01*
D19*
X197500000Y-147000000D02*
X236500000Y-147000000D01*
X195782000Y-145282000D02*
X197500000Y-147000000D01*
X184000000Y-145282000D02*
X195782000Y-145282000D01*
D20*
X184718000Y-146000000D02*
X184000000Y-145282000D01*
D19*
X93400000Y-146000000D02*
X93900000Y-146500000D01*
D20*
%TO.N,/MIC_DOUT_2*%
X169000000Y-126500000D02*
X167500000Y-128000000D01*
X266000000Y-126990000D02*
X266490000Y-126500000D01*
X165410000Y-128000000D02*
X165399000Y-128000000D01*
X179000000Y-125500000D02*
X180500000Y-127000000D01*
X180500000Y-127000000D02*
X188000000Y-127000000D01*
X169000000Y-126500000D02*
X169000000Y-126000000D01*
X163640000Y-127100000D02*
X164510000Y-127100000D01*
X165399000Y-128000000D02*
X164500000Y-127101000D01*
X169500000Y-125500000D02*
X179000000Y-125500000D01*
X164511000Y-127101000D02*
X164500000Y-127101000D01*
X165410000Y-128000000D02*
X167500000Y-128000000D01*
X169000000Y-126000000D02*
X169500000Y-125500000D01*
X266000000Y-127000000D02*
X266000000Y-126990000D01*
X164511000Y-127101000D02*
X165410000Y-128000000D01*
X188000000Y-127000000D02*
X266000000Y-127000000D01*
%TO.N,/MIC_DOUT_1*%
X383497546Y-146600000D02*
X383397545Y-146500000D01*
X250000000Y-146500000D02*
X257500000Y-146500000D01*
X359000000Y-185500000D02*
X358000000Y-186500000D01*
X257500000Y-146500000D02*
X357000000Y-146500000D01*
X383397545Y-146500000D02*
X383496546Y-146599000D01*
X249010000Y-146000000D02*
X249500000Y-146000000D01*
X385360000Y-146600000D02*
X383497546Y-146600000D01*
X359000000Y-181000000D02*
X359000000Y-185500000D01*
X358000000Y-186500000D02*
X348010000Y-186500000D01*
X357000000Y-146500000D02*
X360500000Y-146500000D01*
X249500000Y-146000000D02*
X250000000Y-146500000D01*
X360500000Y-146500000D02*
X383397545Y-146500000D01*
D19*
%TO.N,/MIC_CLK*%
X194000000Y-148000000D02*
X236000000Y-148000000D01*
X351500000Y-188000000D02*
X350000000Y-189500000D01*
X240000000Y-149000000D02*
X239500000Y-149000000D01*
X241820000Y-147850000D02*
X241150000Y-147850000D01*
D20*
X170500000Y-129500000D02*
X170000000Y-129000000D01*
D19*
X249500000Y-149000000D02*
X250500000Y-148000000D01*
X357500000Y-148500000D02*
X361500000Y-148500000D01*
X237000000Y-148000000D02*
X236000000Y-148000000D01*
X354500000Y-148000000D02*
X357000000Y-148000000D01*
D20*
X173120000Y-128350000D02*
X173120000Y-129120000D01*
D19*
X252000000Y-148000000D02*
X354500000Y-148000000D01*
X250500000Y-148000000D02*
X252000000Y-148000000D01*
D20*
X165000000Y-128500000D02*
X166000000Y-128500000D01*
D19*
X361000000Y-186000000D02*
X359000000Y-188000000D01*
D20*
X164400000Y-127900000D02*
X163640000Y-127900000D01*
X173500000Y-129500000D02*
X170500000Y-129500000D01*
D19*
X238000000Y-149000000D02*
X237000000Y-148000000D01*
X96520000Y-149000000D02*
X97955000Y-147565000D01*
D20*
X173120000Y-129120000D02*
X173500000Y-129500000D01*
D19*
X97955000Y-147565000D02*
X184065000Y-147565000D01*
D20*
X365500000Y-148000000D02*
X365000000Y-148500000D01*
D19*
X350000000Y-189500000D02*
X342500000Y-189500000D01*
D20*
X378500000Y-147000000D02*
X377500000Y-148000000D01*
X341320000Y-188820000D02*
X342000000Y-189500000D01*
X385360000Y-147000000D02*
X378500000Y-147000000D01*
D19*
X185500000Y-149000000D02*
X186500000Y-149000000D01*
X187843000Y-147657000D02*
X186500000Y-149000000D01*
X361500000Y-148500000D02*
X361000000Y-149000000D01*
X359000000Y-188000000D02*
X351500000Y-188000000D01*
D20*
X341320000Y-188125000D02*
X341320000Y-188820000D01*
D19*
X184065000Y-147565000D02*
X185500000Y-149000000D01*
X86810000Y-147657000D02*
X86810000Y-148257000D01*
X361000000Y-149000000D02*
X361000000Y-155500000D01*
X87553000Y-149000000D02*
X96520000Y-149000000D01*
X249500000Y-149000000D02*
X240000000Y-149000000D01*
X193000000Y-149000000D02*
X194000000Y-148000000D01*
D20*
X166500000Y-129000000D02*
X166000000Y-128500000D01*
D19*
X357000000Y-148000000D02*
X357500000Y-148500000D01*
X239500000Y-149000000D02*
X238000000Y-149000000D01*
D20*
X170000000Y-129000000D02*
X166500000Y-129000000D01*
D19*
X241150000Y-147850000D02*
X240000000Y-149000000D01*
D20*
X377500000Y-148000000D02*
X365500000Y-148000000D01*
X365000000Y-148500000D02*
X361500000Y-148500000D01*
D19*
X186500000Y-149000000D02*
X193000000Y-149000000D01*
X188420000Y-147657000D02*
X187843000Y-147657000D01*
X361000000Y-155500000D02*
X361000000Y-186000000D01*
D20*
X164400000Y-127900000D02*
X165000000Y-128500000D01*
D19*
X342500000Y-189500000D02*
X342000000Y-189500000D01*
X86810000Y-148257000D02*
X87553000Y-149000000D01*
%TO.N,Net-(MK1-DATA)*%
X86810000Y-145957000D02*
X86810000Y-145580000D01*
X91890000Y-146000000D02*
X90890000Y-145000000D01*
X92380000Y-146000000D02*
X91890000Y-146000000D01*
X92380000Y-146000000D02*
X92390000Y-146000000D01*
X86810000Y-145580000D02*
X87390000Y-145000000D01*
X87390000Y-145000000D02*
X90890000Y-145000000D01*
D20*
%TO.N,Net-(MK2-DATA)*%
X186510000Y-146000000D02*
X186553000Y-145957000D01*
D19*
X188420000Y-145957000D02*
X186553000Y-145957000D01*
%TO.N,Net-(MK3-DATA)*%
X241820000Y-146150000D02*
X241820000Y-145680000D01*
X242025000Y-145475000D02*
X247465000Y-145475000D01*
X241820000Y-145680000D02*
X242025000Y-145475000D01*
X247465000Y-145475000D02*
X247990000Y-146000000D01*
D20*
%TO.N,Net-(MK4-DATA)*%
X341695000Y-185500000D02*
X345990000Y-185500000D01*
X341320000Y-185875000D02*
X341695000Y-185500000D01*
X341320000Y-186425000D02*
X341320000Y-185875000D01*
X345990000Y-185500000D02*
X346990000Y-186500000D01*
%TO.N,Net-(MK5-DATA)*%
X170020000Y-126500000D02*
X171500000Y-126500000D01*
X171500000Y-126500000D02*
X172970000Y-126500000D01*
X172970000Y-126500000D02*
X173120000Y-126650000D01*
%TO.N,Net-(MK6-DATA)*%
X267510000Y-126500000D02*
X269500000Y-126500000D01*
X270000000Y-126000000D02*
X274360000Y-126000000D01*
X269500000Y-126500000D02*
X270000000Y-126000000D01*
X274360000Y-126000000D02*
X274820000Y-126460000D01*
%TO.N,+3V3L*%
X274965000Y-127490000D02*
X274000000Y-127490000D01*
X170980000Y-127500000D02*
X170980000Y-127980000D01*
X275520000Y-126460000D02*
X275520000Y-126935000D01*
X275520000Y-126935000D02*
X274965000Y-127490000D01*
X173520000Y-127500000D02*
X173820000Y-127800000D01*
X273490000Y-128000000D02*
X274000000Y-127490000D01*
X173820000Y-127800000D02*
X173820000Y-128350000D01*
X273510000Y-127000000D02*
X274000000Y-127490000D01*
X170980000Y-127500000D02*
X173520000Y-127500000D01*
X161800000Y-128300000D02*
X163000000Y-129500000D01*
X161000000Y-128300000D02*
X161800000Y-128300000D01*
X163000000Y-129500000D02*
X165000000Y-129500000D01*
X272980000Y-127000000D02*
X273510000Y-127000000D01*
X170980000Y-127980000D02*
X171500000Y-128500000D01*
X271500000Y-128000000D02*
X273490000Y-128000000D01*
X173820000Y-128350000D02*
X173820000Y-126650000D01*
%TO.N,GNDL*%
X166500000Y-127000000D02*
X166175000Y-126675000D01*
D19*
X275520000Y-128160000D02*
X275520000Y-127560000D01*
X275520000Y-127560000D02*
X276560000Y-126520000D01*
X279000000Y-126520000D02*
X278000000Y-126520000D01*
X277020000Y-126520000D02*
X277000000Y-126500000D01*
X177190000Y-126690000D02*
X175300000Y-126690000D01*
X278000000Y-126520000D02*
X277020000Y-126520000D01*
X279500000Y-126020000D02*
X279000000Y-126520000D01*
X270500000Y-127000000D02*
X272020000Y-127000000D01*
X276560000Y-126520000D02*
X278000000Y-126520000D01*
X279500000Y-125500000D02*
X279500000Y-126020000D01*
D20*
X163640000Y-126700000D02*
X166200000Y-126700000D01*
X166200000Y-126700000D02*
X166500000Y-127000000D01*
X169500000Y-127500000D02*
X169000000Y-128000000D01*
D19*
X178500000Y-128000000D02*
X177190000Y-126690000D01*
D20*
X170020000Y-127500000D02*
X169500000Y-127500000D01*
%TD*%
M02*
