M48
; DRILL file {KiCad 9.0.2} date 2025-06-27T15:40:24+0200
; FORMAT={-:-/ absolute / metric / decimal}
; #@! TF.CreationDate,2025-06-27T15:40:24+02:00
; #@! TF.GenerationSoftware,Kicad,Pcbnew,9.0.2
; #@! TF.FileFunction,Plated,1,2,PTH
FMAT,2
METRIC
; #@! TA.AperFunction,Plated,PTH,ViaDrill
T1C0.400
%
G90
G05
T1
X82.89Y-146.5
X83.89Y-148.5
X91.39Y-147.5
X165.0Y-129.5
X166.5Y-127.0
X169.0Y-128.0
X171.5Y-128.5
X178.5Y-128.0
X184.0Y-146.5
X187.5Y-147.0
X194.0Y-146.5
X238.5Y-146.5
X239.5Y-147.5
X246.5Y-146.5
X270.5Y-127.0
X271.5Y-128.0
X279.5Y-125.5
X338.5Y-189.0
X339.5Y-185.5
X347.5Y-188.0
X356.0Y-149.0
X358.0Y-147.5
X359.0Y-181.0
X360.0Y-174.0
X360.5Y-146.5
X363.5Y-147.5
X379.5Y-148.0
X383.0Y-148.0
X384.0Y-145.0
M30
