%TF.GenerationSoftware,KiCad,Pcbnew,9.0.2*%
%TF.CreationDate,2025-06-27T15:40:28+02:00*%
%TF.ProjectId,flex_mems,666c6578-5f6d-4656-9d73-2e6b69636164,rev?*%
%TF.SameCoordinates,Original*%
%TF.FileFunction,Paste,Top*%
%TF.FilePolarity,Positive*%
%FSLAX46Y46*%
G04 Gerber Fmt 4.6, Leading zero omitted, Abs format (unit mm)*
G04 Created by KiCad (PCBNEW 9.0.2) date 2025-06-27 15:40:28*
%MOMM*%
%LPD*%
G01*
G04 APERTURE LIST*
G04 Aperture macros list*
%AMRoundRect*
0 Rectangle with rounded corners*
0 $1 Rounding radius*
0 $2 $3 $4 $5 $6 $7 $8 $9 X,Y pos of 4 corners*
0 Add a 4 corners polygon primitive as box body*
4,1,4,$2,$3,$4,$5,$6,$7,$8,$9,$2,$3,0*
0 Add four circle primitives for the rounded corners*
1,1,$1+$1,$2,$3*
1,1,$1+$1,$4,$5*
1,1,$1+$1,$6,$7*
1,1,$1+$1,$8,$9*
0 Add four rect primitives between the rounded corners*
20,1,$1+$1,$2,$3,$4,$5,0*
20,1,$1+$1,$4,$5,$6,$7,0*
20,1,$1+$1,$6,$7,$8,$9,0*
20,1,$1+$1,$8,$9,$2,$3,0*%
%AMFreePoly0*
4,1,19,0.076537,0.434776,0.141421,0.391421,0.184776,0.326537,0.200000,0.250000,0.200000,0.000000,0.184776,-0.076537,0.141421,-0.141421,0.076537,-0.184776,0.000000,-0.200000,-0.076537,-0.184776,-0.141421,-0.141421,-0.184776,-0.076537,-0.200000,0.000000,-0.200000,0.250000,-0.184776,0.326537,-0.141421,0.391421,-0.076537,0.434776,0.000000,0.450000,0.076537,0.434776,0.076537,0.434776,
$1*%
%AMFreePoly1*
4,1,19,0.076537,0.184776,0.141421,0.141421,0.184776,0.076537,0.200000,0.000000,0.200000,-0.250000,0.184776,-0.326537,0.141421,-0.391421,0.076537,-0.434776,0.000000,-0.450000,-0.076537,-0.434776,-0.141421,-0.391421,-0.184776,-0.326537,-0.200000,-0.250000,-0.200000,0.000000,-0.184776,0.076537,-0.141421,0.141421,-0.076537,0.184776,0.000000,0.200000,0.076537,0.184776,0.076537,0.184776,
$1*%
%AMFreePoly2*
4,1,22,0.057542,0.358826,0.129370,0.328325,0.184059,0.272658,0.213282,0.200300,0.212590,0.122267,0.200000,0.000000,0.212590,-0.122267,0.213282,-0.200300,0.184059,-0.272658,0.129370,-0.328325,0.057542,-0.358826,-0.020491,-0.359518,-0.092849,-0.330295,-0.148516,-0.275607,-0.179017,-0.203778,-0.197661,-0.068352,-0.197661,0.068352,-0.179017,0.203778,-0.148516,0.275607,-0.092849,0.330295,
-0.020491,0.359518,0.057542,0.358826,0.057542,0.358826,$1*%
%AMFreePoly3*
4,1,22,0.239619,0.245557,0.301106,0.197505,0.339523,0.129580,0.349023,0.052124,0.328158,-0.023071,0.280106,-0.084557,0.212181,-0.122975,0.100000,-0.173205,0.000409,-0.245242,-0.066824,-0.284857,-0.144099,-0.295729,-0.219652,-0.276200,-0.281981,-0.229246,-0.321597,-0.162013,-0.332468,-0.084738,-0.312940,-0.009185,-0.265986,0.053144,-0.158025,0.137004,-0.039636,0.205356,0.086969,0.256922,
0.164424,0.266422,0.239619,0.245557,0.239619,0.245557,$1*%
%AMFreePoly4*
4,1,22,-0.066846,0.284852,0.000389,0.245242,0.099986,0.173213,0.212171,0.122991,0.280099,0.084579,0.328156,0.023096,0.349027,-0.052097,0.339534,-0.129554,0.301122,-0.197481,0.239639,-0.245538,0.164445,-0.266409,0.086989,-0.256916,-0.039620,-0.205359,-0.158014,-0.137016,-0.265981,-0.053165,-0.312941,0.009160,-0.332475,0.084712,-0.321610,0.161988,-0.281999,0.229224,-0.219674,0.276183,
-0.144122,0.295717,-0.066846,0.284852,-0.066846,0.284852,$1*%
%AMFreePoly5*
4,1,22,-0.086969,0.256922,0.039636,0.205356,0.158025,0.137004,0.265986,0.053144,0.312940,-0.009185,0.332468,-0.084738,0.321597,-0.162013,0.281981,-0.229246,0.219652,-0.276200,0.144099,-0.295729,0.066824,-0.284857,-0.000409,-0.245242,-0.100000,-0.173205,-0.212181,-0.122975,-0.280106,-0.084557,-0.328158,-0.023071,-0.349023,0.052124,-0.339523,0.129580,-0.301106,0.197505,-0.239619,0.245557,
-0.164424,0.266422,-0.086969,0.256922,-0.086969,0.256922,$1*%
%AMFreePoly6*
4,1,22,0.219650,0.276202,0.281979,0.229248,0.321596,0.162016,0.332468,0.084741,0.312940,0.009187,0.265986,-0.053142,0.158026,-0.137002,0.039638,-0.205355,-0.086966,-0.256923,-0.164422,-0.266423,-0.239617,-0.245559,-0.301104,-0.197507,-0.339522,-0.129583,-0.349022,-0.052127,-0.328158,0.023068,-0.280106,0.084555,-0.212182,0.122973,-0.100002,0.173204,-0.000411,0.245242,0.066822,0.284858,
0.144097,0.295730,0.219650,0.276202,0.219650,0.276202,$1*%
%AMFreePoly7*
4,1,22,0.092849,0.330295,0.148516,0.275607,0.179017,0.203778,0.197661,0.068352,0.197661,-0.068352,0.179017,-0.203778,0.148516,-0.275607,0.092849,-0.330295,0.020491,-0.359518,-0.057542,-0.358826,-0.129370,-0.328325,-0.184059,-0.272658,-0.213282,-0.200300,-0.212590,-0.122267,-0.200000,0.000000,-0.212590,0.122267,-0.213282,0.200300,-0.184059,0.272658,-0.129370,0.328325,-0.057542,0.358826,
0.020491,0.359518,0.092849,0.330295,0.092849,0.330295,$1*%
G04 Aperture macros list end*
%ADD10C,0.010000*%
%ADD11RoundRect,0.140000X0.140000X0.170000X-0.140000X0.170000X-0.140000X-0.170000X0.140000X-0.170000X0*%
%ADD12FreePoly0,0.000000*%
%ADD13FreePoly1,0.000000*%
%ADD14FreePoly2,0.000000*%
%ADD15FreePoly3,0.000000*%
%ADD16FreePoly4,0.000000*%
%ADD17FreePoly5,0.000000*%
%ADD18FreePoly6,0.000000*%
%ADD19FreePoly7,0.000000*%
%ADD20RoundRect,0.140000X0.170000X-0.140000X0.170000X0.140000X-0.170000X0.140000X-0.170000X-0.140000X0*%
%ADD21RoundRect,0.135000X-0.135000X-0.185000X0.135000X-0.185000X0.135000X0.185000X-0.135000X0.185000X0*%
%ADD22RoundRect,0.140000X-0.140000X-0.170000X0.140000X-0.170000X0.140000X0.170000X-0.140000X0.170000X0*%
%ADD23RoundRect,0.135000X0.135000X0.185000X-0.135000X0.185000X-0.135000X-0.185000X0.135000X-0.185000X0*%
G04 APERTURE END LIST*
D10*
%TO.C,J2*%
X161093000Y-126789500D02*
X160467000Y-126789500D01*
X160467000Y-126610500D01*
X161093000Y-126610500D01*
X161093000Y-126789500D01*
G36*
X161093000Y-126789500D02*
G01*
X160467000Y-126789500D01*
X160467000Y-126610500D01*
X161093000Y-126610500D01*
X161093000Y-126789500D01*
G37*
X161093000Y-127189500D02*
X160467000Y-127189500D01*
X160467000Y-127010500D01*
X161093000Y-127010500D01*
X161093000Y-127189500D01*
G36*
X161093000Y-127189500D02*
G01*
X160467000Y-127189500D01*
X160467000Y-127010500D01*
X161093000Y-127010500D01*
X161093000Y-127189500D01*
G37*
X161093000Y-127589500D02*
X160467000Y-127589500D01*
X160467000Y-127410500D01*
X161093000Y-127410500D01*
X161093000Y-127589500D01*
G36*
X161093000Y-127589500D02*
G01*
X160467000Y-127589500D01*
X160467000Y-127410500D01*
X161093000Y-127410500D01*
X161093000Y-127589500D01*
G37*
X161093000Y-127989500D02*
X160467000Y-127989500D01*
X160467000Y-127810500D01*
X161093000Y-127810500D01*
X161093000Y-127989500D01*
G36*
X161093000Y-127989500D02*
G01*
X160467000Y-127989500D01*
X160467000Y-127810500D01*
X161093000Y-127810500D01*
X161093000Y-127989500D01*
G37*
X161093000Y-128389500D02*
X160467000Y-128389500D01*
X160467000Y-128210500D01*
X161093000Y-128210500D01*
X161093000Y-128389500D01*
G36*
X161093000Y-128389500D02*
G01*
X160467000Y-128389500D01*
X160467000Y-128210500D01*
X161093000Y-128210500D01*
X161093000Y-128389500D01*
G37*
X164173000Y-126789500D02*
X163547000Y-126789500D01*
X163547000Y-126610500D01*
X164173000Y-126610500D01*
X164173000Y-126789500D01*
G36*
X164173000Y-126789500D02*
G01*
X163547000Y-126789500D01*
X163547000Y-126610500D01*
X164173000Y-126610500D01*
X164173000Y-126789500D01*
G37*
X164173000Y-127189500D02*
X163547000Y-127189500D01*
X163547000Y-127010500D01*
X164173000Y-127010500D01*
X164173000Y-127189500D01*
G36*
X164173000Y-127189500D02*
G01*
X163547000Y-127189500D01*
X163547000Y-127010500D01*
X164173000Y-127010500D01*
X164173000Y-127189500D01*
G37*
X164173000Y-127589500D02*
X163547000Y-127589500D01*
X163547000Y-127410500D01*
X164173000Y-127410500D01*
X164173000Y-127589500D01*
G36*
X164173000Y-127589500D02*
G01*
X163547000Y-127589500D01*
X163547000Y-127410500D01*
X164173000Y-127410500D01*
X164173000Y-127589500D01*
G37*
X164173000Y-127989500D02*
X163547000Y-127989500D01*
X163547000Y-127810500D01*
X164173000Y-127810500D01*
X164173000Y-127989500D01*
G36*
X164173000Y-127989500D02*
G01*
X163547000Y-127989500D01*
X163547000Y-127810500D01*
X164173000Y-127810500D01*
X164173000Y-127989500D01*
G37*
X164173000Y-128389500D02*
X163547000Y-128389500D01*
X163547000Y-128210500D01*
X164173000Y-128210500D01*
X164173000Y-128389500D01*
G36*
X164173000Y-128389500D02*
G01*
X163547000Y-128389500D01*
X163547000Y-128210500D01*
X164173000Y-128210500D01*
X164173000Y-128389500D01*
G37*
%TO.C,J1*%
X385453000Y-146289500D02*
X384827000Y-146289500D01*
X384827000Y-146110500D01*
X385453000Y-146110500D01*
X385453000Y-146289500D01*
G36*
X385453000Y-146289500D02*
G01*
X384827000Y-146289500D01*
X384827000Y-146110500D01*
X385453000Y-146110500D01*
X385453000Y-146289500D01*
G37*
X385453000Y-146689500D02*
X384827000Y-146689500D01*
X384827000Y-146510500D01*
X385453000Y-146510500D01*
X385453000Y-146689500D01*
G36*
X385453000Y-146689500D02*
G01*
X384827000Y-146689500D01*
X384827000Y-146510500D01*
X385453000Y-146510500D01*
X385453000Y-146689500D01*
G37*
X385453000Y-147089500D02*
X384827000Y-147089500D01*
X384827000Y-146910500D01*
X385453000Y-146910500D01*
X385453000Y-147089500D01*
G36*
X385453000Y-147089500D02*
G01*
X384827000Y-147089500D01*
X384827000Y-146910500D01*
X385453000Y-146910500D01*
X385453000Y-147089500D01*
G37*
X385453000Y-147489500D02*
X384827000Y-147489500D01*
X384827000Y-147310500D01*
X385453000Y-147310500D01*
X385453000Y-147489500D01*
G36*
X385453000Y-147489500D02*
G01*
X384827000Y-147489500D01*
X384827000Y-147310500D01*
X385453000Y-147310500D01*
X385453000Y-147489500D01*
G37*
X385453000Y-147889500D02*
X384827000Y-147889500D01*
X384827000Y-147710500D01*
X385453000Y-147710500D01*
X385453000Y-147889500D01*
G36*
X385453000Y-147889500D02*
G01*
X384827000Y-147889500D01*
X384827000Y-147710500D01*
X385453000Y-147710500D01*
X385453000Y-147889500D01*
G37*
X388533000Y-146289500D02*
X387907000Y-146289500D01*
X387907000Y-146110500D01*
X388533000Y-146110500D01*
X388533000Y-146289500D01*
G36*
X388533000Y-146289500D02*
G01*
X387907000Y-146289500D01*
X387907000Y-146110500D01*
X388533000Y-146110500D01*
X388533000Y-146289500D01*
G37*
X388533000Y-146689500D02*
X387907000Y-146689500D01*
X387907000Y-146510500D01*
X388533000Y-146510500D01*
X388533000Y-146689500D01*
G36*
X388533000Y-146689500D02*
G01*
X387907000Y-146689500D01*
X387907000Y-146510500D01*
X388533000Y-146510500D01*
X388533000Y-146689500D01*
G37*
X388533000Y-147089500D02*
X387907000Y-147089500D01*
X387907000Y-146910500D01*
X388533000Y-146910500D01*
X388533000Y-147089500D01*
G36*
X388533000Y-147089500D02*
G01*
X387907000Y-147089500D01*
X387907000Y-146910500D01*
X388533000Y-146910500D01*
X388533000Y-147089500D01*
G37*
X388533000Y-147489500D02*
X387907000Y-147489500D01*
X387907000Y-147310500D01*
X388533000Y-147310500D01*
X388533000Y-147489500D01*
G36*
X388533000Y-147489500D02*
G01*
X387907000Y-147489500D01*
X387907000Y-147310500D01*
X388533000Y-147310500D01*
X388533000Y-147489500D01*
G37*
X388533000Y-147889500D02*
X387907000Y-147889500D01*
X387907000Y-147710500D01*
X388533000Y-147710500D01*
X388533000Y-147889500D01*
G36*
X388533000Y-147889500D02*
G01*
X387907000Y-147889500D01*
X387907000Y-147710500D01*
X388533000Y-147710500D01*
X388533000Y-147889500D01*
G37*
%TD*%
D11*
%TO.C,C8*%
X381960000Y-148500000D03*
X381000000Y-148500000D03*
%TD*%
%TO.C,C7*%
X269480000Y-128000000D03*
X268520000Y-128000000D03*
%TD*%
D12*
%TO.C,MK5*%
X173120000Y-126775000D03*
D13*
X173120000Y-128225000D03*
D12*
X173820000Y-126775000D03*
D13*
X173820000Y-128225000D03*
D14*
X174500000Y-127500000D03*
D15*
X174900000Y-126807000D03*
D16*
X174900000Y-128193000D03*
D17*
X175700000Y-126807000D03*
D18*
X175700000Y-128193000D03*
D19*
X176100000Y-127500000D03*
%TD*%
D20*
%TO.C,C4*%
X339500000Y-187980000D03*
X339500000Y-187020000D03*
%TD*%
D12*
%TO.C,MK3*%
X241820000Y-146275000D03*
D13*
X241820000Y-147725000D03*
D12*
X242520000Y-146275000D03*
D13*
X242520000Y-147725000D03*
D14*
X243200000Y-147000000D03*
D15*
X243600000Y-146307000D03*
D16*
X243600000Y-147693000D03*
D17*
X244400000Y-146307000D03*
D18*
X244400000Y-147693000D03*
D19*
X244800000Y-147000000D03*
%TD*%
D12*
%TO.C,MK2*%
X188420000Y-146082000D03*
D13*
X188420000Y-147532000D03*
D12*
X189120000Y-146082000D03*
D13*
X189120000Y-147532000D03*
D14*
X189800000Y-146807000D03*
D15*
X190200000Y-146114000D03*
D16*
X190200000Y-147500000D03*
D17*
X191000000Y-146114000D03*
D18*
X191000000Y-147500000D03*
D19*
X191400000Y-146807000D03*
%TD*%
D12*
%TO.C,MK6*%
X274820000Y-126585000D03*
D13*
X274820000Y-128035000D03*
D12*
X275520000Y-126585000D03*
D13*
X275520000Y-128035000D03*
D14*
X276200000Y-127310000D03*
D15*
X276600000Y-126617000D03*
D16*
X276600000Y-128003000D03*
D17*
X277400000Y-126617000D03*
D18*
X277400000Y-128003000D03*
D19*
X277800000Y-127310000D03*
%TD*%
D21*
%TO.C,R1*%
X92380000Y-146000000D03*
X93400000Y-146000000D03*
%TD*%
D12*
%TO.C,MK1*%
X86810000Y-146082000D03*
D13*
X86810000Y-147532000D03*
D12*
X87510000Y-146082000D03*
D13*
X87510000Y-147532000D03*
D14*
X88190000Y-146807000D03*
D15*
X88590000Y-146114000D03*
D16*
X88590000Y-147500000D03*
D17*
X89390000Y-146114000D03*
D18*
X89390000Y-147500000D03*
D19*
X89790000Y-146807000D03*
%TD*%
D22*
%TO.C,C1*%
X84430000Y-146500000D03*
X85390000Y-146500000D03*
%TD*%
%TO.C,C6*%
X272020000Y-127000000D03*
X272980000Y-127000000D03*
%TD*%
D12*
%TO.C,MK4*%
X341320000Y-186550000D03*
D13*
X341320000Y-188000000D03*
D12*
X342020000Y-186550000D03*
D13*
X342020000Y-188000000D03*
D14*
X342700000Y-187275000D03*
D15*
X343100000Y-186582000D03*
D16*
X343100000Y-187968000D03*
D17*
X343900000Y-186582000D03*
D18*
X343900000Y-187968000D03*
D19*
X344300000Y-187275000D03*
%TD*%
D23*
%TO.C,R6*%
X267510000Y-126500000D03*
X266490000Y-126500000D03*
%TD*%
%TO.C,R2*%
X186510000Y-146000000D03*
X185490000Y-146000000D03*
%TD*%
D21*
%TO.C,R3*%
X247990000Y-146000000D03*
X249010000Y-146000000D03*
%TD*%
D22*
%TO.C,C2*%
X185540000Y-147500000D03*
X186500000Y-147500000D03*
%TD*%
D21*
%TO.C,R4*%
X346990000Y-186500000D03*
X348010000Y-186500000D03*
%TD*%
D22*
%TO.C,C5*%
X170020000Y-127500000D03*
X170980000Y-127500000D03*
%TD*%
%TO.C,C3*%
X239500000Y-146000000D03*
X240460000Y-146000000D03*
%TD*%
D23*
%TO.C,R5*%
X170020000Y-126500000D03*
X169000000Y-126500000D03*
%TD*%
M02*
