%TF.GenerationSoftware,KiCad,Pcbnew,9.0.2*%
%TF.CreationDate,2025-06-27T15:40:28+02:00*%
%TF.ProjectId,flex_mems,666c6578-5f6d-4656-9d73-2e6b69636164,rev?*%
%TF.SameCoordinates,Original*%
%TF.FileFunction,Soldermask,Top*%
%TF.FilePolarity,Negative*%
%FSLAX46Y46*%
G04 Gerber Fmt 4.6, Leading zero omitted, Abs format (unit mm)*
G04 Created by KiCad (PCBNEW 9.0.2) date 2025-06-27 15:40:28*
%MOMM*%
%LPD*%
G01*
G04 APERTURE LIST*
G04 Aperture macros list*
%AMRoundRect*
0 Rectangle with rounded corners*
0 $1 Rounding radius*
0 $2 $3 $4 $5 $6 $7 $8 $9 X,Y pos of 4 corners*
0 Add a 4 corners polygon primitive as box body*
4,1,4,$2,$3,$4,$5,$6,$7,$8,$9,$2,$3,0*
0 Add four circle primitives for the rounded corners*
1,1,$1+$1,$2,$3*
1,1,$1+$1,$4,$5*
1,1,$1+$1,$6,$7*
1,1,$1+$1,$8,$9*
0 Add four rect primitives between the rounded corners*
20,1,$1+$1,$2,$3,$4,$5,0*
20,1,$1+$1,$4,$5,$6,$7,0*
20,1,$1+$1,$6,$7,$8,$9,0*
20,1,$1+$1,$8,$9,$2,$3,0*%
%AMFreePoly0*
4,1,60,0.301896,0.185218,0.490253,0.107198,0.659769,-0.006069,0.803931,-0.150231,0.917198,-0.319747,0.995218,-0.508104,1.034992,-0.708062,1.034992,-0.911938,0.995218,-1.111896,0.917198,-1.300253,0.803931,-1.469769,0.659769,-1.613931,0.490253,-1.727198,0.301896,-1.805218,0.101938,-1.844992,-0.101938,-1.844992,-0.301896,-1.805218,-0.490253,-1.727198,-0.659769,-1.613931,-0.803931,-1.469769,
-0.917198,-1.300253,-0.995218,-1.111896,-1.034992,-0.911938,-1.034992,-0.733642,-0.580000,-0.733642,-0.580000,-0.886358,-0.540474,-1.033872,-0.464116,-1.166128,-0.356128,-1.274116,-0.223872,-1.350474,-0.076358,-1.390000,0.076358,-1.390000,0.223872,-1.350474,0.356128,-1.274116,0.464116,-1.166128,0.540474,-1.033872,0.580000,-0.886358,0.580000,-0.733642,0.540474,-0.586128,0.464116,-0.453872,
0.356128,-0.345884,0.223872,-0.269526,0.076358,-0.230000,-0.076358,-0.230000,-0.223872,-0.269526,-0.356128,-0.345884,-0.464116,-0.453872,-0.540474,-0.586128,-0.580000,-0.733642,-1.034992,-0.733642,-1.034992,-0.708062,-0.995218,-0.508104,-0.917198,-0.319747,-0.803931,-0.150231,-0.659769,-0.006069,-0.490253,0.107198,-0.301896,0.185218,-0.101938,0.224992,0.101938,0.224992,0.301896,0.185218,
0.301896,0.185218,$1*%
G04 Aperture macros list end*
%ADD10C,0.010000*%
%ADD11RoundRect,0.140000X0.140000X0.170000X-0.140000X0.170000X-0.140000X-0.170000X0.140000X-0.170000X0*%
%ADD12C,0.800000*%
%ADD13R,0.450000X0.700000*%
%ADD14FreePoly0,0.000000*%
%ADD15RoundRect,0.140000X0.170000X-0.140000X0.170000X0.140000X-0.170000X0.140000X-0.170000X-0.140000X0*%
%ADD16RoundRect,0.135000X-0.135000X-0.185000X0.135000X-0.185000X0.135000X0.185000X-0.135000X0.185000X0*%
%ADD17RoundRect,0.140000X-0.140000X-0.170000X0.140000X-0.170000X0.140000X0.170000X-0.140000X0.170000X0*%
%ADD18RoundRect,0.135000X0.135000X0.185000X-0.135000X0.185000X-0.135000X-0.185000X0.135000X-0.185000X0*%
G04 APERTURE END LIST*
D10*
%TO.C,J2*%
X161130000Y-126850000D02*
X160380000Y-126850000D01*
X160380000Y-126550000D01*
X161130000Y-126550000D01*
X161130000Y-126850000D01*
G36*
X161130000Y-126850000D02*
G01*
X160380000Y-126850000D01*
X160380000Y-126550000D01*
X161130000Y-126550000D01*
X161130000Y-126850000D01*
G37*
X161130000Y-127250000D02*
X160380000Y-127250000D01*
X160380000Y-126950000D01*
X161130000Y-126950000D01*
X161130000Y-127250000D01*
G36*
X161130000Y-127250000D02*
G01*
X160380000Y-127250000D01*
X160380000Y-126950000D01*
X161130000Y-126950000D01*
X161130000Y-127250000D01*
G37*
X161130000Y-127650000D02*
X160380000Y-127650000D01*
X160380000Y-127350000D01*
X161130000Y-127350000D01*
X161130000Y-127650000D01*
G36*
X161130000Y-127650000D02*
G01*
X160380000Y-127650000D01*
X160380000Y-127350000D01*
X161130000Y-127350000D01*
X161130000Y-127650000D01*
G37*
X161130000Y-128050000D02*
X160380000Y-128050000D01*
X160380000Y-127750000D01*
X161130000Y-127750000D01*
X161130000Y-128050000D01*
G36*
X161130000Y-128050000D02*
G01*
X160380000Y-128050000D01*
X160380000Y-127750000D01*
X161130000Y-127750000D01*
X161130000Y-128050000D01*
G37*
X161130000Y-128450000D02*
X160380000Y-128450000D01*
X160380000Y-128150000D01*
X161130000Y-128150000D01*
X161130000Y-128450000D01*
G36*
X161130000Y-128450000D02*
G01*
X160380000Y-128450000D01*
X160380000Y-128150000D01*
X161130000Y-128150000D01*
X161130000Y-128450000D01*
G37*
X164260000Y-126850000D02*
X163510000Y-126850000D01*
X163510000Y-126550000D01*
X164260000Y-126550000D01*
X164260000Y-126850000D01*
G36*
X164260000Y-126850000D02*
G01*
X163510000Y-126850000D01*
X163510000Y-126550000D01*
X164260000Y-126550000D01*
X164260000Y-126850000D01*
G37*
X164260000Y-127250000D02*
X163510000Y-127250000D01*
X163510000Y-126950000D01*
X164260000Y-126950000D01*
X164260000Y-127250000D01*
G36*
X164260000Y-127250000D02*
G01*
X163510000Y-127250000D01*
X163510000Y-126950000D01*
X164260000Y-126950000D01*
X164260000Y-127250000D01*
G37*
X164260000Y-127650000D02*
X163510000Y-127650000D01*
X163510000Y-127350000D01*
X164260000Y-127350000D01*
X164260000Y-127650000D01*
G36*
X164260000Y-127650000D02*
G01*
X163510000Y-127650000D01*
X163510000Y-127350000D01*
X164260000Y-127350000D01*
X164260000Y-127650000D01*
G37*
X164260000Y-128050000D02*
X163510000Y-128050000D01*
X163510000Y-127750000D01*
X164260000Y-127750000D01*
X164260000Y-128050000D01*
G36*
X164260000Y-128050000D02*
G01*
X163510000Y-128050000D01*
X163510000Y-127750000D01*
X164260000Y-127750000D01*
X164260000Y-128050000D01*
G37*
X164260000Y-128450000D02*
X163510000Y-128450000D01*
X163510000Y-128150000D01*
X164260000Y-128150000D01*
X164260000Y-128450000D01*
G36*
X164260000Y-128450000D02*
G01*
X163510000Y-128450000D01*
X163510000Y-128150000D01*
X164260000Y-128150000D01*
X164260000Y-128450000D01*
G37*
%TO.C,J1*%
X385490000Y-146350000D02*
X384740000Y-146350000D01*
X384740000Y-146050000D01*
X385490000Y-146050000D01*
X385490000Y-146350000D01*
G36*
X385490000Y-146350000D02*
G01*
X384740000Y-146350000D01*
X384740000Y-146050000D01*
X385490000Y-146050000D01*
X385490000Y-146350000D01*
G37*
X385490000Y-146750000D02*
X384740000Y-146750000D01*
X384740000Y-146450000D01*
X385490000Y-146450000D01*
X385490000Y-146750000D01*
G36*
X385490000Y-146750000D02*
G01*
X384740000Y-146750000D01*
X384740000Y-146450000D01*
X385490000Y-146450000D01*
X385490000Y-146750000D01*
G37*
X385490000Y-147150000D02*
X384740000Y-147150000D01*
X384740000Y-146850000D01*
X385490000Y-146850000D01*
X385490000Y-147150000D01*
G36*
X385490000Y-147150000D02*
G01*
X384740000Y-147150000D01*
X384740000Y-146850000D01*
X385490000Y-146850000D01*
X385490000Y-147150000D01*
G37*
X385490000Y-147550000D02*
X384740000Y-147550000D01*
X384740000Y-147250000D01*
X385490000Y-147250000D01*
X385490000Y-147550000D01*
G36*
X385490000Y-147550000D02*
G01*
X384740000Y-147550000D01*
X384740000Y-147250000D01*
X385490000Y-147250000D01*
X385490000Y-147550000D01*
G37*
X385490000Y-147950000D02*
X384740000Y-147950000D01*
X384740000Y-147650000D01*
X385490000Y-147650000D01*
X385490000Y-147950000D01*
G36*
X385490000Y-147950000D02*
G01*
X384740000Y-147950000D01*
X384740000Y-147650000D01*
X385490000Y-147650000D01*
X385490000Y-147950000D01*
G37*
X388620000Y-146350000D02*
X387870000Y-146350000D01*
X387870000Y-146050000D01*
X388620000Y-146050000D01*
X388620000Y-146350000D01*
G36*
X388620000Y-146350000D02*
G01*
X387870000Y-146350000D01*
X387870000Y-146050000D01*
X388620000Y-146050000D01*
X388620000Y-146350000D01*
G37*
X388620000Y-146750000D02*
X387870000Y-146750000D01*
X387870000Y-146450000D01*
X388620000Y-146450000D01*
X388620000Y-146750000D01*
G36*
X388620000Y-146750000D02*
G01*
X387870000Y-146750000D01*
X387870000Y-146450000D01*
X388620000Y-146450000D01*
X388620000Y-146750000D01*
G37*
X388620000Y-147150000D02*
X387870000Y-147150000D01*
X387870000Y-146850000D01*
X388620000Y-146850000D01*
X388620000Y-147150000D01*
G36*
X388620000Y-147150000D02*
G01*
X387870000Y-147150000D01*
X387870000Y-146850000D01*
X388620000Y-146850000D01*
X388620000Y-147150000D01*
G37*
X388620000Y-147550000D02*
X387870000Y-147550000D01*
X387870000Y-147250000D01*
X388620000Y-147250000D01*
X388620000Y-147550000D01*
G36*
X388620000Y-147550000D02*
G01*
X387870000Y-147550000D01*
X387870000Y-147250000D01*
X388620000Y-147250000D01*
X388620000Y-147550000D01*
G37*
X388620000Y-147950000D02*
X387870000Y-147950000D01*
X387870000Y-147650000D01*
X388620000Y-147650000D01*
X388620000Y-147950000D01*
G36*
X388620000Y-147950000D02*
G01*
X387870000Y-147950000D01*
X387870000Y-147650000D01*
X388620000Y-147650000D01*
X388620000Y-147950000D01*
G37*
%TD*%
D11*
%TO.C,C8*%
X381960000Y-148500000D03*
X381000000Y-148500000D03*
%TD*%
%TO.C,C7*%
X269480000Y-128000000D03*
X268520000Y-128000000D03*
%TD*%
D12*
%TO.C,MK5*%
X175300000Y-127500000D03*
D13*
X173120000Y-126650000D03*
X173820000Y-126650000D03*
X173120000Y-128350000D03*
X173820000Y-128350000D03*
D14*
X175300000Y-126690000D03*
%TD*%
D15*
%TO.C,C4*%
X339500000Y-187980000D03*
X339500000Y-187020000D03*
%TD*%
D12*
%TO.C,MK3*%
X244000000Y-147000000D03*
D13*
X241820000Y-146150000D03*
X242520000Y-146150000D03*
X241820000Y-147850000D03*
X242520000Y-147850000D03*
D14*
X244000000Y-146190000D03*
%TD*%
D12*
%TO.C,MK2*%
X190600000Y-146807000D03*
D13*
X188420000Y-145957000D03*
X189120000Y-145957000D03*
X188420000Y-147657000D03*
X189120000Y-147657000D03*
D14*
X190600000Y-145997000D03*
%TD*%
D12*
%TO.C,MK6*%
X277000000Y-127310000D03*
D13*
X274820000Y-126460000D03*
X275520000Y-126460000D03*
X274820000Y-128160000D03*
X275520000Y-128160000D03*
D14*
X277000000Y-126500000D03*
%TD*%
D16*
%TO.C,R1*%
X92380000Y-146000000D03*
X93400000Y-146000000D03*
%TD*%
D12*
%TO.C,MK1*%
X88990000Y-146807000D03*
D13*
X86810000Y-145957000D03*
X87510000Y-145957000D03*
X86810000Y-147657000D03*
X87510000Y-147657000D03*
D14*
X88990000Y-145997000D03*
%TD*%
D17*
%TO.C,C1*%
X84430000Y-146500000D03*
X85390000Y-146500000D03*
%TD*%
%TO.C,C6*%
X272020000Y-127000000D03*
X272980000Y-127000000D03*
%TD*%
D12*
%TO.C,MK4*%
X343500000Y-187275000D03*
D13*
X341320000Y-186425000D03*
X342020000Y-186425000D03*
X341320000Y-188125000D03*
X342020000Y-188125000D03*
D14*
X343500000Y-186465000D03*
%TD*%
D18*
%TO.C,R6*%
X267510000Y-126500000D03*
X266490000Y-126500000D03*
%TD*%
%TO.C,R2*%
X186510000Y-146000000D03*
X185490000Y-146000000D03*
%TD*%
D16*
%TO.C,R3*%
X247990000Y-146000000D03*
X249010000Y-146000000D03*
%TD*%
D17*
%TO.C,C2*%
X185540000Y-147500000D03*
X186500000Y-147500000D03*
%TD*%
D16*
%TO.C,R4*%
X346990000Y-186500000D03*
X348010000Y-186500000D03*
%TD*%
D17*
%TO.C,C5*%
X170020000Y-127500000D03*
X170980000Y-127500000D03*
%TD*%
%TO.C,C3*%
X239500000Y-146000000D03*
X240460000Y-146000000D03*
%TD*%
D18*
%TO.C,R5*%
X170020000Y-126500000D03*
X169000000Y-126500000D03*
%TD*%
M02*
