%TF.GenerationSoftware,KiCad,Pcbnew,9.0.2*%
%TF.CreationDate,2025-06-25T18:58:00+02:00*%
%TF.ProjectId,flex_mems,666c6578-5f6d-4656-9d73-2e6b69636164,rev?*%
%TF.SameCoordinates,Original*%
%TF.FileFunction,Profile,NP*%
%FSLAX46Y46*%
G04 Gerber Fmt 4.6, Leading zero omitted, Abs format (unit mm)*
G04 Created by KiCad (PCBNEW 9.0.2) date 2025-06-25 18:58:00*
%MOMM*%
%LPD*%
G01*
G04 APERTURE LIST*
%TA.AperFunction,Profile*%
%ADD10C,0.050000*%
%TD*%
G04 APERTURE END LIST*
D10*
X214000000Y-144500000D02*
X222500000Y-144500000D01*
X389000000Y-144500000D02*
X389000000Y-149500000D01*
X357500000Y-185000000D02*
X357500000Y-150000000D01*
X214000000Y-149500000D02*
X82000000Y-149500000D01*
X160000000Y-125000000D02*
X160000000Y-130000000D01*
X362500000Y-155000000D02*
X362500000Y-190000000D01*
X214000000Y-149500000D02*
X222500000Y-149500000D01*
X362500000Y-149500000D02*
X362500000Y-155000000D01*
X77500000Y-149500000D02*
X82000000Y-149500000D01*
X82000000Y-144500000D02*
X214000000Y-144500000D01*
X285000000Y-125000000D02*
X160000000Y-125000000D01*
X357500000Y-185000000D02*
X337500000Y-185000000D01*
X337500000Y-190000000D02*
X357500000Y-190000000D01*
X222500000Y-144500000D02*
X372500000Y-144500000D01*
X357500000Y-150000000D02*
X357500000Y-149500000D01*
X160000000Y-130000000D02*
X285000000Y-130000000D01*
X187500000Y-125000000D02*
X187250000Y-125000000D01*
X77500000Y-144500000D02*
X77500000Y-149500000D01*
X357500000Y-149500000D02*
X222500000Y-149500000D01*
X285000000Y-125000000D02*
X285000000Y-130000000D01*
X372500000Y-149500000D02*
X362500000Y-149500000D01*
X187250000Y-125000000D02*
X187000000Y-125000000D01*
X372500000Y-144500000D02*
X389000000Y-144500000D01*
X389000000Y-149500000D02*
X372500000Y-149500000D01*
X77500000Y-144500000D02*
X82000000Y-144500000D01*
X187000000Y-125000000D02*
X187500000Y-125000000D01*
X337500000Y-185000000D02*
X337500000Y-190000000D01*
X362500000Y-190000000D02*
X357500000Y-190000000D01*
M02*
