%TF.GenerationSoftware,KiCad,Pcbnew,9.0.2*%
%TF.CreationDate,2025-07-02T00:40:18+02:00*%
%TF.ProjectId,flex_mems,666c6578-5f6d-4656-9d73-2e6b69636164,rev?*%
%TF.SameCoordinates,Original*%
%TF.FileFunction,Copper,L2,Bot*%
%TF.FilePolarity,Positive*%
%FSLAX46Y46*%
G04 Gerber Fmt 4.6, Leading zero omitted, Abs format (unit mm)*
G04 Created by KiCad (PCBNEW 9.0.2) date 2025-07-02 00:40:18*
%MOMM*%
%LPD*%
G01*
G04 APERTURE LIST*
%TA.AperFunction,ViaPad*%
%ADD10C,0.800000*%
%TD*%
%TA.AperFunction,Conductor*%
%ADD11C,0.250000*%
%TD*%
%TA.AperFunction,Conductor*%
%ADD12C,0.200000*%
%TD*%
G04 APERTURE END LIST*
D10*
%TO.N,GNDR*%
X358100000Y-163200000D03*
%TO.N,+3V3L*%
X221600000Y-127200000D03*
%TO.N,GNDL*%
X225300000Y-127200000D03*
%TO.N,+3V3R*%
X135100000Y-146600000D03*
%TO.N,GNDR*%
X138900000Y-146600000D03*
%TO.N,+3V3R*%
X306900000Y-146400000D03*
%TO.N,GNDR*%
X310500000Y-146400000D03*
X238500000Y-146500000D03*
X82890000Y-146500000D03*
X91390000Y-147500000D03*
X379500000Y-148000000D03*
X246500000Y-146500000D03*
X194000000Y-146500000D03*
X184000000Y-146500000D03*
X347500000Y-188000000D03*
X384000000Y-145000000D03*
X338500000Y-189000000D03*
%TO.N,+3V3R*%
X339500000Y-185500000D03*
X356000000Y-149000000D03*
X363500000Y-147500000D03*
X187500000Y-147000000D03*
X83890000Y-148500000D03*
X383000000Y-148000000D03*
X239500000Y-147500000D03*
X360000000Y-174000000D03*
X358000000Y-147500000D03*
%TO.N,/MIC_DOUT_1*%
X359000000Y-181000000D03*
X360500000Y-146500000D03*
%TO.N,+3V3L*%
X165000000Y-129500000D03*
X271500000Y-128000000D03*
X171500000Y-128500000D03*
%TO.N,GNDL*%
X270500000Y-127000000D03*
X178500000Y-128000000D03*
X279500000Y-125500000D03*
X166500000Y-127000000D03*
X169000000Y-128000000D03*
%TD*%
D11*
%TO.N,+3V3L*%
X219300000Y-129500000D02*
X219100000Y-129500000D01*
X221600000Y-127200000D02*
X219300000Y-129500000D01*
X219100000Y-129500000D02*
X170500000Y-129500000D01*
%TO.N,GNDL*%
X226100000Y-127200000D02*
X227800000Y-125500000D01*
X227800000Y-125500000D02*
X269000000Y-125500000D01*
X225300000Y-127200000D02*
X226100000Y-127200000D01*
%TO.N,+3V3R*%
X132700000Y-149000000D02*
X132500000Y-149000000D01*
X135100000Y-146600000D02*
X132700000Y-149000000D01*
D12*
X132500000Y-149000000D02*
X185500000Y-149000000D01*
D11*
%TO.N,GNDR*%
X140500000Y-145000000D02*
X141100000Y-145000000D01*
X138900000Y-146600000D02*
X140500000Y-145000000D01*
X141100000Y-145000000D02*
X182500000Y-145000000D01*
%TO.N,+3V3R*%
X304300000Y-149000000D02*
X304200000Y-149000000D01*
X306900000Y-146400000D02*
X304300000Y-149000000D01*
D12*
X304200000Y-149000000D02*
X311000000Y-149000000D01*
D11*
%TO.N,GNDR*%
X311900000Y-145000000D02*
X247500000Y-145000000D01*
X310500000Y-146400000D02*
X311900000Y-145000000D01*
X93890000Y-145000000D02*
X91390000Y-147500000D01*
X379500000Y-148000000D02*
X376500000Y-145000000D01*
X236000000Y-145000000D02*
X237500000Y-146500000D01*
X349000000Y-189000000D02*
X348500000Y-189000000D01*
X383500000Y-145000000D02*
X384000000Y-145000000D01*
X349000000Y-189000000D02*
X361000000Y-189000000D01*
X348500000Y-189000000D02*
X347500000Y-188000000D01*
X195000000Y-145000000D02*
X194500000Y-145000000D01*
X194500000Y-145000000D02*
X182500000Y-145000000D01*
X195500000Y-145000000D02*
X194000000Y-146500000D01*
X195500000Y-145000000D02*
X195000000Y-145000000D01*
X93890000Y-145000000D02*
X141100000Y-145000000D01*
X237500000Y-146500000D02*
X238000000Y-146500000D01*
X349000000Y-189000000D02*
X347500000Y-189000000D01*
X247500000Y-145000000D02*
X246500000Y-146000000D01*
X364000000Y-145000000D02*
X311900000Y-145000000D01*
X364000000Y-145000000D02*
X376500000Y-145000000D01*
X195500000Y-145000000D02*
X236000000Y-145000000D01*
X246500000Y-145000000D02*
X236000000Y-145000000D01*
X361000000Y-189000000D02*
X362000000Y-188000000D01*
X247500000Y-145000000D02*
X246500000Y-145000000D01*
X238000000Y-146500000D02*
X238500000Y-146500000D01*
D12*
X84390000Y-145000000D02*
X82890000Y-146500000D01*
D11*
X246500000Y-146000000D02*
X246500000Y-146500000D01*
X362000000Y-188000000D02*
X362000000Y-147000000D01*
X376500000Y-145000000D02*
X383500000Y-145000000D01*
D12*
X84390000Y-145000000D02*
X93890000Y-145000000D01*
D11*
X347500000Y-189000000D02*
X338500000Y-189000000D01*
X362000000Y-147000000D02*
X364000000Y-145000000D01*
D12*
X184000000Y-146500000D02*
X182500000Y-145000000D01*
%TO.N,+3V3R*%
X238500000Y-147500000D02*
X239500000Y-147500000D01*
X365000000Y-149000000D02*
X381000000Y-149000000D01*
X363500000Y-147500000D02*
X365000000Y-149000000D01*
X185500000Y-149000000D02*
X187500000Y-147000000D01*
X237000000Y-149000000D02*
X257500000Y-149000000D01*
X382000000Y-148000000D02*
X383000000Y-148000000D01*
X358500000Y-185500000D02*
X339500000Y-185500000D01*
X86780000Y-149390000D02*
X98500000Y-149390000D01*
X355500000Y-147500000D02*
X358000000Y-147500000D01*
X85890000Y-148500000D02*
X86780000Y-149390000D01*
X360000000Y-174000000D02*
X360000000Y-184000000D01*
X346000000Y-149000000D02*
X354000000Y-149000000D01*
X83890000Y-148500000D02*
X85890000Y-148500000D01*
X354000000Y-149000000D02*
X355500000Y-147500000D01*
X185500000Y-149000000D02*
X237000000Y-149000000D01*
X360000000Y-184000000D02*
X358500000Y-185500000D01*
X381000000Y-149000000D02*
X382000000Y-148000000D01*
X354000000Y-149000000D02*
X356000000Y-149000000D01*
X311000000Y-149000000D02*
X346000000Y-149000000D01*
X257500000Y-149000000D02*
X304200000Y-149000000D01*
X98500000Y-149390000D02*
X98890000Y-149000000D01*
X98890000Y-149000000D02*
X132500000Y-149000000D01*
X237000000Y-149000000D02*
X238500000Y-147500000D01*
%TO.N,/MIC_DOUT_1*%
X359000000Y-148000000D02*
X359000000Y-181000000D01*
X360500000Y-146500000D02*
X359000000Y-148000000D01*
D11*
%TO.N,+3V3L*%
X269000000Y-129500000D02*
X219100000Y-129500000D01*
D12*
X171500000Y-128500000D02*
X170500000Y-129500000D01*
D11*
X270000000Y-129500000D02*
X271500000Y-128000000D01*
X269000000Y-129500000D02*
X270000000Y-129500000D01*
D12*
X165000000Y-129500000D02*
X170500000Y-129500000D01*
D11*
%TO.N,GNDL*%
X269000000Y-125500000D02*
X270500000Y-127000000D01*
X178500000Y-125500000D02*
X171000000Y-125500000D01*
X167000000Y-126500000D02*
X166500000Y-127000000D01*
D12*
X167500000Y-126500000D02*
X167000000Y-126500000D01*
D11*
X168000000Y-125500000D02*
X167000000Y-126500000D01*
X181000000Y-125500000D02*
X227800000Y-125500000D01*
X171000000Y-125500000D02*
X168000000Y-125500000D01*
X181000000Y-125500000D02*
X178500000Y-128000000D01*
D12*
X169000000Y-128000000D02*
X167500000Y-126500000D01*
D11*
X269000000Y-125500000D02*
X279500000Y-125500000D01*
X178500000Y-125500000D02*
X181000000Y-125500000D01*
%TD*%
%TA.AperFunction,Conductor*%
%TO.N,GNDR*%
G36*
X388932539Y-144530185D02*
G01*
X388978294Y-144582989D01*
X388989500Y-144634500D01*
X388989500Y-149365500D01*
X388969815Y-149432539D01*
X388917011Y-149478294D01*
X388865500Y-149489500D01*
X381659096Y-149489500D01*
X381592057Y-149469815D01*
X381546302Y-149417011D01*
X381536358Y-149347853D01*
X381565383Y-149284297D01*
X381571415Y-149277819D01*
X381649773Y-149199461D01*
X382200188Y-148649046D01*
X382261510Y-148615563D01*
X382331202Y-148620547D01*
X382375550Y-148649049D01*
X382425961Y-148699461D01*
X382425965Y-148699464D01*
X382573446Y-148798009D01*
X382573459Y-148798016D01*
X382696363Y-148848923D01*
X382737334Y-148865894D01*
X382737336Y-148865894D01*
X382737341Y-148865896D01*
X382911304Y-148900499D01*
X382911307Y-148900500D01*
X382911309Y-148900500D01*
X383088693Y-148900500D01*
X383088694Y-148900499D01*
X383146682Y-148888964D01*
X383262658Y-148865896D01*
X383262661Y-148865894D01*
X383262666Y-148865894D01*
X383426547Y-148798013D01*
X383574035Y-148699464D01*
X383699464Y-148574035D01*
X383798013Y-148426547D01*
X383865894Y-148262666D01*
X383866852Y-148257853D01*
X383900499Y-148088695D01*
X383900500Y-148088693D01*
X383900500Y-147911306D01*
X383900499Y-147911304D01*
X383865896Y-147737341D01*
X383865893Y-147737332D01*
X383798016Y-147573459D01*
X383798009Y-147573446D01*
X383699464Y-147425965D01*
X383699461Y-147425961D01*
X383574038Y-147300538D01*
X383574034Y-147300535D01*
X383426553Y-147201990D01*
X383426540Y-147201983D01*
X383262667Y-147134106D01*
X383262658Y-147134103D01*
X383088694Y-147099500D01*
X383088691Y-147099500D01*
X382911309Y-147099500D01*
X382911306Y-147099500D01*
X382737341Y-147134103D01*
X382737332Y-147134106D01*
X382573459Y-147201983D01*
X382573446Y-147201990D01*
X382425966Y-147300534D01*
X382394643Y-147331857D01*
X382363318Y-147363182D01*
X382336387Y-147377888D01*
X382310574Y-147394477D01*
X382304374Y-147395368D01*
X382301998Y-147396666D01*
X382275639Y-147399500D01*
X382086670Y-147399500D01*
X382086654Y-147399499D01*
X382079058Y-147399499D01*
X381920943Y-147399499D01*
X381853768Y-147417499D01*
X381768214Y-147440423D01*
X381768209Y-147440426D01*
X381631290Y-147519475D01*
X381631282Y-147519481D01*
X380787584Y-148363181D01*
X380726261Y-148396666D01*
X380699903Y-148399500D01*
X365300097Y-148399500D01*
X365233058Y-148379815D01*
X365212416Y-148363181D01*
X364436819Y-147587584D01*
X364403334Y-147526261D01*
X364400500Y-147499903D01*
X364400500Y-147411306D01*
X364400499Y-147411304D01*
X364365896Y-147237341D01*
X364365893Y-147237332D01*
X364298016Y-147073459D01*
X364298009Y-147073446D01*
X364199464Y-146925965D01*
X364199461Y-146925961D01*
X364074038Y-146800538D01*
X364074034Y-146800535D01*
X363926553Y-146701990D01*
X363926540Y-146701983D01*
X363762667Y-146634106D01*
X363762658Y-146634103D01*
X363588694Y-146599500D01*
X363588691Y-146599500D01*
X363411309Y-146599500D01*
X363411306Y-146599500D01*
X363237341Y-146634103D01*
X363237332Y-146634106D01*
X363073459Y-146701983D01*
X363073446Y-146701990D01*
X362925965Y-146800535D01*
X362925961Y-146800538D01*
X362800538Y-146925961D01*
X362800535Y-146925965D01*
X362701990Y-147073446D01*
X362701983Y-147073459D01*
X362634106Y-147237332D01*
X362634103Y-147237341D01*
X362599500Y-147411304D01*
X362599500Y-147588695D01*
X362634103Y-147762658D01*
X362634106Y-147762667D01*
X362701983Y-147926540D01*
X362701990Y-147926553D01*
X362800535Y-148074034D01*
X362800538Y-148074038D01*
X362925961Y-148199461D01*
X362925965Y-148199464D01*
X363073446Y-148298009D01*
X363073459Y-148298016D01*
X363143461Y-148327011D01*
X363237334Y-148365894D01*
X363237336Y-148365894D01*
X363237341Y-148365896D01*
X363411304Y-148400499D01*
X363411307Y-148400500D01*
X363411309Y-148400500D01*
X363499903Y-148400500D01*
X363566942Y-148420185D01*
X363587584Y-148436819D01*
X364428584Y-149277819D01*
X364462069Y-149339142D01*
X364457085Y-149408834D01*
X364415213Y-149464767D01*
X364349749Y-149489184D01*
X364340903Y-149489500D01*
X362495650Y-149489500D01*
X362489500Y-149495650D01*
X362489500Y-189865500D01*
X362469815Y-189932539D01*
X362417011Y-189978294D01*
X362365500Y-189989500D01*
X337634500Y-189989500D01*
X337567461Y-189969815D01*
X337521706Y-189917011D01*
X337510500Y-189865500D01*
X337510500Y-187214866D01*
X342889500Y-187214866D01*
X342889500Y-187335133D01*
X342912959Y-187453068D01*
X342912961Y-187453076D01*
X342958980Y-187564177D01*
X342958985Y-187564186D01*
X343025793Y-187664170D01*
X343025796Y-187664174D01*
X343110825Y-187749203D01*
X343110829Y-187749206D01*
X343210813Y-187816014D01*
X343210819Y-187816017D01*
X343210820Y-187816018D01*
X343321924Y-187862039D01*
X343439866Y-187885499D01*
X343439870Y-187885500D01*
X343439871Y-187885500D01*
X343560130Y-187885500D01*
X343560131Y-187885499D01*
X343678076Y-187862039D01*
X343789180Y-187816018D01*
X343889171Y-187749206D01*
X343974206Y-187664171D01*
X344041018Y-187564180D01*
X344087039Y-187453076D01*
X344110500Y-187335129D01*
X344110500Y-187214871D01*
X344087039Y-187096924D01*
X344041018Y-186985820D01*
X344041017Y-186985819D01*
X344041014Y-186985813D01*
X343974206Y-186885829D01*
X343974203Y-186885825D01*
X343889174Y-186800796D01*
X343889170Y-186800793D01*
X343789186Y-186733985D01*
X343789177Y-186733980D01*
X343678076Y-186687961D01*
X343678068Y-186687959D01*
X343560133Y-186664500D01*
X343560129Y-186664500D01*
X343439871Y-186664500D01*
X343439866Y-186664500D01*
X343321931Y-186687959D01*
X343321923Y-186687961D01*
X343210822Y-186733980D01*
X343210813Y-186733985D01*
X343110829Y-186800793D01*
X343110825Y-186800796D01*
X343025796Y-186885825D01*
X343025793Y-186885829D01*
X342958985Y-186985813D01*
X342958980Y-186985822D01*
X342912961Y-187096923D01*
X342912959Y-187096931D01*
X342889500Y-187214866D01*
X337510500Y-187214866D01*
X337510500Y-185134500D01*
X337530185Y-185067461D01*
X337582989Y-185021706D01*
X337634500Y-185010500D01*
X338542485Y-185010500D01*
X338609524Y-185030185D01*
X338655279Y-185082989D01*
X338665223Y-185152147D01*
X338657046Y-185181952D01*
X338634106Y-185237332D01*
X338634103Y-185237341D01*
X338599500Y-185411304D01*
X338599500Y-185588695D01*
X338634103Y-185762658D01*
X338634106Y-185762667D01*
X338701983Y-185926540D01*
X338701990Y-185926553D01*
X338800535Y-186074034D01*
X338800538Y-186074038D01*
X338925961Y-186199461D01*
X338925965Y-186199464D01*
X339073446Y-186298009D01*
X339073459Y-186298016D01*
X339196363Y-186348923D01*
X339237334Y-186365894D01*
X339237336Y-186365894D01*
X339237341Y-186365896D01*
X339411304Y-186400499D01*
X339411307Y-186400500D01*
X339411309Y-186400500D01*
X339588693Y-186400500D01*
X339588694Y-186400499D01*
X339646682Y-186388964D01*
X339762658Y-186365896D01*
X339762661Y-186365894D01*
X339762666Y-186365894D01*
X339926547Y-186298013D01*
X340074035Y-186199464D01*
X340136681Y-186136817D01*
X340198002Y-186103334D01*
X340224361Y-186100500D01*
X358413331Y-186100500D01*
X358413347Y-186100501D01*
X358420943Y-186100501D01*
X358579054Y-186100501D01*
X358579057Y-186100501D01*
X358731785Y-186059577D01*
X358781904Y-186030639D01*
X358868716Y-185980520D01*
X358980520Y-185868716D01*
X358980520Y-185868714D01*
X358990728Y-185858507D01*
X358990730Y-185858504D01*
X360358506Y-184490728D01*
X360358511Y-184490724D01*
X360368714Y-184480520D01*
X360368716Y-184480520D01*
X360480520Y-184368716D01*
X360559577Y-184231784D01*
X360600500Y-184079057D01*
X360600500Y-174724361D01*
X360620185Y-174657322D01*
X360636814Y-174636684D01*
X360699464Y-174574035D01*
X360798013Y-174426547D01*
X360865894Y-174262666D01*
X360900500Y-174088691D01*
X360900500Y-173911309D01*
X360900500Y-173911306D01*
X360900499Y-173911304D01*
X360865896Y-173737341D01*
X360865893Y-173737332D01*
X360798016Y-173573459D01*
X360798009Y-173573446D01*
X360699464Y-173425965D01*
X360699461Y-173425961D01*
X360574038Y-173300538D01*
X360574034Y-173300535D01*
X360426553Y-173201990D01*
X360426540Y-173201983D01*
X360262667Y-173134106D01*
X360262658Y-173134103D01*
X360088694Y-173099500D01*
X360088691Y-173099500D01*
X359911309Y-173099500D01*
X359911304Y-173099500D01*
X359748691Y-173131846D01*
X359679100Y-173125619D01*
X359623922Y-173082756D01*
X359600678Y-173016866D01*
X359600500Y-173010229D01*
X359600500Y-148300097D01*
X359620185Y-148233058D01*
X359636819Y-148212416D01*
X360412416Y-147436819D01*
X360473739Y-147403334D01*
X360500097Y-147400500D01*
X360588693Y-147400500D01*
X360588694Y-147400499D01*
X360646682Y-147388964D01*
X360762658Y-147365896D01*
X360762661Y-147365894D01*
X360762666Y-147365894D01*
X360926547Y-147298013D01*
X361074035Y-147199464D01*
X361199464Y-147074035D01*
X361298013Y-146926547D01*
X361365894Y-146762666D01*
X361370932Y-146737341D01*
X361400499Y-146588695D01*
X361400500Y-146588693D01*
X361400500Y-146411306D01*
X361400499Y-146411304D01*
X361365896Y-146237341D01*
X361365893Y-146237332D01*
X361298016Y-146073459D01*
X361298009Y-146073446D01*
X361199464Y-145925965D01*
X361199461Y-145925961D01*
X361074038Y-145800538D01*
X361074034Y-145800535D01*
X360926553Y-145701990D01*
X360926540Y-145701983D01*
X360762667Y-145634106D01*
X360762658Y-145634103D01*
X360588694Y-145599500D01*
X360588691Y-145599500D01*
X360411309Y-145599500D01*
X360411306Y-145599500D01*
X360237341Y-145634103D01*
X360237332Y-145634106D01*
X360073459Y-145701983D01*
X360073446Y-145701990D01*
X359925965Y-145800535D01*
X359925961Y-145800538D01*
X359800538Y-145925961D01*
X359800535Y-145925965D01*
X359701990Y-146073446D01*
X359701983Y-146073459D01*
X359634106Y-146237332D01*
X359634103Y-146237341D01*
X359599500Y-146411304D01*
X359599500Y-146499902D01*
X359579815Y-146566941D01*
X359563181Y-146587583D01*
X359011041Y-147139722D01*
X358949718Y-147173207D01*
X358880026Y-147168223D01*
X358824093Y-147126351D01*
X358808798Y-147099491D01*
X358804326Y-147088695D01*
X358798013Y-147073453D01*
X358798011Y-147073450D01*
X358798009Y-147073446D01*
X358699464Y-146925965D01*
X358699461Y-146925961D01*
X358574038Y-146800538D01*
X358574034Y-146800535D01*
X358426553Y-146701990D01*
X358426540Y-146701983D01*
X358262667Y-146634106D01*
X358262658Y-146634103D01*
X358088694Y-146599500D01*
X358088691Y-146599500D01*
X357911309Y-146599500D01*
X357911306Y-146599500D01*
X357737341Y-146634103D01*
X357737332Y-146634106D01*
X357573459Y-146701983D01*
X357573446Y-146701990D01*
X357425966Y-146800534D01*
X357404578Y-146821923D01*
X357363318Y-146863182D01*
X357301998Y-146896666D01*
X357275639Y-146899500D01*
X355420940Y-146899500D01*
X355380019Y-146910464D01*
X355380019Y-146910465D01*
X355342751Y-146920451D01*
X355268214Y-146940423D01*
X355268209Y-146940426D01*
X355131290Y-147019475D01*
X355131282Y-147019481D01*
X355063180Y-147087584D01*
X355019480Y-147131284D01*
X355019478Y-147131286D01*
X354388098Y-147762667D01*
X353787584Y-148363181D01*
X353726261Y-148396666D01*
X353699903Y-148399500D01*
X306084452Y-148399500D01*
X306017413Y-148379815D01*
X305971658Y-148327011D01*
X305961714Y-148257853D01*
X305990739Y-148194297D01*
X305996771Y-148187819D01*
X306847771Y-147336819D01*
X306909094Y-147303334D01*
X306935452Y-147300500D01*
X306988693Y-147300500D01*
X306988694Y-147300499D01*
X307046682Y-147288964D01*
X307162658Y-147265896D01*
X307162661Y-147265894D01*
X307162666Y-147265894D01*
X307316953Y-147201987D01*
X307326540Y-147198016D01*
X307326540Y-147198015D01*
X307326547Y-147198013D01*
X307474035Y-147099464D01*
X307599464Y-146974035D01*
X307698013Y-146826547D01*
X307765894Y-146662666D01*
X307767971Y-146652228D01*
X307796001Y-146511309D01*
X307800500Y-146488691D01*
X307800500Y-146311309D01*
X307800500Y-146311306D01*
X307800499Y-146311304D01*
X307765896Y-146137341D01*
X307765893Y-146137332D01*
X307698016Y-145973459D01*
X307698009Y-145973446D01*
X307599464Y-145825965D01*
X307599461Y-145825961D01*
X307474038Y-145700538D01*
X307474034Y-145700535D01*
X307326553Y-145601990D01*
X307326540Y-145601983D01*
X307162667Y-145534106D01*
X307162658Y-145534103D01*
X306988694Y-145499500D01*
X306988691Y-145499500D01*
X306811309Y-145499500D01*
X306811306Y-145499500D01*
X306637341Y-145534103D01*
X306637332Y-145534106D01*
X306473459Y-145601983D01*
X306473446Y-145601990D01*
X306325965Y-145700535D01*
X306325961Y-145700538D01*
X306200538Y-145825961D01*
X306200535Y-145825965D01*
X306101990Y-145973446D01*
X306101983Y-145973459D01*
X306034106Y-146137332D01*
X306034103Y-146137341D01*
X305999500Y-146311304D01*
X305999500Y-146364547D01*
X305979815Y-146431586D01*
X305963181Y-146452228D01*
X304052228Y-148363181D01*
X303990905Y-148396666D01*
X303964547Y-148399500D01*
X240173362Y-148399500D01*
X240106323Y-148379815D01*
X240060568Y-148327011D01*
X240050624Y-148257853D01*
X240079649Y-148194297D01*
X240085681Y-148187819D01*
X240199461Y-148074038D01*
X240199464Y-148074035D01*
X240298013Y-147926547D01*
X240365894Y-147762666D01*
X240370932Y-147737341D01*
X240400499Y-147588695D01*
X240400500Y-147588693D01*
X240400500Y-147411306D01*
X240400499Y-147411304D01*
X240365896Y-147237341D01*
X240365893Y-147237332D01*
X240298016Y-147073459D01*
X240298012Y-147073452D01*
X240293662Y-147066942D01*
X240208752Y-146939866D01*
X243389500Y-146939866D01*
X243389500Y-147060133D01*
X243412959Y-147178068D01*
X243412961Y-147178076D01*
X243458980Y-147289177D01*
X243458985Y-147289186D01*
X243525793Y-147389170D01*
X243525796Y-147389174D01*
X243610825Y-147474203D01*
X243610829Y-147474206D01*
X243710813Y-147541014D01*
X243710819Y-147541017D01*
X243710820Y-147541018D01*
X243821924Y-147587039D01*
X243939866Y-147610499D01*
X243939870Y-147610500D01*
X243939871Y-147610500D01*
X244060130Y-147610500D01*
X244060131Y-147610499D01*
X244178076Y-147587039D01*
X244289180Y-147541018D01*
X244389171Y-147474206D01*
X244474206Y-147389171D01*
X244541018Y-147289180D01*
X244587039Y-147178076D01*
X244610500Y-147060129D01*
X244610500Y-146939871D01*
X244587039Y-146821924D01*
X244541018Y-146710820D01*
X244541017Y-146710819D01*
X244541014Y-146710813D01*
X244474206Y-146610829D01*
X244474203Y-146610825D01*
X244389174Y-146525796D01*
X244389170Y-146525793D01*
X244289186Y-146458985D01*
X244289177Y-146458980D01*
X244178076Y-146412961D01*
X244178068Y-146412959D01*
X244060133Y-146389500D01*
X244060129Y-146389500D01*
X243939871Y-146389500D01*
X243939866Y-146389500D01*
X243821931Y-146412959D01*
X243821923Y-146412961D01*
X243710822Y-146458980D01*
X243710813Y-146458985D01*
X243610829Y-146525793D01*
X243610825Y-146525796D01*
X243525796Y-146610825D01*
X243525793Y-146610829D01*
X243458985Y-146710813D01*
X243458980Y-146710822D01*
X243412961Y-146821923D01*
X243412959Y-146821931D01*
X243389500Y-146939866D01*
X240208752Y-146939866D01*
X240199464Y-146925965D01*
X240199461Y-146925961D01*
X240074038Y-146800538D01*
X240074034Y-146800535D01*
X239926553Y-146701990D01*
X239926540Y-146701983D01*
X239762667Y-146634106D01*
X239762658Y-146634103D01*
X239588694Y-146599500D01*
X239588691Y-146599500D01*
X239411309Y-146599500D01*
X239411306Y-146599500D01*
X239237341Y-146634103D01*
X239237332Y-146634106D01*
X239073459Y-146701983D01*
X239073446Y-146701990D01*
X238925966Y-146800534D01*
X238904578Y-146821923D01*
X238863318Y-146863182D01*
X238801998Y-146896666D01*
X238775639Y-146899500D01*
X238420940Y-146899500D01*
X238380019Y-146910464D01*
X238380019Y-146910465D01*
X238342751Y-146920451D01*
X238268214Y-146940423D01*
X238268209Y-146940426D01*
X238131290Y-147019475D01*
X238131282Y-147019481D01*
X238063180Y-147087584D01*
X238019480Y-147131284D01*
X238019478Y-147131286D01*
X237388098Y-147762667D01*
X236787584Y-148363181D01*
X236726261Y-148396666D01*
X236699903Y-148399500D01*
X187249097Y-148399500D01*
X187182058Y-148379815D01*
X187136303Y-148327011D01*
X187126359Y-148257853D01*
X187155384Y-148194297D01*
X187161416Y-148187819D01*
X187412416Y-147936819D01*
X187473739Y-147903334D01*
X187500097Y-147900500D01*
X187588693Y-147900500D01*
X187588694Y-147900499D01*
X187646682Y-147888964D01*
X187762658Y-147865896D01*
X187762661Y-147865894D01*
X187762666Y-147865894D01*
X187926547Y-147798013D01*
X188074035Y-147699464D01*
X188199464Y-147574035D01*
X188298013Y-147426547D01*
X188365894Y-147262666D01*
X188370932Y-147237341D01*
X188400499Y-147088695D01*
X188400500Y-147088693D01*
X188400500Y-146911306D01*
X188400499Y-146911304D01*
X188371392Y-146764970D01*
X188367790Y-146746866D01*
X189989500Y-146746866D01*
X189989500Y-146867133D01*
X190012959Y-146985068D01*
X190012961Y-146985076D01*
X190058980Y-147096177D01*
X190058985Y-147096186D01*
X190125793Y-147196170D01*
X190125796Y-147196174D01*
X190210825Y-147281203D01*
X190210829Y-147281206D01*
X190310813Y-147348014D01*
X190310819Y-147348017D01*
X190310820Y-147348018D01*
X190421924Y-147394039D01*
X190508732Y-147411306D01*
X190539866Y-147417499D01*
X190539870Y-147417500D01*
X190539871Y-147417500D01*
X190660130Y-147417500D01*
X190660131Y-147417499D01*
X190778076Y-147394039D01*
X190889180Y-147348018D01*
X190989171Y-147281206D01*
X191074206Y-147196171D01*
X191141018Y-147096180D01*
X191187039Y-146985076D01*
X191210500Y-146867129D01*
X191210500Y-146746871D01*
X191187039Y-146628924D01*
X191141018Y-146517820D01*
X191141017Y-146517819D01*
X191141014Y-146517813D01*
X191074206Y-146417829D01*
X191074203Y-146417825D01*
X190989174Y-146332796D01*
X190989170Y-146332793D01*
X190889186Y-146265985D01*
X190889177Y-146265980D01*
X190778076Y-146219961D01*
X190778068Y-146219959D01*
X190660133Y-146196500D01*
X190660129Y-146196500D01*
X190539871Y-146196500D01*
X190539866Y-146196500D01*
X190421931Y-146219959D01*
X190421923Y-146219961D01*
X190310822Y-146265980D01*
X190310813Y-146265985D01*
X190210829Y-146332793D01*
X190210825Y-146332796D01*
X190125796Y-146417825D01*
X190125793Y-146417829D01*
X190058985Y-146517813D01*
X190058980Y-146517822D01*
X190012961Y-146628923D01*
X190012959Y-146628931D01*
X189989500Y-146746866D01*
X188367790Y-146746866D01*
X188365895Y-146737340D01*
X188365894Y-146737334D01*
X188334963Y-146662658D01*
X188298016Y-146573459D01*
X188298009Y-146573446D01*
X188199464Y-146425965D01*
X188199461Y-146425961D01*
X188074038Y-146300538D01*
X188074034Y-146300535D01*
X187926553Y-146201990D01*
X187926540Y-146201983D01*
X187762667Y-146134106D01*
X187762658Y-146134103D01*
X187588694Y-146099500D01*
X187588691Y-146099500D01*
X187411309Y-146099500D01*
X187411306Y-146099500D01*
X187237341Y-146134103D01*
X187237332Y-146134106D01*
X187073459Y-146201983D01*
X187073446Y-146201990D01*
X186925965Y-146300535D01*
X186925961Y-146300538D01*
X186800538Y-146425961D01*
X186800535Y-146425965D01*
X186701990Y-146573446D01*
X186701983Y-146573459D01*
X186634106Y-146737332D01*
X186634103Y-146737341D01*
X186599500Y-146911304D01*
X186599500Y-146999903D01*
X186579815Y-147066942D01*
X186563181Y-147087584D01*
X185287584Y-148363181D01*
X185226261Y-148396666D01*
X185199903Y-148399500D01*
X134484452Y-148399500D01*
X134417413Y-148379815D01*
X134371658Y-148327011D01*
X134361714Y-148257853D01*
X134390739Y-148194297D01*
X134396771Y-148187819D01*
X134638049Y-147946542D01*
X135047772Y-147536819D01*
X135109095Y-147503334D01*
X135135453Y-147500500D01*
X135188693Y-147500500D01*
X135188694Y-147500499D01*
X135246682Y-147488964D01*
X135362658Y-147465896D01*
X135362661Y-147465894D01*
X135362666Y-147465894D01*
X135522957Y-147399500D01*
X135526540Y-147398016D01*
X135526540Y-147398015D01*
X135526547Y-147398013D01*
X135674035Y-147299464D01*
X135799464Y-147174035D01*
X135898013Y-147026547D01*
X135965894Y-146862666D01*
X135973078Y-146826553D01*
X135996100Y-146710813D01*
X136000500Y-146688691D01*
X136000500Y-146511309D01*
X136000500Y-146511306D01*
X136000499Y-146511304D01*
X135965896Y-146337341D01*
X135965893Y-146337332D01*
X135898016Y-146173459D01*
X135898009Y-146173446D01*
X135799464Y-146025965D01*
X135799461Y-146025961D01*
X135674038Y-145900538D01*
X135674034Y-145900535D01*
X135526553Y-145801990D01*
X135526540Y-145801983D01*
X135362667Y-145734106D01*
X135362658Y-145734103D01*
X135188694Y-145699500D01*
X135188691Y-145699500D01*
X135011309Y-145699500D01*
X135011306Y-145699500D01*
X134837341Y-145734103D01*
X134837332Y-145734106D01*
X134673459Y-145801983D01*
X134673446Y-145801990D01*
X134525965Y-145900535D01*
X134525961Y-145900538D01*
X134400538Y-146025961D01*
X134400535Y-146025965D01*
X134301990Y-146173446D01*
X134301983Y-146173459D01*
X134234106Y-146337332D01*
X134234103Y-146337341D01*
X134199500Y-146511304D01*
X134199500Y-146564547D01*
X134179815Y-146631586D01*
X134163181Y-146652228D01*
X132468133Y-148347276D01*
X132451537Y-148356338D01*
X132437928Y-148369470D01*
X132408430Y-148379876D01*
X132406810Y-148380761D01*
X132404644Y-148381212D01*
X132324687Y-148397117D01*
X132300495Y-148399500D01*
X98810942Y-148399500D01*
X98658214Y-148440423D01*
X98647619Y-148446541D01*
X98647617Y-148446542D01*
X98521287Y-148519477D01*
X98521282Y-148519481D01*
X98287583Y-148753181D01*
X98226260Y-148786666D01*
X98199902Y-148789500D01*
X87080097Y-148789500D01*
X87013058Y-148769815D01*
X86992416Y-148753181D01*
X86377590Y-148138355D01*
X86377588Y-148138352D01*
X86258717Y-148019481D01*
X86258712Y-148019477D01*
X86132383Y-147946542D01*
X86132381Y-147946541D01*
X86121785Y-147940423D01*
X86108335Y-147936819D01*
X85969057Y-147899499D01*
X85810943Y-147899499D01*
X85803347Y-147899499D01*
X85803331Y-147899500D01*
X84614361Y-147899500D01*
X84547322Y-147879815D01*
X84526684Y-147863185D01*
X84464035Y-147800536D01*
X84464034Y-147800535D01*
X84464033Y-147800534D01*
X84316553Y-147701990D01*
X84316540Y-147701983D01*
X84152667Y-147634106D01*
X84152658Y-147634103D01*
X83978694Y-147599500D01*
X83978691Y-147599500D01*
X83801309Y-147599500D01*
X83801306Y-147599500D01*
X83627341Y-147634103D01*
X83627332Y-147634106D01*
X83463459Y-147701983D01*
X83463446Y-147701990D01*
X83315965Y-147800535D01*
X83315961Y-147800538D01*
X83190538Y-147925961D01*
X83190535Y-147925965D01*
X83091990Y-148073446D01*
X83091983Y-148073459D01*
X83024106Y-148237332D01*
X83024103Y-148237341D01*
X82989500Y-148411304D01*
X82989500Y-148588695D01*
X83024103Y-148762658D01*
X83024106Y-148762667D01*
X83091983Y-148926540D01*
X83091990Y-148926553D01*
X83190535Y-149074034D01*
X83190538Y-149074038D01*
X83315961Y-149199461D01*
X83315965Y-149199464D01*
X83410151Y-149262398D01*
X83454956Y-149316010D01*
X83463663Y-149385335D01*
X83433508Y-149448363D01*
X83374065Y-149485082D01*
X83341260Y-149489500D01*
X77634500Y-149489500D01*
X77567461Y-149469815D01*
X77521706Y-149417011D01*
X77510500Y-149365500D01*
X77510500Y-146746866D01*
X88379500Y-146746866D01*
X88379500Y-146867133D01*
X88402959Y-146985068D01*
X88402961Y-146985076D01*
X88448980Y-147096177D01*
X88448985Y-147096186D01*
X88515793Y-147196170D01*
X88515796Y-147196174D01*
X88600825Y-147281203D01*
X88600829Y-147281206D01*
X88700813Y-147348014D01*
X88700819Y-147348017D01*
X88700820Y-147348018D01*
X88811924Y-147394039D01*
X88898732Y-147411306D01*
X88929866Y-147417499D01*
X88929870Y-147417500D01*
X88929871Y-147417500D01*
X89050130Y-147417500D01*
X89050131Y-147417499D01*
X89168076Y-147394039D01*
X89279180Y-147348018D01*
X89379171Y-147281206D01*
X89464206Y-147196171D01*
X89531018Y-147096180D01*
X89577039Y-146985076D01*
X89600500Y-146867129D01*
X89600500Y-146746871D01*
X89577039Y-146628924D01*
X89531018Y-146517820D01*
X89531017Y-146517819D01*
X89531014Y-146517813D01*
X89464206Y-146417829D01*
X89464203Y-146417825D01*
X89379174Y-146332796D01*
X89379170Y-146332793D01*
X89279186Y-146265985D01*
X89279177Y-146265980D01*
X89168076Y-146219961D01*
X89168068Y-146219959D01*
X89050133Y-146196500D01*
X89050129Y-146196500D01*
X88929871Y-146196500D01*
X88929866Y-146196500D01*
X88811931Y-146219959D01*
X88811923Y-146219961D01*
X88700822Y-146265980D01*
X88700813Y-146265985D01*
X88600829Y-146332793D01*
X88600825Y-146332796D01*
X88515796Y-146417825D01*
X88515793Y-146417829D01*
X88448985Y-146517813D01*
X88448980Y-146517822D01*
X88402961Y-146628923D01*
X88402959Y-146628931D01*
X88379500Y-146746866D01*
X77510500Y-146746866D01*
X77510500Y-144634500D01*
X77530185Y-144567461D01*
X77582989Y-144521706D01*
X77634500Y-144510500D01*
X81995651Y-144510500D01*
X213995651Y-144510500D01*
X222495651Y-144510500D01*
X372495651Y-144510500D01*
X388865500Y-144510500D01*
X388932539Y-144530185D01*
G37*
%TD.AperFunction*%
%TA.AperFunction,Conductor*%
G36*
X357342678Y-148120185D02*
G01*
X357363315Y-148136814D01*
X357407667Y-148181166D01*
X357425966Y-148199465D01*
X357573446Y-148298009D01*
X357573459Y-148298016D01*
X357643461Y-148327011D01*
X357737334Y-148365894D01*
X357737336Y-148365894D01*
X357737341Y-148365896D01*
X357911304Y-148400499D01*
X357911307Y-148400500D01*
X357911309Y-148400500D01*
X358088693Y-148400500D01*
X358192681Y-148379815D01*
X358251308Y-148368153D01*
X358320900Y-148374380D01*
X358376077Y-148417243D01*
X358399322Y-148483132D01*
X358399500Y-148489770D01*
X358399500Y-180275638D01*
X358379815Y-180342677D01*
X358363181Y-180363319D01*
X358300538Y-180425961D01*
X358300535Y-180425965D01*
X358201990Y-180573446D01*
X358201983Y-180573459D01*
X358134106Y-180737332D01*
X358134103Y-180737341D01*
X358099500Y-180911304D01*
X358099500Y-181088695D01*
X358134103Y-181262658D01*
X358134106Y-181262667D01*
X358201983Y-181426540D01*
X358201990Y-181426553D01*
X358300535Y-181574034D01*
X358300538Y-181574038D01*
X358425961Y-181699461D01*
X358425965Y-181699464D01*
X358573446Y-181798009D01*
X358573459Y-181798016D01*
X358696363Y-181848923D01*
X358737334Y-181865894D01*
X358737336Y-181865894D01*
X358737341Y-181865896D01*
X358911304Y-181900499D01*
X358911307Y-181900500D01*
X358911309Y-181900500D01*
X359088693Y-181900500D01*
X359220004Y-181874380D01*
X359251308Y-181868153D01*
X359320900Y-181874380D01*
X359376077Y-181917243D01*
X359399322Y-181983132D01*
X359399500Y-181989770D01*
X359399500Y-183699903D01*
X359379815Y-183766942D01*
X359363181Y-183787584D01*
X358287584Y-184863181D01*
X358226261Y-184896666D01*
X358199903Y-184899500D01*
X357634500Y-184899500D01*
X357567461Y-184879815D01*
X357521706Y-184827011D01*
X357510500Y-184775500D01*
X357510500Y-149495651D01*
X357504349Y-149489500D01*
X356957515Y-149489500D01*
X356890476Y-149469815D01*
X356844721Y-149417011D01*
X356834777Y-149347853D01*
X356842954Y-149318048D01*
X356859617Y-149277819D01*
X356865894Y-149262666D01*
X356865948Y-149262398D01*
X356895134Y-149115668D01*
X356900500Y-149088691D01*
X356900500Y-148911309D01*
X356900500Y-148911306D01*
X356900499Y-148911304D01*
X356865896Y-148737341D01*
X356865893Y-148737332D01*
X356798016Y-148573459D01*
X356798009Y-148573446D01*
X356699464Y-148425965D01*
X356699461Y-148425961D01*
X356585681Y-148312181D01*
X356552196Y-148250858D01*
X356557180Y-148181166D01*
X356599052Y-148125233D01*
X356664516Y-148100816D01*
X356673362Y-148100500D01*
X357275639Y-148100500D01*
X357342678Y-148120185D01*
G37*
%TD.AperFunction*%
%TD*%
%TA.AperFunction,Conductor*%
%TO.N,GNDL*%
G36*
X284932539Y-125030185D02*
G01*
X284978294Y-125082989D01*
X284989500Y-125134500D01*
X284989500Y-129865500D01*
X284969815Y-129932539D01*
X284917011Y-129978294D01*
X284865500Y-129989500D01*
X270694451Y-129989500D01*
X270627412Y-129969815D01*
X270581657Y-129917011D01*
X270571713Y-129847853D01*
X270600738Y-129784297D01*
X270606770Y-129777819D01*
X270795895Y-129588695D01*
X271447772Y-128936819D01*
X271509095Y-128903334D01*
X271535453Y-128900500D01*
X271588693Y-128900500D01*
X271588694Y-128900499D01*
X271646682Y-128888964D01*
X271762658Y-128865896D01*
X271762661Y-128865894D01*
X271762666Y-128865894D01*
X271926547Y-128798013D01*
X272074035Y-128699464D01*
X272199464Y-128574035D01*
X272298013Y-128426547D01*
X272365894Y-128262666D01*
X272370932Y-128237341D01*
X272400499Y-128088695D01*
X272400500Y-128088693D01*
X272400500Y-127911306D01*
X272400499Y-127911304D01*
X272365896Y-127737341D01*
X272365893Y-127737332D01*
X272298016Y-127573459D01*
X272298009Y-127573446D01*
X272199464Y-127425965D01*
X272199461Y-127425961D01*
X272074038Y-127300538D01*
X272074034Y-127300535D01*
X271998204Y-127249866D01*
X276389500Y-127249866D01*
X276389500Y-127370133D01*
X276412959Y-127488068D01*
X276412961Y-127488076D01*
X276458980Y-127599177D01*
X276458985Y-127599186D01*
X276525793Y-127699170D01*
X276525796Y-127699174D01*
X276610825Y-127784203D01*
X276610829Y-127784206D01*
X276710813Y-127851014D01*
X276710819Y-127851017D01*
X276710820Y-127851018D01*
X276821924Y-127897039D01*
X276939866Y-127920499D01*
X276939870Y-127920500D01*
X276939871Y-127920500D01*
X277060130Y-127920500D01*
X277060131Y-127920499D01*
X277178076Y-127897039D01*
X277289180Y-127851018D01*
X277389171Y-127784206D01*
X277474206Y-127699171D01*
X277541018Y-127599180D01*
X277587039Y-127488076D01*
X277610500Y-127370129D01*
X277610500Y-127249871D01*
X277587039Y-127131924D01*
X277541018Y-127020820D01*
X277541017Y-127020819D01*
X277541014Y-127020813D01*
X277474206Y-126920829D01*
X277474203Y-126920825D01*
X277389174Y-126835796D01*
X277389170Y-126835793D01*
X277289186Y-126768985D01*
X277289177Y-126768980D01*
X277178076Y-126722961D01*
X277178068Y-126722959D01*
X277060133Y-126699500D01*
X277060129Y-126699500D01*
X276939871Y-126699500D01*
X276939866Y-126699500D01*
X276821931Y-126722959D01*
X276821923Y-126722961D01*
X276710822Y-126768980D01*
X276710813Y-126768985D01*
X276610829Y-126835793D01*
X276610825Y-126835796D01*
X276525796Y-126920825D01*
X276525793Y-126920829D01*
X276458985Y-127020813D01*
X276458980Y-127020822D01*
X276412961Y-127131923D01*
X276412959Y-127131931D01*
X276389500Y-127249866D01*
X271998204Y-127249866D01*
X271926553Y-127201990D01*
X271926540Y-127201983D01*
X271762667Y-127134106D01*
X271762658Y-127134103D01*
X271588694Y-127099500D01*
X271588691Y-127099500D01*
X271411309Y-127099500D01*
X271411306Y-127099500D01*
X271237341Y-127134103D01*
X271237332Y-127134106D01*
X271073459Y-127201983D01*
X271073446Y-127201990D01*
X270925965Y-127300535D01*
X270925961Y-127300538D01*
X270800538Y-127425961D01*
X270800535Y-127425965D01*
X270701990Y-127573446D01*
X270701983Y-127573459D01*
X270634106Y-127737332D01*
X270634103Y-127737341D01*
X270599500Y-127911304D01*
X270599500Y-127964547D01*
X270579815Y-128031586D01*
X270563181Y-128052228D01*
X269777229Y-128838181D01*
X269715906Y-128871666D01*
X269689548Y-128874500D01*
X221109452Y-128874500D01*
X221042413Y-128854815D01*
X220996658Y-128802011D01*
X220986714Y-128732853D01*
X221015739Y-128669297D01*
X221021771Y-128662819D01*
X221547771Y-128136819D01*
X221609094Y-128103334D01*
X221635452Y-128100500D01*
X221688693Y-128100500D01*
X221688694Y-128100499D01*
X221756369Y-128087038D01*
X221862658Y-128065896D01*
X221862661Y-128065894D01*
X221862666Y-128065894D01*
X222026547Y-127998013D01*
X222174035Y-127899464D01*
X222299464Y-127774035D01*
X222398013Y-127626547D01*
X222465894Y-127462666D01*
X222470429Y-127439871D01*
X222493888Y-127321931D01*
X222500500Y-127288691D01*
X222500500Y-127111309D01*
X222500500Y-127111306D01*
X222500499Y-127111304D01*
X222465896Y-126937341D01*
X222465893Y-126937332D01*
X222398016Y-126773459D01*
X222398009Y-126773446D01*
X222299464Y-126625965D01*
X222299461Y-126625961D01*
X222174038Y-126500538D01*
X222174034Y-126500535D01*
X222026553Y-126401990D01*
X222026540Y-126401983D01*
X221862667Y-126334106D01*
X221862658Y-126334103D01*
X221688694Y-126299500D01*
X221688691Y-126299500D01*
X221511309Y-126299500D01*
X221511306Y-126299500D01*
X221337341Y-126334103D01*
X221337332Y-126334106D01*
X221173459Y-126401983D01*
X221173446Y-126401990D01*
X221025965Y-126500535D01*
X221025961Y-126500538D01*
X220900538Y-126625961D01*
X220900535Y-126625965D01*
X220801990Y-126773446D01*
X220801983Y-126773459D01*
X220734106Y-126937332D01*
X220734103Y-126937341D01*
X220699500Y-127111304D01*
X220699500Y-127164548D01*
X220679815Y-127231587D01*
X220663181Y-127252229D01*
X219077229Y-128838181D01*
X219015906Y-128871666D01*
X218989548Y-128874500D01*
X172494743Y-128874500D01*
X172427704Y-128854815D01*
X172381949Y-128802011D01*
X172372005Y-128732853D01*
X172373126Y-128726308D01*
X172400500Y-128588693D01*
X172400500Y-128411306D01*
X172400499Y-128411304D01*
X172365896Y-128237341D01*
X172365893Y-128237332D01*
X172298016Y-128073459D01*
X172298009Y-128073446D01*
X172199464Y-127925965D01*
X172199461Y-127925961D01*
X172074038Y-127800538D01*
X172074034Y-127800535D01*
X171926553Y-127701990D01*
X171926540Y-127701983D01*
X171762667Y-127634106D01*
X171762658Y-127634103D01*
X171588694Y-127599500D01*
X171588691Y-127599500D01*
X171411309Y-127599500D01*
X171411306Y-127599500D01*
X171237341Y-127634103D01*
X171237332Y-127634106D01*
X171073459Y-127701983D01*
X171073446Y-127701990D01*
X170925965Y-127800535D01*
X170925961Y-127800538D01*
X170800538Y-127925961D01*
X170800535Y-127925965D01*
X170701990Y-128073446D01*
X170701983Y-128073459D01*
X170634106Y-128237332D01*
X170634103Y-128237341D01*
X170599500Y-128411304D01*
X170599500Y-128499902D01*
X170579815Y-128566941D01*
X170563181Y-128587583D01*
X170287584Y-128863181D01*
X170226261Y-128896666D01*
X170199903Y-128899500D01*
X165724361Y-128899500D01*
X165657322Y-128879815D01*
X165636684Y-128863185D01*
X165574035Y-128800536D01*
X165574034Y-128800535D01*
X165574033Y-128800534D01*
X165426553Y-128701990D01*
X165426540Y-128701983D01*
X165262667Y-128634106D01*
X165262658Y-128634103D01*
X165088694Y-128599500D01*
X165088691Y-128599500D01*
X164911309Y-128599500D01*
X164911306Y-128599500D01*
X164737341Y-128634103D01*
X164737332Y-128634106D01*
X164573459Y-128701983D01*
X164573446Y-128701990D01*
X164425965Y-128800535D01*
X164425961Y-128800538D01*
X164300538Y-128925961D01*
X164300535Y-128925965D01*
X164201990Y-129073446D01*
X164201983Y-129073459D01*
X164134106Y-129237332D01*
X164134103Y-129237341D01*
X164099500Y-129411304D01*
X164099500Y-129588695D01*
X164134103Y-129762658D01*
X164134106Y-129762667D01*
X164157046Y-129818048D01*
X164164515Y-129887517D01*
X164133240Y-129949996D01*
X164073151Y-129985648D01*
X164042485Y-129989500D01*
X160134500Y-129989500D01*
X160067461Y-129969815D01*
X160021706Y-129917011D01*
X160010500Y-129865500D01*
X160010500Y-127439866D01*
X174689500Y-127439866D01*
X174689500Y-127560133D01*
X174712959Y-127678068D01*
X174712961Y-127678076D01*
X174758980Y-127789177D01*
X174758985Y-127789186D01*
X174825793Y-127889170D01*
X174825796Y-127889174D01*
X174910825Y-127974203D01*
X174910829Y-127974206D01*
X175010813Y-128041014D01*
X175010819Y-128041017D01*
X175010820Y-128041018D01*
X175121924Y-128087039D01*
X175239866Y-128110499D01*
X175239870Y-128110500D01*
X175239871Y-128110500D01*
X175360130Y-128110500D01*
X175360131Y-128110499D01*
X175478076Y-128087039D01*
X175589180Y-128041018D01*
X175689171Y-127974206D01*
X175774206Y-127889171D01*
X175841018Y-127789180D01*
X175887039Y-127678076D01*
X175910500Y-127560129D01*
X175910500Y-127439871D01*
X175887039Y-127321924D01*
X175841018Y-127210820D01*
X175841017Y-127210819D01*
X175841014Y-127210813D01*
X175774206Y-127110829D01*
X175774203Y-127110825D01*
X175689174Y-127025796D01*
X175689170Y-127025793D01*
X175589186Y-126958985D01*
X175589177Y-126958980D01*
X175478076Y-126912961D01*
X175478068Y-126912959D01*
X175360133Y-126889500D01*
X175360129Y-126889500D01*
X175239871Y-126889500D01*
X175239866Y-126889500D01*
X175121931Y-126912959D01*
X175121923Y-126912961D01*
X175010822Y-126958980D01*
X175010813Y-126958985D01*
X174910829Y-127025793D01*
X174910825Y-127025796D01*
X174825796Y-127110825D01*
X174825793Y-127110829D01*
X174758985Y-127210813D01*
X174758980Y-127210822D01*
X174712961Y-127321923D01*
X174712959Y-127321931D01*
X174689500Y-127439866D01*
X160010500Y-127439866D01*
X160010500Y-125134500D01*
X160030185Y-125067461D01*
X160082989Y-125021706D01*
X160134500Y-125010500D01*
X186995651Y-125010500D01*
X187245651Y-125010500D01*
X187504349Y-125010500D01*
X284865500Y-125010500D01*
X284932539Y-125030185D01*
G37*
%TD.AperFunction*%
%TD*%
M02*
